<svg xmlns="http://www.w3.org/2000/svg" width="110" height="22" viewBox="0 0 110 22" fill="none">
  <path opacity="0.85" d="M17.1474 19.7419C17.0015 19.5498 16.9093 19.3271 16.7941 19.1197C16.3639 18.3285 15.9337 17.5296 15.5112 16.7307C15.3422 16.4081 15.1579 16.1008 15.0196 15.7628C14.9274 15.5401 14.8353 15.3173 14.8276 15.0715C14.8276 15.0254 14.8122 14.987 14.8045 14.9409C14.7661 14.7489 14.7661 14.5645 14.7892 14.3725C14.8429 13.9269 14.9582 13.5044 15.1886 13.1127C15.4344 12.6825 15.7801 12.3369 16.2026 12.068C16.4561 11.9067 16.7326 11.7915 17.0168 11.7146C17.4393 11.5994 17.8772 11.5764 18.3227 11.6762C18.7989 11.7761 19.2214 11.9681 19.6055 12.2524C19.6977 12.3215 19.7822 12.3983 19.859 12.4828C19.9896 12.6211 20.028 12.6134 20.1202 12.4444C20.2661 12.1755 20.4044 11.9067 20.5503 11.6378C20.8192 11.1308 21.0957 10.6239 21.3646 10.1169C21.7179 9.46395 22.0636 8.81101 22.417 8.15808C22.7473 7.53587 23.0776 6.92135 23.4156 6.29914C23.8688 5.44649 24.3297 4.59384 24.7906 3.74118C25.1593 3.05752 25.5203 2.36618 25.889 1.68253C26.2193 1.068 26.6802 0.576377 27.3255 0.292159C27.5252 0.207662 27.7249 0.123167 27.94 0.0924406C27.9861 0.0847591 28.0475 0.0924406 28.0552 0.015625C28.4163 0.015625 28.7696 0.015625 29.1306 0.015625C29.1076 0.0693959 29.1383 0.0847591 29.1844 0.0924406C29.7836 0.215346 30.2982 0.499563 30.713 0.937413C31.4121 1.68252 31.6809 2.57358 31.4889 3.59523C31.4197 3.97931 31.2584 4.3173 31.0741 4.65529C30.6439 5.46185 30.2137 6.26074 29.7836 7.05962C29.2382 8.0659 28.6928 9.07987 28.1551 10.0862C27.6404 11.0387 27.1334 11.9912 26.6188 12.9437C26.2424 13.6427 25.8813 14.3494 25.5049 15.0484C25.0901 15.8243 24.6677 16.5924 24.2452 17.3683C23.8611 18.0827 23.4847 18.797 23.0929 19.5037C23.0622 19.5652 23.0392 19.6343 22.9777 19.6727C22.9547 19.6574 22.947 19.6343 22.9547 19.6036C23.0392 19.3501 23.0084 19.0889 23.0238 18.8278C23.0392 18.3515 22.9086 17.9213 22.6935 17.5065C22.463 17.0764 22.248 16.6308 22.0098 16.2084C21.6565 15.5862 21.3339 14.9486 20.9882 14.3187C20.7808 13.9346 20.5734 13.5582 20.366 13.1741C20.2968 13.0436 20.2123 12.9283 20.1202 12.8131C20.0357 12.7056 19.9819 12.7056 19.9204 12.8285C19.8436 12.9821 19.7668 13.1281 19.69 13.2817C19.4749 13.6965 19.2522 14.1036 19.0294 14.5107C18.6914 15.1329 18.3688 15.7551 18.0154 16.3774C17.8157 16.7307 17.639 17.1071 17.4316 17.4605C17.1628 17.9137 17.0629 18.4053 17.0629 18.9199C17.0629 19.1581 17.0475 19.4039 17.1551 19.6343C17.1704 19.6651 17.1628 19.7035 17.1474 19.7419Z" fill="white"/>
  <path opacity="0.85" d="M11.4916 9.3871C11.4839 9.41014 11.4763 9.44087 11.4686 9.46392C11.4225 9.46392 11.4071 9.49464 11.4148 9.53305C11.4071 9.54841 11.4071 9.56378 11.3994 9.57914C11.3457 9.57914 11.3226 9.60218 11.3457 9.65595C11.2765 9.87872 11.1459 10.0708 11.0461 10.2705C10.6466 11.0233 10.2395 11.7607 9.84008 12.5135C9.38687 13.3585 8.92597 14.2034 8.47276 15.0561C8.02723 15.8934 7.5817 16.7307 7.13617 17.568C6.65992 18.4513 6.17598 19.3194 5.71508 20.2027C5.51536 20.5868 5.26187 20.9171 4.93924 21.2013C4.63966 21.4625 4.29399 21.6546 3.9176 21.7698C3.43366 21.9234 2.92668 21.9695 2.41969 21.8466C1.44413 21.6161 0.722069 21.0708 0.299583 20.149C0.207404 19.9416 0.130587 19.7342 0.0921797 19.5114C0.0844981 19.4576 0.0921787 19.3731 0 19.3655C0 19.0582 0 18.7509 0 18.4437C0.0921787 18.4513 0.0844981 18.3745 0.0921797 18.3284C0.122906 18.1825 0.161314 18.0442 0.207403 17.906C0.345671 17.5372 0.545391 17.1993 0.729748 16.8536C1.14455 16.0854 1.55936 15.3173 1.97416 14.5491C2.40433 13.7502 2.82682 12.9437 3.25698 12.1371C3.70251 11.3152 4.14804 10.4856 4.58589 9.66363C5.03911 8.81866 5.49232 7.96601 5.94553 7.12104C6.33729 6.39129 6.73673 5.66154 7.12081 4.93179C7.53561 4.14827 7.95042 3.36476 8.3729 2.58124C8.40363 2.52747 8.40363 2.41992 8.51117 2.41992C8.51117 2.75023 8.51117 3.08054 8.51117 3.41853C8.51117 3.4723 8.50349 3.53375 8.52653 3.58752C8.59567 3.81029 8.64944 4.04073 8.7493 4.25582C8.93366 4.6399 9.14874 5.01629 9.34846 5.39269C9.59427 5.8459 9.8324 6.30679 10.0782 6.76C10.2856 7.14408 10.4853 7.52816 10.6927 7.91224C10.9385 8.35777 11.1459 8.82635 11.4686 9.23347C11.4916 9.28724 11.4916 9.34101 11.4916 9.3871Z" fill="white"/>
  <path d="M103.967 0.0153641C103.944 0.122906 103.959 0.230449 103.959 0.337991C103.959 2.68087 103.959 5.02374 103.959 7.36662C103.959 7.42807 103.959 7.49721 103.967 7.55866C103.974 7.62779 104.013 7.64315 104.066 7.58938C104.159 7.4972 104.251 7.40503 104.343 7.30517C105.165 6.41411 105.995 5.53072 106.816 4.63198C106.901 4.5398 106.985 4.5014 107.108 4.5014C107.807 4.50908 108.506 4.5014 109.198 4.5014C109.252 4.5014 109.298 4.49371 109.351 4.51676C109.374 4.58589 109.313 4.61662 109.282 4.65503C108.914 5.04679 108.545 5.43855 108.168 5.83031C107.523 6.50629 106.886 7.18994 106.24 7.86592C106.11 8.00419 106.11 8.01955 106.233 8.1655C106.816 8.86452 107.4 9.57123 107.984 10.2703C108.476 10.8617 108.967 11.4455 109.467 12.0293C109.52 12.0908 109.566 12.1522 109.613 12.2214C109.613 12.2367 109.613 12.2444 109.613 12.2598C108.844 12.2598 108.076 12.2521 107.308 12.2598C107.147 12.2598 107.047 12.2214 106.939 12.0831C106.294 11.2458 105.641 10.4162 104.988 9.57891C104.696 9.20251 104.404 8.82612 104.113 8.4574C104.082 8.419 104.043 8.38059 104.013 8.34986C103.936 8.38827 103.959 8.44972 103.959 8.50349C103.959 8.78771 103.959 9.06425 103.959 9.34846C103.959 10.2242 103.959 11.0999 103.959 11.9756C103.959 12.014 103.959 12.0524 103.959 12.0908C103.951 12.2444 103.951 12.2521 103.79 12.2521C103.36 12.2521 102.93 12.2521 102.507 12.2521C102.377 12.2521 102.254 12.2521 102.123 12.2521C102.054 12.2521 102.015 12.2214 102.015 12.1522C102.015 12.0985 102.015 12.0524 102.015 11.9986C102.015 8.09637 102.015 4.18645 102.015 0.284219C102.015 0.19204 102.039 0.0921788 102.008 0C102.661 0.0153631 103.314 0.0153641 103.967 0.0153641Z" fill="white"/>
  <path d="M99.8966 21.9839C99.889 21.9301 99.8429 21.9378 99.8121 21.9224C99.4665 21.7842 99.236 21.546 99.1208 21.185C99.0747 21.0467 99.0593 20.9162 99.044 20.7779C99.0056 20.5014 99.0286 20.2325 99.0517 19.956C99.0977 19.449 99.3512 19.0803 99.8275 18.8959C100.365 18.6885 101.01 18.9113 101.264 19.3952C101.31 19.4797 101.341 19.5719 101.364 19.6641C101.379 19.7255 101.356 19.7639 101.287 19.7639C101.218 19.7639 101.149 19.7639 101.08 19.7639C101.003 19.7639 100.964 19.7255 100.941 19.641C100.872 19.4106 100.711 19.2723 100.465 19.2262C100.281 19.1955 100.096 19.1878 99.9197 19.2646C99.6892 19.3645 99.551 19.5565 99.4895 19.7947C99.3896 20.2018 99.382 20.6243 99.4972 21.0314C99.6047 21.4231 99.9043 21.6382 100.288 21.6152C100.795 21.5845 101.049 21.1773 101.034 20.7472C101.034 20.6627 100.972 20.6473 100.903 20.6473C100.734 20.6473 100.573 20.6473 100.404 20.6473C100.342 20.6473 100.258 20.6627 100.235 20.5859C100.212 20.4937 100.196 20.3938 100.25 20.3093C100.273 20.2632 100.327 20.2709 100.373 20.2709C100.665 20.2709 100.964 20.2709 101.256 20.2709C101.371 20.2709 101.402 20.3016 101.402 20.4245C101.402 20.8854 101.402 21.3463 101.402 21.8072C101.402 21.884 101.379 21.9224 101.295 21.9301C101.172 21.9378 101.118 21.9148 101.103 21.8303C101.087 21.7688 101.103 21.7074 101.064 21.6382C100.972 21.6536 100.934 21.7381 100.872 21.7842C100.765 21.8687 100.619 21.8917 100.511 21.9839C100.304 21.9839 100.096 21.9839 99.8966 21.9839Z" fill="white"/>
  <path d="M66.2153 21.9849C66.1999 21.9388 66.1615 21.9388 66.1231 21.9312C65.7006 21.8467 65.4164 21.478 65.3549 21.0862C65.3396 21.0094 65.378 20.9787 65.4471 20.9787C65.5162 20.9787 65.5854 20.9787 65.6545 20.9787C65.716 20.9787 65.739 21.0017 65.7544 21.0631C65.8081 21.2475 65.8773 21.4242 66.0616 21.5164C66.3996 21.6854 66.7299 21.7084 67.0526 21.4933C67.3521 21.2936 67.3137 20.8481 66.9834 20.7021C66.753 20.6023 66.4995 20.5946 66.2537 20.5562C66.0002 20.5101 65.762 20.4256 65.6007 20.2105C65.3549 19.8725 65.4087 19.4884 65.6929 19.1812C65.8619 19.0045 66.0693 18.9046 66.3228 18.8585C66.6608 18.8048 66.9604 18.8816 67.2369 19.0736C67.4443 19.2196 67.5365 19.427 67.5979 19.6574C67.6056 19.6881 67.6056 19.7189 67.5826 19.7496C67.5058 19.8418 67.4059 19.7957 67.3137 19.8034C67.2446 19.8111 67.2139 19.7726 67.1985 19.7112C67.1755 19.619 67.137 19.5345 67.0833 19.4577C66.9373 19.2426 66.7069 19.1965 66.4764 19.2119C66.269 19.2196 66.077 19.2733 65.9464 19.4731C65.7774 19.7266 65.8926 20.0415 66.1769 20.126C66.4227 20.2028 66.6762 20.2028 66.922 20.2643C67.1831 20.3334 67.4136 20.4409 67.5442 20.6868C67.7823 21.1246 67.621 21.6316 67.137 21.8697C67.0449 21.9158 66.922 21.9004 66.8528 21.9926C66.6454 21.9849 66.4303 21.9849 66.2153 21.9849Z" fill="white"/>
  <path d="M46.0102 21.9852C46.0102 21.9391 45.9718 21.9391 45.9488 21.9315C45.5954 21.8316 45.388 21.5935 45.2881 21.2401C45.2421 21.0865 45.2344 20.9405 45.2344 20.7869C45.2344 20.2185 45.2344 19.65 45.2344 19.0816C45.2344 19.0509 45.2344 19.0202 45.2344 18.9894C45.2344 18.9203 45.2728 18.8972 45.3419 18.8896C45.6108 18.8665 45.6415 18.8896 45.6415 19.1661C45.6415 19.7038 45.6415 20.2415 45.6415 20.7792C45.6415 20.9405 45.6415 21.1019 45.6953 21.2555C45.8259 21.6012 46.2637 21.6933 46.5095 21.6242C46.8859 21.5243 47.0472 21.3246 47.0549 20.9252C47.0626 20.326 47.0626 19.7192 47.0626 19.12C47.0626 18.8819 47.0626 18.8742 47.3161 18.8896C47.462 18.8972 47.4697 18.9049 47.4697 19.0432C47.4697 19.65 47.4697 20.2569 47.4697 20.8637C47.4697 21.0404 47.4236 21.2017 47.3622 21.363C47.2469 21.6626 47.0395 21.8546 46.7246 21.9315C46.6939 21.9391 46.6785 21.9468 46.6785 21.9776C46.4404 21.9852 46.2253 21.9852 46.0102 21.9852Z" fill="white"/>
  <path d="M39.2899 21.9847C39.2054 21.8848 39.0748 21.8694 38.9672 21.8157C38.7137 21.6697 38.5755 21.4546 38.491 21.1935C38.3527 20.771 38.3834 20.3331 38.4295 19.903C38.4756 19.4574 38.7137 19.1041 39.1516 18.9274C39.3744 18.8352 39.6048 18.8045 39.8583 18.866C40.1425 18.9351 40.373 19.0734 40.542 19.3115C40.6341 19.4421 40.6802 19.5803 40.7109 19.734C40.7263 19.8031 40.7033 19.8492 40.6265 19.8492C40.565 19.8492 40.4959 19.8492 40.4344 19.8492C40.3499 19.8492 40.3192 19.8108 40.2961 19.7263C40.2501 19.4651 40.0427 19.2808 39.7815 19.2423C39.4358 19.1886 39.1516 19.2731 38.9596 19.5803C38.8904 19.6879 38.8443 19.8031 38.8366 19.9337C38.8059 20.2563 38.7982 20.5713 38.8366 20.8939C38.8904 21.3394 39.1593 21.5699 39.5357 21.6313C39.8506 21.6774 40.2424 21.4623 40.2961 21.0936C40.3115 21.0168 40.3422 20.9784 40.419 20.9784C40.7186 20.9707 40.7647 20.94 40.6649 21.2626C40.5573 21.6083 40.3192 21.8157 39.9889 21.9309C39.9582 21.9463 39.9121 21.9309 39.9044 21.9847C39.697 21.9847 39.4896 21.9847 39.2899 21.9847Z" fill="white"/>
  <path d="M56.3454 21.9848C56.2609 21.8927 56.1226 21.8773 56.0228 21.8158C55.7693 21.6699 55.631 21.4471 55.5388 21.1783C55.4467 20.9401 55.462 20.6866 55.462 20.4408C55.462 20.1873 55.4467 19.9339 55.5312 19.6804C55.6694 19.2425 55.946 18.9737 56.3992 18.8661C56.7833 18.7739 57.1136 18.8738 57.4131 19.1042C57.6052 19.2579 57.705 19.473 57.7588 19.7034C57.7819 19.8033 57.7588 19.8263 57.659 19.8417C57.5975 19.8494 57.5284 19.8417 57.4669 19.8417C57.4055 19.8417 57.3747 19.8109 57.3517 19.7418C57.2518 19.3116 56.9369 19.1964 56.6219 19.2195C56.1764 19.2502 55.9229 19.5267 55.8845 19.9723C55.8538 20.2795 55.8538 20.5868 55.8845 20.894C55.9152 21.1629 56.0305 21.378 56.2609 21.5239C56.6988 21.8005 57.2826 21.547 57.3517 21.0861C57.3594 21.0246 57.3901 21.0016 57.4439 20.9862C57.7358 20.9248 57.7972 20.9862 57.7127 21.2628C57.6052 21.6084 57.3671 21.8158 57.0444 21.9387C57.0137 21.9541 56.9599 21.9387 56.9599 22.0002C56.7525 21.9848 56.5451 21.9848 56.3454 21.9848Z" fill="white"/>
  <path d="M42.6695 21.9848C42.6618 21.931 42.6157 21.9387 42.5773 21.931C42.1702 21.7927 41.9244 21.5085 41.8169 21.1014C41.7247 20.7634 41.7324 20.4177 41.7631 20.0721C41.7861 19.7571 41.8629 19.4499 42.0934 19.2194C42.4007 18.9121 42.754 18.7739 43.1919 18.8661C43.5913 18.9506 43.8678 19.1656 44.0138 19.5497C44.1136 19.8109 44.0675 19.8647 43.791 19.8493C43.7142 19.8416 43.6604 19.8186 43.6374 19.7341C43.5452 19.3807 43.3378 19.2348 42.9844 19.2194C42.585 19.204 42.3469 19.4345 42.2393 19.7264C42.1088 20.0797 42.1702 20.4485 42.1702 20.8095C42.1702 20.9862 42.2317 21.1475 42.3238 21.2934C42.6234 21.739 43.2917 21.7543 43.5836 21.2857C43.622 21.2243 43.6297 21.1705 43.6451 21.1091C43.6604 21.0169 43.7065 20.9708 43.7987 20.9785C43.8141 20.9785 43.8217 20.9785 43.8371 20.9785C44.0752 20.9708 44.106 21.0169 44.0291 21.2397C43.9139 21.593 43.6835 21.8235 43.3301 21.9387C43.2994 21.9464 43.2533 21.9464 43.2379 21.9924C43.0536 21.9848 42.8615 21.9848 42.6695 21.9848Z" fill="white"/>
  <path d="M46.5109 12.245C46.4494 12.2757 46.3956 12.2681 46.3419 12.2681C45.6889 12.2681 45.036 12.2681 44.3831 12.2681C44.2141 12.2681 44.1987 12.2527 44.1296 12.0991C43.8914 11.5153 43.661 10.9238 43.4152 10.3477C43.3384 10.171 43.2616 9.98663 43.2001 9.79459C43.1694 9.68705 43.1079 9.64864 43.0081 9.65632C42.9773 9.65632 42.9466 9.65632 42.9159 9.65632C41.4103 9.65632 39.9124 9.65632 38.4068 9.65632C38.184 9.65632 38.184 9.65632 38.1072 9.86373C37.8 10.6319 37.4927 11.3924 37.1931 12.1605C37.1547 12.2604 37.1009 12.2834 37.0088 12.2834C36.594 12.2834 36.1792 12.2834 35.7644 12.2834C35.5262 12.2834 35.2881 12.2834 35.0576 12.2834C34.9194 12.2834 34.881 12.2296 34.9424 12.1144C35.0884 11.8225 35.2113 11.5153 35.3419 11.2157C35.6184 10.5935 35.8796 9.97127 36.1561 9.35674C36.4173 8.75758 36.6785 8.1661 36.9396 7.56694C37.147 7.09836 37.3391 6.62211 37.5465 6.15353C37.7462 5.68496 37.9613 5.21638 38.161 4.7478C38.3914 4.21009 38.6219 3.68007 38.8523 3.14236C39.0521 2.68147 39.2595 2.22057 39.4592 1.75199C39.5744 1.49082 39.6896 1.23733 39.7972 0.976158C39.8356 0.876298 39.8894 0.837891 39.9969 0.837891C40.4962 0.845572 40.9955 0.837891 41.4948 0.837891C41.6023 0.837891 41.6484 0.876298 41.6868 0.976158C41.8789 1.45241 42.0863 1.92099 42.286 2.38957C42.4704 2.81973 42.6547 3.2499 42.8391 3.68007C43.0157 4.09487 43.2001 4.50199 43.3768 4.9168C43.638 5.52364 43.8914 6.13049 44.1526 6.72965C44.4061 7.31345 44.6673 7.89725 44.9208 8.48105C45.1512 9.01875 45.374 9.55646 45.6044 10.0865C45.7811 10.5013 45.9655 10.9084 46.1421 11.3232C46.265 11.6074 46.388 11.8917 46.5032 12.1759C46.5032 12.1836 46.5032 12.2066 46.5109 12.245ZM40.6882 3.30367C40.6345 3.34976 40.6037 3.41121 40.5807 3.47267C40.3963 3.9566 40.212 4.44054 40.0199 4.92448C39.8433 5.37001 39.6743 5.82323 39.4976 6.26876C39.3056 6.73733 39.1442 7.22127 38.9599 7.68985C38.8754 7.92029 38.8677 7.92797 39.1058 7.92797C40.1275 7.92797 41.1491 7.92797 42.1785 7.92797C42.2169 7.92797 42.2553 7.92797 42.2937 7.92797C42.3705 7.93565 42.3935 7.88956 42.3935 7.82043C42.3935 7.78202 42.3782 7.7513 42.3628 7.71289C42.2706 7.49012 42.1861 7.26736 42.1016 7.04459C41.8712 6.43775 41.6484 5.82323 41.418 5.21638C41.1799 4.57113 40.934 3.94892 40.6882 3.30367Z" fill="white"/>
  <path d="M58.8179 11.2695C58.7872 11.3617 58.7949 11.4385 58.7949 11.5076C58.7949 12.8826 58.7949 14.2576 58.7949 15.6326C58.7949 15.6633 58.7949 15.6941 58.7949 15.7248C58.7949 15.9399 58.7949 15.9399 58.5798 15.9399C58.0651 15.9399 57.5581 15.9399 57.0435 15.9399C56.8437 15.9399 56.8438 15.9322 56.8438 15.7325C56.8438 12.053 56.8438 8.37355 56.8438 4.69408C56.8438 4.66335 56.8438 4.63263 56.8438 4.6019C56.8438 4.54045 56.8745 4.50972 56.9359 4.50972C56.959 4.50972 56.9897 4.50972 57.0127 4.50972C57.5197 4.50972 58.0267 4.50972 58.526 4.50972C58.7027 4.50972 58.7027 4.5174 58.7027 4.70176C58.7027 4.93221 58.7027 5.16265 58.7027 5.3931C58.7027 5.45455 58.6873 5.52369 58.7257 5.57746C58.7795 5.6005 58.7872 5.54673 58.8025 5.52369C59.1482 5.03207 59.6014 4.69408 60.1775 4.50972C60.6999 4.34073 61.2222 4.27927 61.7599 4.32536C62.5051 4.38681 63.181 4.63263 63.7648 5.1012C64.3333 5.55441 64.7174 6.12285 64.9555 6.80651C65.1322 7.30581 65.2013 7.82048 65.2167 8.34282C65.2243 8.67313 65.1782 9.01112 65.1091 9.34911C65.0169 9.77927 64.8787 10.1787 64.6713 10.5628C64.2257 11.3847 63.5574 11.9532 62.6817 12.2681C62.2208 12.4294 61.7369 12.4755 61.2453 12.4525C60.9918 12.4371 60.7383 12.4294 60.4925 12.3526C60.0854 12.2374 59.709 12.0761 59.371 11.8149C59.1713 11.6459 59.0023 11.4615 58.8179 11.2695ZM60.9995 6.04603C60.7998 6.02299 60.6154 6.09212 60.431 6.12285C60.3542 6.13821 60.2851 6.16894 60.216 6.19198C59.2634 6.54534 58.8025 7.32885 58.7257 8.19687C58.7027 8.435 58.7334 8.68081 58.7795 8.91894C58.8794 9.40288 59.1021 9.81768 59.4708 10.1403C59.8549 10.4783 60.3005 10.6857 60.8228 10.7164C61.253 10.7395 61.6524 10.678 62.0365 10.4783C62.8354 10.0558 63.2118 9.37215 63.2809 8.49645C63.2963 8.30441 63.2655 8.12006 63.2271 7.92802C63.181 7.65148 63.0889 7.39031 62.9429 7.15218C62.5051 6.42243 61.8368 6.07676 60.9995 6.04603Z" fill="white"/>
  <path d="M49.0229 5.62332C49.0997 5.56187 49.1381 5.49274 49.1842 5.4236C49.4684 5.03184 49.8371 4.76299 50.2826 4.57863C50.8434 4.34818 51.4272 4.27136 52.0264 4.31745C52.8637 4.37891 53.6164 4.67081 54.254 5.23156C54.6304 5.56187 54.9223 5.96131 55.1297 6.41452C55.2526 6.67569 55.3371 6.95223 55.3986 7.23645C55.4984 7.66662 55.5445 8.10446 55.5292 8.54231C55.5215 8.84958 55.46 9.14916 55.3986 9.44874C55.3141 9.85586 55.1681 10.2399 54.9607 10.601C54.5075 11.3922 53.8623 11.9452 53.0019 12.2525C52.6947 12.36 52.3797 12.4292 52.0494 12.4292C51.8343 12.4292 51.6192 12.4369 51.3965 12.4215C50.5669 12.3677 49.8678 12.0374 49.2917 11.4459C49.2456 11.3999 49.2072 11.3 49.1304 11.3307C49.0382 11.3614 49.0843 11.4613 49.0843 11.5381C49.0843 12.9208 49.0843 14.3035 49.0843 15.6862C49.0843 15.9397 49.0843 15.9473 48.8385 15.9473C48.3623 15.9473 47.8937 15.9473 47.4174 15.9473C47.379 15.9473 47.3406 15.9473 47.3022 15.9473C47.21 15.9473 47.1562 15.9089 47.1562 15.8091C47.1562 15.763 47.1562 15.7169 47.1562 15.6785C47.1562 12.0374 47.1562 8.39637 47.1562 4.7553C47.1562 4.72458 47.1562 4.69385 47.1562 4.66312C47.1639 4.51717 47.1639 4.51717 47.3099 4.51717C47.8245 4.51717 48.3315 4.51717 48.8462 4.51717C48.9921 4.51717 48.9921 4.51717 48.9921 4.6708C48.9921 4.9243 48.9921 5.18547 48.9921 5.43896C48.9998 5.49273 48.9845 5.55419 49.0229 5.62332ZM53.578 8.381C53.5857 7.98924 53.5166 7.66662 53.3399 7.31326C52.9712 6.57583 52.3567 6.16871 51.5501 6.05349C51.0815 5.99203 50.636 6.0919 50.2212 6.31466C49.791 6.54511 49.4607 6.87541 49.261 7.32094C49.0613 7.76647 48.9768 8.22737 49.0536 8.71899C49.115 9.11843 49.238 9.49483 49.4914 9.81745C49.9062 10.3475 50.444 10.6471 51.1199 10.7008C51.7421 10.7469 52.2875 10.5779 52.7638 10.1862C53.3322 9.72528 53.5627 9.10307 53.578 8.381Z" fill="white"/>
  <path d="M66.1155 6.58259C66.0771 6.18315 66.1232 5.79138 66.1923 5.39963C66.4381 4.02463 67.0296 2.8263 68.105 1.90451C68.6427 1.44362 69.2419 1.10563 69.9179 0.882867C70.2021 0.790688 70.4863 0.721554 70.7782 0.65242C71.4004 0.514152 72.0303 0.491107 72.6602 0.537197C73.0058 0.560241 73.3515 0.629375 73.6895 0.729236C74.1043 0.852141 74.5038 1.00577 74.8725 1.22854C75.318 1.49739 75.6944 1.84306 76.0477 2.21946C76.1476 2.327 76.1399 2.34237 76.0247 2.42686C75.5869 2.74949 75.149 3.07979 74.7188 3.40242C74.5959 3.4946 74.5652 3.48692 74.45 3.37937C74.1658 3.10284 73.8739 2.84935 73.5128 2.67267C73.2517 2.54208 72.9674 2.45759 72.6832 2.41918C72.207 2.35005 71.7307 2.36541 71.2545 2.46527C70.6399 2.59586 70.0945 2.86471 69.626 3.27184C69.1574 3.67896 68.804 4.16289 68.5813 4.74669C68.4046 5.1999 68.3047 5.6608 68.2663 6.14474C68.2356 6.52113 68.2817 6.88217 68.3047 7.25088C68.3201 7.47365 68.3892 7.69642 68.4584 7.91918C68.5582 8.23413 68.6888 8.54139 68.8501 8.8256C69.2265 9.47086 69.7412 9.96247 70.4018 10.2928C70.7091 10.4464 71.0394 10.554 71.385 10.6231C71.7691 10.7076 72.1455 10.6999 72.5296 10.6692C72.8215 10.6461 73.1134 10.5463 73.3822 10.4234C73.8662 10.2083 74.2579 9.87029 74.5959 9.47085C74.7342 9.30954 74.7419 9.30954 74.9186 9.44013C75.3718 9.76276 75.8173 10.0777 76.2705 10.3926C76.4088 10.4925 76.4165 10.5232 76.3012 10.6615C75.7328 11.3759 75.0338 11.8982 74.1734 12.1901C73.8892 12.29 73.605 12.3668 73.3131 12.4206C72.8445 12.5128 72.376 12.5665 71.9074 12.5435C71.5617 12.5281 71.2084 12.4897 70.8627 12.4206C70.4479 12.3361 70.0484 12.2285 69.6567 12.0826C68.8808 11.783 68.2126 11.3298 67.6441 10.723C67.1679 10.216 66.8068 9.63217 66.5457 8.97924C66.392 8.57979 66.2691 8.17267 66.2 7.75787C66.1308 7.38147 66.0771 6.98203 66.1155 6.58259Z" fill="white"/>
  <path d="M77.1406 12.1901C77.1637 12.1056 77.156 12.0211 77.156 11.9443C77.156 8.08049 77.156 4.21667 77.156 0.352839C77.156 0.0609397 77.1253 0.0916659 77.4248 0.0839844C77.8934 0.0839844 78.362 0.0839844 78.8229 0.0839844C79.0303 0.0839844 79.038 0.091665 79.038 0.299067C79.038 1.97365 79.038 3.64823 79.038 5.32281C79.038 5.39962 79.0303 5.47644 79.0533 5.56094C79.1686 5.55326 79.207 5.4918 79.2146 5.39194C79.23 5.36122 79.2454 5.33817 79.2607 5.30745C79.2991 5.30745 79.3068 5.2844 79.3068 5.25367C79.3068 5.24599 79.3145 5.23063 79.3222 5.23063C79.3606 5.23063 79.3836 5.21526 79.376 5.16918C79.6679 4.81582 80.0289 4.56234 80.4667 4.42407C80.8662 4.30116 81.2733 4.27812 81.6804 4.30884C82.4255 4.36261 83.0631 4.63915 83.5547 5.22295C83.7852 5.49948 83.9311 5.81443 84.0387 6.1601C84.1616 6.5749 84.1923 6.99739 84.1923 7.42756C84.1923 8.96387 84.1923 10.5002 84.1923 12.0365C84.1923 12.0519 84.1923 12.0595 84.1923 12.0749C84.1923 12.2593 84.1923 12.2593 84.0156 12.2593C83.501 12.2593 82.9786 12.2593 82.4639 12.2593C82.2796 12.2593 82.2719 12.2516 82.2719 12.0595C82.2719 11.3144 82.2719 10.577 82.2719 9.83188C82.2719 9.47085 82.2642 9.1175 82.2719 8.75647C82.2796 8.31862 82.2565 7.88845 82.2181 7.4506C82.1797 7.08957 82.0645 6.73622 81.8187 6.44432C81.6036 6.19083 81.3194 6.06024 81.0045 6.04488C80.3438 5.99879 79.7754 6.19851 79.3913 6.77462C79.3452 6.77462 79.3299 6.78999 79.3376 6.83608C79.3299 6.8668 79.3145 6.89753 79.3068 6.92826C79.2607 6.92826 79.2454 6.94362 79.2607 6.98971C79.2531 7.0358 79.2454 7.07421 79.2223 7.11261C79.1762 7.1203 79.1762 7.14334 79.1916 7.18175C79.1839 7.21247 79.1839 7.2432 79.1762 7.27393C79.1225 7.32001 79.0841 7.36611 79.1225 7.44292C79.1225 7.51205 79.1225 7.58887 79.0994 7.65032C79.0764 7.66569 79.061 7.68105 79.061 7.71178C79.061 7.83468 79.0533 7.95759 79.0533 8.07281C79.0533 9.37868 79.0533 10.6922 79.0533 11.9981C79.0533 12.2055 79.0457 12.2132 78.8383 12.2132C78.4388 12.2132 78.047 12.2132 77.6476 12.2132C77.4863 12.2132 77.325 12.1978 77.1714 12.2285C77.156 12.2285 77.1483 12.2055 77.1406 12.1901Z" fill="white"/>
  <path d="M90.4305 9.07238C89.5394 9.07238 88.6484 9.07238 87.765 9.07238C87.7189 9.07238 87.6728 9.07238 87.6344 9.07238C87.5422 9.0647 87.5115 9.10311 87.5192 9.19529C87.5499 9.564 87.6882 9.88663 87.9263 10.1632C88.2259 10.5242 88.6023 10.747 89.0632 10.8391C89.6624 10.962 90.2308 10.9006 90.7685 10.601C91.0604 10.4397 91.3216 10.2169 91.5443 9.96344C91.6442 9.84822 91.6519 9.84822 91.7748 9.9404C92.1589 10.2246 92.5506 10.5165 92.9347 10.8084C93.0499 10.8929 93.0499 10.9083 92.9577 11.0158C92.4584 11.5996 91.8593 12.0221 91.1218 12.2449C90.6225 12.3985 90.1156 12.4676 89.5932 12.4292C89.501 12.4215 89.4012 12.4215 89.309 12.4215C88.8635 12.3985 88.441 12.2756 88.0339 12.122C87.4577 11.8992 86.9661 11.5535 86.5513 11.0926C86.3055 10.8161 86.1058 10.5088 85.9445 10.1785C85.6295 9.54096 85.5374 8.8573 85.5681 8.1506C85.5988 7.26722 85.8907 6.48369 86.4438 5.80004C86.8663 5.28537 87.3809 4.90129 88.0031 4.6478C88.6868 4.36358 89.4012 4.25604 90.1309 4.3175C91.0527 4.39431 91.8439 4.74766 92.4508 5.46973C92.7119 5.77699 92.9117 6.13034 93.0653 6.51442C93.1959 6.83705 93.2804 7.16736 93.3341 7.49766C93.3802 7.79725 93.434 8.1045 93.4186 8.41177C93.411 8.58076 93.4186 8.74207 93.4186 8.91107C93.4186 9.04934 93.4033 9.0647 93.2573 9.0647C92.8886 9.0647 92.5122 9.0647 92.1435 9.0647C91.5597 9.07238 90.9913 9.07238 90.4305 9.07238ZM89.478 7.61289C89.7929 7.61289 90.1079 7.61289 90.4151 7.61289C90.6994 7.61289 90.9913 7.61289 91.2755 7.61289C91.4291 7.61289 91.4368 7.60521 91.4368 7.44389C91.4368 7.32099 91.3984 7.20576 91.3753 7.09054C91.2832 6.66037 91.045 6.33006 90.684 6.08425C90.4382 5.91526 90.1617 5.85381 89.8774 5.79236C89.5164 5.71554 89.1707 5.75395 88.8327 5.84613C88.3488 5.96903 87.9878 6.29166 87.7496 6.72951C87.6191 6.95995 87.5269 7.21344 87.5038 7.48998C87.4962 7.58216 87.5269 7.62825 87.6191 7.62057C87.6651 7.62057 87.7112 7.62057 87.7496 7.62057C88.3334 7.61289 88.9096 7.61289 89.478 7.61289Z" fill="white"/>
  <path d="M11.1244 0.0845156C11.3395 0.10756 11.5623 0.0921953 11.785 0.0921953C11.8772 0.0921953 11.9694 0.138283 12.0539 0.0998749C12.0846 0.0998749 12.1076 0.107559 12.1384 0.107559C12.1768 0.215101 12.2613 0.169011 12.3304 0.169011C12.4533 0.153648 12.5532 0.222781 12.653 0.26887C13.2291 0.51468 13.69 0.898759 14.0127 1.43647C14.1893 1.72837 14.366 2.01259 14.4736 2.34289C14.4812 2.41203 14.4812 2.48116 14.4966 2.5503C14.5504 2.85756 14.535 3.1725 14.5043 3.48745C14.4812 3.69485 14.4121 3.90225 14.3353 4.10197C14.2738 4.27097 14.1817 4.41691 14.0972 4.57055C13.8667 5.00839 13.6363 5.45393 13.4058 5.89178C13.1447 6.37571 12.8835 6.85965 12.6223 7.34359C12.3534 7.84289 12.0769 8.34987 11.8157 8.85686C11.7466 8.98744 11.6391 9.0873 11.6237 9.24093C11.5776 9.24093 11.5315 9.24093 11.4854 9.24093C11.1628 8.84149 10.9554 8.36524 10.7096 7.91971C10.5022 7.53563 10.3025 7.15155 10.0951 6.76748C9.84926 6.31426 9.61113 5.85337 9.36532 5.40015C9.15792 5.02376 8.95052 4.64736 8.76616 4.26328C8.6663 4.0482 8.61253 3.81775 8.5434 3.59499C8.52803 3.54122 8.53571 3.47977 8.52803 3.426C8.52803 3.09569 8.52803 2.76538 8.52803 2.42739C8.52035 2.3813 8.52035 2.33521 8.5434 2.2968C8.70471 2.00491 8.85834 1.70532 9.02733 1.4211C9.36532 0.868032 9.84158 0.476275 10.4484 0.238147C10.6635 0.15365 10.8863 0.076834 11.1244 0.0845156Z" fill="white"/>
  <path d="M17.1478 19.7412C17.1631 19.7028 17.1708 19.6644 17.1554 19.6336C17.0479 19.4032 17.0633 19.1574 17.0633 18.9192C17.0633 18.4123 17.1631 17.913 17.432 17.4598C17.6394 17.1064 17.8084 16.7377 18.0158 16.3767C18.3614 15.7621 18.6841 15.1322 19.0297 14.51C19.2525 14.1029 19.4753 13.6881 19.6904 13.281C19.7672 13.135 19.8517 12.9814 19.9208 12.8278C19.9746 12.7125 20.036 12.7049 20.1205 12.8124C20.2127 12.9276 20.2972 13.0429 20.3663 13.1734C20.5737 13.5575 20.7811 13.9416 20.9885 14.318C21.3265 14.9479 21.6568 15.5855 22.0102 16.2077C22.2483 16.6378 22.4634 17.0757 22.6938 17.5058C22.9166 17.9206 23.0472 18.3508 23.0242 18.8271C23.0165 19.0882 23.0395 19.3494 22.955 19.6029C22.9473 19.626 22.955 19.649 22.9781 19.672C22.9166 19.9025 22.7783 20.0945 22.6631 20.2943C22.3943 20.8012 22.0179 21.216 21.5109 21.5003C21.1883 21.6846 20.8503 21.7998 20.4816 21.8613C20.1359 21.9227 19.7902 21.8997 19.4522 21.8382C19.0605 21.7614 18.6994 21.5924 18.3691 21.362C17.8775 21.024 17.5549 20.5554 17.3014 20.0331C17.2399 19.9409 17.1554 19.8564 17.1478 19.7412Z" fill="white"/>
  <path d="M94.3286 8.38891C94.3286 8.33514 94.3286 8.27369 94.3286 8.21992C94.3209 7.80511 94.4131 7.41335 94.5437 7.02927C94.705 6.53765 94.9508 6.10749 95.2888 5.71573C95.6959 5.24715 96.1875 4.90148 96.7559 4.66335C97.4242 4.38682 98.1233 4.27159 98.8453 4.32536C99.2217 4.35609 99.5828 4.43291 99.9438 4.56349C100.328 4.70176 100.681 4.90148 101.004 5.14729C101.096 5.22411 101.181 5.3086 101.265 5.3931C101.334 5.46224 101.342 5.51601 101.273 5.58514C101.134 5.72341 100.996 5.86168 100.858 6.00763C100.62 6.24576 100.382 6.48388 100.144 6.72201C100.036 6.82187 100.021 6.82187 99.9131 6.72201C99.6749 6.49925 99.4214 6.30721 99.1142 6.1843C98.8069 6.0614 98.4997 6.03067 98.1617 6.09981C97.8775 6.16126 97.6086 6.23807 97.3628 6.39171C96.9326 6.66056 96.633 7.0216 96.441 7.49785C96.2643 7.9357 96.2336 8.38891 96.3181 8.83444C96.4487 9.57187 96.8481 10.148 97.5471 10.4937C97.9927 10.7164 98.4536 10.7548 98.9221 10.6857C99.2755 10.6396 99.5904 10.4629 99.8593 10.2171C99.8823 10.1941 99.9054 10.171 99.9284 10.148C100.074 10.002 100.074 10.002 100.22 10.1557C100.443 10.3938 100.658 10.6319 100.881 10.8701C101.004 11.0083 101.134 11.1389 101.257 11.2695C101.35 11.377 101.35 11.3847 101.242 11.4846C100.973 11.7381 100.65 11.9224 100.32 12.0684C100.005 12.2067 99.6749 12.2988 99.337 12.3756C98.8453 12.4832 98.3537 12.4832 97.8698 12.4141C97.1093 12.3142 96.4103 12.0377 95.8034 11.5537C95.2427 11.1082 94.8509 10.5398 94.5897 9.87914C94.5052 9.66405 94.4592 9.4336 94.4054 9.20316C94.3286 8.91894 94.3363 8.65777 94.3286 8.38891Z" fill="white"/>
  <path opacity="0.85" d="M11.6328 9.23398C11.6482 9.08035 11.7634 8.97281 11.8249 8.8499C12.086 8.34292 12.3549 7.84362 12.6314 7.33663C12.8926 6.85269 13.1538 6.36876 13.4149 5.88482C13.6454 5.44697 13.8758 5.00144 14.1063 4.56359C14.1908 4.40996 14.2753 4.25633 14.3444 4.09501C14.4212 3.89529 14.4904 3.68789 14.5134 3.48049C14.5441 3.17323 14.5518 2.85828 14.5057 2.54334C14.4904 2.47421 14.498 2.40507 14.4827 2.33594C14.6056 2.45884 14.667 2.62015 14.7438 2.7661C15.0588 3.34222 15.3737 3.91834 15.6733 4.50214C15.9575 5.03985 16.2648 5.56219 16.526 6.11527C16.7564 6.61457 16.8563 7.14459 16.7795 7.6823C16.6181 8.80381 16.019 9.6411 14.9666 10.0866C14.1831 10.4246 13.3765 10.4093 12.5853 10.0559C12.2243 9.8946 11.9017 9.67183 11.6405 9.37993C11.6328 9.33384 11.6328 9.28007 11.6328 9.23398Z" fill="white"/>
  <path d="M97.735 20.4094C97.735 20.8626 97.735 21.3158 97.735 21.769C97.735 21.9226 97.735 21.9149 97.5737 21.9303C97.374 21.9534 97.2587 21.8919 97.1512 21.7075C96.7748 21.0546 96.3677 20.417 95.9759 19.7795C95.9529 19.7487 95.9452 19.7103 95.9145 19.6873C95.8761 19.6489 95.8223 19.6566 95.8069 19.7103C95.7916 19.7641 95.7992 19.8256 95.7992 19.8793C95.7992 20.4862 95.7992 21.093 95.7992 21.6999C95.7992 21.7536 95.7992 21.7997 95.7992 21.8535C95.7992 21.8996 95.7685 21.9226 95.7301 21.9226C95.7147 21.9226 95.7071 21.9226 95.6917 21.9226C95.4459 21.9457 95.4305 21.9303 95.4305 21.6845C95.4305 20.8318 95.4305 19.9792 95.4305 19.1342C95.4305 19.0881 95.4305 19.042 95.4305 19.0036C95.4228 18.9115 95.4689 18.873 95.5534 18.8807C95.5688 18.8807 95.5765 18.8807 95.5918 18.8807C95.7839 18.85 95.8991 18.9268 95.999 19.1035C96.383 19.7564 96.7825 20.4094 97.1742 21.0546C97.1973 21.0853 97.2203 21.1161 97.2357 21.1468C97.251 21.1698 97.2664 21.1929 97.2971 21.1775C97.3279 21.1698 97.3355 21.1468 97.3355 21.1161C97.3355 21.0623 97.3432 21.0162 97.3432 20.9624C97.3432 20.3479 97.3432 19.7334 97.3432 19.1189C97.3432 19.0728 97.3432 19.0267 97.3432 18.9883C97.3432 18.9191 97.374 18.8807 97.4508 18.8807C97.4585 18.8807 97.4661 18.8807 97.4661 18.8807C97.7119 18.8577 97.7273 18.873 97.7273 19.1189C97.735 19.549 97.735 19.9792 97.735 20.4094Z" fill="white"/>
  <path d="M48.8542 20.4095C48.8542 19.9639 48.8542 19.5107 48.8542 19.0652C48.8542 18.8808 48.8542 18.8808 49.0309 18.8808C49.3919 18.8808 49.7606 18.8731 50.1216 18.8885C50.3521 18.8962 50.5672 18.9576 50.7515 19.1113C51.1894 19.4569 51.151 20.2481 50.6517 20.517C50.6363 20.5247 50.6209 20.54 50.6056 20.5477C50.4904 20.6169 50.475 20.6399 50.5288 20.7551C50.6286 20.9779 50.7362 21.2007 50.836 21.4234C50.8975 21.5463 50.9512 21.6769 51.005 21.7998C51.0434 21.8997 51.0281 21.9227 50.9205 21.9304C50.8667 21.9304 50.8053 21.9304 50.7515 21.9304C50.6593 21.9381 50.6133 21.8843 50.5825 21.8075C50.4366 21.4849 50.2906 21.1622 50.1447 20.8396C50.0986 20.7321 50.0371 20.6783 49.9142 20.686C49.7452 20.6937 49.5686 20.686 49.3996 20.686C49.2613 20.686 49.2459 20.7014 49.2459 20.8396C49.2459 21.1315 49.2459 21.4311 49.2459 21.723C49.2459 21.9304 49.2459 21.9304 49.0309 21.9304C49.0155 21.9304 48.9924 21.9304 48.9771 21.9304C48.8926 21.9304 48.8388 21.9074 48.8542 21.8075C48.8619 21.7691 48.8542 21.7307 48.8542 21.6923C48.8542 21.2698 48.8542 20.8396 48.8542 20.4095ZM49.776 19.2572C49.6377 19.2495 49.4917 19.2495 49.3535 19.2495C49.2767 19.2495 49.2383 19.2803 49.2383 19.3648C49.2383 19.6336 49.2383 19.9025 49.2383 20.1713C49.2383 20.3019 49.269 20.325 49.3996 20.325C49.6223 20.325 49.8451 20.3326 50.0679 20.325C50.1985 20.3173 50.3367 20.2866 50.4443 20.2174C50.6209 20.1022 50.6978 19.8564 50.644 19.6183C50.5979 19.4339 50.4059 19.2803 50.1908 19.2572C50.0602 19.2495 49.9219 19.2572 49.776 19.2572Z" fill="white"/>
  <path d="M80.3359 20.4183C80.3359 19.9882 80.3359 19.558 80.3359 19.1355C80.3359 19.0817 80.3359 19.0357 80.3359 18.9819C80.3359 18.9051 80.3743 18.882 80.4435 18.882C80.8506 18.8897 81.2654 18.8667 81.6725 18.8974C82.0105 18.9204 82.3024 19.0587 82.4484 19.3967C82.6327 19.8038 82.5329 20.2801 82.1027 20.5412C81.9721 20.6181 81.9567 20.6488 82.0182 20.7717C82.1641 21.0866 82.3101 21.4016 82.456 21.7242C82.4714 21.7626 82.4945 21.8087 82.5098 21.8471C82.5252 21.9009 82.5098 21.9393 82.4484 21.9393C82.3716 21.9393 82.2947 21.9393 82.2179 21.9393C82.1488 21.9393 82.1104 21.9009 82.0797 21.8317C81.9414 21.5091 81.7878 21.2019 81.6572 20.8792C81.5957 20.7333 81.5189 20.6718 81.3576 20.6872C81.1963 20.7026 81.035 20.6872 80.8813 20.6949C80.7507 20.7026 80.7277 20.7256 80.7277 20.8562C80.7277 21.1634 80.7277 21.4707 80.7277 21.778C80.7277 21.947 80.7277 21.947 80.5587 21.947C80.5126 21.947 80.4665 21.947 80.4281 21.947C80.382 21.947 80.359 21.9162 80.359 21.8778C80.359 21.8317 80.359 21.7857 80.359 21.7473C80.3359 21.2864 80.3359 20.8562 80.3359 20.4183ZM81.2347 19.2584C81.2347 19.2507 81.2347 19.2507 81.2347 19.2584C81.1041 19.2584 80.9658 19.2584 80.8352 19.2584C80.7507 19.2584 80.7047 19.2891 80.7123 19.3813C80.72 19.6425 80.7123 19.9037 80.7123 20.1648C80.7123 20.3031 80.7431 20.3262 80.889 20.3262C81.1195 20.3262 81.3499 20.3262 81.5803 20.3262C81.7109 20.3262 81.8338 20.2878 81.9337 20.2186C82.1488 20.088 82.1795 19.8576 82.1411 19.6502C82.1027 19.4351 81.903 19.2738 81.6572 19.2584C81.5189 19.2507 81.3729 19.2584 81.2347 19.2584Z" fill="white"/>
  <path d="M89.8359 20.417C89.8359 19.9791 89.8359 19.5489 89.8359 19.1111C89.8359 19.065 89.8359 19.0189 89.8359 18.9805C89.8359 18.9191 89.859 18.8883 89.9281 18.8883C90.1893 18.8576 90.2123 18.873 90.2123 19.1418C90.2123 19.426 90.2123 19.7026 90.2123 19.9868C90.2123 20.1327 90.2431 20.1712 90.389 20.1712C90.7654 20.1788 91.1418 20.1712 91.5182 20.1712C91.6334 20.1712 91.6488 20.1558 91.6488 20.0175C91.6488 19.7026 91.6488 19.3876 91.6488 19.0804C91.6488 18.9037 91.6488 18.9037 91.8331 18.896C92.0482 18.896 92.0636 18.9037 92.0636 19.1188C92.0636 19.9868 92.0636 20.8548 92.0636 21.7305C92.0636 21.9379 92.0559 21.9456 91.8485 21.9456C91.8255 21.9456 91.7947 21.9456 91.7717 21.9456C91.6872 21.9533 91.6411 21.9149 91.6488 21.8227C91.6565 21.7305 91.6488 21.646 91.6488 21.5538C91.6488 21.2696 91.6488 20.9777 91.6488 20.6935C91.6488 20.5936 91.6181 20.5629 91.5182 20.5629C91.1264 20.5706 90.7347 20.5629 90.3506 20.5629C90.22 20.5629 90.2123 20.5706 90.2123 20.7089C90.2123 21.0699 90.2123 21.4233 90.2123 21.7843C90.2123 21.9533 90.2123 21.9533 90.0433 21.9533C90.0126 21.9533 89.9819 21.9533 89.9512 21.9533C89.8667 21.961 89.8359 21.9225 89.8436 21.8381C89.8436 21.5922 89.8436 21.3541 89.8436 21.1083C89.8359 20.8625 89.8359 20.6397 89.8359 20.417Z" fill="white"/>
  <path d="M70.5625 20.4098C70.5625 19.9643 70.5625 19.5111 70.5625 19.0655C70.5625 18.8889 70.5702 18.8812 70.7469 18.8812C71.3076 18.8812 71.876 18.8812 72.4368 18.8812C72.4906 18.8812 72.5674 18.8581 72.5904 18.9196C72.6288 19.0118 72.6288 19.1116 72.5981 19.2038C72.5751 19.2653 72.4983 19.2422 72.4445 19.2422C72.1065 19.2422 71.7685 19.2422 71.4305 19.2422C71.3153 19.2422 71.2001 19.2422 71.0848 19.2422C71.0003 19.2422 70.9696 19.2729 70.9696 19.3574C70.9696 19.5879 70.9696 19.8183 70.9696 20.0488C70.9696 20.1486 71.0157 20.1794 71.1156 20.1794C71.4766 20.1794 71.83 20.1794 72.191 20.1794C72.2448 20.1794 72.2909 20.1794 72.3446 20.1794C72.3984 20.1794 72.4291 20.2024 72.4291 20.2639C72.4291 20.2715 72.4291 20.2792 72.4291 20.2792C72.4291 20.5711 72.4368 20.5404 72.191 20.5404C71.83 20.5404 71.4766 20.5404 71.1156 20.5404C70.9773 20.5404 70.9696 20.5481 70.9696 20.6787C70.9696 20.9245 70.9696 21.178 70.9696 21.4238C70.9696 21.5544 70.9773 21.5621 71.1156 21.5621C71.5381 21.5621 71.9605 21.5621 72.383 21.5621C72.4291 21.5621 72.4752 21.5621 72.5136 21.5621C72.5751 21.5621 72.6058 21.5928 72.6135 21.6542C72.6135 21.685 72.6135 21.7157 72.6135 21.7464C72.6135 21.9154 72.6135 21.9154 72.4445 21.9154C71.8837 21.9154 71.3153 21.9154 70.7545 21.9154C70.5702 21.9154 70.5702 21.9154 70.5702 21.7157C70.5625 21.2932 70.5625 20.8553 70.5625 20.4098Z" fill="white"/>
  <path d="M77.0085 20.4104C77.0085 19.9649 77.0085 19.5117 77.0085 19.0661C77.0085 18.8818 77.0085 18.8818 77.1852 18.8818C77.7536 18.8818 78.3221 18.8818 78.8905 18.8818C78.9443 18.8818 79.0211 18.8587 79.0288 18.9432C79.0441 19.0354 79.0672 19.1353 79.0134 19.2198C78.9827 19.2659 78.9212 19.2428 78.8675 19.2428C78.4603 19.2428 78.0455 19.2428 77.6384 19.2428C77.3849 19.2428 77.408 19.2198 77.4003 19.4809C77.4003 19.6423 77.4003 19.8036 77.4003 19.9572C77.4003 20.1646 77.4003 20.1646 77.6 20.1646C77.9533 20.1646 78.3067 20.1646 78.6524 20.1646C78.7138 20.1646 78.7983 20.1416 78.829 20.203C78.8751 20.2798 78.8598 20.3797 78.8367 20.4642C78.8214 20.518 78.7676 20.5333 78.7138 20.5333C78.5756 20.5333 78.4296 20.5333 78.2913 20.5333C78.0455 20.5333 77.792 20.5333 77.5462 20.5333C77.408 20.5333 77.4003 20.541 77.4003 20.6716C77.4003 20.9174 77.4003 21.1709 77.4003 21.4167C77.4003 21.5473 77.408 21.555 77.5462 21.555C77.9764 21.555 78.4066 21.555 78.829 21.555C78.8905 21.555 78.9673 21.5242 79.0057 21.5857C79.0518 21.6702 79.0364 21.77 79.0211 21.8699C79.0211 21.893 78.9904 21.9083 78.9596 21.9083C78.9212 21.9083 78.8828 21.9083 78.8444 21.9083C78.2913 21.9083 77.7459 21.9083 77.1929 21.9083C77.1621 21.9083 77.1314 21.9083 77.1007 21.9083C77.0239 21.9083 76.9855 21.8699 76.9932 21.7931C77.0008 21.555 76.9932 21.3168 76.9932 21.0864C77.0085 20.8713 77.0085 20.6409 77.0085 20.4104Z" fill="white"/>
  <path d="M37.2835 21.9315C37.0838 21.9315 37.0761 21.9239 37.0223 21.7318C36.9762 21.5782 36.9148 21.4322 36.8687 21.2863C36.8533 21.2325 36.8226 21.2172 36.7688 21.2172C36.3847 21.2172 36.0007 21.2172 35.6166 21.2172C35.5475 21.2172 35.509 21.2556 35.4937 21.317C35.4476 21.463 35.3938 21.6089 35.3554 21.7549C35.3324 21.824 35.317 21.9008 35.2479 21.9239C35.1557 21.9546 35.0482 21.9469 34.9483 21.9315C34.8945 21.9239 34.9022 21.8701 34.9176 21.8317C35.0174 21.6089 35.0789 21.3785 35.1634 21.1557C35.2709 20.8484 35.3785 20.5489 35.486 20.2416C35.632 19.8268 35.7856 19.412 35.9239 18.9895C35.9469 18.9204 35.9853 18.882 36.0621 18.8896C36.0698 18.8896 36.0775 18.8896 36.0775 18.8896C36.4769 18.905 36.3617 18.8205 36.5077 19.1969C36.6459 19.5579 36.7688 19.919 36.8994 20.2877C37.0146 20.6026 37.1222 20.9176 37.2297 21.2325C37.2912 21.4015 37.3526 21.5628 37.4141 21.7318C37.4909 21.9239 37.4832 21.9315 37.2835 21.9315ZM36.7227 20.8408C36.5384 20.3261 36.3924 19.8345 36.185 19.3121C36.0007 19.8422 35.824 20.3261 35.678 20.8408C36.0314 20.8484 36.3617 20.8484 36.7227 20.8408Z" fill="white"/>
  <path d="M53.2073 21.2082C53.0383 21.2082 52.877 21.2082 52.708 21.2082C52.6158 21.2082 52.5543 21.2313 52.5313 21.3388C52.4929 21.4771 52.4468 21.6154 52.393 21.7536C52.37 21.8151 52.3623 21.9073 52.2855 21.9226C52.1933 21.9457 52.0934 21.9457 52.0013 21.9226C51.9398 21.9073 51.9629 21.8458 51.9782 21.8074C52.032 21.6461 52.0934 21.4848 52.1472 21.3235C52.2778 20.9548 52.4084 20.5784 52.539 20.2096C52.6772 19.8102 52.8232 19.4108 52.9615 19.0113C52.9999 18.9115 53.046 18.873 53.1535 18.873C53.5376 18.8884 53.4224 18.8193 53.5529 19.1649C53.6912 19.5183 53.8064 19.887 53.9293 20.2404C54.0907 20.7013 54.2596 21.1545 54.421 21.6154C54.4286 21.6307 54.4286 21.6538 54.4363 21.6691C54.467 21.746 54.5439 21.8381 54.4747 21.8919C54.3979 21.9534 54.275 21.9226 54.1751 21.9073C54.1214 21.8996 54.0983 21.8458 54.083 21.7997C54.0292 21.6461 53.9601 21.4925 53.9217 21.3311C53.8986 21.2159 53.8295 21.1929 53.7373 21.1929C53.5683 21.2159 53.3839 21.2082 53.2073 21.2082ZM53.2534 19.3493C53.0306 19.8332 52.877 20.3249 52.7003 20.8318C53.0536 20.8472 53.3839 20.8395 53.7527 20.8318C53.5837 20.3249 53.4147 19.8409 53.2534 19.3493Z" fill="white"/>
  <path d="M74.7291 21.3691C74.8596 21.0619 74.9365 20.7392 75.044 20.432C75.1592 20.0863 75.2744 19.7483 75.3743 19.395C75.405 19.2951 75.4434 19.1952 75.4665 19.0877C75.5126 18.8957 75.5279 18.8803 75.72 18.8803C75.7353 18.8803 75.7584 18.8803 75.7737 18.8803C75.889 18.888 75.912 18.911 75.8813 19.0109C75.8352 19.1645 75.7891 19.3182 75.7353 19.4641C75.6201 19.8098 75.4972 20.1554 75.3743 20.5011C75.236 20.9006 75.1054 21.2923 74.9672 21.6918C74.9441 21.7686 74.9595 21.8684 74.8673 21.9068C74.7751 21.9452 74.6753 21.9222 74.5831 21.9222C74.5063 21.9222 74.4756 21.8838 74.4525 21.8147C74.3296 21.4306 74.2067 21.0465 74.0684 20.6624C73.8764 20.1401 73.7304 19.6024 73.523 19.08C73.5077 19.0416 73.5077 18.9955 73.5 18.9494C73.5 18.9341 73.5077 18.911 73.5154 18.8957C73.5691 18.8342 73.8534 18.8803 73.8841 18.9571C73.9225 19.057 73.9532 19.1645 73.9916 19.2644C74.1376 19.6945 74.2835 20.1247 74.4218 20.5626C74.4986 20.8007 74.5754 21.0465 74.6522 21.2923C74.683 21.323 74.683 21.3538 74.7291 21.3691Z" fill="white"/>
  <path d="M58.5781 18.9041C58.7087 18.8657 58.8239 18.8811 58.9315 18.8811C59.016 18.8811 59.0467 18.9502 59.0774 19.0117C59.2925 19.3958 59.4999 19.7722 59.715 20.1562C59.738 20.1946 59.738 20.2638 59.8149 20.2561C59.8763 20.2561 59.8763 20.2023 59.8917 20.1639C60.0991 19.7952 60.3065 19.4265 60.5139 19.0501C60.6061 18.8888 60.752 18.835 60.921 18.8811C60.9594 18.8888 60.9671 18.9118 60.9671 18.9502C60.9671 18.9963 60.9287 19.027 60.9056 19.0655C60.6368 19.5494 60.3602 20.041 60.0837 20.5173C60.0223 20.6248 59.9992 20.7247 59.9992 20.8399C59.9992 21.1395 59.9992 21.4391 59.9992 21.7386C59.9992 21.9 59.9839 21.9153 59.8225 21.9153C59.546 21.9153 59.5844 21.923 59.5844 21.6772C59.5844 21.393 59.5844 21.1164 59.5844 20.8322C59.5844 20.7247 59.569 20.6325 59.5153 20.5403C59.2387 20.0564 58.9699 19.5724 58.6933 19.0885C58.6473 19.0501 58.6396 18.9733 58.5781 18.9041Z" fill="white"/>
  <path d="M83.3828 18.9128C83.5211 18.8744 83.6286 18.8898 83.7362 18.8898C83.813 18.8898 83.8437 18.9589 83.8821 19.0203C84.0665 19.3583 84.2585 19.6963 84.4429 20.0343C84.4736 20.0881 84.5043 20.1495 84.535 20.2033C84.5888 20.2878 84.6349 20.2878 84.681 20.2033C84.8269 19.9421 84.9652 19.681 85.1112 19.4198C85.188 19.2815 85.2648 19.1432 85.3416 19.005C85.3723 18.9512 85.4031 18.8974 85.4645 18.8974C85.5567 18.8898 85.6566 18.8974 85.7487 18.9051C85.7795 18.9051 85.7718 18.9435 85.7718 18.9742C85.7718 19.0203 85.7334 19.0587 85.718 19.0972C85.4492 19.5811 85.1803 20.0573 84.9038 20.5336C84.8423 20.6411 84.8116 20.741 84.8193 20.8562C84.8193 21.1558 84.8193 21.4554 84.8193 21.755C84.8193 21.9317 84.8039 21.9393 84.6349 21.9393C84.6195 21.9393 84.5965 21.9393 84.5811 21.9393C84.4121 21.9393 84.4121 21.9393 84.4121 21.7627C84.4121 21.4554 84.4121 21.1481 84.4121 20.8409C84.4121 20.741 84.3891 20.6565 84.343 20.572C84.0588 20.0804 83.7899 19.5888 83.5057 19.1048C83.4596 19.0434 83.4596 18.9743 83.3828 18.9128Z" fill="white"/>
  <path d="M87.8005 20.6017C87.8005 21.0011 87.8005 21.3929 87.8005 21.7923C87.8005 21.9306 87.8005 21.9306 87.6622 21.9383C87.6161 21.9383 87.57 21.9383 87.5316 21.9383C87.4471 21.9383 87.4011 21.8998 87.4011 21.8077C87.4011 21.6617 87.4011 21.5158 87.4011 21.3698C87.4011 20.7553 87.4011 20.1408 87.4011 19.5262C87.4011 19.4878 87.4011 19.4494 87.4011 19.411C87.3934 19.2574 87.3934 19.2574 87.2321 19.2574C87.0554 19.2574 86.871 19.2574 86.6944 19.2574C86.4946 19.2574 86.4946 19.2574 86.5023 19.05C86.5023 19.0269 86.5023 18.9962 86.5023 18.9732C86.5023 18.9194 86.533 18.8887 86.5868 18.8887C86.6175 18.8887 86.6483 18.8887 86.679 18.8887C87.2935 18.8887 87.908 18.8887 88.5226 18.8887C88.6916 18.8887 88.7146 18.9117 88.7223 19.0653C88.73 19.2267 88.7069 19.2497 88.5379 19.2497C88.3382 19.2497 88.1385 19.2497 87.9464 19.2497C87.8082 19.2497 87.8082 19.2574 87.8082 19.388C87.8005 19.7951 87.8005 20.2022 87.8005 20.6017Z" fill="white"/>
  <path d="M93.9539 20.4182C93.9539 20.856 93.9539 21.2862 93.9539 21.724C93.9539 21.9314 93.9539 21.9314 93.7388 21.9314C93.7234 21.9314 93.7004 21.9314 93.685 21.9314C93.5544 21.9238 93.5467 21.9238 93.5391 21.7855C93.5391 21.5397 93.5391 21.3016 93.5391 21.0557C93.5391 20.4105 93.5391 19.7652 93.5391 19.12C93.5391 19.0739 93.5391 19.0278 93.5391 18.9894C93.5391 18.9664 93.5391 18.928 93.5544 18.9203C93.6543 18.8511 93.7618 18.8895 93.8694 18.8895C93.9539 18.8972 93.9539 18.9664 93.9539 19.0355C93.9539 19.4349 93.9539 19.8267 93.9539 20.2261C93.9539 20.2953 93.9539 20.3567 93.9539 20.4182Z" fill="white"/>
  <path d="M64.0872 20.4091C64.0872 20.8623 64.0872 21.3155 64.0872 21.7687C64.0872 21.9301 64.0872 21.9301 63.9336 21.9301C63.9182 21.9301 63.9105 21.9301 63.8952 21.9301C63.7031 21.9301 63.7031 21.9301 63.7031 21.738C63.7031 20.8546 63.7031 19.9713 63.7031 19.0879C63.7031 19.0571 63.7031 19.0264 63.7031 18.9957C63.7031 18.9189 63.7339 18.8728 63.8183 18.8805C63.826 18.8805 63.8337 18.8805 63.8337 18.8805C64.0872 18.8651 64.0872 18.8651 64.0872 19.1186C64.0872 19.5565 64.0872 19.9789 64.0872 20.4091Z" fill="white"/>
</svg>