<svg width="83" height="14" viewBox="0 0 83 14" fill="none" xmlns="http://www.w3.org/2000/svg">
<path fill-rule="evenodd" clip-rule="evenodd" d="M65.2159 0.396299C64.3302 0.0783736 63.4089 0.00739363 62.4833 0C62.3955 0.00331277 62.3079 0.00625454 62.2205 0.00919106L62.2205 0.00919135C61.9177 0.0193625 61.6168 0.0294707 61.3151 0.0547144C60.5458 0.102138 59.7856 0.246723 59.0526 0.485024C58.0119 0.824548 57.127 1.52532 56.558 2.4606C56.0786 3.27833 55.7392 4.17047 55.554 5.10012C55.2981 6.24761 55.063 7.40102 54.8294 8.55295C54.6553 9.33051 54.6397 10.1352 54.7835 10.9189C54.8693 11.4215 55.0685 11.8979 55.366 12.3119C55.6635 12.726 56.0514 13.0668 56.5003 13.3085C57.2855 13.7448 58.1388 13.9148 59.026 13.971C59.7017 14.0077 60.379 13.9978 61.0533 13.9414C61.922 13.898 62.7788 13.7215 63.5938 13.418C64.3492 13.1252 65.0053 12.623 65.4851 11.9703C65.9654 11.2817 66.3194 10.5131 66.5305 9.70044C66.7558 8.93331 66.9129 8.14212 67.0695 7.35328L67.0695 7.3532L67.0695 7.3531L67.0695 7.35301L67.0696 7.35289C67.1031 7.1839 67.1367 7.01501 67.1708 6.8465C67.2182 6.60368 67.2716 6.36172 67.3251 6.11963C67.4585 5.51546 67.5921 4.91053 67.6322 4.28978C67.7034 3.53309 67.5685 2.77124 67.2418 2.08501C66.813 1.2303 66.1017 0.714225 65.2159 0.396299ZM61.0016 10.4679C60.792 10.4915 60.5811 10.5019 60.3702 10.499V10.5049C59.9712 10.522 59.5726 10.4648 59.1946 10.3363C58.9852 10.2677 58.8034 10.1334 58.6764 9.95329C58.5493 9.77322 58.4837 9.55698 58.4892 9.33667C58.4932 8.97354 58.5429 8.61236 58.6371 8.26164C58.7135 7.91441 58.7891 7.56685 58.8647 7.21924L58.8647 7.21919L58.8648 7.21915L58.8648 7.21911C59.0129 6.5379 59.1611 5.85649 59.3158 5.17702C59.405 4.69923 59.6607 4.26853 60.0375 3.9615C60.3054 3.76016 60.6178 3.62626 60.9483 3.57112C61.5746 3.44015 62.2218 3.4462 62.8456 3.58887C63.4844 3.75005 63.7698 4.1286 63.7698 4.78515C63.7613 5.0402 63.7251 5.29357 63.6618 5.54079C63.5988 5.83091 63.5369 6.12029 63.4751 6.40951L63.475 6.40988L63.4749 6.41015L63.4749 6.41032L63.4749 6.41049C63.3073 7.19412 63.1399 7.9767 62.952 8.77032C62.6947 9.85718 62.0781 10.3319 61.0016 10.4679ZM0 13.7715C0.0935886 13.4534 0.168149 13.1299 0.223287 12.8029C0.508188 11.475 0.79161 10.1476 1.07355 8.82073L2.12936 3.85961C2.19372 3.55904 2.25827 3.25856 2.32281 2.95811L2.32298 2.9573L2.32299 2.95729L2.32299 2.95727L2.32299 2.95725L2.323 2.95724L2.323 2.95722C2.51051 2.08433 2.69799 1.21162 2.88056 0.337285C2.90865 0.2042 2.96041 0.167233 3.09349 0.167233H10.1751C10.982 0.144136 11.7728 0.395404 12.4183 0.879975C12.6898 1.08093 12.9164 1.3364 13.0834 1.63001C13.2505 1.92361 13.3543 2.24887 13.3884 2.58494C13.4619 3.14859 13.4226 3.72123 13.2729 4.26957C13.1231 4.8179 12.8658 5.33099 12.5159 5.77899C12.1184 6.28976 11.5772 6.66984 10.9618 6.87029L10.7843 6.93831C10.9697 6.98649 11.1492 7.05492 11.3196 7.14238C11.5946 7.29037 11.8304 7.50165 12.0075 7.75877C12.1847 8.01589 12.2981 8.31148 12.3385 8.6211C12.5485 9.91203 12.4021 11.1497 11.6154 12.241C11.2091 12.7775 10.6505 13.179 10.0124 13.3929C9.14495 13.6976 8.23012 13.8454 7.31082 13.8292H0.184841C0.121804 13.8391 0.0572351 13.8293 0 13.8011V13.7715ZM6.62617 8.30022H5.09569C4.99809 8.30022 4.94781 8.32388 4.92563 8.42887C4.78762 9.1012 4.64615 9.77204 4.50124 10.4414C4.47462 10.5612 4.50124 10.5996 4.62249 10.5996H7.56368C7.78074 10.5982 7.99335 10.5379 8.17883 10.4251C8.73631 10.0983 8.86348 9.22146 8.7437 8.75862C8.66829 8.46288 8.45683 8.315 8.12559 8.315C7.70581 8.29389 7.28602 8.29469 6.86623 8.29548H6.86618C6.78617 8.29563 6.70617 8.29578 6.62617 8.29578V8.30022ZM7.06978 5.44332H8.40951C8.57134 5.44155 8.73156 5.411 8.8827 5.35312C9.49637 5.12244 9.67234 4.45258 9.60728 3.9646C9.59033 3.82998 9.53666 3.70261 9.45216 3.59646C9.36765 3.49031 9.25556 3.40945 9.12817 3.36276C8.98345 3.30035 8.82736 3.26863 8.66976 3.2696H6.19734C6.05834 3.2696 6.01249 3.31839 5.98736 3.44556C5.8661 4.06466 5.73992 4.68326 5.6088 5.30137C5.58367 5.42114 5.6088 5.44924 5.73154 5.44924C6.09678 5.43722 6.4591 5.4379 6.82166 5.43858C6.90533 5.43873 6.98901 5.43889 7.07274 5.43889L7.06978 5.44332ZM76.8786 8.562C76.8866 8.54799 76.8916 8.53243 76.8931 8.51637C76.8946 8.50031 76.8927 8.48411 76.8875 8.46884C76.8962 8.39981 76.9042 8.33095 76.9121 8.26239L76.9122 8.26192C76.9272 8.13239 76.9421 8.00392 76.9615 7.87735C77.0712 7.18176 77.2234 6.49439 77.3756 5.80684C77.447 5.48441 77.5184 5.16195 77.5855 4.83857C77.7817 3.88624 77.987 2.9339 78.1929 1.9792L78.1938 1.97507L78.1949 1.97032C78.308 1.44557 78.4213 0.920103 78.5333 0.393526L78.5342 0.389377C78.5777 0.183547 78.5777 0.183545 78.798 0.183545H82.1266C82.2431 0.183545 82.3015 0.183545 82.3247 0.212122C82.348 0.240858 82.3357 0.29849 82.311 0.414074L82.311 0.414186L82.3109 0.414272L82.31 0.418662C81.9344 2.1744 81.5613 3.93063 81.1906 5.68736C80.886 7.11581 80.5824 8.54524 80.2797 9.97566C80.1929 10.3835 80.1056 10.7914 80.0183 11.1993C79.8439 12.0143 79.6694 12.8294 79.4989 13.6444C79.4708 13.7745 79.4221 13.8203 79.286 13.8189H76.6243H74.6428C74.5511 13.8189 74.4949 13.8085 74.4624 13.6961C74.2714 12.8694 74.0753 12.0426 73.8792 11.2159L73.7615 10.7195C73.6718 10.3423 73.583 9.96405 73.494 9.58534L73.4935 9.58292L73.4929 9.58049L73.4923 9.57806L73.4918 9.57585L73.4914 9.57408C73.3013 8.76432 73.1106 7.95241 72.9097 7.14391C72.6739 6.21211 72.5039 5.26486 72.4011 4.30919C72.3752 4.05635 72.3466 3.80284 72.3181 3.54956C72.3042 3.42659 72.2904 3.30368 72.2768 3.18092C72.2663 3.30928 72.2623 3.4381 72.265 3.56687C72.2968 4.55722 72.2269 5.54822 72.0565 6.52432C71.8607 7.50872 71.6499 8.49075 71.4391 9.47272L71.4386 9.47501C71.3614 9.83459 71.2842 10.1942 71.2077 10.5538C71.1178 10.9765 71.0273 11.3974 70.937 11.8178L70.9363 11.821C70.8056 12.4291 70.6751 13.0362 70.5467 13.6459C70.5186 13.776 70.4713 13.8203 70.3368 13.8189H67.1117C66.9212 13.8189 66.8255 13.8189 66.7881 13.7722C66.7502 13.7249 66.772 13.6299 66.8159 13.4388C66.8151 13.429 66.8151 13.4191 66.8159 13.4093C67.0762 12.1819 67.3369 10.9546 67.5982 9.72724C67.9067 8.27414 68.2168 6.82105 68.5283 5.36795C68.8861 3.69207 69.2425 2.01618 69.5974 0.340289C69.624 0.219034 69.6699 0.185025 69.7911 0.185025H74.3752C74.523 0.185025 74.5763 0.239735 74.6058 0.375777C74.7089 0.832502 74.8171 1.28779 74.9252 1.74314L74.9252 1.74322L74.9253 1.74331L74.9253 1.74341L74.9253 1.74351L74.9253 1.74363L74.9268 1.74978C74.9732 1.94532 75.0197 2.14088 75.0657 2.33657L75.1939 2.87758C75.3762 3.64663 75.5586 4.41586 75.7371 5.18607C75.8247 5.56304 75.9162 5.93915 76.0077 6.31523C76.3161 7.58257 76.6244 8.84949 76.784 10.1472C76.8209 10.4427 76.8594 10.7309 76.8889 10.9526L76.889 10.9531C76.889 10.8842 76.8896 10.8124 76.8902 10.7383L76.8902 10.7365C76.8927 10.4403 76.8954 10.1066 76.8624 9.77012C76.8792 9.62272 76.8792 9.4739 76.8624 9.3265C76.8903 9.07264 76.8958 8.81682 76.8786 8.562ZM28.1745 9.53188H29.8677C29.9963 9.53188 30.0511 9.55258 30.0289 9.70193C30.0014 9.87362 30.0335 10.0495 30.1199 10.2005C30.2062 10.3514 30.3416 10.4682 30.5035 10.5315C30.823 10.6592 31.1636 10.726 31.5076 10.7282C32.0459 10.7721 32.5877 10.7388 33.1165 10.6291C33.9948 10.4206 34.3364 9.66349 34.2477 8.93152C34.2063 8.57662 33.9253 8.42431 33.6163 8.32968C33.2285 8.23192 32.8325 8.17102 32.4333 8.1478C32.1892 8.12104 31.9443 8.10114 31.6993 8.08124C31.1724 8.03843 30.6453 7.99561 30.1265 7.88458C29.4798 7.77042 28.8794 7.4733 28.3964 7.0284C28.0195 6.65737 27.7726 6.17448 27.6925 5.65171C27.5696 4.8537 27.6318 4.03813 27.8744 3.268C28.008 2.7297 28.2363 2.21947 28.5487 1.76118C29.0455 1.08789 29.7561 0.603058 30.5642 0.385965C31.2306 0.198275 31.9162 0.087148 32.6078 0.0547322C33.3561 -0.00144104 34.1073 -0.0118124 34.8569 0.023678C35.6324 0.0473298 36.3996 0.19099 37.1312 0.449549C38.2003 0.859156 38.8169 1.70055 38.8628 2.84361C38.8738 3.27999 38.8341 3.71618 38.7445 4.14341C38.7297 4.22474 38.7001 4.28093 38.5966 4.27205C38.5724 4.27205 38.5482 4.27388 38.5238 4.27571C38.499 4.27757 38.4741 4.27945 38.4487 4.27945H35.2517C35.239 4.27945 35.226 4.27864 35.2131 4.27782C35.1869 4.27617 35.1606 4.27451 35.1349 4.27945C35.0344 4.27945 35.0048 4.23361 35.024 4.14193C35.0555 3.97332 35.065 3.80133 35.0521 3.63029C35.0476 3.48424 34.9956 3.34363 34.9041 3.22972C34.8126 3.1158 34.6865 3.03477 34.5449 2.99887C34.3428 2.9373 34.1335 2.9025 33.9224 2.89536C33.85 2.893 33.7776 2.89 33.7052 2.887C33.2347 2.86752 32.7645 2.84805 32.3032 3.00183C32.0101 3.10009 31.7608 3.29806 31.5986 3.56125C31.4365 3.82443 31.3718 4.13615 31.4159 4.44211C31.4431 4.56752 31.5036 4.68328 31.5911 4.77721C31.6785 4.87115 31.7896 4.93979 31.9128 4.97593C32.2665 5.0942 32.6346 5.16384 33.007 5.18295C33.2535 5.20906 33.5004 5.23007 33.7472 5.25106C34.297 5.29783 34.8463 5.34456 35.3893 5.44764C36.1523 5.59552 36.868 5.8395 37.4388 6.40142C37.8171 6.78558 38.053 7.28747 38.1071 7.82396C38.2018 8.54409 38.0628 9.24057 37.8765 9.92966C37.7384 10.4712 37.56 11.0015 37.3426 11.5163C36.8547 12.6328 36.0118 13.3159 34.8421 13.6309C34.1773 13.8021 33.4973 13.9076 32.8118 13.9459C31.96 14.007 31.1052 14.0164 30.2522 13.974C29.4374 13.9311 28.6256 13.8261 27.864 13.5185C26.8851 13.1207 26.3247 12.4095 26.2093 11.3522C26.1596 10.7848 26.191 10.2132 26.3025 9.65461C26.3202 9.5511 26.3749 9.53632 26.4651 9.53632H28.1731L28.1745 9.53188ZM23.8561 0.169873H21.5005L19.1493 0.175789L19.1388 0.175772C19.063 0.175585 18.9935 0.175413 18.9497 0.263033C18.9074 0.34845 18.8615 0.430721 18.8147 0.51453L18.8147 0.514613L18.8146 0.514666L18.8146 0.514719C18.7829 0.571584 18.7507 0.629159 18.719 0.688907L16.6488 4.48775C15.9292 5.80973 15.209 7.13122 14.4884 8.45221C13.9699 9.3986 13.4528 10.345 12.9372 11.2914C12.5035 12.0889 12.0697 12.8859 11.6359 13.6825C11.5561 13.8303 11.562 13.8303 11.7202 13.8303H15.3017C15.3424 13.835 15.3834 13.8263 15.4187 13.8054C15.4539 13.7846 15.4814 13.7529 15.4969 13.715C15.6996 13.3175 15.9039 12.9206 16.1084 12.5236L16.1084 12.5235L16.1087 12.5229C16.3308 12.0917 16.5529 11.6603 16.773 11.2278C16.7886 11.185 16.818 11.1487 16.8566 11.1246C16.8952 11.1005 16.9407 11.09 16.986 11.0947H18.3701H21.1796C21.3687 11.0947 21.3689 11.0976 21.3836 11.2922L21.3837 11.2928C21.4014 11.5087 21.4221 11.732 21.4428 11.9524L21.4749 12.2947C21.5177 12.7514 21.5606 13.208 21.5996 13.6647C21.6099 13.7815 21.644 13.8303 21.7756 13.8303C23.0118 13.8244 24.249 13.8244 25.4872 13.8303C25.638 13.8303 25.669 13.7815 25.6513 13.644C25.6167 13.3841 25.5869 13.1241 25.5571 12.8641V12.8641V12.8641C25.5372 12.6908 25.5173 12.5175 25.496 12.3442C25.4413 11.9009 25.3859 11.4576 25.3304 11.0142L25.3302 11.0123C25.2313 10.2214 25.1323 9.43027 25.0376 8.63853C24.9511 7.92578 24.8657 7.21304 24.7803 6.50029C24.6949 5.78755 24.6095 5.07481 24.523 4.36206C24.4529 3.78095 24.382 3.20011 24.3111 2.61931L24.3111 2.6188L24.311 2.61836C24.2174 1.85161 24.1238 1.08492 24.0321 0.317746C24.0173 0.206841 23.9759 0.169873 23.8561 0.169873ZM20.792 2.99435L20.792 2.9943L20.792 2.99425C20.8209 2.90854 20.8497 2.82274 20.8795 2.73694L20.8738 2.80484C20.8328 3.29913 20.7923 3.78691 20.7937 4.27333C20.7948 4.69847 20.837 5.12104 20.8793 5.54429L20.8793 5.54435C20.8926 5.67756 20.9059 5.81084 20.9179 5.94429C20.9625 6.44263 21.0103 6.94408 21.0576 7.44169L21.085 7.72912C21.0893 7.77505 21.093 7.82349 21.0966 7.87165L21.0966 7.87177L21.0967 7.87187C21.1031 7.95697 21.1096 8.04119 21.119 8.10915C21.1338 8.21562 21.085 8.24519 20.9859 8.24519H18.4543C18.3065 8.24519 18.2946 8.22744 18.3597 8.09732C18.4616 7.89925 18.5632 7.70096 18.6648 7.50263L18.6653 7.50182L18.6659 7.50058C18.9373 6.97111 19.2088 6.44135 19.485 5.91472C19.9279 5.10291 20.3176 4.2632 20.6517 3.40089C20.7007 3.26582 20.7463 3.13019 20.792 2.99435ZM45.5016 0.169873H50.5811C50.7762 0.169873 50.7777 0.169872 50.7363 0.368022C50.6619 0.717902 50.587 1.06762 50.5121 1.41733L50.5121 1.41738C50.3622 2.11705 50.2124 2.81672 50.0665 3.5177C50.0413 3.63748 49.9763 3.64488 49.8801 3.64488H46.9064C46.8915 3.64488 46.8775 3.64484 46.8643 3.64481C46.7449 3.64452 46.6921 3.6444 46.6644 3.67075C46.6424 3.69172 46.6364 3.72947 46.6255 3.79726C46.6216 3.82208 46.6169 3.85092 46.6107 3.88443C46.1592 5.99704 45.7091 8.11013 45.2606 10.2237C45.025 11.3318 44.7894 12.4389 44.5538 13.5449C44.4931 13.8303 44.4917 13.8303 44.2048 13.8303H40.8777C40.6973 13.8303 40.6958 13.8303 40.7298 13.6499C40.9338 12.6957 41.1374 11.7424 41.3405 10.7901C41.6984 9.11419 42.0552 7.4383 42.4111 5.76241L42.8148 3.85042C42.8562 3.6567 42.8503 3.65079 42.6566 3.64931H39.6814C39.5646 3.64931 39.5143 3.63305 39.5453 3.49405C39.776 2.4412 40.0018 1.38736 40.2226 0.332534C40.2492 0.199448 40.3024 0.171353 40.4266 0.171353H45.5046L45.5016 0.169873ZM49.024 13.8291H50.7468L50.7527 13.835H52.505C52.6055 13.8365 52.6484 13.8069 52.6691 13.7019C52.8051 13.0335 52.9456 12.3681 53.0935 11.7027C53.4021 10.2722 53.7101 8.84281 54.0177 7.41437C54.3233 6.01549 54.624 4.61662 54.9197 3.21774C55.1248 2.25362 55.3318 1.29048 55.5408 0.328319C55.5689 0.221851 55.5556 0.167139 55.421 0.167139H51.9016C51.807 0.167139 51.7641 0.193752 51.7434 0.292827C51.5939 0.996127 51.4425 1.69892 51.291 2.40151C51.1833 2.90138 51.0755 3.40115 50.9686 3.90092C50.6856 5.22881 50.4022 6.55622 50.1183 7.88312L48.8762 13.6502C48.8348 13.8202 48.8436 13.8291 49.024 13.8291Z" fill="#7F828B"/>
</svg>
