<svg width="89" height="20" viewBox="0 0 89 20" fill="none" xmlns="http://www.w3.org/2000/svg">
<path fill-rule="evenodd" clip-rule="evenodd" d="M19.3539 10.045C19.5543 10.0444 19.7555 10.0438 19.9578 10.0438C20.1229 8.91943 19.8789 7.89409 19.5634 6.90911C19.1234 5.58776 18.4146 4.37183 17.4816 3.33788C15.585 1.18267 13.1638 0.159165 10.3648 0.00692468C9.64582 -0.0315394 8.91252 0.0970494 8.18704 0.224268L8.18702 0.224272C8.01301 0.254784 7.83946 0.285217 7.66666 0.313248C6.35519 0.524184 5.21064 1.10747 4.15412 1.88334C2.47214 3.11961 1.23037 4.70988 0.575551 6.68718C0.337332 7.40599 0.225654 8.16454 0.11417 8.92177C0.0780099 9.16739 0.0418704 9.41286 0.00143986 9.65679C-0.0169024 9.77234 0.144509 10.0328 0.228883 10.0328C0.945805 10.0548 1.66273 10.0533 2.36551 10.0519C2.54018 10.0515 2.71397 10.0511 2.88667 10.0511C2.94512 9.51895 3.03022 8.99004 3.14163 8.46638C3.27286 7.97477 3.45099 7.4969 3.67356 7.03935C4.12669 6.04153 4.81318 5.16735 5.67512 4.49057C6.53705 3.8138 7.54913 3.35427 8.62596 3.15079C9.94502 2.85995 11.3213 2.9757 12.5732 3.48278C13.6642 3.914 14.6323 4.60689 15.3924 5.50043C16.4141 6.71468 17.0175 8.10503 17.0634 9.71914C17.0854 9.7936 17.1262 9.86118 17.1817 9.91544C17.2372 9.9697 17.3058 10.0088 17.3807 10.0291C18.0346 10.0489 18.6895 10.0469 19.3538 10.045H19.3539ZM36.7354 10.9811C36.2695 10.2878 35.567 9.9283 34.7324 9.58896C34.8252 9.53679 34.9108 9.48977 34.9911 9.44568L34.9913 9.44557L34.9913 9.44554C35.1904 9.33622 35.3568 9.24489 35.5175 9.13774C36.3979 8.58747 36.873 7.83177 36.8858 6.75325C36.8968 5.80679 36.6712 5.00157 35.9375 4.38344C35.1268 3.71027 34.129 3.49934 33.122 3.46632C31.8396 3.42474 30.5542 3.43122 29.2688 3.43771C28.7966 3.44009 28.3243 3.44248 27.8522 3.44248C27.793 3.44248 27.7338 3.44874 27.6761 3.45485C27.6211 3.46066 27.5676 3.46632 27.5166 3.46632V16.4581H32.2305C33.2263 16.4416 34.2134 16.2695 35.1561 15.9482C37.4177 15.231 37.7149 12.4357 36.7354 10.9811ZM29.3551 13.1864V13.1863V13.1862V13.1861V13.1859V13.1858V13.1857V13.1856V13.1855V13.1854V13.1852V13.1851V13.185C29.352 13.0122 29.349 12.8394 29.349 12.6668C29.349 12.4531 29.3507 12.2395 29.3525 12.026C29.3554 11.6601 29.3584 11.2946 29.3526 10.9298C29.3435 10.5868 29.4554 10.4327 29.8222 10.4327C30.1831 10.438 30.5448 10.4329 30.9064 10.4278H30.9065C31.5372 10.4189 32.1676 10.4099 32.7937 10.4565C33.6814 10.5207 34.5894 10.6601 35.0607 11.6029C35.6422 12.7603 35.213 14.424 33.7768 14.6551C33.44 14.7268 33.0986 14.7752 32.7551 14.8C32.3597 14.8077 31.9643 14.8047 31.5692 14.8018H31.5691C31.0184 14.7978 30.4683 14.7938 29.9194 14.8183C29.4315 14.8403 29.3178 14.6698 29.349 14.2222C29.3673 13.8788 29.3612 13.533 29.3551 13.1869V13.1869V13.1868V13.1868V13.1868V13.1867V13.1867V13.1866V13.1866V13.1865V13.1865V13.1865V13.1864ZM31.495 5.09328V5.11162C31.6564 5.11162 31.8184 5.10776 31.9804 5.1039L31.9804 5.1039C32.3541 5.09499 32.7284 5.08607 33.0981 5.12446C34.206 5.22901 34.7764 5.71508 34.969 6.77526C35.1176 7.59699 34.294 8.68285 33.4375 8.74705C32.5684 8.81359 31.6964 8.84441 30.8244 8.87523L30.8242 8.87524L30.8239 8.87525L30.8237 8.87526L30.8234 8.87527L30.8232 8.87527L30.823 8.87528L30.8227 8.87529L30.8225 8.8753L30.8222 8.87531L30.822 8.87532L30.8218 8.87533L30.8215 8.87533C30.4927 8.88696 30.1638 8.89858 29.835 8.91214C29.5012 8.92497 29.3471 8.78741 29.3471 8.42056C29.3636 7.4576 29.3673 6.49463 29.3471 5.53166C29.3398 5.18132 29.4664 5.08044 29.7984 5.09328C30.1749 5.10306 30.5513 5.0998 30.9284 5.09654C31.1171 5.09491 31.306 5.09328 31.495 5.09328ZM72.4349 11.2471V9.68984H77.9706V16.4618C77.8126 16.4618 77.6578 16.4654 77.5053 16.4689H77.5052H77.5051H77.505H77.5049H77.5048H77.5047H77.5046H77.5045C77.2057 16.4758 76.9156 16.4824 76.628 16.4618C76.2882 16.4295 76.3166 16.1549 76.3416 15.9135C76.3436 15.8942 76.3456 15.8752 76.3473 15.8565C76.3677 15.6391 76.3959 15.4217 76.4279 15.1762L76.4279 15.1759L76.428 15.175L76.4283 15.1727C76.4423 15.0651 76.457 14.952 76.472 14.8312C76.4062 14.8681 76.3492 14.8947 76.3009 14.9173C76.2268 14.9519 76.1734 14.9768 76.1401 15.0146C75.2798 16.1151 74.1334 16.6232 72.7559 16.6856C71.3784 16.7479 70.111 16.5884 68.9591 15.807C67.7657 14.9967 66.9022 13.7857 66.525 12.3935C66.2018 11.3305 66.0945 10.2135 66.2096 9.1084C66.4792 6.56983 67.6769 4.41828 70.3934 3.48466C71.3696 3.14411 72.4142 3.04715 73.4364 3.20219C74.6195 3.38561 75.6595 3.7763 76.5546 4.54117C77.38 5.24735 77.8019 6.1773 77.9798 7.276H75.9768C75.6466 5.97553 74.8176 5.229 73.5299 4.89151C71.4133 4.34124 69.3791 5.59034 68.6307 7.38972C68.1905 8.44807 68.1465 9.57244 68.2309 10.6913C68.3391 12.1312 68.8435 13.3858 70.0266 14.2864C70.4924 14.653 71.034 14.9112 71.6121 15.0423C72.1902 15.1733 72.7902 15.1739 73.3685 15.0439C74.4526 14.8367 75.2761 14.3341 75.8191 13.3931C76.1399 12.8441 76.3012 12.2166 76.285 11.5809C76.285 11.3113 76.1584 11.2361 75.9273 11.2361L72.4349 11.2471ZM55.694 3.46172C55.1725 3.46858 54.6492 3.47547 54.1238 3.47547V16.5278C54.682 16.5068 55.2362 16.4869 55.7874 16.467L55.789 16.467L55.7893 16.467L55.7897 16.467C57.1648 16.4175 58.5218 16.3687 59.8777 16.3059C61.047 16.2337 62.164 15.7962 63.0711 15.0549C64.7586 13.7526 65.1621 11.8762 65.1896 9.9191C65.2043 8.99098 65.1309 8.02067 64.7458 7.1164C64.3708 6.15322 63.7288 5.31709 62.895 4.70623C61.8285 3.96711 60.5728 3.54834 59.2761 3.49931C58.0889 3.43023 56.8963 3.44591 55.694 3.46172ZM56.0801 5.24973C56.0853 5.2118 56.0908 5.17118 56.0956 5.12627V5.12259C56.4494 5.12259 56.8002 5.11239 57.1477 5.10228C57.9223 5.07975 58.6809 5.05768 59.4228 5.15011C60.9948 5.34087 62.2659 6.12225 62.8162 7.69051C63.1775 8.72868 63.3683 9.81271 63.1225 10.9518C62.9611 11.7056 62.8051 12.4283 62.3741 13.0886C62.1242 13.485 61.7928 13.8236 61.4019 14.082C61.011 14.3404 60.5696 14.5126 60.107 14.5872C59.2216 14.7262 58.3183 14.7499 57.4146 14.7736C57.0547 14.783 56.6948 14.7924 56.3358 14.8091C55.9676 14.8179 55.9683 14.5458 55.9689 14.2984L55.969 14.268C55.969 13.8449 55.9674 13.4217 55.9657 12.9986V12.9984V12.9982V12.998V12.9978V12.9976V12.9974V12.9972V12.997V12.9968V12.9966C55.9625 12.1513 55.9592 11.3062 55.969 10.462C55.9838 9.23121 56.0094 8.00041 56.0351 6.76961L56.0353 6.75991C56.0445 6.31563 56.0538 5.87136 56.0625 5.42708C56.0637 5.37055 56.0714 5.31402 56.0801 5.24973ZM38.8777 3.45898C39.4805 3.45898 40.081 3.45418 40.6797 3.44939C42.1414 3.4377 43.5924 3.4261 45.0407 3.48466C46.022 3.52318 46.9831 3.83316 47.6967 4.62188C48.4102 5.4106 48.5587 6.29652 48.4542 7.32185C48.3276 8.55262 47.5756 9.25329 46.6071 9.82374C46.4503 9.88857 46.3014 9.97104 46.1632 10.0695C46.2059 10.0859 46.2489 10.1017 46.2919 10.1175C46.3596 10.1424 46.4272 10.1673 46.4934 10.1943C47.6196 10.6455 48.2176 11.4929 48.2286 12.6906C48.2359 13.5126 48.2335 14.3354 48.231 15.1671V15.1681V15.1691V15.1701V15.1711V15.1722V15.1732V15.1742V15.1753V15.1763C48.2298 15.5924 48.2286 16.0108 48.2286 16.4325H46.3852C46.3852 16.3651 46.3801 16.2931 46.3748 16.2187L46.3747 16.2186C46.3691 16.1389 46.3632 16.0564 46.3632 15.9739C46.3632 15.6937 46.3665 15.4133 46.3699 15.1329L46.3699 15.1321V15.132V15.1319V15.1318V15.1317V15.1316V15.1315V15.1314V15.1313V15.1313C46.3779 14.4634 46.386 13.7958 46.3485 13.1308C46.3082 12.4302 46.1871 11.7075 45.4901 11.3058C45.2331 11.1349 44.9398 11.0262 44.6335 10.9885C43.924 10.9586 43.2139 10.9521 42.5039 10.9456C42.0373 10.9413 41.5707 10.937 41.1045 10.9261C40.7615 10.9261 40.7083 11.071 40.7101 11.3681C40.7174 12.377 40.715 13.3858 40.7125 14.3946L40.7125 14.3993C40.7113 14.9022 40.7101 15.405 40.7101 15.9079V16.4288H38.8759L38.8777 3.45898ZM40.7119 5.10978C40.7119 6.44326 40.7119 7.70887 40.7248 8.97265C40.7248 9.08271 40.9082 9.28265 40.9981 9.28081C41.1885 9.27636 41.379 9.27225 41.5696 9.26813L41.5698 9.26813L41.57 9.26812L41.5702 9.26812L41.5705 9.26811L41.5707 9.2681L41.5709 9.2681C42.7142 9.2434 43.8588 9.21867 44.9967 9.12123C45.8294 9.04969 46.3228 8.4609 46.4952 7.66485C46.6401 6.99536 46.5521 6.35706 46.0495 5.8178C45.8515 5.59484 45.6082 5.41668 45.3359 5.29522C45.0636 5.17376 44.7684 5.11179 44.4703 5.11345C43.5861 5.10289 42.7001 5.10468 41.791 5.10652H41.7909H41.7908H41.7907H41.7906H41.7905H41.7904H41.7903H41.7902H41.7901C41.4359 5.10723 41.0781 5.10795 40.7156 5.10795L40.7119 5.10978ZM81.7601 14.8018V10.5831L88.1891 10.5922C88.1891 10.4489 88.1856 10.313 88.1822 10.1822C88.1758 9.93476 88.1699 9.70564 88.1891 9.47887C88.2294 9.07901 88.0937 8.95612 87.6792 8.95612C86.4784 8.96468 85.2769 8.96182 84.075 8.95897C83.474 8.95754 82.8729 8.95612 82.2719 8.95612H81.7858V5.08224H88.378V3.48095H79.8067V16.4159L80.6852 16.421L80.6859 16.421C83.2799 16.4359 85.8445 16.4508 88.4092 16.4508C88.4917 16.4508 88.6348 16.2985 88.6476 16.2013C88.6782 15.9745 88.6867 15.7441 88.6951 15.5133V15.5131C88.6988 15.4117 88.7026 15.3103 88.7081 15.209C88.7228 14.921 88.6036 14.8018 88.3028 14.8018H85.2323H81.7601ZM52.0787 16.4416H50.261V3.46631H52.0787V16.4416ZM13.1987 19.5964L15.0329 18.7655C14.9031 18.5376 14.7785 18.3152 14.6564 18.0972C14.3382 17.5296 14.0373 16.9926 13.7086 16.4691C13.6426 16.4117 13.5642 16.3703 13.4795 16.3484C13.3948 16.3264 13.3062 16.3244 13.2207 16.3425C12.9638 16.4023 12.7205 16.51 12.5035 16.6599C12.4428 16.7074 12.3944 16.769 12.3625 16.8392C12.3305 16.9094 12.316 16.9863 12.3201 17.0634C12.4521 17.5953 12.6355 18.1161 12.8189 18.637L12.819 18.6371C12.8944 18.8535 12.982 19.0664 13.0727 19.2871L13.0727 19.2871L13.0728 19.2871L13.0728 19.2872L13.0728 19.2872C13.1144 19.3883 13.1566 19.491 13.1987 19.5964ZM5.25824 15.2824C5.1527 15.4023 5.04781 15.5217 4.94335 15.6407L4.94327 15.6408L4.94321 15.6409L4.94314 15.641L4.94307 15.641L4.94298 15.6411C4.44486 16.2085 3.95634 16.7649 3.45153 17.3001C3.40017 17.3551 3.14705 17.3147 3.06818 17.2377C2.82253 16.9955 2.5918 16.7422 2.34221 16.4682L2.34219 16.4682L2.34192 16.4679C2.20023 16.3123 2.05247 16.1501 1.89244 15.9794L4.2861 14.2277L5.25824 15.2824ZM16.5351 12.9126L19.2057 14.103C19.2571 13.9553 19.309 13.8092 19.3605 13.6642C19.5003 13.2705 19.6375 12.8844 19.7541 12.4944C19.7871 12.3788 19.7028 12.1165 19.6294 12.0982C18.8003 11.8946 17.9639 11.7203 17.1257 11.5589C17.0541 11.5406 16.9001 11.658 16.8707 11.7423C16.7738 12.0318 16.694 12.3267 16.6117 12.6311C16.5866 12.724 16.5612 12.8178 16.5351 12.9126ZM3.21374 11.9503L3.21375 11.9503C3.2948 12.1654 3.37417 12.3761 3.446 12.5915C3.5102 12.7878 3.51937 12.9217 3.24056 13.0299C2.79239 13.2013 2.35791 13.4008 1.92332 13.6004C1.64645 13.7275 1.36954 13.8546 1.08902 13.9745C1.00648 14.0094 0.801047 13.9599 0.782705 13.903C0.621343 13.4482 0.476405 12.9865 0.326312 12.5083L0.326286 12.5082L0.326214 12.5079C0.288665 12.3883 0.250794 12.2676 0.212261 12.1458L3.05898 11.5332C3.11021 11.6755 3.16226 11.8136 3.21365 11.95L3.21373 11.9502L3.21374 11.9503ZM15.0221 15.0603L15.0221 15.0603C14.9516 15.1472 14.8792 15.2365 14.8037 15.3282L16.7278 17.4321C16.8553 17.3078 16.9789 17.189 17.0992 17.0735L17.0992 17.0735L17.0994 17.0733C17.3942 16.7901 17.6686 16.5265 17.9292 16.249C18.0979 16.0711 18.0759 15.8932 17.8411 15.7299C17.5475 15.5219 17.2589 15.3108 16.9709 15.1002C16.6292 14.8502 16.2883 14.6008 15.9409 14.3579C15.8893 14.332 15.8321 14.3194 15.7744 14.3213C15.7167 14.3233 15.6604 14.3396 15.6107 14.3689C15.4096 14.5823 15.2236 14.8117 15.0221 15.0603L15.0221 15.0603ZM11.0233 20H9.02764C9.04197 19.8209 9.05416 19.6502 9.06592 19.4855L9.06593 19.4853C9.0903 19.144 9.11283 18.8285 9.1487 18.518C9.1839 18.2133 9.23034 17.9103 9.2758 17.6136C9.29905 17.462 9.32203 17.312 9.34313 17.1643C9.70914 17.1339 10.0764 17.1216 10.4437 17.1276C10.5629 17.1276 10.761 17.2798 10.772 17.3789C10.8554 18.0377 10.9118 18.6987 10.972 19.4053L10.972 19.4054L10.9721 19.406C10.9886 19.6002 11.0055 19.7979 11.0233 20ZM6.42936 19.3986C6.5736 19.4637 6.71885 19.5294 6.86505 19.5965C6.9055 19.4885 6.94471 19.3847 6.98269 19.2841C7.0911 18.9971 7.18946 18.7367 7.27775 18.4813C7.29498 18.4294 7.31228 18.3775 7.32959 18.3257C7.45418 17.9523 7.5787 17.579 7.67211 17.1974C7.71247 17.0414 7.70146 16.7626 7.60791 16.7021C7.3151 16.5238 6.99908 16.3868 6.66879 16.2949C6.58442 16.2601 6.40099 16.3793 6.34047 16.4783C5.92776 17.1405 5.52974 17.8118 5.15189 18.496C5.14177 18.5638 5.1491 18.633 5.17316 18.6972C5.19723 18.7614 5.23725 18.8184 5.28946 18.8628C5.66113 19.0513 6.04157 19.2233 6.42936 19.3986Z" fill="#7F828B"/>
</svg>
