<svg width="79" height="20" viewBox="0 0 79 20" fill="none" xmlns="http://www.w3.org/2000/svg">
<path d="M18.6857 5.03585L18.2432 4.28114C18.1261 4.07294 17.8529 3.99487 17.6447 4.11198C17.6056 4.138 17.5796 4.15101 17.5536 4.19005L16.5647 5.17898C16.4215 5.33513 16.3955 5.56935 16.5126 5.73851C16.877 6.28502 17.1632 6.88359 17.3714 7.50818C18.7377 11.581 16.5517 15.9922 12.4918 17.3585C11.6981 17.6317 10.8523 17.7618 10.0065 17.7618C8.73128 17.7618 7.4821 17.4496 6.36305 16.864L8.04163 15.1854C10.9043 16.2654 14.1184 14.8211 15.1984 11.9584C15.7319 10.527 15.6668 8.95254 15.0032 7.57324C14.8991 7.35203 14.6258 7.26094 14.4046 7.36504C14.3656 7.39107 14.3135 7.41709 14.2875 7.45613L13.2856 8.45807C13.1815 8.56217 13.1294 8.71832 13.1685 8.87446L13.2595 9.23881C13.6759 11.0345 12.5699 12.8172 10.7742 13.2466C9.95443 13.4418 9.09562 13.3117 8.36694 12.8953L7.92452 12.648C7.75536 12.5439 7.53415 12.583 7.39102 12.7131L3.29215 16.8119C3.12299 16.9811 3.12299 17.2674 3.29215 17.4365C3.30517 17.4495 3.31818 17.4626 3.33119 17.4756L3.92975 17.944C5.6734 19.2843 7.80741 20.013 10.0065 20C15.5237 19.9869 19.9999 15.5107 19.9999 9.99352C19.9869 8.23686 19.5315 6.53226 18.6857 5.03585Z" fill="#7F828B"/>
<path d="M16.0702 2.05611C14.3265 0.715844 12.1925 -0.012841 9.99342 0.000171302C4.47622 0.000171302 0 4.4894 0 10.0066C0 11.7372 0.455428 13.4418 1.31424 14.9513L1.74364 15.706C1.86075 15.9142 2.13401 15.9922 2.35522 15.8751C2.39426 15.8621 2.42028 15.8361 2.44631 15.8101L3.43524 14.8211C3.57837 14.665 3.6044 14.4308 3.48729 14.2616C3.12294 13.7151 2.83667 13.1165 2.62848 12.4919C1.26219 8.41911 3.44825 4.00795 7.50808 2.64166C8.30183 2.3684 9.14762 2.23828 9.99342 2.23828C11.2686 2.23828 12.5178 2.55058 13.6369 3.14914L11.9713 4.8017C9.10859 3.72168 5.89456 5.15303 4.81454 8.02874C4.58032 8.65333 4.4502 9.32996 4.4502 9.99359C4.4502 10.0847 4.47622 10.5011 4.48923 10.5791C4.55429 11.2167 4.73646 11.8413 5.00972 12.4139C5.11382 12.6351 5.38708 12.7262 5.60829 12.6221C5.64732 12.596 5.69937 12.57 5.7254 12.531L6.72734 11.529C6.83144 11.4249 6.88349 11.2688 6.84445 11.1126L6.75337 10.7483C6.33697 8.95261 7.44302 7.16993 9.2257 6.74052C10.0455 6.54534 10.9043 6.67546 11.646 7.09186L12.0884 7.33909C12.2576 7.44319 12.4788 7.40415 12.6219 7.27403L16.7208 3.17516C16.8899 3.006 16.8899 2.71973 16.7208 2.55057C16.7078 2.53756 16.6947 2.52455 16.6817 2.51154L16.0702 2.05611Z" fill="#7F828B"/>
<path d="M32.908 12.7389C32.7519 12.6088 32.5307 12.6218 32.3876 12.7519C31.75 13.2464 30.9952 13.7149 29.9152 13.7149C27.9243 13.7149 26.2978 12.0363 26.2978 9.96733C26.2978 7.89838 27.9113 6.20678 29.9022 6.20678C30.761 6.20678 31.6979 6.57112 32.3745 7.16969C32.4526 7.26077 32.5697 7.31282 32.6868 7.31282C32.7909 7.29981 32.882 7.24776 32.9471 7.16969L33.5977 6.50606C33.6758 6.42799 33.7278 6.31088 33.7278 6.19377C33.7278 6.07666 33.6628 5.95955 33.5847 5.89448C32.4526 4.90555 31.3205 4.46313 29.8892 4.46313C26.8573 4.46313 24.385 6.94848 24.385 10.0064C24.385 13.0512 26.8443 15.5105 29.8892 15.5105C31.2685 15.5236 32.6088 14.9901 33.5977 14.0141C33.6888 13.923 33.7278 13.8059 33.7278 13.6758C33.7278 13.5717 33.6888 13.4806 33.6107 13.4156L32.908 12.7389ZM37.6315 4.61928H36.6556C36.4344 4.6323 36.2522 4.81447 36.2392 5.03568V14.951C36.2392 15.1852 36.4214 15.3674 36.6556 15.3674H37.6315C37.8527 15.3544 38.0479 15.1722 38.0479 14.951V5.03568C38.0349 4.80145 37.8527 4.61928 37.6315 4.61928ZM49.2515 7.95042C49.2515 6.11569 47.742 4.61928 45.8683 4.61928H41.8214C41.5872 4.61928 41.4051 4.80145 41.4051 5.03568V14.951C41.4051 15.1852 41.5872 15.3674 41.8214 15.3674H42.7844C43.0056 15.3544 43.2007 15.1722 43.2007 14.951V11.2686H45.2307L47.1695 15.1592C47.2476 15.2893 47.3777 15.3674 47.5208 15.3674H48.6789C48.822 15.3674 48.9652 15.3024 49.0433 15.1722C49.1213 15.0421 49.1213 14.8729 49.0433 14.7428L47.0654 11.0734C48.4187 10.4618 49.2515 9.29069 49.2515 7.95042ZM47.4297 7.97645C47.4297 8.91333 46.662 9.70708 45.7512 9.70708H43.2398V6.3369H45.7512C46.662 6.3369 47.4297 7.09161 47.4297 7.97645ZM59.8174 12.7389C59.6613 12.6088 59.4401 12.6218 59.2969 12.7519C58.6593 13.2464 57.9046 13.7149 56.8246 13.7149C54.8337 13.7149 53.2072 12.0363 53.2072 9.96733C53.2072 7.89838 54.8207 6.20678 56.8116 6.20678C57.6704 6.20678 58.6073 6.57112 59.2839 7.16969C59.362 7.26077 59.4791 7.31282 59.5962 7.31282C59.7003 7.29981 59.7914 7.24776 59.8564 7.16969L60.5071 6.50606C60.5851 6.42799 60.6372 6.31088 60.6372 6.19377C60.6372 6.07666 60.5851 5.95955 60.494 5.89448C59.362 4.90555 58.2299 4.46313 56.8116 4.46313C53.7797 4.46313 51.3074 6.94848 51.3074 10.0064C51.3074 13.0512 53.7667 15.5105 56.8116 15.5105C58.1909 15.5236 59.5311 14.9901 60.5201 14.0141C60.6112 13.923 60.6502 13.8059 60.6502 13.6758C60.6502 13.5717 60.6112 13.4806 60.5331 13.4156L59.8174 12.7389ZM68.8479 13.7018H64.9573V5.03568C64.9442 4.81447 64.7621 4.61928 64.5409 4.61928H63.5519C63.3177 4.61928 63.1355 4.80145 63.1355 5.03568V14.951C63.1355 15.1852 63.3177 15.3674 63.5519 15.3674H68.8479C69.0821 15.3674 69.2643 15.1852 69.2643 14.951V14.1312C69.2643 13.897 69.0821 13.7018 68.8479 13.7018ZM77.6702 6.29786C77.9045 6.29786 78.0866 6.11569 78.0866 5.88147V5.04869C78.0866 4.81447 77.9045 4.63229 77.6702 4.63229H71.7236C71.4894 4.63229 71.3072 4.81447 71.3072 5.04869V14.951C71.3072 15.1852 71.4894 15.3674 71.7236 15.3674H77.6702C77.9045 15.3674 78.0866 15.1852 78.0866 14.951V14.1312C78.0866 13.897 77.9045 13.7149 77.6702 13.7149H73.1029V10.7611H76.9416C77.1758 10.7611 77.3579 10.5789 77.3579 10.3447V9.5119C77.3579 9.27768 77.1628 9.0955 76.9416 9.0955H73.1029V6.31088H77.6702V6.29786Z" fill="#7F828B"/>
</svg>
