<svg width="56" height="20" viewBox="0 0 56 20" fill="none" xmlns="http://www.w3.org/2000/svg">
<path d="M43.9312 10.0741C43.5077 10.0741 43.1018 10.0388 42.7136 9.96824C42.3254 9.90472 41.9725 9.81296 41.6548 9.69296C41.3372 9.56591 41.0655 9.42827 40.8396 9.28005L41.6654 7.71308C41.9195 7.86836 42.1807 8.00247 42.4489 8.11541C42.7242 8.22129 43.003 8.30246 43.2853 8.35892C43.5677 8.41539 43.85 8.44363 44.1323 8.44363C44.4005 8.44363 44.6299 8.41892 44.8205 8.36951C45.0111 8.31304 45.1558 8.2354 45.2546 8.13659C45.3534 8.03777 45.4028 7.9213 45.4028 7.78719C45.4028 7.63897 45.3358 7.5225 45.2017 7.4378C45.0746 7.34604 44.9052 7.2684 44.6935 7.20488C44.4817 7.14135 44.2453 7.07782 43.9841 7.0143C43.73 6.94371 43.4724 6.86254 43.2112 6.77078C42.9571 6.67197 42.7242 6.55197 42.5124 6.4108C42.3007 6.26258 42.1277 6.07553 41.9936 5.84966C41.8666 5.62379 41.8031 5.34498 41.8031 5.01324C41.8031 4.4768 41.9478 4.01095 42.2371 3.61567C42.5265 3.2204 42.9359 2.91336 43.4653 2.69455C44.0018 2.47574 44.6335 2.36634 45.3605 2.36634C45.8899 2.36634 46.384 2.4228 46.8428 2.53574C47.3016 2.64161 47.6968 2.7969 48.0286 3.00159L47.2663 4.55797C46.9769 4.37445 46.6557 4.23681 46.3028 4.14506C45.9569 4.04624 45.6005 3.99683 45.2334 3.99683C44.9511 3.99683 44.7076 4.02859 44.5029 4.09212C44.3053 4.15564 44.1535 4.24387 44.0476 4.35681C43.9488 4.46268 43.8994 4.58268 43.8994 4.71679C43.8994 4.85795 43.9629 4.97442 44.09 5.06618C44.217 5.15794 44.3864 5.23558 44.5982 5.2991C44.817 5.36263 45.0535 5.42969 45.3076 5.50027C45.5687 5.5638 45.8263 5.64144 46.0804 5.7332C46.3346 5.8179 46.571 5.93436 46.7898 6.08259C47.0086 6.22376 47.1816 6.40375 47.3086 6.62256C47.4357 6.84137 47.4992 7.11312 47.4992 7.4378C47.4992 7.96718 47.3545 8.42951 47.0651 8.82478C46.7757 9.22005 46.3628 9.52709 45.8263 9.7459C45.2899 9.96471 44.6582 10.0741 43.9312 10.0741Z" fill="#7F828B"/>
<path d="M37.0761 10.0741C36.6526 10.0741 36.2467 10.0388 35.8585 9.96824C35.4703 9.90472 35.1174 9.81296 34.7998 9.69296C34.4821 9.56591 34.2104 9.42827 33.9845 9.28005L34.8104 7.71308C35.0645 7.86836 35.3256 8.00247 35.5938 8.11541C35.8691 8.22129 36.1479 8.30246 36.4303 8.35892C36.7126 8.41539 36.9949 8.44363 37.2773 8.44363C37.5455 8.44363 37.7749 8.41892 37.9655 8.36951C38.156 8.31304 38.3007 8.2354 38.3996 8.13659C38.4984 8.03777 38.5478 7.9213 38.5478 7.78719C38.5478 7.63897 38.4807 7.5225 38.3466 7.4378C38.2196 7.34604 38.0502 7.2684 37.8384 7.20488C37.6267 7.14135 37.3902 7.07782 37.129 7.0143C36.8749 6.94371 36.6173 6.86254 36.3561 6.77078C36.102 6.67197 35.8691 6.55197 35.6574 6.4108C35.4456 6.26258 35.2727 6.07553 35.1386 5.84966C35.0115 5.62379 34.948 5.34498 34.948 5.01324C34.948 4.4768 35.0927 4.01095 35.3821 3.61567C35.6715 3.2204 36.0809 2.91336 36.6102 2.69455C37.1467 2.47574 37.7784 2.36634 38.5054 2.36634C39.0348 2.36634 39.5289 2.4228 39.9877 2.53574C40.4465 2.64161 40.8418 2.7969 41.1735 3.00159L40.4112 4.55797C40.1218 4.37445 39.8006 4.23681 39.4477 4.14506C39.1019 4.04624 38.7454 3.99683 38.3784 3.99683C38.096 3.99683 37.8525 4.02859 37.6478 4.09212C37.4502 4.15564 37.2984 4.24387 37.1926 4.35681C37.0938 4.46268 37.0443 4.58268 37.0443 4.71679C37.0443 4.85795 37.1079 4.97442 37.2349 5.06618C37.362 5.15794 37.5314 5.23558 37.7431 5.2991C37.9619 5.36263 38.1984 5.42969 38.4525 5.50027C38.7137 5.5638 38.9713 5.64144 39.2254 5.7332C39.4795 5.8179 39.7159 5.93436 39.9348 6.08259C40.1536 6.22376 40.3265 6.40375 40.4536 6.62256C40.5806 6.84137 40.6441 7.11312 40.6441 7.4378C40.6441 7.96718 40.4994 8.42951 40.21 8.82478C39.9206 9.22005 39.5077 9.52709 38.9713 9.7459C38.4348 9.96471 37.8031 10.0741 37.0761 10.0741Z" fill="#7F828B"/>
<path d="M28.4085 6.61726V6.17611H28.8497V6.61726H28.4085Z" fill="#7F828B"/>
<path fill-rule="evenodd" clip-rule="evenodd" d="M28.4085 11.686V12.3522H28.8497V11.686C30.2205 11.6298 31.4569 11.0523 32.3659 10.1465H32.3789V10.1335C33.2847 9.22449 33.8622 7.9881 33.9184 6.61726H34.5846V6.17611H33.9184C33.8622 4.80526 33.2847 3.56887 32.3789 2.6599V2.6469H32.3659C31.4569 1.74107 30.2205 1.16357 28.8497 1.10739V0H28.4085V1.10739C27.0377 1.16357 25.8013 1.74107 24.8923 2.6469H24.8793V2.6599C23.9735 3.56887 23.396 4.80526 23.3398 6.17611H22.2324V6.61726H23.3398C23.396 7.9881 23.9735 9.22449 24.8793 10.1335V10.1465H24.8923C25.8013 11.0523 27.0377 11.6298 28.4085 11.686ZM28.8497 11.2444C29.9334 11.1959 30.9246 10.792 31.7095 10.1465H28.8497V6.61726H32.3789V9.47707C33.0245 8.69213 33.4284 7.70093 33.4768 6.61726H32.3789V6.17611H33.4768C33.4284 5.09243 33.0245 4.10123 32.3789 3.3163V6.17611H28.8497V2.6469H31.7095C30.9246 2.00134 29.9334 1.59743 28.8497 1.54895V2.6469H28.4085V1.54895C27.3249 1.59743 26.3337 2.00134 25.5487 2.6469H28.4085V6.17611H24.8793V3.3163C24.2338 4.10123 23.8299 5.09243 23.7814 6.17611H24.8793V6.61726H23.7814C23.8299 7.70093 24.2338 8.69213 24.8793 9.47707V6.61726H28.4085V10.1465H25.5487C26.3337 10.792 27.3249 11.1959 28.4085 11.2444V10.1465H28.8497V11.2444Z" fill="#7F828B"/>
<path d="M15.2193 9.92586L16.7015 2.51454H19.8672C20.8201 2.51454 21.5542 2.72276 22.0694 3.1392C22.5918 3.55565 22.8529 4.13444 22.8529 4.87557C22.8529 5.49671 22.7012 6.04021 22.3977 6.50606C22.1012 6.96486 21.6777 7.32131 21.1271 7.57541C20.5766 7.82952 19.9272 7.95657 19.179 7.95657H16.7756L17.8873 7.05662L17.3156 9.92586H15.2193ZM19.8672 9.92586L18.3532 7.22602H20.5237L22.0589 9.92586H19.8672ZM17.8344 7.30014L17.1039 6.33666H19.2743C19.7402 6.33666 20.1001 6.22726 20.3542 6.00845C20.6084 5.78964 20.7354 5.47907 20.7354 5.07674C20.7354 4.76617 20.6331 4.53677 20.4284 4.38854C20.2237 4.24032 19.9378 4.1662 19.5708 4.1662H17.5485L18.6708 3.17097L17.8344 7.30014Z" fill="#7F828B"/>
<path d="M11.447 10.0741C10.6917 10.0741 10.0318 9.93648 9.46709 9.6612C8.90947 9.38592 8.47891 9.00477 8.1754 8.51774C7.87189 8.02365 7.72013 7.45545 7.72013 6.81313C7.72013 6.17082 7.83307 5.57791 8.05894 5.03441C8.2848 4.49092 8.60243 4.02153 9.01182 3.62626C9.42121 3.22393 9.90824 2.91336 10.4729 2.69455C11.0446 2.47574 11.6764 2.36634 12.3681 2.36634C13.0528 2.36634 13.6598 2.48633 14.1892 2.72632C14.7185 2.9663 15.1138 3.31216 15.375 3.7639L13.8609 4.97089C13.6915 4.68855 13.4692 4.47327 13.1939 4.32504C12.9257 4.17682 12.6045 4.10271 12.2305 4.10271C11.8705 4.10271 11.5423 4.16623 11.2458 4.29328C10.9564 4.42033 10.7058 4.60032 10.4941 4.83325C10.2823 5.06618 10.12 5.34146 10.0071 5.65908C9.89412 5.96965 9.83765 6.30846 9.83765 6.67549C9.83765 7.00724 9.90824 7.30016 10.0494 7.55427C10.1976 7.80131 10.4059 7.99542 10.6741 8.13659C10.9494 8.27069 11.274 8.33775 11.6481 8.33775C11.9799 8.33775 12.2975 8.27069 12.601 8.13659C12.9116 8.00247 13.1975 7.78366 13.4586 7.48015L14.6974 8.69773C14.2809 9.19887 13.8009 9.55532 13.2575 9.76708C12.714 9.97177 12.1105 10.0741 11.447 10.0741Z" fill="#7F828B"/>
<path d="M49.4798 19.8517L50.1045 16.7072L50.3374 17.9883L48.1246 12.4404H50.2315L51.8197 16.4637L50.528 16.4743L53.7678 12.4404H55.8959L51.4915 17.9883L52.2008 16.7072L51.5762 19.8517H49.4798Z" fill="#7F828B"/>
<path d="M39.872 19.8517L41.3542 12.4404H44.5199C45.4728 12.4404 46.2069 12.6486 46.7222 13.0651C47.2445 13.4815 47.5056 14.0603 47.5056 14.8015C47.5056 15.4226 47.3539 15.9661 47.0504 16.4319C46.7539 16.8907 46.3304 17.2472 45.7799 17.5013C45.2293 17.7554 44.5799 17.8825 43.8317 17.8825H41.4284L42.5401 16.9825L41.9683 19.8517H39.872ZM44.5199 19.8517L43.0059 17.1519H45.1764L46.7116 19.8517H44.5199ZM42.4871 17.226L41.7566 16.2625H43.927C44.3929 16.2625 44.7529 16.1531 45.007 15.9343C45.2611 15.7155 45.3881 15.405 45.3881 15.0026C45.3881 14.6921 45.2858 14.4627 45.0811 14.3144C44.8764 14.1662 44.5905 14.0921 44.2235 14.0921H42.2013L43.3235 13.0969L42.4871 17.226Z" fill="#7F828B"/>
<path d="M34.7182 19.8517L35.8723 14.1027H33.5959L33.9347 12.4404H40.5732L40.2344 14.1027H37.9686L36.8146 19.8517H34.7182Z" fill="#7F828B"/>
<path d="M24.6213 19.8517L26.1035 12.4404H27.8293L30.8256 17.3954L30.1057 17.3742L31.0903 12.4404H33.1443L31.662 19.8517H29.9363L26.9506 14.8967L27.6599 14.9179L26.6753 19.8517H24.6213Z" fill="#7F828B"/>
<path d="M19.9086 20C19.1675 20 18.5464 19.8588 18.0452 19.5765C17.5511 19.2871 17.2017 18.8847 16.997 18.3695C16.7923 17.8472 16.7571 17.2401 16.8912 16.5484L17.717 12.4404H19.8133L18.9981 16.5166C18.9416 16.8131 18.924 17.0707 18.9452 17.2895C18.9663 17.5084 19.0263 17.6919 19.1251 17.8401C19.231 17.9883 19.3687 18.0977 19.5381 18.1683C19.7145 18.2318 19.9227 18.2636 20.1627 18.2636C20.4521 18.2636 20.7027 18.2071 20.9145 18.0942C21.1333 17.9742 21.3133 17.7872 21.4544 17.5331C21.6026 17.2719 21.7156 16.9331 21.7932 16.5166L22.6085 12.4404H24.6731L23.8366 16.6437C23.6178 17.7448 23.1802 18.5812 22.5238 19.153C21.8673 19.7176 20.9956 20 19.9086 20Z" fill="#7F828B"/>
<path d="M11.346 20C10.5837 20 9.92729 19.8624 9.37673 19.5871C8.82618 19.3047 8.40267 18.9201 8.10622 18.433C7.80977 17.946 7.66154 17.3813 7.66154 16.739C7.66154 16.0896 7.77448 15.4967 8.00035 14.9603C8.22621 14.4168 8.54384 13.9474 8.95323 13.5521C9.36262 13.1498 9.84965 12.8392 10.4143 12.6204C10.9861 12.4016 11.6107 12.2922 12.2883 12.2922C13.0506 12.2922 13.7071 12.4334 14.2576 12.7157C14.8082 12.991 15.2317 13.3722 15.5281 13.8592C15.8246 14.3462 15.9728 14.9109 15.9728 15.5532C15.9728 16.2026 15.8599 16.799 15.634 17.3425C15.4081 17.879 15.0905 18.3483 14.6811 18.7507C14.2717 19.1459 13.7812 19.453 13.2094 19.6718C12.6448 19.8906 12.0236 20 11.346 20ZM11.526 18.2636C11.8931 18.2636 12.2177 18.1966 12.5001 18.0625C12.7895 17.9284 13.033 17.7413 13.2306 17.5013C13.4353 17.2543 13.5906 16.9755 13.6965 16.6649C13.8024 16.3543 13.8553 16.0261 13.8553 15.6803C13.8553 15.3485 13.7847 15.0591 13.6435 14.8121C13.5094 14.565 13.3118 14.3745 13.0506 14.2403C12.7965 14.0992 12.4824 14.0286 12.1083 14.0286C11.7484 14.0286 11.4237 14.0956 11.1343 14.2298C10.8449 14.3639 10.5978 14.5544 10.3931 14.8015C10.1955 15.0415 10.0438 15.3167 9.93788 15.6273C9.832 15.9379 9.77906 16.2661 9.77906 16.612C9.77906 16.9367 9.84612 17.226 9.98023 17.4802C10.1214 17.7272 10.319 17.9213 10.5731 18.0625C10.8343 18.1966 11.1519 18.2636 11.526 18.2636Z" fill="#7F828B"/>
<path d="M3.72684 20C2.97159 20 2.31163 19.8624 1.74696 19.5871C1.18934 19.3118 0.758779 18.9307 0.455267 18.4436C0.151756 17.9495 0 17.3813 0 16.739C0 16.0967 0.112934 15.5038 0.338803 14.9603C0.564672 14.4168 0.882301 13.9474 1.29169 13.5521C1.70108 13.1498 2.18811 12.8392 2.75278 12.6204C3.32451 12.4016 3.95624 12.2922 4.64796 12.2922C5.33263 12.2922 5.93965 12.4122 6.46903 12.6522C6.99841 12.8922 7.39368 13.238 7.65484 13.6898L6.14081 14.8968C5.97141 14.6144 5.74907 14.3992 5.47379 14.2509C5.20557 14.1027 4.88442 14.0286 4.51032 14.0286C4.15034 14.0286 3.82213 14.0921 3.52567 14.2192C3.23628 14.3462 2.98571 14.5262 2.77395 14.7591C2.5622 14.9921 2.39986 15.2673 2.28692 15.585C2.17399 15.8955 2.11752 16.2343 2.11752 16.6014C2.11752 16.9331 2.18811 17.226 2.32927 17.4802C2.4775 17.7272 2.68572 17.9213 2.95394 18.0625C3.22922 18.1966 3.55391 18.2636 3.928 18.2636C4.25975 18.2636 4.57738 18.1966 4.88089 18.0625C5.19146 17.9284 5.47732 17.7095 5.73848 17.406L6.97724 18.6236C6.56079 19.1248 6.08082 19.4812 5.53732 19.693C4.99382 19.8977 4.39033 20 3.72684 20Z" fill="#7F828B"/>
</svg>
