<svg width="25" height="25" viewBox="0 0 25 25" fill="none" xmlns="http://www.w3.org/2000/svg">
<g clip-path="url(#clip0_4508_806)">
<path d="M0.0136719 13.319H0.269786C3.22697 13.319 6.18319 13.319 9.13845 13.319C9.21388 13.3157 9.28908 13.3295 9.35843 13.3593C9.42778 13.3892 9.4895 13.4343 9.53899 13.4913C10.2033 14.1653 10.887 14.8268 11.5532 15.4998C11.6277 15.583 11.671 15.6895 11.6755 15.8011C11.6852 16.5072 11.6852 17.2133 11.6755 17.9194C11.671 18.0313 11.629 18.1385 11.5561 18.2236C11.2981 18.5038 11.0256 18.7724 10.7502 19.0353C10.6405 19.1402 10.654 19.2048 10.7502 19.3049C11.015 19.5572 11.2779 19.8133 11.5205 20.0838C11.6054 20.1783 11.6569 20.2981 11.6669 20.4247C11.6803 21.1218 11.6784 21.8189 11.6669 22.515C11.666 22.6275 11.6258 22.7362 11.5532 22.8221C10.8805 23.507 10.1963 24.1881 9.50048 24.8653C9.41825 24.9419 9.31138 24.9866 9.19911 24.9914C6.21176 24.9978 3.22408 24.9978 0.236086 24.9914C0.165799 24.9914 0.0955128 24.9827 0.0136719 24.9779V13.319ZM10.0329 19.9962H1.65627V23.343H10.0329V19.9962ZM10.0329 14.9712H1.65627V18.3209H10.0329V14.9712Z" fill="#151617"/>
<path d="M24.9865 13.3257V14.9557H14.973V18.3334H24.9865V19.9702H14.973V23.3546H24.9865V24.9866C24.9066 24.9866 24.8228 24.9981 24.7381 24.9981C21.7738 24.9981 18.8093 24.9981 15.8444 24.9981C15.7759 25.0011 15.7076 24.989 15.6443 24.9625C15.5811 24.9361 15.5244 24.8959 15.4785 24.845C14.8045 24.171 14.1219 23.4971 13.4517 22.8231C13.3732 22.7329 13.3286 22.6181 13.3256 22.4986C13.3185 20.2629 13.3185 18.0275 13.3256 15.7924C13.33 15.6807 13.3741 15.5743 13.4498 15.492C14.1257 14.8046 14.8074 14.1229 15.4949 13.447C15.5689 13.3738 15.6665 13.3291 15.7702 13.3209C18.7916 13.3144 21.8127 13.3144 24.8334 13.3209C24.8748 13.3189 24.922 13.3189 24.9865 13.3257Z" fill="#151617"/>
<path d="M11.6807 3.58276H10.0439V1.65709H1.65282V10.0251H10.0295V8.10615H11.6807C11.6807 8.51151 11.6807 8.91012 11.6807 9.30777C11.6693 9.36497 11.6387 9.41658 11.5941 9.45412C10.888 10.1647 10.179 10.8733 9.46718 11.5801C9.40147 11.6394 9.31687 11.6735 9.2284 11.6763C6.97729 11.6808 4.72586 11.6808 2.47411 11.6763C2.37829 11.6741 2.28629 11.6384 2.21415 11.5752C1.50807 10.8782 0.806163 10.1753 0.108429 9.46664C0.0491303 9.40054 0.0150371 9.31565 0.0121453 9.22689C0.00636825 6.9668 0.00636825 4.70735 0.0121453 2.44854C0.0173836 2.35998 0.0542924 2.27625 0.116133 2.21264C0.815151 1.50656 1.51834 0.803694 2.2257 0.104034C2.29112 0.0448703 2.37537 0.010763 2.46352 0.00775072C4.72233 0.00197372 6.98178 0.00197372 9.24188 0.00775072C9.32356 0.0129151 9.40072 0.0470567 9.45948 0.104034C10.1726 0.80562 10.8822 1.5117 11.5883 2.22227C11.6417 2.2734 11.6757 2.34145 11.6846 2.41484C11.6846 2.78938 11.6807 3.17355 11.6807 3.58276Z" fill="#151617"/>
<path d="M13.3271 0.0057373H14.9475V10.0288H23.356V0.0153633H24.987C24.987 0.0991299 24.9986 0.183862 24.9986 0.267628C24.9986 3.23316 24.9986 6.19837 24.9986 9.16326C25.0015 9.23169 24.9892 9.29991 24.9625 9.36301C24.9359 9.42611 24.8956 9.48252 24.8445 9.52817C24.1705 10.2022 23.4965 10.8838 22.8226 11.5501C22.7398 11.6248 22.6335 11.6681 22.5222 11.6724C20.2755 11.6795 18.0315 11.6795 15.79 11.6724C15.6788 11.6658 15.5733 11.6209 15.4915 11.5453C14.8028 10.8707 14.1208 10.1896 13.4455 9.50217C13.3725 9.42742 13.3285 9.32913 13.3213 9.22488C13.3142 6.20415 13.3126 3.18309 13.3165 0.161716C13.3165 0.118388 13.3223 0.0721729 13.3271 0.0057373Z" fill="#151617"/>
</g>
<defs>
<clipPath id="clip0_4508_806">
<rect width="25" height="25" fill="white"/>
</clipPath>
</defs>
</svg>
