<svg width="26" height="25" viewBox="0 0 26 25" fill="none" xmlns="http://www.w3.org/2000/svg">
<path d="M14.701 6.32558H11.2176C11.2176 0.988348 15.8621 -0.1098 18.1844 0.00828027L18.4205 0.775803C14.8309 0.870267 14.4452 4.51502 14.701 6.32558Z" fill="#7F828B"/>
<path d="M6.55346 12.9381H2.95201C3.2354 18.417 7.95075 19.157 10.273 18.8421V18.3107C10.1746 18.3094 10.0132 18.3075 10.1549 18.3107C7.08483 18.3107 6.47474 14.729 6.55346 12.9381Z" fill="#7F828B"/>
<path d="M15.4685 7.80158V7.0931C22.6714 6.91598 23.0257 12.1706 22.7895 12.1706L19.4242 12.2296C19.3849 12.2099 19.3298 12.1706 19.4242 12.1706C19.5659 8.62814 16.8461 7.7819 15.4685 7.80158Z" fill="#7F828B"/>
<path d="M6.6125 12.2886H3.01105C3.01105 8.8407 6.3173 7.30959 7.97043 6.97502H14.7601C14.7207 9.88767 14.642 15.9727 14.642 17.0119C14.642 18.3107 15.5866 18.3107 15.8818 18.3107C18.6685 18.4524 19.3652 14.7486 19.3652 12.879L22.8486 12.9381V13.3514C22.7069 17.0827 19.2865 18.6059 17.594 18.9011H11.2176C11.257 16.4215 11.3121 10.7064 11.2176 7.68351C7.20291 7.54181 6.47474 10.6946 6.6125 12.2886Z" fill="#7F828B"/>
<path d="M2.23407 24.915H3.65104C4.23672 24.915 4.67125 24.7827 4.95465 24.5182C5.2253 24.262 5.36671 23.8835 5.37888 23.3825H4.52388C4.52389 23.3851 4.52389 23.3877 4.52389 23.3903C4.52389 23.8891 4.4332 24.25 4.25183 24.4729C4.07046 24.692 3.77573 24.8016 3.36764 24.8016V23.3825H2.51747V24.8016H2.23407V24.915Z" fill="#7F828B"/>
<path d="M2.51747 23.0283V21.8543H2.23407V21.741H3.65104C3.93065 21.741 4.18193 21.7882 4.40486 21.8827C4.63158 21.9734 4.81484 22.0943 4.95465 22.2454C5.16897 22.4826 5.30225 22.7436 5.35449 23.0283H4.50459C4.46718 22.7004 4.37537 22.4394 4.22916 22.2454C4.03267 21.9847 3.7455 21.8543 3.36764 21.8543V23.0283H2.51747Z" fill="#7F828B"/>
<path d="M9.30895 24.915V24.8016H9.03689L8.38155 23.3825H7.47022L7.71628 23.8947H6.67906L6.89247 23.3825H6.74846L6.15762 24.8016H5.77787V24.915H6.74707V24.8016H6.29931L6.62805 24.0138H7.77296L8.1527 24.8016H7.8183V24.915H9.30895Z" fill="#7F828B"/>
<path d="M6.89595 23.0283H7.04007L7.16083 22.7385L7.30005 23.0283H8.21795L7.59725 21.6843H7.45556L6.89595 23.0283Z" fill="#7F828B"/>
<path d="M9.81659 24.915H11.2336C11.8192 24.915 12.2538 24.7827 12.5372 24.5182C12.8078 24.262 12.9492 23.8835 12.9614 23.3825H12.1064C12.1064 23.3851 12.1064 23.3877 12.1064 23.3903C12.1064 23.8891 12.0157 24.25 11.8343 24.4729C11.653 24.692 11.3582 24.8016 10.9502 24.8016V23.3825H10.1V24.8016H9.81659V24.915Z" fill="#7F828B"/>
<path d="M10.1 23.0283V21.8543H9.81659V21.741H11.2336C11.5132 21.741 11.7644 21.7882 11.9874 21.8827C12.2141 21.9734 12.3974 22.0943 12.5372 22.2454C12.7515 22.4826 12.8848 22.7436 12.937 23.0283H12.0871C12.0497 22.7004 11.9579 22.4394 11.8117 22.2454C11.6152 21.9847 11.328 21.8543 10.9502 21.8543V23.0283H10.1Z" fill="#7F828B"/>
<path d="M16.132 22.03C16.2454 22.1434 16.3021 22.3682 16.3021 22.7045H16.4154V21.741H13.4171V22.7045H13.5305C13.5305 22.3682 13.5853 22.1434 13.6948 22.03C13.8082 21.9129 14.016 21.8543 14.3183 21.8543H14.4883V23.0283H15.3385V21.8543H15.5086C15.8146 21.8543 16.0224 21.9129 16.132 22.03Z" fill="#7F828B"/>
<path d="M15.3385 23.3825H14.4883V24.8016H14.0916V24.915H15.7353V24.8016H15.3385V23.3825Z" fill="#7F828B"/>
<path d="M19.6197 23.0049H19.733V21.741H19.6254C19.6254 21.7863 19.6102 21.8336 19.58 21.8827C19.5498 21.928 19.5082 21.9507 19.4553 21.9507C19.4062 21.9507 19.342 21.9261 19.2626 21.877C19.017 21.7372 18.7638 21.6673 18.5031 21.6673C18.0195 21.6673 17.6303 21.7995 17.3355 22.064C17.0975 22.2805 16.9568 22.6019 16.9135 23.0283H17.8186C17.8384 22.6205 17.9003 22.3218 18.0043 22.1321C18.1366 21.8978 18.3029 21.7807 18.5031 21.7807C18.8621 21.7807 19.1379 21.9091 19.3306 22.1661C19.5233 22.423 19.6197 22.7026 19.6197 23.0049Z" fill="#7F828B"/>
<path d="M17.8118 23.3825H16.8996C16.9088 23.9292 17.0579 24.3342 17.3469 24.5976C17.6492 24.8659 18.0818 25 18.6448 25C18.9358 25 19.1851 24.9093 19.393 24.7279C19.6046 24.5428 19.7368 24.2632 19.7897 23.8891H19.6764C19.631 24.2065 19.512 24.4521 19.3193 24.6259C19.1304 24.7997 18.8961 24.8866 18.6165 24.8866C18.3406 24.8866 18.1366 24.7695 18.0043 24.5352C17.8796 24.3078 17.8154 23.9235 17.8118 23.3825Z" fill="#7F828B"/>
<path d="M21.1818 23.3825C21.1858 23.8463 21.2481 24.206 21.3686 24.4615C21.4971 24.726 21.6803 24.8583 21.9184 24.8583C22.3998 24.8583 22.6454 24.3664 22.6549 23.3825H23.5676C23.5625 23.8875 23.4095 24.2774 23.1086 24.5522C22.8025 24.8318 22.4039 24.9716 21.9127 24.9716C21.4215 24.9716 21.0247 24.8337 20.7224 24.5579C20.4242 24.282 20.2731 23.8902 20.2691 23.3825H21.1818Z" fill="#7F828B"/>
<path d="M23.546 23.0283C23.4948 22.6598 23.3528 22.3592 23.1199 22.1264C22.8252 21.8241 22.4266 21.6729 21.924 21.6729C21.4253 21.6729 21.0247 21.8241 20.7224 22.1264C20.4878 22.361 20.3442 22.6616 20.2917 23.0283H21.1911C21.2137 22.6847 21.2767 22.4067 21.3799 22.1944C21.5122 21.9223 21.6916 21.7863 21.9184 21.7863C22.1489 21.7863 22.3283 21.9223 22.4568 22.1944C22.5609 22.4056 22.6241 22.6836 22.6462 23.0283H23.546Z" fill="#7F828B"/>
<path d="M0.708483 23.3799C0.708483 23.5756 0.549883 23.7342 0.354241 23.7342C0.158599 23.7342 0 23.5756 0 23.3799C0 23.1843 0.158599 23.0257 0.354241 23.0257C0.549883 23.0257 0.708483 23.1843 0.708483 23.3799Z" fill="#7F828B"/>
<path d="M25.7415 23.3799C25.7415 23.5756 25.5829 23.7342 25.3873 23.7342C25.1917 23.7342 25.0331 23.5756 25.0331 23.3799C25.0331 23.1843 25.1917 23.0257 25.3873 23.0257C25.5829 23.0257 25.7415 23.1843 25.7415 23.3799Z" fill="#7F828B"/>
</svg>
