<svg width="56" height="35" viewBox="0 0 56 35" fill="none" xmlns="http://www.w3.org/2000/svg">
<path d="M0.954346 24.0229H54.2498V35.0002H0.954346V24.0229Z" fill="#F7F7F7"/>
<path fill-rule="evenodd" clip-rule="evenodd" d="M53.9316 24.3411H1.27253V34.682H53.9316V24.3411ZM0.954346 24.0229V35.0002H54.2498V24.0229H0.954346Z" fill="#7F828B"/>
<path fill-rule="evenodd" clip-rule="evenodd" d="M10.8191 24.023H44.2267C44.1413 14.8706 36.6955 7.47754 27.5229 7.47754C18.3503 7.47754 10.9045 14.8706 10.8191 24.023Z" fill="#F7F7F7"/>
<path fill-rule="evenodd" clip-rule="evenodd" d="M10.4976 24.3405L10.5006 24.0194C10.5876 14.6926 18.1752 7.15869 27.5225 7.15869C36.8698 7.15869 44.4575 14.6926 44.5445 24.0194L44.5475 24.3405H10.4976ZM44.2263 24.0223C44.2253 23.916 44.2234 23.81 44.2204 23.7041C43.9678 14.6992 36.5886 7.47687 27.5225 7.47687C18.4565 7.47687 11.0773 14.6992 10.8247 23.7041C10.8217 23.81 10.8197 23.916 10.8187 24.0223H44.2263Z" fill="#7F828B"/>
<path d="M20.0169 7.15922C18.9033 7.6365 16.7237 9.05241 16.9146 10.8979C16.9961 11.6849 17.119 12.1527 17.2476 12.416C16.4962 11.6103 14.5342 11.5546 13.5222 11.6467C15.3154 11.5271 16.7811 13.4102 17.3919 14.5402V16.2638C16.7877 15.2783 14.6081 15.207 13.5222 15.3057C15.3154 15.1862 16.7811 17.0693 17.3919 18.1992V19.7638C16.7877 18.7783 14.6081 18.707 13.5222 18.8057C15.3154 18.6862 16.7811 20.5693 17.3919 21.6992V24.0229H18.3465V22.8297C18.8768 21.7425 20.4146 19.6001 22.3237 19.7274C21.1571 19.6213 18.7283 19.7115 18.3465 20.9206V19.3626C18.8768 18.2754 20.4146 16.133 22.3237 16.2603C21.1571 16.1542 18.7283 16.2444 18.3465 17.4535V15.5444C18.8768 14.4573 20.4146 12.3148 22.3237 12.4421C21.1571 12.336 18.7283 12.4262 18.3465 13.6353V12.5411C18.6954 12.2632 19.147 11.6195 18.9828 10.5797C18.7919 9.37059 19.5927 7.79559 20.0169 7.15922Z" fill="#7F828B"/>
<path d="M16.8351 9.94323C16.8351 9.56142 17.2593 8.98869 17.4715 8.75005C17.3124 8.51142 15.6069 7.61476 15.8806 7.79551C16.1424 7.96847 16.8351 10.4205 16.8351 9.94323Z" fill="#7F828B"/>
<path d="M18.121 7.58027C18.1138 7.4022 18.106 7.21607 18.0976 7.02497C18.0359 7.02851 17.9735 7.0315 17.9106 7.03386C17.774 7.03896 17.635 7.04108 17.4958 7.03927C17.4922 7.23683 17.4895 7.42382 17.4877 7.59597C17.6282 7.59797 17.769 7.59592 17.9076 7.59073C17.9795 7.58804 18.0508 7.58451 18.121 7.58027Z" fill="#7F828B"/>
<path d="M18.2004 7.57515C18.1932 7.39714 18.1854 7.21109 18.177 7.02008C18.3578 7.00822 18.5313 6.99186 18.6911 6.97327C18.7087 7.16475 18.7248 7.34949 18.7392 7.5238C18.5735 7.54402 18.3914 7.56207 18.2004 7.57515Z" fill="#7F828B"/>
<path d="M18.7456 7.60314C18.5788 7.62346 18.3956 7.64155 18.2036 7.65466C18.2103 7.82193 18.2165 7.98149 18.222 8.13068C18.3948 7.9806 18.5745 7.84162 18.7545 7.71473C18.7517 7.67809 18.7487 7.64089 18.7456 7.60314Z" fill="#7F828B"/>
<path d="M18.8181 7.51383C18.8038 7.3396 18.7877 7.15503 18.7701 6.96377C18.8446 6.95452 18.9157 6.94484 18.9827 6.93499C18.9828 6.95666 18.9828 6.97838 18.9828 7.00013C18.9828 7.16659 18.9802 7.33076 18.975 7.49208C18.925 7.49946 18.8726 7.50674 18.8181 7.51383Z" fill="#7F828B"/>
<path d="M18.9607 7.57456C18.917 7.58088 18.8715 7.58712 18.8246 7.59321C18.8265 7.61638 18.8284 7.63935 18.8302 7.66212C18.8737 7.63221 18.9173 7.60302 18.9607 7.57456Z" fill="#7F828B"/>
<path d="M18.1242 7.65976C18.0539 7.664 17.9826 7.66753 17.9106 7.67022C17.7712 7.67544 17.6291 7.67753 17.487 7.67551C17.4864 7.7493 17.486 7.82007 17.4858 7.88745C17.4851 8.10329 17.4866 8.2841 17.4907 8.41801C17.4926 8.47935 17.495 8.53051 17.4979 8.57053C17.5655 8.61815 17.6209 8.6606 17.6595 8.69553C17.8087 8.51948 17.9728 8.35356 18.1449 8.1988C18.1388 8.03185 18.1319 7.85085 18.1242 7.65976Z" fill="#7F828B"/>
<path d="M16.8711 8.17478C16.8686 8.16422 16.866 8.14366 16.8646 8.11055C16.8631 8.07274 16.8632 8.02303 16.8648 7.96243C16.8672 7.87474 16.8729 7.76537 16.8814 7.63828C17.0525 7.65822 17.2296 7.66945 17.4075 7.67395C17.4068 7.74819 17.4064 7.81941 17.4062 7.88721C17.4055 8.10338 17.4071 8.28521 17.4112 8.42044C17.4122 8.45433 17.4134 8.48539 17.4148 8.5134C17.2628 8.41126 17.0695 8.29218 16.8711 8.17478Z" fill="#7F828B"/>
<path d="M16.8023 7.62839C16.7937 7.75593 16.7879 7.86641 16.7854 7.95571C16.7785 7.84663 16.7727 7.73589 16.7681 7.62367C16.7795 7.62528 16.7909 7.62685 16.8023 7.62839Z" fill="#7F828B"/>
<path d="M16.7651 7.54287C16.7793 7.54494 16.7935 7.54694 16.8078 7.54887C16.8095 7.52623 16.8112 7.50312 16.8129 7.47958C16.8239 7.33473 16.8376 7.17292 16.8537 6.99861C16.8207 6.99457 16.788 6.99021 16.7556 6.9855L16.7556 7.00013C16.7556 7.1841 16.7588 7.36526 16.7651 7.54287Z" fill="#7F828B"/>
<path d="M16.8869 7.55884C17.0558 7.57866 17.2313 7.58989 17.4082 7.59439C17.4099 7.42221 17.4127 7.23525 17.4163 7.0378C17.2532 7.03389 17.0906 7.02433 16.9327 7.00763C16.9168 7.18089 16.9031 7.34167 16.8923 7.48557C16.8904 7.51052 16.8886 7.53495 16.8869 7.55884Z" fill="#7F828B"/>
<path d="M17.9076 6.95437C17.9703 6.95202 18.0326 6.94903 18.0941 6.94549C18.0883 6.81507 18.0822 6.68256 18.076 6.54891C18.0213 6.55193 17.9661 6.5545 17.9106 6.55658C17.7773 6.56157 17.6415 6.5637 17.5057 6.56212C17.5025 6.69803 17.4997 6.83094 17.4973 6.95973C17.6345 6.96151 17.7721 6.95943 17.9076 6.95437Z" fill="#7F828B"/>
<path d="M17.5075 6.48259C17.6414 6.48413 17.7755 6.48204 17.9076 6.47709C17.9629 6.47502 18.0178 6.47246 18.0722 6.46945C18.0635 6.28532 18.0543 6.09942 18.0448 5.91422C18.0004 5.91652 17.9556 5.91853 17.9106 5.92022C17.7826 5.92501 17.6523 5.92717 17.5219 5.92593C17.5186 6.04262 17.5155 6.15848 17.5126 6.27287C17.5109 6.34339 17.5091 6.41334 17.5075 6.48259Z" fill="#7F828B"/>
<path d="M18.0194 5.43823C18.0267 5.56925 18.0338 5.70174 18.0407 5.83478C17.9966 5.83706 17.9523 5.83906 17.9076 5.84073C17.781 5.84547 17.6525 5.84759 17.5241 5.84639C17.5279 5.71443 17.5318 5.58159 17.536 5.44878C17.6617 5.44973 17.7872 5.44756 17.9106 5.44295C17.947 5.44158 17.9833 5.44 18.0194 5.43823Z" fill="#7F828B"/>
<path d="M18.0149 5.35881C18.0061 5.20111 17.9969 5.04584 17.9876 4.89463C17.9857 4.86413 17.9838 4.83379 17.9819 4.80363C17.9582 4.80471 17.9344 4.80569 17.9106 4.80658C17.7941 4.81094 17.6758 4.81312 17.5572 4.81254C17.5507 4.99604 17.5444 5.18244 17.5385 5.36924C17.6621 5.37016 17.7857 5.36802 17.9076 5.36346C17.9436 5.36211 17.9794 5.36056 18.0149 5.35881Z" fill="#7F828B"/>
<path d="M18.0168 4.14878C18.0303 4.32808 18.0435 4.51995 18.0563 4.72032C18.1882 4.71326 18.3168 4.7036 18.4399 4.69223C18.4127 4.48626 18.385 4.28906 18.357 4.10538C18.2483 4.12192 18.1336 4.1369 18.0168 4.14878Z" fill="#7F828B"/>
<path d="M18.4356 4.09298C18.4638 4.27827 18.4918 4.4771 18.5192 4.6846C18.6123 4.67527 18.7017 4.66503 18.7865 4.65426C18.7465 4.43863 18.7011 4.2378 18.651 4.05446C18.5839 4.06753 18.5116 4.08057 18.4356 4.09298Z" fill="#7F828B"/>
<path d="M18.5295 4.7635C18.624 4.75402 18.7147 4.7436 18.8007 4.73264C18.8314 4.90583 18.8586 5.08806 18.882 5.27803C18.7929 5.29024 18.6975 5.30202 18.5975 5.31281C18.5855 5.21112 18.5733 5.11029 18.5609 5.0108C18.5506 4.92734 18.5401 4.84482 18.5295 4.7635Z" fill="#7F828B"/>
<path d="M18.0614 4.79971C18.195 4.79253 18.3255 4.78272 18.4503 4.77115C18.461 4.85313 18.4715 4.93638 18.482 5.0206C18.4943 5.11957 18.5064 5.21988 18.5184 5.32104C18.3835 5.33455 18.241 5.34612 18.0944 5.35457C18.0855 5.19665 18.0763 5.04116 18.067 4.88973C18.0651 4.85956 18.0633 4.82954 18.0614 4.79971Z" fill="#7F828B"/>
<path d="M17.9076 4.72709C17.9308 4.72623 17.9539 4.72527 17.9769 4.72424C17.9641 4.52505 17.951 4.33442 17.9376 4.15633C17.8727 4.1621 17.8074 4.1668 17.7425 4.17019C17.6884 4.17302 17.6346 4.17493 17.5814 4.17578C17.5741 4.35607 17.5669 4.54276 17.5601 4.73301C17.6764 4.73354 17.7928 4.73139 17.9076 4.72709Z" fill="#7F828B"/>
<path d="M17.4589 5.36823C17.4649 5.18151 17.4711 4.99518 17.4776 4.81174C17.377 4.81018 17.2764 4.80655 17.1768 4.8005C17.1539 4.98251 17.1313 5.16758 17.1094 5.35262C17.2245 5.36106 17.3415 5.36608 17.4589 5.36823Z" fill="#7F828B"/>
<path d="M17.4805 4.73222C17.3821 4.73072 17.2839 4.72722 17.1868 4.72141C17.2109 4.53108 17.2354 4.34462 17.2597 4.16562C17.3371 4.17248 17.4184 4.1758 17.5017 4.17622C17.4944 4.35617 17.4873 4.54244 17.4805 4.73222Z" fill="#7F828B"/>
<path d="M17.03 5.34622C17.0519 5.16159 17.0744 4.97687 17.0973 4.79512C17.0409 4.79092 16.9848 4.7859 16.9294 4.78C16.8995 4.95397 16.8731 5.13678 16.8504 5.32715C16.9095 5.33456 16.9694 5.34089 17.03 5.34622Z" fill="#7F828B"/>
<path d="M17.1073 4.7161C17.0521 4.71203 16.9973 4.70718 16.9432 4.70147C16.9794 4.50082 17.0202 4.31257 17.065 4.13883C17.0976 4.14521 17.1313 4.15066 17.1658 4.15527C17.1707 4.15592 17.1756 4.15656 17.1806 4.15718C17.1561 4.33723 17.1315 4.52475 17.1073 4.7161Z" fill="#7F828B"/>
<path d="M17.4564 5.44774C17.4523 5.58052 17.4483 5.71332 17.4446 5.84522C17.3134 5.84256 17.1827 5.83628 17.0548 5.82561C17.0694 5.69529 17.0845 5.56361 17.1 5.43169C17.2177 5.44039 17.337 5.44555 17.4564 5.44774Z" fill="#7F828B"/>
<path d="M17.0207 5.42525C17.0052 5.55694 16.9901 5.68836 16.9755 5.81841C16.9174 5.81267 16.8599 5.80598 16.8033 5.79826C16.8142 5.66457 16.8269 5.53375 16.8412 5.40616C16.9004 5.41357 16.9603 5.4199 17.0207 5.42525Z" fill="#7F828B"/>
<path d="M18.5276 5.40006C18.3912 5.41373 18.2472 5.42545 18.0988 5.43399C18.1061 5.56494 18.1132 5.69736 18.1201 5.83032C18.2773 5.82085 18.4293 5.80784 18.5721 5.79279C18.5576 5.66134 18.5428 5.53009 18.5276 5.40006Z" fill="#7F828B"/>
<path d="M18.8915 5.35702C18.8022 5.36924 18.7068 5.38101 18.6068 5.39182C18.6219 5.52173 18.6367 5.65283 18.6512 5.78415C18.7499 5.77296 18.8437 5.76089 18.9309 5.74847C18.9195 5.61492 18.9063 5.48431 18.8915 5.35702Z" fill="#7F828B"/>
<path d="M17.4331 6.27086C17.436 6.15674 17.4391 6.04116 17.4423 5.92474C17.3092 5.92203 17.1764 5.91563 17.0459 5.9047C17.0407 5.95195 17.0355 5.99899 17.0304 6.04576C17.0151 6.18533 17.0005 6.32251 16.9868 6.45587C17.1309 6.46978 17.279 6.47786 17.428 6.48123C17.4296 6.41176 17.4313 6.34159 17.4331 6.27086Z" fill="#7F828B"/>
<path d="M16.9513 6.03711C16.9563 5.99081 16.9615 5.94424 16.9667 5.89747C16.9095 5.89181 16.8529 5.88524 16.797 5.87768C16.7835 6.05694 16.7731 6.24114 16.7661 6.42938C16.8127 6.43616 16.8599 6.44221 16.9076 6.4476C16.9214 6.31408 16.936 6.17677 16.9513 6.03711Z" fill="#7F828B"/>
<path d="M18.1242 5.90976C18.2829 5.90021 18.4365 5.88708 18.5807 5.87187C18.6007 6.05612 18.6199 6.2404 18.6381 6.42198C18.4859 6.43902 18.322 6.45392 18.1516 6.46474C18.1429 6.2807 18.1338 6.09488 18.1242 5.90976Z" fill="#7F828B"/>
<path d="M18.6598 5.86323C18.7577 5.85214 18.8507 5.84019 18.9375 5.82788C18.9517 6.00688 18.9627 6.19093 18.9704 6.37913C18.8913 6.39073 18.8066 6.40211 18.7171 6.41283C18.699 6.2314 18.6798 6.04729 18.6598 5.86323Z" fill="#7F828B"/>
<path d="M17.4261 6.56076C17.423 6.69661 17.4202 6.82949 17.4177 6.95826C17.2561 6.95437 17.0956 6.9449 16.9401 6.92842C16.9519 6.80271 16.9648 6.67105 16.9787 6.535C17.1253 6.54916 17.2755 6.55735 17.4261 6.56076Z" fill="#7F828B"/>
<path d="M16.8995 6.52673C16.8857 6.66245 16.8728 6.79386 16.861 6.91938C16.8257 6.91503 16.7906 6.91029 16.7558 6.90515C16.7566 6.77156 16.7592 6.63952 16.7633 6.50934C16.8082 6.51578 16.8537 6.52156 16.8995 6.52673Z" fill="#7F828B"/>
<path d="M18.9734 6.45908C18.8957 6.47042 18.8125 6.48152 18.725 6.49199C18.7382 6.62486 18.7508 6.75606 18.7627 6.88453C18.8399 6.87493 18.9133 6.86487 18.9821 6.85466C18.9809 6.72109 18.978 6.58914 18.9734 6.45908Z" fill="#7F828B"/>
<path d="M18.646 6.50114C18.4924 6.51832 18.3271 6.53332 18.1554 6.5442C18.1616 6.67778 18.1677 6.81023 18.1735 6.9406C18.3531 6.92879 18.5253 6.91251 18.6837 6.89404C18.6718 6.76547 18.6592 6.63414 18.646 6.50114Z" fill="#7F828B"/>
<path d="M17.9316 4.07701C17.8672 4.08273 17.8026 4.0874 17.7383 4.09076C17.6866 4.09346 17.6352 4.0953 17.5846 4.09617C17.5903 3.95903 17.596 3.82592 17.6018 3.69813C17.6483 3.69715 17.6953 3.69538 17.7425 3.69292C17.7944 3.69021 17.8465 3.68665 17.8986 3.68239C17.9097 3.80395 17.9208 3.93619 17.9316 4.07701Z" fill="#7F828B"/>
<path fill-rule="evenodd" clip-rule="evenodd" d="M17.7383 3.61348C17.6937 3.61582 17.6493 3.61751 17.6054 3.61848C17.6169 3.37117 17.6285 3.14558 17.6399 2.95157C17.6918 2.9112 17.745 2.88427 17.7993 2.87178V2.90354C17.7887 2.90354 17.7828 2.89851 17.7811 2.89674L17.7814 2.89716C17.7833 2.89978 17.7867 2.90616 17.7912 2.91831C17.7998 2.94212 17.8092 2.97923 17.8188 3.02973C17.8381 3.13015 17.8575 3.2767 17.8768 3.45956C17.8816 3.50528 17.8864 3.55321 17.8912 3.60319C17.8402 3.60735 17.7891 3.61083 17.7383 3.61348Z" fill="#7F828B"/>
<path d="M17.3261 3.69332C17.3896 3.69725 17.4552 3.69903 17.5221 3.699C17.5163 3.82672 17.5106 3.95971 17.505 4.09669C17.4238 4.09634 17.3451 4.0932 17.2705 4.08671C17.2892 3.95027 17.3078 3.81859 17.3261 3.69332Z" fill="#7F828B"/>
<path d="M17.1913 4.07836C17.2099 3.94277 17.2284 3.81183 17.2466 3.68715C17.2322 3.6858 17.218 3.68432 17.2039 3.68271C17.162 3.79874 17.1224 3.92545 17.0854 4.06175C17.1145 4.06734 17.1449 4.07222 17.1763 4.07642C17.1813 4.07709 17.1863 4.07773 17.1913 4.07836Z" fill="#7F828B"/>
<path d="M17.3922 3.2613C17.3746 3.37071 17.3563 3.48898 17.3377 3.61433C17.3985 3.61793 17.4614 3.61955 17.5258 3.61945C17.5357 3.40455 17.5457 3.2059 17.5557 3.02995C17.4992 3.09138 17.4446 3.16897 17.3922 3.2613Z" fill="#7F828B"/>
<path d="M17.2326 3.60582C17.2411 3.60671 17.2496 3.60755 17.2582 3.60834C17.2635 3.57292 17.2687 3.53806 17.2739 3.50379C17.2599 3.53669 17.2461 3.57071 17.2326 3.60582Z" fill="#7F828B"/>
<path d="M17.8542 2.86413C17.8586 2.87246 17.8625 2.88165 17.8659 2.8911C17.8768 2.921 17.8871 2.96312 17.897 3.01475C17.9169 3.11858 17.9366 3.26783 17.9559 3.45122C17.9608 3.49737 17.9656 3.54574 17.9704 3.59616C18.0708 3.58658 18.1702 3.57456 18.2657 3.56109C18.2329 3.38664 18.2005 3.23844 18.169 3.1238C18.152 3.0622 18.1356 3.01093 18.1197 2.97078L18.1185 2.9678C18.0383 2.89973 17.9549 2.86377 17.8692 2.86377C17.8642 2.86377 17.8592 2.86389 17.8542 2.86413Z" fill="#7F828B"/>
<path d="M18.2802 3.63939C18.1824 3.65321 18.0807 3.66554 17.9778 3.67536C17.989 3.79687 18 3.92893 18.0108 4.06944C18.1254 4.05774 18.2381 4.04301 18.3449 4.02676C18.3234 3.88851 18.3017 3.75867 18.2802 3.63939Z" fill="#7F828B"/>
<path d="M18.4235 4.01436C18.402 3.87659 18.3804 3.74703 18.3589 3.62782C18.4091 3.62016 18.458 3.61218 18.5051 3.60402C18.549 3.71752 18.5905 3.84244 18.6294 3.97761C18.5651 3.99009 18.496 4.00251 18.4235 4.01436Z" fill="#7F828B"/>
<path d="M18.2471 3.10807C18.2792 3.22556 18.3118 3.37533 18.3445 3.54955C18.3891 3.54276 18.4327 3.53571 18.4749 3.5285C18.4041 3.35779 18.3278 3.21613 18.2471 3.10807Z" fill="#7F828B"/>
<path d="M25.8522 4.29545C26.9659 4.77273 29.1454 6.18864 28.9545 8.03409C28.8731 8.82118 28.7502 9.28897 28.6216 9.55225C29.373 8.74653 31.3349 8.69087 32.347 8.78288C30.5537 8.66332 29.088 10.5464 28.4772 11.6764V13.4C29.0815 12.4145 31.261 12.3433 32.347 12.442C30.5537 12.3224 29.088 14.2055 28.4772 15.3355V16.9C29.0815 15.9145 31.261 15.8433 32.347 15.942C30.5537 15.8224 29.088 17.7055 28.4772 18.8355V24.0227H27.5227V19.9659C26.9924 18.8788 25.4545 16.7363 23.5454 16.8636C24.7121 16.7576 27.1409 16.8477 27.5227 18.0568V16.4988C26.9924 15.4117 25.4545 13.2692 23.5454 13.3965C24.7121 13.2905 27.1409 13.3806 27.5227 14.5897V12.6806C26.9924 11.5935 25.4545 9.45105 23.5454 9.57834C24.7121 9.47228 27.1409 9.56243 27.5227 10.7715V9.67735C27.1738 9.39947 26.7221 8.75577 26.8863 7.71591C27.0772 6.50682 26.2765 4.93182 25.8522 4.29545Z" fill="#7F828B"/>
<path d="M29.034 7.07947C29.034 6.69765 28.6098 6.12492 28.3977 5.88628C28.5568 5.64765 30.2623 4.75099 29.9886 4.93174C29.7267 5.10471 29.034 7.55674 29.034 7.07947Z" fill="#7F828B"/>
<path d="M27.7481 4.7165C27.7553 4.53843 27.7632 4.3523 27.7716 4.1612C27.8332 4.16474 27.8957 4.16773 27.9586 4.17009C28.0951 4.1752 28.2342 4.17731 28.3733 4.1755C28.3769 4.37306 28.3797 4.56006 28.3814 4.7322C28.241 4.7342 28.1002 4.73215 27.9615 4.72696C27.8896 4.72427 27.8184 4.72074 27.7481 4.7165Z" fill="#7F828B"/>
<path d="M27.6687 4.71138C27.6759 4.53337 27.6838 4.34732 27.6922 4.15631C27.5113 4.14445 27.3378 4.12809 27.1781 4.1095C27.1605 4.30098 27.1444 4.48572 27.13 4.66003C27.2956 4.68025 27.4778 4.6983 27.6687 4.71138Z" fill="#7F828B"/>
<path d="M27.1235 4.73937C27.2903 4.75969 27.4735 4.77778 27.6655 4.79089C27.6588 4.95816 27.6527 5.11772 27.6472 5.26691C27.4743 5.11683 27.2946 4.97785 27.1146 4.85096C27.1175 4.81432 27.1204 4.77712 27.1235 4.73937Z" fill="#7F828B"/>
<path d="M27.051 4.65007C27.0654 4.47583 27.0815 4.29126 27.0991 4.1C27.0246 4.09075 26.9535 4.08107 26.8865 4.07122C26.8864 4.09289 26.8863 4.11461 26.8863 4.13636C26.8863 4.30282 26.889 4.46699 26.8941 4.62831C26.9442 4.63569 26.9966 4.64298 27.051 4.65007Z" fill="#7F828B"/>
<path d="M26.9084 4.71079C26.9522 4.71711 26.9976 4.72335 27.0445 4.72944C27.0426 4.75261 27.0408 4.77558 27.039 4.79835C26.9954 4.76844 26.9519 4.73925 26.9084 4.71079Z" fill="#7F828B"/>
<path d="M27.7449 4.79599C27.8152 4.80023 27.8866 4.80376 27.9586 4.80645C28.098 4.81167 28.24 4.81376 28.3821 4.81174C28.3828 4.88553 28.3832 4.9563 28.3834 5.02368C28.384 5.23952 28.3825 5.42033 28.3784 5.55424C28.3766 5.61558 28.3742 5.66674 28.3712 5.70676C28.3037 5.75438 28.2483 5.79683 28.2097 5.83176C28.0605 5.65571 27.8964 5.48979 27.7242 5.33503C27.7303 5.16808 27.7373 4.98708 27.7449 4.79599Z" fill="#7F828B"/>
<path d="M28.9981 5.31101C29.0006 5.30046 29.0031 5.27989 29.0045 5.24678C29.0061 5.20897 29.006 5.15926 29.0043 5.09867C29.0019 5.01097 28.9963 4.9016 28.9878 4.77451C28.8167 4.79445 28.6396 4.80569 28.4617 4.81018C28.4623 4.88443 28.4627 4.95564 28.4629 5.02344C28.4636 5.23961 28.4621 5.42144 28.4579 5.55667C28.4569 5.59056 28.4557 5.62162 28.4543 5.64964C28.6063 5.5475 28.7996 5.42841 28.9981 5.31101Z" fill="#7F828B"/>
<path d="M29.0668 4.76462C29.0754 4.89216 29.0812 5.00264 29.0837 5.09194C29.0907 4.98287 29.0965 4.87212 29.101 4.7599C29.0897 4.76151 29.0783 4.76308 29.0668 4.76462Z" fill="#7F828B"/>
<path d="M29.1041 4.6791C29.0899 4.68117 29.0756 4.68317 29.0613 4.6851C29.0597 4.66246 29.058 4.63935 29.0562 4.61581C29.0453 4.47096 29.0315 4.30915 29.0155 4.13484C29.0484 4.13081 29.0811 4.12644 29.1136 4.12173L29.1136 4.13636C29.1136 4.32033 29.1104 4.50149 29.1041 4.6791Z" fill="#7F828B"/>
<path d="M28.9823 4.69507C28.8133 4.71489 28.6378 4.72612 28.4609 4.73062C28.4592 4.55844 28.4565 4.37148 28.4529 4.17403C28.616 4.17012 28.7785 4.16056 28.9364 4.14386C28.9524 4.31712 28.966 4.4779 28.9769 4.6218C28.9788 4.64675 28.9806 4.67118 28.9823 4.69507Z" fill="#7F828B"/>
<path d="M27.9615 4.0906C27.8988 4.08825 27.8366 4.08526 27.7751 4.08172C27.7809 3.9513 27.7869 3.81879 27.7932 3.68514C27.8478 3.68816 27.903 3.69073 27.9586 3.69281C28.0919 3.6978 28.2276 3.69994 28.3635 3.69835C28.3666 3.83426 28.3694 3.96718 28.3719 4.09596C28.2346 4.09774 28.097 4.09567 27.9615 4.0906Z" fill="#7F828B"/>
<path d="M28.3616 3.61882C28.2278 3.62036 28.0936 3.61827 27.9615 3.61332C27.9062 3.61125 27.8513 3.60869 27.7969 3.60568C27.8057 3.42156 27.8148 3.23565 27.8243 3.05045C27.8688 3.05275 27.9135 3.05476 27.9586 3.05645C28.0866 3.06124 28.2168 3.0634 28.3473 3.06216C28.3505 3.17885 28.3536 3.29471 28.3565 3.4091C28.3583 3.47962 28.36 3.54957 28.3616 3.61882Z" fill="#7F828B"/>
<path d="M27.8498 2.57446C27.8425 2.70548 27.8354 2.83797 27.8284 2.97101C27.8725 2.97329 27.9169 2.97529 27.9615 2.97696C28.0882 2.9817 28.2167 2.98382 28.345 2.98263C28.3413 2.85066 28.3373 2.71782 28.3332 2.58501C28.2074 2.58597 28.0819 2.58379 27.9586 2.57918C27.9221 2.57781 27.8858 2.57624 27.8498 2.57446Z" fill="#7F828B"/>
<path d="M27.8542 2.49504C27.8631 2.33734 27.8722 2.18207 27.8815 2.03086C27.8834 2.00036 27.8853 1.97002 27.8872 1.93986C27.9109 1.94094 27.9347 1.94192 27.9586 1.94281C28.075 1.94717 28.1933 1.94935 28.3119 1.94877C28.3185 2.13227 28.3247 2.31867 28.3306 2.50547C28.2071 2.50639 28.0835 2.50425 27.9615 2.49969C27.9256 2.49834 27.8898 2.49679 27.8542 2.49504Z" fill="#7F828B"/>
<path d="M27.8523 1.28502C27.8388 1.46431 27.8256 1.65618 27.8128 1.85655C27.681 1.84949 27.5523 1.83984 27.4292 1.82846C27.4564 1.62249 27.4842 1.42529 27.5121 1.24161C27.6208 1.25815 27.7356 1.27313 27.8523 1.28502Z" fill="#7F828B"/>
<path d="M27.4336 1.22921C27.4053 1.4145 27.3774 1.61333 27.35 1.82083C27.2569 1.8115 27.1674 1.80126 27.0826 1.79049C27.1227 1.57486 27.1681 1.37403 27.2181 1.19069C27.2852 1.20376 27.3575 1.2168 27.4336 1.22921Z" fill="#7F828B"/>
<path d="M27.3396 1.89974C27.2452 1.89025 27.1544 1.87983 27.0684 1.86887C27.0378 2.04206 27.0106 2.22429 26.9871 2.41426C27.0763 2.42648 27.1716 2.43825 27.2716 2.44904C27.2837 2.34735 27.2959 2.24652 27.3082 2.14703C27.3186 2.06357 27.3291 1.98105 27.3396 1.89974Z" fill="#7F828B"/>
<path d="M27.8078 1.93594C27.6741 1.92877 27.5437 1.91895 27.4189 1.90739C27.4082 1.98936 27.3976 2.07261 27.3872 2.15683C27.3749 2.25581 27.3627 2.35611 27.3508 2.45727C27.4857 2.47078 27.6281 2.48235 27.7748 2.4908C27.7837 2.33288 27.7928 2.17739 27.8021 2.02596C27.804 1.99579 27.8059 1.96578 27.8078 1.93594Z" fill="#7F828B"/>
<path d="M27.9615 1.86332C27.9384 1.86246 27.9153 1.8615 27.8923 1.86047C27.905 1.66128 27.9181 1.47065 27.9315 1.29256C27.9965 1.29833 28.0618 1.30303 28.1267 1.30642C28.1807 1.30925 28.2346 1.31116 28.2878 1.31201C28.2951 1.4923 28.3022 1.67899 28.3091 1.86924C28.1927 1.86977 28.0764 1.86762 27.9615 1.86332Z" fill="#7F828B"/>
<path d="M28.4102 2.50446C28.4043 2.31775 28.398 2.13142 28.3915 1.94797C28.4921 1.94641 28.5927 1.94278 28.6923 1.93673C28.7152 2.11874 28.7378 2.30381 28.7598 2.48885C28.6446 2.49729 28.5276 2.50231 28.4102 2.50446Z" fill="#7F828B"/>
<path d="M28.3887 1.86845C28.4871 1.86695 28.5853 1.86345 28.6824 1.85764C28.6582 1.66731 28.6338 1.48085 28.6095 1.30185C28.532 1.30871 28.4508 1.31203 28.3674 1.31245C28.3747 1.4924 28.3818 1.67867 28.3887 1.86845Z" fill="#7F828B"/>
<path d="M28.8391 2.48245C28.8172 2.29782 28.7947 2.1131 28.7718 1.93135C28.8283 1.92715 28.8843 1.92213 28.9398 1.91623C28.9696 2.0902 28.996 2.27301 29.0187 2.46338C28.9596 2.47079 28.8997 2.47712 28.8391 2.48245Z" fill="#7F828B"/>
<path d="M28.7619 1.85233C28.817 1.84826 28.8718 1.84341 28.9259 1.83771C28.8898 1.63705 28.849 1.44881 28.8042 1.27506C28.7715 1.28144 28.7378 1.28689 28.7034 1.2915C28.6985 1.29215 28.6935 1.29279 28.6886 1.29341C28.713 1.47347 28.7376 1.66098 28.7619 1.85233Z" fill="#7F828B"/>
<path d="M28.4127 2.58397C28.4168 2.71675 28.4208 2.84955 28.4246 2.98145C28.5558 2.97879 28.6864 2.97251 28.8144 2.96184C28.7997 2.83152 28.7846 2.69984 28.7691 2.56792C28.6515 2.57662 28.5322 2.58178 28.4127 2.58397Z" fill="#7F828B"/>
<path d="M28.8484 2.56148C28.8639 2.69317 28.879 2.82459 28.8936 2.95464C28.9517 2.9489 29.0092 2.94221 29.0659 2.93449C29.0549 2.8008 29.0423 2.66998 29.0279 2.54239C28.9688 2.5498 28.9089 2.55613 28.8484 2.56148Z" fill="#7F828B"/>
<path d="M27.3415 2.53629C27.4779 2.54996 27.622 2.56168 27.7703 2.57022C27.763 2.70117 27.7559 2.83359 27.749 2.96655C27.5919 2.95708 27.4398 2.94408 27.2971 2.92902C27.3115 2.79757 27.3263 2.66632 27.3415 2.53629Z" fill="#7F828B"/>
<path d="M26.9776 2.49325C27.0669 2.50547 27.1623 2.51725 27.2624 2.52805C27.2472 2.65796 27.2324 2.78906 27.218 2.92038C27.1192 2.9092 27.0254 2.89712 26.9382 2.8847C26.9496 2.75115 26.9628 2.62054 26.9776 2.49325Z" fill="#7F828B"/>
<path d="M28.436 3.40709C28.4331 3.29297 28.43 3.17739 28.4268 3.06097C28.5599 3.05827 28.6928 3.05186 28.8232 3.04093C28.8285 3.08818 28.8337 3.13522 28.8388 3.18199C28.854 3.32156 28.8686 3.45874 28.8824 3.5921C28.7382 3.60601 28.5901 3.61409 28.4412 3.61746C28.4395 3.54799 28.4378 3.47782 28.436 3.40709Z" fill="#7F828B"/>
<path d="M28.9179 3.17335C28.9128 3.12704 28.9077 3.08047 28.9025 3.0337C28.9596 3.02804 29.0162 3.02147 29.0721 3.01391C29.0857 3.19317 29.0961 3.37737 29.1031 3.56561C29.0565 3.57239 29.0092 3.57844 28.9615 3.58383C28.9477 3.45031 28.9331 3.31301 28.9179 3.17335Z" fill="#7F828B"/>
<path d="M27.7449 3.04599C27.5862 3.03644 27.4327 3.02331 27.2884 3.0081C27.2684 3.19235 27.2492 3.37663 27.231 3.55821C27.3833 3.57525 27.5472 3.59015 27.7175 3.60097C27.7262 3.41693 27.7354 3.23111 27.7449 3.04599Z" fill="#7F828B"/>
<path d="M27.2093 2.99946C27.1114 2.98837 27.0184 2.97642 26.9317 2.96411C26.9175 3.14311 26.9064 3.32716 26.8988 3.51536C26.9778 3.52697 27.0626 3.53834 27.152 3.54906C27.1702 3.36763 27.1894 3.18353 27.2093 2.99946Z" fill="#7F828B"/>
<path d="M28.443 3.69699C28.4461 3.83284 28.4489 3.96572 28.4514 4.09449C28.613 4.0906 28.7735 4.08113 28.9291 4.06465C28.9172 3.93895 28.9043 3.80728 28.8905 3.67123C28.7439 3.68539 28.5937 3.69358 28.443 3.69699Z" fill="#7F828B"/>
<path d="M28.9696 3.66296C28.9834 3.79868 28.9963 3.93009 29.0081 4.05561C29.0435 4.05126 29.0786 4.04652 29.1133 4.04138C29.1125 3.90779 29.11 3.77576 29.1058 3.64558C29.0609 3.65201 29.0155 3.65779 28.9696 3.66296Z" fill="#7F828B"/>
<path d="M26.8958 3.59531C26.9735 3.60665 27.0566 3.61775 27.1441 3.62823C27.131 3.76109 27.1184 3.89229 27.1064 4.02076C27.0293 4.01116 26.9559 4.00111 26.887 3.99089C26.8882 3.85732 26.8912 3.72537 26.8958 3.59531Z" fill="#7F828B"/>
<path d="M27.2231 3.63737C27.3767 3.65455 27.542 3.66955 27.7138 3.68043C27.7075 3.81401 27.7015 3.94646 27.6957 4.07683C27.5161 4.06502 27.3439 4.04874 27.1854 4.03028C27.1974 3.9017 27.21 3.77038 27.2231 3.63737Z" fill="#7F828B"/>
<path d="M27.9375 1.21324C28.0019 1.21896 28.0666 1.22363 28.1308 1.22699C28.1825 1.22969 28.2339 1.23153 28.2845 1.2324C28.2789 1.09526 28.2731 0.962147 28.2674 0.834359C28.2208 0.833385 28.1738 0.831614 28.1267 0.829151C28.0748 0.826439 28.0226 0.822885 27.9705 0.818621C27.9594 0.940178 27.9484 1.07242 27.9375 1.21324Z" fill="#7F828B"/>
<path fill-rule="evenodd" clip-rule="evenodd" d="M28.1308 0.749714C28.1755 0.752046 28.2198 0.753741 28.2637 0.754716C28.2523 0.507404 28.2407 0.281806 28.2293 0.0878016C28.1774 0.0474345 28.1241 0.0204962 28.0698 0.0080101V0.0397727C28.0804 0.0397727 28.0863 0.0347375 28.088 0.0329691L28.0877 0.0333904C28.0858 0.0360066 28.0824 0.0423879 28.078 0.054542C28.0693 0.078347 28.06 0.115462 28.0503 0.165958C28.031 0.266382 28.0116 0.412934 27.9924 0.595788C27.9875 0.641511 27.9827 0.689442 27.9779 0.739417C28.0289 0.743584 28.08 0.74706 28.1308 0.749714Z" fill="#7F828B"/>
<path d="M28.543 0.829551C28.4795 0.833478 28.4139 0.835261 28.347 0.835227C28.3528 0.962947 28.3585 1.09594 28.3642 1.23292C28.4453 1.23257 28.524 1.22943 28.5987 1.22294C28.58 1.0865 28.5613 0.954822 28.543 0.829551Z" fill="#7F828B"/>
<path d="M28.6778 1.21459C28.6592 1.079 28.6407 0.948061 28.6225 0.823382C28.6369 0.822027 28.6511 0.820547 28.6652 0.818939C28.7071 0.93497 28.7467 1.06168 28.7838 1.19798C28.7546 1.20357 28.7243 1.20845 28.6928 1.21265C28.6879 1.21332 28.6829 1.21396 28.6778 1.21459Z" fill="#7F828B"/>
<path d="M28.4769 0.397529C28.4946 0.506945 28.5128 0.625213 28.5314 0.750564C28.4707 0.754162 28.4078 0.755776 28.3434 0.755677C28.3335 0.540777 28.3234 0.342132 28.3135 0.166185C28.37 0.227609 28.4246 0.305204 28.4769 0.397529Z" fill="#7F828B"/>
<path d="M28.6366 0.742054C28.6281 0.74294 28.6195 0.743779 28.6109 0.744573C28.6057 0.709152 28.6005 0.674287 28.5953 0.640019C28.6093 0.672918 28.623 0.706941 28.6366 0.742054Z" fill="#7F828B"/>
<path d="M28.0149 0.000365275C28.0105 0.00868864 28.0067 0.0178852 28.0032 0.0273339C27.9923 0.0572324 27.9821 0.0993526 27.9722 0.150981C27.9523 0.254806 27.9326 0.404064 27.9133 0.58745C27.9084 0.633597 27.9035 0.681967 27.8987 0.732391C27.7983 0.722809 27.699 0.710787 27.6034 0.69732C27.6362 0.522871 27.6687 0.374672 27.7002 0.260028C27.7171 0.198433 27.7336 0.147164 27.7495 0.107012L27.7507 0.104034C27.8308 0.0359582 27.9143 0 28 0C28.0049 0 28.0099 0.000122011 28.0149 0.000365275Z" fill="#7F828B"/>
<path d="M27.589 0.775617C27.6867 0.789437 27.7885 0.801775 27.8913 0.81159C27.8802 0.933102 27.8692 1.06516 27.8583 1.20567C27.7438 1.19397 27.631 1.17924 27.5242 1.16299C27.5458 1.02474 27.5674 0.894902 27.589 0.775617Z" fill="#7F828B"/>
<path d="M27.4457 1.15059C27.4671 1.01282 27.4887 0.883263 27.5102 0.764046C27.4601 0.756394 27.4112 0.74841 27.364 0.740246C27.3202 0.853746 27.2786 0.978666 27.2397 1.11384C27.304 1.12632 27.3731 1.13874 27.4457 1.15059Z" fill="#7F828B"/>
<path d="M27.622 0.244299C27.59 0.361792 27.5573 0.51156 27.5246 0.685777C27.48 0.678992 27.4365 0.67194 27.3943 0.66473C27.465 0.49402 27.5414 0.35236 27.622 0.244299Z" fill="#7F828B"/>
<path d="M39.2674 7.00004C38.1538 7.47732 35.9742 8.89323 36.1651 10.7387C36.2466 11.5258 36.3695 11.9936 36.498 12.2568C35.7467 11.4511 33.7847 11.3955 32.7726 11.4875C34.5659 11.3679 36.0316 13.251 36.6424 14.381V16.1046C36.0382 15.1191 33.8586 15.0478 32.7726 15.1466C34.5659 15.027 36.0316 16.9101 36.6424 18.0401V19.6046C36.0382 18.6191 33.8586 18.5478 32.7726 18.6466C34.5659 18.527 36.0316 20.4101 36.6424 21.5401V24.0228H37.5969V22.6705C38.1273 21.5834 39.6651 19.4409 41.5742 19.5682C40.4076 19.4622 37.9788 19.5523 37.5969 20.7614V19.2034C38.1273 18.1163 39.6651 15.9738 41.5742 16.1011C40.4076 15.995 37.9788 16.0852 37.5969 17.2943V15.3852C38.1273 14.2981 39.6651 12.1556 41.5742 12.2829C40.4076 12.1769 37.9788 12.267 37.5969 13.4761V12.3819C37.9459 12.1041 38.3975 11.4604 38.2333 10.4205C38.0424 9.21141 38.8432 7.63641 39.2674 7.00004Z" fill="#7F828B"/>
<path d="M36.0856 9.78406C36.0856 9.40224 36.5098 8.82951 36.7219 8.59087C36.5629 8.35224 34.8574 7.45558 35.131 7.63633C35.3929 7.8093 36.0856 10.2613 36.0856 9.78406Z" fill="#7F828B"/>
<path d="M37.3715 7.42109C37.3643 7.24302 37.3565 7.05689 37.3481 6.86579C37.2864 6.86933 37.224 6.87232 37.1611 6.87468C37.0245 6.87979 36.8854 6.8819 36.7463 6.88009C36.7427 7.07765 36.74 7.26465 36.7382 7.43679C36.8787 7.43879 37.0195 7.43674 37.1581 7.43155C37.23 7.42886 37.3013 7.42533 37.3715 7.42109Z" fill="#7F828B"/>
<path d="M37.4509 7.41597C37.4437 7.23796 37.4359 7.05191 37.4275 6.8609C37.6083 6.84904 37.7818 6.83268 37.9416 6.81409C37.9592 7.00557 37.9753 7.19031 37.9896 7.36462C37.824 7.38484 37.6419 7.40289 37.4509 7.41597Z" fill="#7F828B"/>
<path d="M37.9961 7.44396C37.8293 7.46428 37.6461 7.48237 37.4541 7.49548C37.4608 7.66275 37.467 7.82231 37.4725 7.9715C37.6453 7.82142 37.825 7.68244 38.005 7.55555C38.0021 7.51891 37.9992 7.48171 37.9961 7.44396Z" fill="#7F828B"/>
<path d="M38.0686 7.35466C38.0543 7.18042 38.0381 6.99585 38.0206 6.80459C38.0951 6.79534 38.1662 6.78566 38.2332 6.77581C38.2333 6.79748 38.2333 6.8192 38.2333 6.84095C38.2333 7.00741 38.2307 7.17158 38.2255 7.3329C38.1755 7.34028 38.1231 7.34757 38.0686 7.35466Z" fill="#7F828B"/>
<path d="M38.2112 7.41538C38.1674 7.4217 38.122 7.42794 38.0751 7.43403C38.077 7.4572 38.0788 7.48017 38.0807 7.50294C38.1242 7.47303 38.1678 7.44384 38.2112 7.41538Z" fill="#7F828B"/>
<path d="M37.3747 7.50058C37.3044 7.50482 37.2331 7.50835 37.1611 7.51104C37.0217 7.51626 36.8796 7.51835 36.7375 7.51633C36.7369 7.59012 36.7365 7.66089 36.7362 7.72827C36.7356 7.94411 36.7371 8.12492 36.7412 8.25883C36.7431 8.32017 36.7455 8.37133 36.7484 8.41135C36.816 8.45897 36.8713 8.50142 36.91 8.53635C37.0592 8.3603 37.2232 8.19438 37.3954 8.03962C37.3893 7.87267 37.3824 7.69167 37.3747 7.50058Z" fill="#7F828B"/>
<path d="M36.1216 8.0156C36.1191 8.00505 36.1165 7.98448 36.1151 7.95137C36.1136 7.91356 36.1136 7.86385 36.1153 7.80326C36.1177 7.71556 36.1233 7.60619 36.1318 7.4791C36.3029 7.49904 36.4801 7.51028 36.658 7.51477C36.6573 7.58902 36.6569 7.66023 36.6567 7.72803C36.656 7.9442 36.6576 8.12603 36.6617 8.26126C36.6627 8.29515 36.6639 8.32621 36.6653 8.35423C36.5133 8.25209 36.32 8.133 36.1216 8.0156Z" fill="#7F828B"/>
<path d="M36.0528 7.46921C36.0442 7.59675 36.0384 7.70723 36.0359 7.79653C36.029 7.68746 36.0232 7.57671 36.0186 7.46449C36.03 7.4661 36.0414 7.46767 36.0528 7.46921Z" fill="#7F828B"/>
<path d="M36.0155 7.38369C36.0297 7.38576 36.044 7.38776 36.0583 7.38969C36.0599 7.36705 36.0616 7.34394 36.0634 7.3204C36.0744 7.17555 36.0881 7.01374 36.1042 6.83943C36.0712 6.83539 36.0385 6.83103 36.006 6.82632L36.006 6.84095C36.006 7.02492 36.0093 7.20608 36.0155 7.38369Z" fill="#7F828B"/>
<path d="M36.1373 7.39966C36.3063 7.41948 36.4818 7.43071 36.6587 7.43521C36.6604 7.26303 36.6632 7.07607 36.6667 6.87862C36.5036 6.87471 36.3411 6.86515 36.1832 6.84845C36.1673 7.02171 36.1536 7.18249 36.1427 7.32639C36.1409 7.35134 36.1391 7.37577 36.1373 7.39966Z" fill="#7F828B"/>
<path d="M37.1581 6.79519C37.2208 6.79284 37.2831 6.78985 37.3446 6.78631C37.3388 6.65589 37.3327 6.52338 37.3265 6.38973C37.2718 6.39275 37.2166 6.39532 37.1611 6.3974C37.0278 6.40239 36.892 6.40453 36.7561 6.40294C36.753 6.53885 36.7502 6.67177 36.7478 6.80055C36.885 6.80233 37.0226 6.80026 37.1581 6.79519Z" fill="#7F828B"/>
<path d="M36.758 6.32341C36.8919 6.32495 37.026 6.32286 37.1581 6.31791C37.2134 6.31584 37.2683 6.31328 37.3227 6.31027C37.314 6.12615 37.3048 5.94024 37.2953 5.75504C37.2509 5.75734 37.2061 5.75935 37.1611 5.76104C37.0331 5.76583 36.9028 5.76799 36.7724 5.76675C36.7691 5.88344 36.766 5.9993 36.7631 6.11369C36.7613 6.18421 36.7596 6.25416 36.758 6.32341Z" fill="#7F828B"/>
<path d="M37.2699 5.27905C37.2772 5.41007 37.2843 5.54256 37.2912 5.6756C37.2471 5.67788 37.2027 5.67988 37.1581 5.68155C37.0314 5.68629 36.903 5.68841 36.7746 5.68722C36.7784 5.55525 36.7823 5.42241 36.7865 5.2896C36.9122 5.29056 37.0377 5.28838 37.1611 5.28377C37.1975 5.2824 37.2338 5.28082 37.2699 5.27905Z" fill="#7F828B"/>
<path d="M37.2654 5.19963C37.2565 5.04193 37.2474 4.88666 37.2381 4.73545C37.2362 4.70495 37.2343 4.67461 37.2324 4.64445C37.2087 4.64553 37.1849 4.64651 37.1611 4.6474C37.0446 4.65176 36.9263 4.65394 36.8077 4.65336C36.8012 4.83686 36.7949 5.02326 36.789 5.21006C36.9125 5.21098 37.0362 5.20884 37.1581 5.20428C37.194 5.20293 37.2298 5.20138 37.2654 5.19963Z" fill="#7F828B"/>
<path d="M37.2673 3.9896C37.2808 4.1689 37.294 4.36077 37.3068 4.56114C37.4386 4.55408 37.5673 4.54443 37.6904 4.53305C37.6632 4.32708 37.6355 4.12988 37.6075 3.9462C37.4988 3.96274 37.384 3.97772 37.2673 3.9896Z" fill="#7F828B"/>
<path d="M37.6861 3.9338C37.7143 4.11909 37.7423 4.31792 37.7697 4.52542C37.8627 4.51609 37.9522 4.50585 38.037 4.49508C37.997 4.27945 37.9516 4.07862 37.9015 3.89528C37.8344 3.90835 37.7621 3.92139 37.6861 3.9338Z" fill="#7F828B"/>
<path d="M37.78 4.60433C37.8744 4.59484 37.9652 4.58442 38.0512 4.57346C38.0818 4.74665 38.1091 4.92888 38.1325 5.11885C38.0434 5.13107 37.948 5.14284 37.848 5.15363C37.836 5.05194 37.8238 4.95111 37.8114 4.85162C37.8011 4.76816 37.7906 4.68564 37.78 4.60433Z" fill="#7F828B"/>
<path d="M37.3119 4.64053C37.4455 4.63336 37.576 4.62354 37.7008 4.61197C37.7114 4.69395 37.722 4.7772 37.7325 4.86142C37.7448 4.9604 37.7569 5.0607 37.7689 5.16186C37.634 5.17537 37.4915 5.18694 37.3449 5.19539C37.336 5.03747 37.3268 4.88198 37.3175 4.73055C37.3156 4.70038 37.3137 4.67037 37.3119 4.64053Z" fill="#7F828B"/>
<path d="M37.1581 4.56791C37.1813 4.56705 37.2044 4.56609 37.2274 4.56506C37.2146 4.36587 37.2015 4.17524 37.1881 3.99715C37.1231 4.00292 37.0578 4.00762 36.993 4.01101C36.9389 4.01384 36.8851 4.01575 36.8318 4.0166C36.8245 4.19689 36.8174 4.38358 36.8105 4.57383C36.9269 4.57436 37.0433 4.57221 37.1581 4.56791Z" fill="#7F828B"/>
<path d="M36.7094 5.20905C36.7153 5.02234 36.7216 4.83601 36.7281 4.65256C36.6275 4.651 36.5269 4.64737 36.4273 4.64132C36.4044 4.82333 36.3818 5.0084 36.3599 5.19344C36.475 5.20188 36.592 5.2069 36.7094 5.20905Z" fill="#7F828B"/>
<path d="M36.731 4.57304C36.6326 4.57154 36.5344 4.56804 36.4373 4.56223C36.4614 4.3719 36.4859 4.18544 36.5102 4.00644C36.5876 4.0133 36.6689 4.01662 36.7522 4.01704C36.7449 4.19699 36.7378 4.38326 36.731 4.57304Z" fill="#7F828B"/>
<path d="M36.2805 5.18704C36.3024 5.00241 36.3249 4.81769 36.3478 4.63594C36.2914 4.63174 36.2353 4.62672 36.1799 4.62082C36.15 4.79479 36.1236 4.9776 36.1009 5.16797C36.16 5.17538 36.2199 5.18171 36.2805 5.18704Z" fill="#7F828B"/>
<path d="M36.3578 4.55692C36.3026 4.55285 36.2478 4.548 36.1937 4.5423C36.2299 4.34164 36.2706 4.1534 36.3155 3.97965C36.3481 3.98603 36.3818 3.99148 36.4163 3.99609C36.4212 3.99674 36.4261 3.99738 36.431 3.998C36.4066 4.17805 36.382 4.36557 36.3578 4.55692Z" fill="#7F828B"/>
<path d="M36.7069 5.28856C36.7028 5.42134 36.6988 5.55414 36.6951 5.68604C36.5639 5.68338 36.4332 5.6771 36.3053 5.66643C36.3199 5.53611 36.335 5.40443 36.3505 5.27251C36.4681 5.28121 36.5875 5.28637 36.7069 5.28856Z" fill="#7F828B"/>
<path d="M36.2712 5.26607C36.2557 5.39776 36.2406 5.52918 36.226 5.65923C36.1679 5.65349 36.1104 5.6468 36.0538 5.63908C36.0647 5.50539 36.0774 5.37457 36.0917 5.24698C36.1509 5.25439 36.2107 5.26072 36.2712 5.26607Z" fill="#7F828B"/>
<path d="M37.7781 5.24088C37.6417 5.25455 37.4976 5.26627 37.3493 5.27481C37.3566 5.40576 37.3637 5.53818 37.3706 5.67114C37.5278 5.66167 37.6798 5.64867 37.8226 5.63361C37.8081 5.50216 37.7933 5.37091 37.7781 5.24088Z" fill="#7F828B"/>
<path d="M38.142 5.19784C38.0527 5.21006 37.9573 5.22184 37.8573 5.23264C37.8724 5.36255 37.8872 5.49365 37.9016 5.62497C38.0004 5.61379 38.0942 5.60171 38.1814 5.58929C38.17 5.45574 38.1568 5.32513 38.142 5.19784Z" fill="#7F828B"/>
<path d="M36.6836 6.11168C36.6865 5.99756 36.6896 5.88198 36.6928 5.76556C36.5597 5.76286 36.4268 5.75645 36.2964 5.74552C36.2911 5.79277 36.286 5.83981 36.2808 5.88658C36.2656 6.02615 36.251 6.16333 36.2372 6.29669C36.3814 6.3106 36.5295 6.31868 36.6785 6.32205C36.6801 6.25258 36.6818 6.18241 36.6836 6.11168Z" fill="#7F828B"/>
<path d="M36.2018 5.87793C36.2068 5.83163 36.212 5.78506 36.2172 5.73829C36.16 5.73263 36.1034 5.72606 36.0475 5.7185C36.034 5.89776 36.0235 6.08196 36.0166 6.2702C36.0632 6.27698 36.1104 6.28303 36.1581 6.28842C36.1719 6.1549 36.1865 6.0176 36.2018 5.87793Z" fill="#7F828B"/>
<path d="M37.3747 5.75058C37.5334 5.74103 37.687 5.7279 37.8312 5.71269C37.8512 5.89694 37.8704 6.08122 37.8886 6.2628C37.7364 6.27984 37.5724 6.29474 37.4021 6.30556C37.3934 6.12152 37.3842 5.9357 37.3747 5.75058Z" fill="#7F828B"/>
<path d="M37.9103 5.70405C38.0082 5.69296 38.1012 5.68101 38.188 5.6687C38.2022 5.8477 38.2132 6.03175 38.2208 6.21995C38.1418 6.23156 38.057 6.24293 37.9676 6.25365C37.9494 6.07222 37.9303 5.88811 37.9103 5.70405Z" fill="#7F828B"/>
<path d="M36.6766 6.40158C36.6735 6.53743 36.6707 6.67031 36.6682 6.79908C36.5066 6.79519 36.3461 6.78572 36.1906 6.76924C36.2024 6.64354 36.2153 6.51187 36.2291 6.37582C36.3758 6.38998 36.526 6.39817 36.6766 6.40158Z" fill="#7F828B"/>
<path d="M36.15 6.36755C36.1362 6.50327 36.1233 6.63468 36.1115 6.7602C36.0761 6.75585 36.0411 6.75111 36.0063 6.74597C36.0071 6.61238 36.0097 6.48035 36.0138 6.35016C36.0587 6.3566 36.1042 6.36238 36.15 6.36755Z" fill="#7F828B"/>
<path d="M38.2239 6.2999C38.1461 6.31124 38.063 6.32234 37.9755 6.33282C37.9887 6.46568 38.0013 6.59688 38.0132 6.72535C38.0904 6.71575 38.1637 6.7057 38.2326 6.69548C38.2314 6.56191 38.2284 6.42996 38.2239 6.2999Z" fill="#7F828B"/>
<path d="M37.8965 6.34196C37.7429 6.35914 37.5776 6.37414 37.4059 6.38502C37.4121 6.5186 37.4182 6.65105 37.424 6.78142C37.6036 6.76961 37.7757 6.75333 37.9342 6.73487C37.9223 6.60629 37.9097 6.47497 37.8965 6.34196Z" fill="#7F828B"/>
<path d="M37.1821 3.91783C37.1177 3.92355 37.053 3.92822 36.9888 3.93158C36.9371 3.93428 36.8857 3.93612 36.8351 3.93699C36.8407 3.79985 36.8465 3.66674 36.8523 3.53895C36.8988 3.53797 36.9458 3.5362 36.993 3.53374C37.0449 3.53103 37.097 3.52747 37.1491 3.52321C37.1602 3.64477 37.1712 3.77701 37.1821 3.91783Z" fill="#7F828B"/>
<path fill-rule="evenodd" clip-rule="evenodd" d="M36.9888 3.4543C36.9442 3.45664 36.8998 3.45833 36.8559 3.45931C36.8674 3.21199 36.8789 2.9864 36.8903 2.79239C36.9423 2.75202 36.9955 2.72509 37.0498 2.7126V2.74436C37.0392 2.74436 37.0333 2.73933 37.0316 2.73756L37.0319 2.73798C37.0338 2.7406 37.0372 2.74698 37.0417 2.75913C37.0503 2.78294 37.0596 2.82005 37.0693 2.87055C37.0886 2.97097 37.108 3.11752 37.1273 3.30038C37.1321 3.3461 37.1369 3.39403 37.1417 3.44401C37.0907 3.44817 37.0396 3.45165 36.9888 3.4543Z" fill="#7F828B"/>
<path d="M36.5766 3.53414C36.6401 3.53807 36.7057 3.53985 36.7726 3.53982C36.7668 3.66754 36.7611 3.80053 36.7555 3.93751C36.6743 3.93716 36.5956 3.93402 36.5209 3.92753C36.5397 3.79109 36.5583 3.65941 36.5766 3.53414Z" fill="#7F828B"/>
<path d="M36.4418 3.91918C36.4604 3.78359 36.4789 3.65265 36.4971 3.52797C36.4827 3.52662 36.4685 3.52514 36.4544 3.52353C36.4125 3.63956 36.3729 3.76627 36.3359 3.90257C36.365 3.90816 36.3954 3.91304 36.4268 3.91724C36.4318 3.91791 36.4368 3.91855 36.4418 3.91918Z" fill="#7F828B"/>
<path d="M36.6427 3.10212C36.625 3.21153 36.6068 3.3298 36.5882 3.45515C36.6489 3.45875 36.7119 3.46037 36.7762 3.46027C36.7862 3.24537 36.7962 3.04672 36.8062 2.87077C36.7497 2.9322 36.6951 3.00979 36.6427 3.10212Z" fill="#7F828B"/>
<path d="M36.4831 3.44664C36.4915 3.44753 36.5001 3.44837 36.5087 3.44916C36.5139 3.41374 36.5192 3.37888 36.5243 3.34461C36.5104 3.37751 36.4966 3.41153 36.4831 3.44664Z" fill="#7F828B"/>
<path d="M37.1047 2.70496C37.1091 2.71328 37.113 2.72248 37.1164 2.73192C37.1273 2.76182 37.1376 2.80394 37.1474 2.85557C37.1674 2.9594 37.187 3.10865 37.2064 3.29204C37.2112 3.33819 37.2161 3.38656 37.2209 3.43698C37.3213 3.4274 37.4206 3.41538 37.5162 3.40191C37.4834 3.22746 37.451 3.07926 37.4195 2.96462C37.4025 2.90302 37.386 2.85175 37.3702 2.8116L37.369 2.80862C37.2888 2.74055 37.2054 2.70459 37.1197 2.70459C37.1147 2.70459 37.1097 2.70471 37.1047 2.70496Z" fill="#7F828B"/>
<path d="M37.5307 3.48021C37.4329 3.49403 37.3312 3.50636 37.2283 3.51618C37.2395 3.63769 37.2505 3.76975 37.2613 3.91026C37.3759 3.89856 37.4886 3.88383 37.5954 3.86758C37.5739 3.72933 37.5522 3.59949 37.5307 3.48021Z" fill="#7F828B"/>
<path d="M37.674 3.85518C37.6525 3.71741 37.6309 3.58785 37.6094 3.46864C37.6596 3.46098 37.7084 3.453 37.7556 3.44484C37.7994 3.55834 37.841 3.68326 37.8799 3.81843C37.8156 3.83091 37.7465 3.84333 37.674 3.85518Z" fill="#7F828B"/>
<path d="M37.4976 2.94889C37.5297 3.06638 37.5623 3.21615 37.595 3.39037C37.6396 3.38358 37.6831 3.37653 37.7254 3.36932C37.6546 3.19861 37.5783 3.05695 37.4976 2.94889Z" fill="#7F828B"/>
<path fill-rule="evenodd" clip-rule="evenodd" d="M55.2045 25.136H0V33.7269H55.2045V25.136ZM49.1018 30.9091C49.3665 31.184 49.6804 31.3215 50.0436 31.3215C50.3355 31.3215 50.5832 31.2332 50.7869 31.0567V31.2807H51.525V27.7171H50.7869V28.8116C50.5798 28.6284 50.3321 28.5367 50.0436 28.5367C49.677 28.5367 49.3631 28.6725 49.1018 28.944C48.8404 29.2121 48.7098 29.5413 48.7098 29.9316C48.7098 30.3084 48.8404 30.6342 49.1018 30.9091ZM50.624 30.4407C50.4814 30.5833 50.3117 30.6546 50.1149 30.6546C49.9112 30.6546 49.7398 30.5833 49.6007 30.4407C49.4649 30.2982 49.397 30.1285 49.397 29.9316C49.397 29.7348 49.4649 29.5651 49.6007 29.4226C49.7398 29.2766 49.9112 29.2036 50.1149 29.2036C50.3117 29.2036 50.4814 29.2766 50.624 29.4226C50.7665 29.5685 50.8378 29.7382 50.8378 29.9316C50.8378 30.1251 50.7665 30.2948 50.624 30.4407ZM48.4531 31.2552C48.0187 31.3808 47.6521 31.3655 47.3535 31.2094C47.0548 31.0533 46.9055 30.7767 46.9055 30.3796L46.9105 29.2189H46.4524V28.5825H46.9105L46.9156 27.9869H47.6436L47.6385 28.5825H48.4175V29.2189H47.6385L47.6335 30.3745C47.6335 30.4458 47.6623 30.5052 47.72 30.5527C47.7811 30.6002 47.871 30.6291 47.9898 30.6392C48.112 30.646 48.2664 30.6138 48.4531 30.5425V31.2552ZM44.1334 27.7171V31.2807H46.5567V30.5731H44.8971V27.7171H44.1334ZM40.6661 31.3214C40.5575 31.3214 40.4489 31.3096 40.3403 31.2858C40.2351 31.262 40.1265 31.2213 40.0145 31.1636C39.9025 31.1025 39.8125 31.0126 39.7447 30.8938C39.6768 30.7716 39.6428 30.6274 39.6428 30.4611C39.6428 30.1726 39.7379 29.9622 39.9279 29.8298C40.1214 29.6974 40.381 29.6313 40.7068 29.6313H41.4756V29.504C41.4756 29.2766 41.3008 29.1629 40.9512 29.1629C40.6525 29.1629 40.471 29.2562 40.4065 29.4429L39.7039 29.4531C39.7039 29.1816 39.8227 28.961 40.0603 28.7913C40.2979 28.6216 40.5897 28.5367 40.9359 28.5367C41.2719 28.5367 41.5621 28.6199 41.8065 28.7862C42.0508 28.9491 42.173 29.1595 42.173 29.4174V31.2807H41.4756V31.0211C41.4043 31.1025 41.2957 31.1738 41.1497 31.2349C41.0072 31.2926 40.846 31.3214 40.6661 31.3214ZM40.7272 30.7207C40.9105 30.7207 41.0802 30.6647 41.2363 30.5527C41.3958 30.4407 41.4756 30.3066 41.4756 30.1505H40.8443C40.6882 30.1505 40.5677 30.1811 40.4828 30.2422C40.4014 30.2999 40.3674 30.3796 40.381 30.4814C40.4014 30.641 40.5168 30.7207 40.7272 30.7207ZM36.6158 28.5825V31.2807H37.3539V29.8858C37.3539 29.6991 37.4082 29.543 37.5168 29.4174C37.6288 29.2885 37.7748 29.224 37.9547 29.224C38.104 29.224 38.2296 29.2766 38.3314 29.3818C38.4366 29.487 38.4892 29.6245 38.4892 29.7942V31.2807H39.2274V29.6058C39.2274 29.2834 39.1171 29.0254 38.8965 28.832C38.6759 28.6351 38.4128 28.5367 38.1074 28.5367C37.8087 28.5367 37.5576 28.6351 37.3539 28.832V28.5825H36.6158ZM34.5759 31.3214C34.4673 31.3214 34.3587 31.3096 34.2501 31.2858C34.1449 31.262 34.0363 31.2213 33.9243 31.1636C33.8123 31.1025 33.7223 31.0126 33.6545 30.8938C33.5866 30.7716 33.5526 30.6274 33.5526 30.4611C33.5526 30.1726 33.6477 29.9622 33.8377 29.8298C34.0312 29.6974 34.2908 29.6313 34.6166 29.6313H35.3854V29.504C35.3854 29.2766 35.2106 29.1629 34.861 29.1629C34.5623 29.1629 34.3808 29.2562 34.3163 29.4429L33.6137 29.4531C33.6137 29.1816 33.7325 28.961 33.9701 28.7913C34.2077 28.6216 34.4995 28.5367 34.8457 28.5367C35.1817 28.5367 35.4719 28.6199 35.7163 28.7862C35.9606 28.9491 36.0828 29.1595 36.0828 29.4174V31.2807H35.3854V31.0211C35.3141 31.1025 35.2055 31.1738 35.0595 31.2349C34.917 31.2926 34.7558 31.3214 34.5759 31.3214ZM34.637 30.7207C34.8203 30.7207 34.99 30.6647 35.1461 30.5527C35.3056 30.4407 35.3854 30.3066 35.3854 30.1505H34.7541C34.598 30.1505 34.4775 30.1811 34.3926 30.2422C34.3112 30.2999 34.2772 30.3796 34.2908 30.4814C34.3112 30.641 34.4266 30.7207 34.637 30.7207ZM30.5013 27.7171V31.2807H31.2395V29.8858C31.2395 29.6992 31.2938 29.543 31.4024 29.4175C31.5144 29.2885 31.6604 29.224 31.8402 29.224C31.9896 29.224 32.1151 29.2766 32.217 29.3818C32.3222 29.487 32.3748 29.6245 32.3748 29.7942V31.2807H33.113V29.6058C33.113 29.2834 33.0027 29.0255 32.7821 28.832C32.5614 28.6352 32.2984 28.5367 31.993 28.5367C31.6943 28.5367 31.4431 28.6352 31.2395 28.832V27.7171H30.5013ZM28.368 31.3214C27.8657 31.3214 27.4364 31.145 27.08 30.792C26.7237 30.4356 26.5455 30.0063 26.5455 29.504C26.5455 29.0017 26.7237 28.5723 27.08 28.216C27.4364 27.8596 27.8657 27.6814 28.368 27.6814C28.7312 27.6814 29.0553 27.7765 29.3404 27.9665C29.6289 28.1566 29.8461 28.4128 29.992 28.7353L29.264 28.944C29.1792 28.7743 29.057 28.6436 28.8975 28.552C28.738 28.457 28.5615 28.4094 28.368 28.4094C28.066 28.4094 27.8131 28.5147 27.6095 28.7251C27.4093 28.9355 27.3091 29.1951 27.3091 29.504C27.3091 29.8128 27.4093 30.0725 27.6095 30.2829C27.8131 30.4899 28.066 30.5934 28.368 30.5934C28.5852 30.5934 28.7821 30.5357 28.9586 30.4203C29.1385 30.305 29.2691 30.1387 29.3506 29.9214L28.3884 29.9265L28.3782 29.28H30.0939V29.5702C30.0939 30.0793 29.9293 30.4984 29.6 30.8276C29.2708 31.1568 28.8602 31.3214 28.368 31.3214ZM23.1527 28.5825V31.2807H23.8909V29.9011C23.8909 29.6669 23.9927 29.4972 24.1963 29.392C24.4 29.2834 24.6223 29.2732 24.8632 29.3614V28.5724C24.4152 28.5011 24.0911 28.625 23.8909 28.944V28.5825H23.1527ZM21.3737 31.3214C20.9868 31.3214 20.6576 31.1857 20.3861 30.9142C20.118 30.6393 19.9839 30.3117 19.9839 29.9316C19.9839 29.5413 20.1197 29.2121 20.3912 28.944C20.6661 28.6725 20.9936 28.5367 21.3737 28.5367C21.703 28.5367 21.9948 28.6419 22.2494 28.8523C22.5039 29.0628 22.6651 29.3275 22.733 29.6465C22.7771 29.84 22.7788 30.0266 22.7381 30.2065H20.7119C20.7527 30.3559 20.8324 30.4713 20.9512 30.5527C21.07 30.6308 21.2108 30.6698 21.3737 30.6698C21.6317 30.6698 21.8438 30.5934 22.0101 30.4407L22.6516 30.624C22.5463 30.8344 22.3716 31.0041 22.1272 31.1331C21.8828 31.2586 21.6317 31.3214 21.3737 31.3214ZM20.7119 29.6465H22.0203C21.9796 29.5176 21.9015 29.409 21.7861 29.3207C21.6707 29.2325 21.5316 29.1883 21.3687 29.1883C21.2057 29.1883 21.0649 29.2325 20.9461 29.3207C20.8307 29.409 20.7527 29.5176 20.7119 29.6465ZM18.6276 31.2094C18.9263 31.3655 19.2928 31.3808 19.7272 31.2552V30.5425C19.5406 30.6138 19.3862 30.646 19.264 30.6392C19.1452 30.6291 19.0552 30.6002 18.9942 30.5527C18.9365 30.5052 18.9076 30.4458 18.9076 30.3745L18.9127 29.2189H19.6916V28.5825H18.9127L18.9178 27.9869H18.1898L18.1847 28.5825H17.7265V29.2189H18.1847L18.1796 30.3796C18.1796 30.7767 18.3289 31.0533 18.6276 31.2094ZM16.0989 31.3214C15.712 31.3214 15.3828 31.1857 15.1113 30.9142C14.8431 30.6393 14.7091 30.3117 14.7091 29.9316C14.7091 29.5413 14.8448 29.2121 15.1163 28.944C15.3913 28.6725 15.7188 28.5367 16.0989 28.5367C16.4281 28.5367 16.72 28.6419 16.9745 28.8523C17.2291 29.0628 17.3903 29.3275 17.4582 29.6465C17.5023 29.84 17.504 30.0266 17.4633 30.2065H15.4371C15.4778 30.3559 15.5576 30.4713 15.6763 30.5527C15.7951 30.6308 15.936 30.6698 16.0989 30.6698C16.3568 30.6698 16.5689 30.5934 16.7353 30.4407L17.3767 30.624C17.2715 30.8344 17.0967 31.0041 16.8523 31.1331C16.608 31.2586 16.3568 31.3214 16.0989 31.3214ZM15.4371 29.6465H16.7454C16.7047 29.5176 16.6266 29.409 16.5113 29.3207C16.3959 29.2325 16.2567 29.1883 16.0938 29.1883C15.9309 29.1883 15.79 29.2325 15.6713 29.3207C15.5559 29.409 15.4778 29.5176 15.4371 29.6465ZM10.2023 28.5825V31.2807H10.9405V29.8603C10.9405 29.6669 10.9829 29.5108 11.0678 29.392C11.1526 29.2698 11.285 29.2087 11.4649 29.2087C11.6074 29.2087 11.7143 29.2596 11.7856 29.3614C11.8603 29.4599 11.8976 29.5956 11.8976 29.7687V31.2807H12.6358V29.7483C12.6731 29.3886 12.8462 29.2087 13.1551 29.2087C13.2976 29.2087 13.4045 29.2596 13.4758 29.3614C13.5504 29.4599 13.5878 29.5956 13.5878 29.7687V31.2807H14.326V29.6058C14.326 29.2766 14.2241 29.017 14.0205 28.8269C13.8169 28.6334 13.5793 28.5367 13.3078 28.5367C13.1483 28.5367 12.9904 28.574 12.8343 28.6487C12.6782 28.72 12.5441 28.8201 12.4321 28.9491C12.2285 28.6742 11.957 28.5367 11.6176 28.5367C11.3698 28.5367 11.1441 28.6351 10.9405 28.832V28.5825H10.2023ZM8.39789 31.3214C8.01099 31.3214 7.68177 31.1857 7.41026 30.9142C7.14214 30.6393 7.00808 30.3117 7.00808 29.9316C7.00808 29.5413 7.14383 29.2121 7.41535 28.944C7.69026 28.6725 8.01777 28.5367 8.39789 28.5367C8.72711 28.5367 9.01899 28.6419 9.27353 28.8523C9.52808 29.0628 9.68929 29.3275 9.75717 29.6465C9.80129 29.84 9.80299 30.0266 9.76226 30.2065H7.73608C7.7768 30.3559 7.85656 30.4713 7.97535 30.5527C8.09414 30.6308 8.23499 30.6698 8.39789 30.6698C8.65584 30.6698 8.86796 30.5934 9.03426 30.4407L9.67571 30.624C9.5705 30.8344 9.39571 31.0041 9.15135 31.1331C8.90699 31.2586 8.65584 31.3214 8.39789 31.3214ZM7.73608 29.6465H9.04444C9.00371 29.5176 8.92565 29.409 8.81026 29.3207C8.69487 29.2325 8.55571 29.1883 8.39281 29.1883C8.2299 29.1883 8.08905 29.2325 7.97026 29.3207C7.85487 29.409 7.7768 29.5176 7.73608 29.6465ZM3.5 27.712V31.2858H4.84909C5.36157 31.2858 5.7943 31.1144 6.14727 30.7716C6.50364 30.4255 6.68012 30.0012 6.67673 29.4989C6.67333 29 6.49345 28.5775 6.13709 28.2313C5.78412 27.8851 5.35479 27.712 4.84909 27.712H3.5ZM4.84909 30.5731H4.26873V28.4247H4.84909C5.16812 28.4247 5.42776 28.5266 5.628 28.7302C5.82824 28.9304 5.92836 29.1867 5.92836 29.4989C5.92836 29.8078 5.82824 30.064 5.628 30.2676C5.43115 30.4713 5.17151 30.5731 4.84909 30.5731Z" fill="#7F828B"/>
</svg>
