<svg width="40" height="37" viewBox="0 0 40 37" fill="none" xmlns="http://www.w3.org/2000/svg">
<g clip-path="url(#clip0_4409_223)">
<path fill-rule="evenodd" clip-rule="evenodd" d="M21.7116 36.9709C20.1227 36.9709 18.8575 36.7327 18.0611 36.5828L17.9107 36.5546C17.0378 36.3918 16.3478 36.2362 15.6826 36.0862L15.4055 36.0238C15.044 35.9427 14.6271 35.8386 14.2182 35.7364C14.0005 35.6821 13.785 35.6283 13.5814 35.5788C13.5213 35.5642 13.4424 35.5429 13.3504 35.5181C12.8448 35.3817 11.9438 35.1386 11.6056 35.3149C11.1349 35.5602 10.8726 36.0695 10.7591 36.3334H9.72465L9.62976 24.0667H10.7591C11.0605 25.0852 11.9256 27.8006 12.4521 28.9715C12.8868 29.9107 13.5003 30.6471 14.1681 31.4485C14.3091 31.6178 14.4525 31.79 14.5972 31.9676C15.7451 33.0994 16.5743 33.6081 17.8692 34.1215C19.0378 34.5847 20.1674 34.8149 21.7116 34.8149C23.0288 34.8149 24.1302 34.7015 25.1553 34.2573C26.1805 33.8131 27.3179 33.1347 27.9206 32.1962C28.5234 31.2148 28.6711 30.3993 28.6711 29.0053C28.6711 27.2694 27.8084 26.2041 26.7535 25.1094C25.7698 24.0537 24.1609 23.2268 22.3426 22.2922L22.3426 22.2921L22.3401 22.2909C22.2129 22.2255 22.0845 22.1595 21.9553 22.0929L20.0744 21.1302C18.4387 20.3115 17.515 19.7763 16.2516 19.0442C16.0607 18.9336 15.8621 18.8185 15.6521 18.6973C15.4755 18.5844 15.3196 18.4871 15.1777 18.3999H0V16.7272H0.930232V11.1514H2.23256V15.2403H4.09302V11.5231H5.39535V15.2403H7.44186V11.1514H8.74419V16.7272H12.7172C12.6136 16.6462 12.5038 16.5597 12.387 16.467C11.7762 15.9906 11.228 15.4392 10.7553 14.8258C10.093 13.9597 9.54418 12.9431 9.36744 11.0622C9.11627 8.36353 9.67441 6.71868 10.6586 5.09799C11.6428 3.4773 12.6028 2.37702 14.4093 1.43286C16.253 0.490557 18.2326 0.0184757 20.7144 0.0184757C22.1432 0.0184757 23.3098 0.150435 24.2139 0.414355C25.0224 0.601748 25.8153 0.850276 26.586 1.15779C27.1375 1.40255 27.7317 1.53704 28.3349 1.55367C28.3902 1.55367 28.451 1.55542 28.5152 1.55728C28.844 1.56677 29.2607 1.5788 29.4696 1.37005C29.6557 1.18419 30.2251 0.384617 30.3293 0.00732422H31.4586V11.8056H30.3256C29.9535 9.95819 28.7833 7.14801 27.9926 5.90276C27.2729 4.72532 26.2635 3.75149 25.0605 3.07399C23.8808 2.38183 22.5325 2.02932 21.1646 2.05549C19.2093 2.05549 17.0065 2.3194 15.8028 3.41411C14.6363 4.46979 14.1395 5.80797 14.1395 7.46769C14.1395 8.86349 15.0419 10.2983 15.7953 11.1644C16.6129 12.0533 17.5889 12.7825 18.6735 13.3148C19.8034 13.8426 20.8763 14.3333 21.8921 14.7868L24.6084 15.7979C25.3178 16.0758 26.0135 16.3859 26.6932 16.7272H31.5888C31.5888 16.3889 31.6056 16.0934 31.6279 15.8908C31.7209 15.0544 32.5581 13.4746 34.0465 13.4746C35.2372 13.4746 36.0316 14.9002 36.2791 15.612L34.9767 16.0767C34.9809 15.82 34.887 15.5715 34.7141 15.3816C34.5413 15.1917 34.3026 15.0747 34.0465 15.0544C33.3023 14.9801 33.1163 15.8908 33.1163 16.3554V18.3999C33.1479 18.7716 33.3767 19.515 34.0465 19.515C34.7163 19.515 35.0698 18.5244 35.1628 18.0282L36.093 18.5703V16.913C36.093 16.4201 36.289 15.9473 36.6379 15.5988C36.9868 15.2502 37.4601 15.0544 37.9535 15.0544H38.1395C38.633 15.0544 39.1062 15.2502 39.4551 15.5988C39.804 15.9473 40 16.4201 40 16.913V18.5857C40 19.0787 39.804 19.5514 39.4551 19.9C39.1062 20.2485 38.633 20.4443 38.1395 20.4443H37.9535C37.4601 20.4443 36.9868 20.2485 36.6379 19.9C36.4335 19.6957 36.2815 19.4488 36.1907 19.1801C35.979 19.9792 35.3772 21.0019 34.0465 21.0019C33.4781 21.0125 32.924 20.8227 32.4818 20.4658C32.0395 20.1089 31.7371 19.6078 31.6279 19.0504C31.6279 18.9388 31.6225 18.8171 31.6166 18.6833C31.6127 18.5944 31.6086 18.5001 31.6056 18.3999H29.5371C29.6769 18.4951 29.8157 18.5917 29.9535 18.6898C31.3265 19.6672 32.2148 20.5407 33.0758 21.9888C33.8665 23.3846 34.4415 24.5918 34.4415 26.3894C34.4415 27.7164 34.3535 28.3173 34.0335 29.2633C33.8521 29.7953 33.6269 30.3113 33.36 30.806C32.8465 31.7557 32.3684 32.3318 31.4586 33.2128C30.3684 34.2685 29.0698 35.3428 27.4139 35.9468C25.7563 36.5137 23.8939 36.9709 21.7116 36.9709ZM37.5861 16.546C37.7082 16.424 37.8738 16.3554 38.0465 16.3554C38.2192 16.3554 38.3848 16.424 38.507 16.546C38.6291 16.668 38.6977 16.8334 38.6977 17.0059V18.4928C38.6977 18.6653 38.6291 18.8308 38.507 18.9528C38.3848 19.0748 38.2192 19.1433 38.0465 19.1433C37.8738 19.1433 37.7082 19.0748 37.5861 18.9528C37.464 18.8308 37.3954 18.6653 37.3954 18.4928V17.0059C37.3954 16.8334 37.464 16.668 37.5861 16.546Z" fill="#7F828B"/>
</g>
<defs>
<clipPath id="clip0_4409_223">
<rect width="40" height="37" fill="white"/>
</clipPath>
</defs>
</svg>
