<svg width="105" height="24" viewBox="0 0 105 24" fill="none" xmlns="http://www.w3.org/2000/svg">
<g clip-path="url(#clip0_4508_762)">
<mask id="mask0_4508_762" style="mask-type:luminance" maskUnits="userSpaceOnUse" x="0" y="0" width="105" height="24">
<path d="M0 0H104.803V24H0V0Z" fill="white"/>
</mask>
<g mask="url(#mask0_4508_762)">
<path fill-rule="evenodd" clip-rule="evenodd" d="M86.7628 7.13247H89.7392V4.1554H86.7628V7.13247ZM70.9428 12.0903C71.5115 10.5818 72.9678 9.50781 74.6756 9.50781C76.383 9.50781 77.8394 10.5818 78.4084 12.0903H70.9428ZM74.6756 6.73986C70.9448 6.73986 67.9193 9.76548 67.9193 13.4979C67.9193 17.2303 70.9448 20.2555 74.6756 20.2555C77.2358 20.2555 79.463 18.8317 80.6094 16.7329L78.1129 15.5215C77.4192 16.6978 76.1399 17.4875 74.6756 17.4875C72.8255 17.4875 71.2703 16.2278 70.8191 14.5191H78.5318C78.5313 14.5204 78.5311 14.5221 78.5308 14.5236H81.3556C81.4067 14.189 81.433 13.8465 81.433 13.4979C81.433 9.76548 78.4076 6.73986 74.6756 6.73986ZM82.2176 19.8952H85.194V16.9181H82.2176V19.8952ZM86.7628 19.8952H89.7392V8.44126H86.7628V19.8952ZM98.0466 17.4875C95.8436 17.4875 94.0577 15.7012 94.0577 13.4979C94.0577 11.2941 95.8436 9.50781 98.0466 9.50781C100.25 9.50781 102.036 11.2941 102.036 13.4979C102.036 15.7012 100.25 17.4875 98.0466 17.4875ZM98.0454 6.73986C94.3146 6.73986 91.2891 9.76548 91.2891 13.4979C91.2891 17.2303 94.3146 20.2555 98.0454 20.2555C101.777 20.2555 104.803 17.2303 104.803 13.4979C104.803 9.76548 101.777 6.73986 98.0454 6.73986ZM35.8163 11.0068V14.085H39.9779C39.7606 14.9645 39.331 15.7527 38.715 16.3824C37.7858 17.3322 36.4975 17.8555 35.087 17.8555C32.1601 17.8555 29.7786 15.4737 29.7786 12.5459C29.7786 9.6181 32.1601 7.23604 35.087 7.23604C36.6548 7.23604 38.096 7.90724 39.0951 9.06491L41.4778 7.11753C39.898 5.26576 37.5541 4.15764 35.087 4.15764C30.4631 4.15764 26.7012 7.92068 26.7012 12.5459C26.7012 17.1711 30.4631 20.9339 35.087 20.9339C37.3321 20.9339 39.4017 20.1248 40.9148 18.5782C42.1845 17.2801 43.026 15.4694 43.1878 13.6555C43.2667 12.7707 43.2739 11.8919 43.2274 11.0068H35.8163ZM50.9765 17.4883C48.7734 17.4883 46.9873 15.7015 46.9873 13.4979C46.9873 11.2939 48.7734 9.50756 50.9765 9.50756C53.1798 9.50756 54.9659 11.2939 54.9659 13.4979C54.9659 15.7015 53.1798 17.4883 50.9765 17.4883ZM54.9664 8.05686C53.8481 7.23679 52.4692 6.75131 50.9765 6.75131C47.2457 6.75131 44.2212 9.77669 44.2212 13.5084C44.2212 17.2405 47.2457 20.2654 50.9765 20.2654C52.4692 20.2654 53.8481 19.7802 54.9664 18.9601V19.8952H57.732V7.12177H54.9664V8.05686ZM63.6688 4.15564H60.903V7.13247H59.2453V9.74333H60.903V16.5758C60.903 17.2814 60.9916 17.8749 61.1673 18.3407C61.3406 18.8015 61.6054 19.1623 61.9203 19.4441C62.2394 19.7302 62.6137 19.953 63.0575 20.0794C63.5085 20.2064 64.0061 20.2555 64.532 20.2555C65.0764 20.2555 65.5617 20.1989 65.9759 20.0872C66.3605 19.9838 66.7291 19.8377 67.0721 19.652V17.5483C66.5265 17.7843 66.0165 17.8697 65.4345 17.8968C64.8202 17.9257 64.4568 17.7502 64.1544 17.4619C63.8376 17.1599 63.6688 16.7663 63.6688 16.106V9.74333H67.0721V7.13247H63.6688V4.15564Z" fill="#151617"/>
</g>
<mask id="mask1_4508_762" style="mask-type:luminance" maskUnits="userSpaceOnUse" x="0" y="0" width="105" height="24">
<path d="M0 0H104.803V24H0V0Z" fill="white"/>
</mask>
<g mask="url(#mask1_4508_762)">
<path fill-rule="evenodd" clip-rule="evenodd" d="M11.9974 18.6C8.3532 18.6 5.39897 15.6453 5.39897 12.0001C5.39897 8.35501 8.3532 5.39984 11.9974 5.39984V-0.00012207C5.37134 -0.00012207 0 5.37246 0 12.0001C0 18.6274 5.37134 24 11.9974 24C18.6232 24 23.9948 18.6274 23.9948 12.0001H18.5958C18.5958 15.6453 15.6416 18.6 11.9974 18.6Z" fill="#151617"/>
</g>
<mask id="mask2_4508_762" style="mask-type:luminance" maskUnits="userSpaceOnUse" x="0" y="0" width="105" height="24">
<path d="M0 0H104.803V24H0V0Z" fill="white"/>
</mask>
<g mask="url(#mask2_4508_762)">
<path fill-rule="evenodd" clip-rule="evenodd" d="M11.998 12H18.5965V5.40002H11.998V12Z" fill="#151617"/>
</g>
</g>
<defs>
<clipPath id="clip0_4508_762">
<rect width="104.803" height="24" fill="white"/>
</clipPath>
</defs>
</svg>
