<svg width="121" height="22" viewBox="0 0 121 22" fill="none" xmlns="http://www.w3.org/2000/svg">
  <path d="M24.4375 18.6581L25.8675 1.60938H28.9316L28.3557 8.47618C28.7854 7.8606 29.3339 7.36732 30.0005 6.99632C30.6673 6.62555 31.4092 6.43987 32.2262 6.43987C33.1796 6.43987 33.9639 6.64929 34.5796 7.06734C35.1949 7.48585 35.6357 8.0937 35.9021 8.89056C36.1678 9.6879 36.2528 10.6627 36.1561 11.8149L35.5822 18.6581H32.5406L33.0887 12.1228C33.1695 11.1601 33.0421 10.422 32.7071 9.9088C32.3716 9.39597 31.8031 9.13922 31.0011 9.13922C30.4866 9.13922 30.0146 9.26579 29.5847 9.51809C29.155 9.77076 28.8029 10.1337 28.5288 10.6073C28.2544 11.0809 28.0881 11.6651 28.0299 12.3595L27.5017 18.6581H24.4375Z" fill="white"/>
  <path d="M41.1618 18.9398C40.2233 18.9398 39.4578 18.7778 38.8647 18.4544C38.271 18.131 37.8421 17.6967 37.5778 17.1521C37.3132 16.6075 37.2089 16.0038 37.2645 15.3407C37.3267 14.5988 37.5586 13.9518 37.9608 13.399C38.3624 12.8467 38.9397 12.4164 39.6919 12.1085C40.4441 11.8007 41.3799 11.6468 42.4998 11.6468H45.2916C45.3419 11.0471 45.3109 10.5575 45.1991 10.1787C45.0869 9.79994 44.8762 9.51572 44.5669 9.32629C44.2573 9.1369 43.8379 9.04216 43.3084 9.04216C42.7331 9.04216 42.2343 9.16868 41.8125 9.42098C41.3902 9.6737 41.1106 10.0762 40.9737 10.6286H38.0002C38.1484 9.76067 38.4793 9.01852 38.9925 8.4028C39.5056 7.78722 40.1588 7.30589 40.9522 6.95843C41.7452 6.61144 42.611 6.4375 43.5495 6.4375C44.6238 6.4375 45.5427 6.62324 46.3059 6.99396C47.0695 7.36501 47.6288 7.90967 47.9851 8.62776C48.3403 9.34627 48.4756 10.2184 48.3895 11.2443L47.7679 18.6557H45.203L45.0156 16.8324C44.8223 17.1484 44.5982 17.4326 44.3425 17.6848C44.0866 17.9376 43.7957 18.1585 43.4699 18.3479C43.1436 18.5374 42.7948 18.6831 42.423 18.786C42.0513 18.8884 41.6306 18.9398 41.1618 18.9398ZM42.1174 16.4772C42.4953 16.4772 42.846 16.4025 43.1689 16.2523C43.4914 16.1025 43.7779 15.8934 44.0273 15.6248C44.2769 15.3565 44.4835 15.0566 44.6476 14.725C44.8115 14.3935 44.9327 14.0305 45.0113 13.6358L45.0133 13.6121H42.6754C42.1909 13.6121 41.7966 13.6714 41.4916 13.7897C41.1866 13.9081 40.9567 14.0779 40.802 14.2988C40.6473 14.5201 40.5579 14.7724 40.5341 15.0566C40.5088 15.3566 40.5556 15.613 40.6739 15.8261C40.7922 16.0392 40.979 16.2013 41.2347 16.3115C41.4899 16.4221 41.7843 16.4772 42.1174 16.4772Z" fill="white"/>
  <path d="M54.1211 18.9398C53.0618 18.9398 52.1645 18.766 51.4296 18.4189C50.6942 18.0718 50.133 17.5942 49.7454 16.9864C49.3574 16.3788 49.1664 15.6804 49.172 14.8907H52.2361C52.2726 15.175 52.3714 15.4436 52.5319 15.6958C52.6925 15.9486 52.9176 16.1458 53.2083 16.2879C53.499 16.4299 53.8566 16.501 54.2802 16.501C54.6888 16.501 55.0301 16.4417 55.3053 16.3233C55.5796 16.2049 55.7898 16.0432 55.9358 15.8379C56.0814 15.6329 56.1642 15.4198 56.1825 15.1987C56.2106 14.8671 56.1366 14.6148 55.9625 14.4409C55.7874 14.2673 55.5314 14.1175 55.1944 13.991C54.8564 13.8648 54.4426 13.7542 53.9511 13.6594C53.4157 13.5492 52.8937 13.4109 52.3854 13.245C51.8775 13.0793 51.43 12.8663 51.0434 12.6058C50.6568 12.3453 50.3581 12.0219 50.1484 11.635C49.9387 11.2483 49.8587 10.7629 49.9078 10.1787C49.9659 9.48422 50.2004 8.85273 50.6114 8.28442C51.0223 7.71621 51.5934 7.26624 52.3245 6.9347C53.0562 6.60325 53.8987 6.4375 54.8517 6.4375C56.2438 6.4375 57.3139 6.76118 58.0614 7.40831C58.8089 8.05581 59.211 8.94747 59.2672 10.084H56.3842C56.3257 9.7052 56.1493 9.41321 55.8562 9.20791C55.5632 9.00289 55.1597 8.90005 54.6453 8.90005C54.1154 8.90005 53.6946 9.00289 53.3824 9.20791C53.0702 9.41321 52.9008 9.6737 52.8741 9.98928C52.8558 10.2105 52.9335 10.4078 53.1086 10.5812C53.2827 10.7552 53.5388 10.905 53.8762 11.0312C54.2137 11.1577 54.6275 11.276 55.1176 11.3863C55.9794 11.5757 56.733 11.793 57.3785 12.0375C58.0235 12.2823 58.5164 12.6295 58.8571 13.0793C59.1974 13.5292 59.3323 14.1804 59.2606 15.0329C59.197 15.7906 58.9437 16.4654 58.5009 17.0574C58.0577 17.6494 57.4627 18.111 56.7161 18.4426C55.9695 18.7741 55.1045 18.9398 54.1211 18.9398Z" fill="white"/>
  <path d="M60.4141 18.6581L61.8441 1.60938H64.9081L64.3324 8.47618C64.7621 7.8606 65.3107 7.36732 65.9773 6.99632C66.6438 6.62555 67.3857 6.43987 68.203 6.43987C69.156 6.43987 69.9405 6.64929 70.5561 7.06734C71.1716 7.48585 71.6125 8.0937 71.8789 8.89056C72.1443 9.6879 72.2295 10.6627 72.1326 11.8149L71.5587 18.6581H68.5171L69.0652 12.1228C69.1462 11.1601 69.0189 10.422 68.6837 9.9088C68.3481 9.39597 67.7798 9.13922 66.9775 9.13922C66.4631 9.13922 65.9913 9.26579 65.5616 9.51809C65.1314 9.77076 64.7794 10.1337 64.5056 10.6073C64.2308 11.0809 64.0647 11.6651 64.0066 12.3595L63.4781 18.6581H60.4141Z" fill="white"/>
  <path d="M73.3047 18.6581L74.7347 1.60938H77.7988L76.3688 18.6581H73.3047Z" fill="white"/>
  <path d="M83.6314 18.9398C82.5267 18.9398 81.5615 18.6753 80.7358 18.1466C79.9096 17.6179 79.2829 16.8838 78.855 15.9445C78.4263 15.0055 78.2634 13.9281 78.3654 12.7123C78.4703 11.4655 78.8152 10.3722 79.4008 9.43282C79.9864 8.49384 80.7405 7.75975 81.6626 7.23076C82.5843 6.70201 83.5977 6.4375 84.7023 6.4375C85.807 6.4375 86.7685 6.70201 87.5867 7.23076C88.4049 7.75975 89.0279 8.48977 89.4572 9.42098C89.8859 10.3526 90.0479 11.4418 89.9435 12.6887C89.84 13.92 89.4955 15.0055 88.91 15.9445C88.3239 16.8838 87.574 17.6179 86.6599 18.1466C85.7452 18.6753 84.7356 18.9398 83.6314 18.9398ZM83.8635 16.1695C84.3475 16.1695 84.8011 16.0392 85.2243 15.7787C85.6469 15.5183 86.005 15.1276 86.2985 14.6066C86.592 14.0857 86.7703 13.4464 86.834 12.6887C86.8986 11.9155 86.8312 11.272 86.6327 10.7589C86.4333 10.2461 86.1483 9.85901 85.7766 9.59862C85.4049 9.33818 84.9771 9.20791 84.4926 9.20791C83.9932 9.20791 83.5284 9.33818 83.0982 9.59862C82.6676 9.85901 82.3095 10.2461 82.0249 10.7589C81.7398 11.272 81.5648 11.9155 81.4997 12.6887C81.4365 13.4464 81.4997 14.0857 81.6907 14.6066C81.8817 15.1276 82.1705 15.5183 82.5571 15.7787C82.9437 16.0392 83.3791 16.1695 83.8635 16.1695Z" fill="white"/>
  <path d="M96.4509 18.9398C95.3003 18.9398 94.3014 18.6712 93.4537 18.1348C92.606 17.5983 91.9718 16.8642 91.5505 15.9326C91.1292 15.0014 90.9682 13.9436 91.0674 12.7597C91.1732 11.4969 91.5154 10.3959 92.0935 9.45651C92.6716 8.51753 93.4294 7.77936 94.3674 7.24251C95.305 6.70609 96.3488 6.4375 97.4994 6.4375C98.9668 6.4375 100.167 6.83631 101.099 7.63322C102.03 8.43056 102.574 9.53164 102.728 10.9365H99.4827C99.3914 10.3999 99.1471 9.96967 98.7506 9.6459C98.3541 9.32254 97.8533 9.16054 97.248 9.16054C96.7182 9.16054 96.2337 9.3026 95.7937 9.58673C95.3532 9.8709 94.9947 10.2734 94.7166 10.7944C94.4381 11.3153 94.2677 11.9468 94.2055 12.6886C94.1605 13.2255 94.1877 13.7149 94.2869 14.1567C94.3862 14.5988 94.5439 14.97 94.7611 15.2696C94.9778 15.5697 95.246 15.8024 95.5648 15.9681C95.8836 16.1338 96.2477 16.2168 96.6564 16.2168C97.0496 16.2168 97.4147 16.1457 97.7522 16.0037C98.0892 15.8616 98.3827 15.6566 98.6322 15.388C98.8821 15.1197 99.067 14.8041 99.1887 14.4408H102.434C102.048 15.7986 101.317 16.8878 100.242 17.7085C99.1667 18.5295 97.9034 18.9398 96.4509 18.9398Z" fill="white"/>
  <path d="M103.586 18.6581L105.016 1.60938H108.08L106.65 18.6581H103.586ZM111.076 18.6581L106.745 12.1228L111.578 6.724H115.209L108.994 13.4487L109.184 10.9151L114.89 18.6581H111.076Z" fill="white"/>
  <path d="M120.517 15.123H117.607C117.471 15.123 117.359 15.2385 117.359 15.3809V18.418C117.359 18.5604 117.471 18.6759 117.607 18.6759H120.517C120.654 18.6759 120.765 18.5604 120.765 18.418V15.3809C120.765 15.2385 120.654 15.123 120.517 15.123Z" fill="white"/>
  <path d="M20.5743 5.05766H17.0833L17.1236 4.57751C17.1235 4.57777 17.1236 4.57725 17.1236 4.57751L17.3142 2.30163L17.4467 0.721942C17.4801 0.323228 17.1064 0 16.6117 0H6.67471C6.18003 0 5.75183 0.323228 5.71836 0.721928L5.59427 2.20163L5.58594 2.30149L5.3951 4.57653C5.39514 4.57621 5.3951 4.57686 5.3951 4.57653L5.3548 5.05766H1.86487C1.36808 5.05766 0.930094 5.47781 0.88667 5.99608L0.73275 7.83111C0.689293 8.34938 1.05677 8.76953 1.55356 8.76953H5.04362L4.62327 13.7818H1.12929C0.634681 13.7818 0.198634 14.2001 0.155373 14.716L0.00347305 16.5268C-0.0397877 17.0428 0.326117 17.4611 0.820694 17.4611H4.31472L4.01239 21.0656C3.96913 21.5816 4.335 21.9999 4.82961 21.9999H6.56536C7.05999 21.9999 7.49601 21.5816 7.53931 21.0656L7.8416 17.4611H12.5162L12.2139 21.0656C12.1706 21.5816 12.5365 21.9999 13.0311 21.9999H14.7669C15.2614 21.9999 15.6975 21.5816 15.7408 21.0656L16.0431 17.4611H19.5369C20.0315 17.4611 20.4676 17.0428 20.5108 16.5268L20.6627 14.716C20.706 14.2001 20.3401 13.7818 19.8455 13.7818H16.3517L16.772 8.76953H20.263C20.7592 8.76953 21.1966 8.34989 21.24 7.83228L21.3941 5.99491C21.4375 5.4773 21.0705 5.05766 20.5743 5.05766ZM8.94417 4.31336L9.01658 3.45008C9.01658 3.45034 9.01658 3.44982 9.01658 3.45008L9.02117 3.39541C9.05464 2.99669 9.48256 2.67344 9.97723 2.67344H12.8607C13.3554 2.67344 13.7294 2.99669 13.6959 3.39541L13.6892 3.47549L13.6185 4.31336C13.5825 4.74231 13.1222 5.09 12.5901 5.09H9.84233C9.31026 5.09 8.90822 4.74231 8.94417 4.31336ZM9.00708 13.7817C8.51245 13.7817 8.1466 13.3635 8.18985 12.8474L8.45348 9.70387C8.49659 9.19001 8.93485 8.76958 9.42742 8.76958H12.3881C12.8827 8.76958 13.2485 9.1879 13.2053 9.70387L12.9417 12.8474C12.8986 13.3613 12.4603 13.7817 11.9677 13.7817H9.00708Z" fill="white"/>
  <path d="M16.1861 5.08984H12.3733H6.25544C5.75867 5.08984 5.32068 5.5063 5.27724 6.02002L5.12338 7.839C5.0799 8.35272 5.44739 8.76918 5.94417 8.76918H11.0285L12.3891 8.76941C12.8837 8.76941 13.2496 9.1877 13.2063 9.70371L12.9427 12.8473C12.8996 13.3611 12.4613 13.7816 11.9688 13.7816H9.00811C8.76836 13.7816 8.5595 13.6827 8.41215 13.5228H4.64598L4.39406 16.5266C4.35096 17.0405 4.71872 17.4609 5.21129 17.4609H15.1485C15.6431 17.4609 16.0792 17.0426 16.1225 16.5266L17.0032 6.02409C17.0464 5.51028 16.6786 5.08984 16.1861 5.08984Z" fill="white"/>
</svg>
