<svg xmlns="http://www.w3.org/2000/svg" width="203" height="90" viewBox="0 0 203 90" fill="none">
  <path d="M19.2066 50.9561C19.1064 51.2233 19.1732 51.524 19.1732 51.7912C19.1732 55.299 19.1732 58.8068 19.1732 62.3146C19.1732 63.1498 19.1732 63.1498 18.3715 63.1498C17.2022 63.1498 16.0329 63.1498 14.8637 63.1498C13.9951 63.1498 13.9951 63.1498 13.9951 62.2478C13.9951 56.4683 13.9951 50.6554 13.9951 44.8759C13.9951 42.7712 13.9951 40.6331 13.9951 38.5285C13.9951 38.3614 13.9282 38.1944 14.1287 38.0273C14.6966 38.328 15.0307 38.8625 15.465 39.2968C17.5697 41.5017 19.6743 43.7066 21.7456 45.9115C22.9817 47.2144 24.2178 48.5507 25.4204 49.8536C25.9216 50.3881 25.9216 50.3881 26.3559 49.887C28.2267 47.8826 30.1309 45.9115 32.0017 43.9071C33.6387 42.1365 35.3091 40.3993 36.946 38.6287C37.1465 38.4282 37.3135 38.1276 37.6142 38.0608C37.8146 38.161 37.7478 38.3614 37.7478 38.495C37.7478 46.446 37.7478 54.4304 37.7478 62.3814C37.7478 63.083 37.7478 63.083 37.0463 63.083C35.8102 63.083 34.6075 63.083 33.3714 63.083C32.6699 63.083 32.6699 63.083 32.6699 62.3146C32.6699 58.8068 32.6699 55.299 32.6699 51.7912C32.6699 51.4906 32.6699 51.1899 32.6699 50.8558C32.3024 50.8558 32.1688 51.0897 32.0017 51.2567C30.1309 53.161 28.2267 55.0986 26.3559 57.0028C25.8547 57.5039 25.8547 57.5039 25.3536 56.9694C23.3826 54.965 21.3781 52.9605 19.4071 50.9227C19.4405 50.9895 19.3737 50.9226 19.2066 50.9561Z" fill="#7F828B"/>
  <path d="M109.971 63.0807C109.637 63.2477 109.336 63.1809 109.069 63.1809C108 63.1809 106.897 63.1141 105.828 63.2143C105.127 63.2477 104.826 62.947 104.559 62.4125C103.323 59.8067 102.053 57.1675 100.817 54.5618C100.817 54.5283 100.784 54.4949 100.784 54.4949C100.55 53.7934 100.116 53.3925 99.3138 53.5261C99.0131 53.5929 98.7125 53.5261 98.4118 53.5261C97.5098 53.5261 97.5098 53.5261 97.5098 54.4615C97.5098 57.0673 97.5098 59.7065 97.5098 62.3123C97.5098 63.1809 97.5098 63.1809 96.6412 63.2143C95.5387 63.2143 94.4029 63.2143 93.3004 63.2143C92.4318 63.2143 92.3984 63.2143 92.3984 62.3457C92.3984 58.9381 92.3984 55.564 92.3984 52.1564C92.3984 47.7466 92.3984 43.3702 92.3984 38.9604C92.3984 38.76 92.3984 38.5595 92.3984 38.3925C92.3984 38.0584 92.5655 37.9582 92.8661 37.9582C92.9998 37.9582 93.1334 37.9582 93.267 37.9582C95.6056 37.9582 97.9441 37.9248 100.283 37.9582C102.153 37.9916 103.957 38.4259 105.594 39.3947C107.732 40.6976 108.802 42.6353 108.902 45.1074C109.035 48.0807 107.699 50.319 105.327 52.0228C104.726 52.4237 104.726 52.4237 105.06 53.0584C106.63 56.1987 108.2 59.339 109.77 62.4793C109.837 62.613 109.871 62.8134 109.971 63.0807ZM97.443 45.6085C97.443 46.4771 97.443 47.3123 97.443 48.1809C97.443 48.8491 97.5098 48.9159 98.1445 48.9159C98.5788 48.9159 99.0465 48.9493 99.4808 48.9159C100.249 48.8825 101.018 48.7822 101.753 48.4816C102.554 48.1475 103.156 47.5796 103.456 46.7778C104.158 44.6731 102.955 43.0696 101.084 42.6353C100.049 42.4014 98.9797 42.4682 97.9441 42.4348C97.5766 42.4348 97.4764 42.6353 97.4764 42.9693C97.443 43.8379 97.443 44.7399 97.443 45.6085Z" fill="#7F828B"/>
  <path d="M84.2807 37.9592C84.0803 38.6942 83.7128 39.2955 83.4121 39.8968C83.078 40.565 82.7106 41.2331 82.4099 41.9013C82.2095 42.3356 81.9422 42.4358 81.5079 42.4358C78.9689 42.4024 76.43 42.4358 73.9244 42.4358C73.7239 42.4358 73.5235 42.4358 73.3565 42.4358C72.9556 42.4024 72.8219 42.5694 72.8219 42.9703C72.8219 44.7409 72.8219 46.5449 72.8219 48.3155C72.8219 48.8835 72.8888 48.9169 73.5569 48.9169C75.5614 48.9169 77.5658 48.9169 79.5703 48.9169C80.4054 48.9169 80.4054 48.9169 80.4054 49.7521C80.4054 50.7209 80.4054 51.6897 80.4054 52.6585C80.4054 53.4937 80.4054 53.4937 79.5034 53.4937C77.5324 53.4937 75.5614 53.4937 73.5903 53.4937C72.8553 53.4937 72.8219 53.4937 72.8219 54.2287C72.8219 55.4647 72.8219 56.6674 72.8219 57.9035C72.8219 58.5716 72.8219 58.5716 73.5235 58.605C76.6638 58.605 79.8041 58.605 82.9444 58.605C83.078 58.605 83.2117 58.605 83.3453 58.605C84.1805 58.605 84.1805 58.605 84.1805 59.4402C84.1805 60.4425 84.1805 61.4447 84.1805 62.4469C84.1805 63.1819 84.1471 63.1819 83.4121 63.1819C82.8776 63.1819 82.3431 63.1819 81.842 63.1819C77.5324 63.1819 73.2228 63.1819 68.9133 63.1819C68.7128 63.1819 68.5124 63.1819 68.3453 63.1819C68.0447 63.1819 67.8776 63.0817 67.911 62.7476C67.911 62.5471 67.911 62.3467 67.911 62.1796C67.911 54.4291 67.911 46.6452 67.911 38.8946C67.911 38.761 67.911 38.6273 67.911 38.4937C67.8442 38.0594 68.0447 37.9258 68.479 37.9258C73.6571 37.9258 78.8353 37.9258 84.0135 37.9258C84.0135 37.9258 84.1137 37.9258 84.2807 37.9592Z" fill="#7F828B"/>
  <path d="M140.129 37.8262C140.663 38.8284 141.131 39.6636 141.565 40.4988C143.436 44.0066 145.307 47.5144 147.144 51.0556C149.149 54.8306 151.12 58.6391 153.124 62.4475C153.191 62.5812 153.258 62.6814 153.325 62.815C153.458 63.0488 153.358 63.1825 153.091 63.2159C152.824 63.2493 152.523 63.2159 152.256 63.2159C151.086 63.2159 149.917 63.1825 148.748 63.2159C148.247 63.2159 147.946 63.0489 147.712 62.5811C147.011 61.0778 146.242 59.6079 145.541 58.1045C145.34 57.7037 145.106 57.5366 144.672 57.5366C141.665 57.57 138.659 57.57 135.652 57.5366C135.184 57.5366 134.917 57.7036 134.683 58.1379C133.948 59.6747 133.146 61.2114 132.412 62.7482C132.278 63.0489 132.111 63.1825 131.777 63.1825C130.207 63.1825 128.67 63.1825 127.1 63.1825C127.033 63.1825 126.966 63.1157 126.766 63.0489C131.209 54.6636 135.619 46.3451 140.129 37.8262ZM140.162 47.2805C139.761 47.648 139.628 48.1491 139.394 48.5834C138.659 50.0533 137.957 51.5233 137.222 52.9598C137.055 53.2938 137.122 53.4275 137.489 53.4275C139.227 53.4275 140.997 53.4275 142.734 53.4275C143.102 53.4275 143.135 53.2604 143.002 52.9598C142.467 51.8907 141.966 50.8217 141.432 49.7861C141.031 48.9509 140.663 48.0823 140.162 47.2805Z" fill="#7F828B"/>
  <path d="M46.1846 50.5591C46.1846 46.7172 46.1846 42.8754 46.1846 39.0335C46.1846 38.8331 46.1846 38.6326 46.1846 38.4656C46.1512 38.0981 46.2848 37.8643 46.7191 37.8977C46.8193 37.8977 46.9529 37.8977 47.0532 37.8977C49.4251 37.8977 51.797 37.8643 54.1356 37.8977C55.8728 37.9311 57.5431 38.332 59.0799 39.1671C61.3516 40.4366 62.5209 42.3743 62.6545 44.9466C62.7213 46.4834 62.5543 47.9867 61.7525 49.3564C60.9173 50.8264 59.6478 51.8286 58.1445 52.4967C56.3739 53.2985 54.5365 53.499 52.6322 53.4656C51.1289 53.4322 51.2959 53.2651 51.2959 54.7685C51.2959 57.274 51.2959 59.7796 51.2959 62.2852C51.2959 63.1203 51.2959 63.1203 50.4607 63.1203C49.3917 63.1203 48.2892 63.1203 47.2202 63.1203C46.2514 63.1203 46.2514 63.1203 46.2514 62.1849C46.2514 59.8798 46.2514 57.5747 46.2514 55.2696C46.1846 53.7328 46.1846 52.1627 46.1846 50.5591ZM51.2291 45.6148C51.2291 46.5168 51.2291 47.4522 51.2291 48.3542C51.2291 48.6549 51.2959 48.9221 51.6634 48.9221C52.9663 48.9221 54.2692 48.989 55.5053 48.4878C56.9752 47.8865 57.5765 46.5168 57.4095 45.3141C57.2091 43.8442 56.3071 43.009 54.8371 42.6415C53.8349 42.3743 52.7993 42.4745 51.7636 42.4411C51.2959 42.4411 51.1957 42.6415 51.2291 43.0424C51.2291 43.911 51.2291 44.7796 51.2291 45.6148Z" fill="#7F828B"/>
  <path d="M160.738 10.6367C161.206 10.6701 161.573 10.904 161.94 11.1378C164.613 12.708 167.085 14.5788 169.223 16.8505C169.457 17.1178 169.724 17.3516 169.992 17.6189C170.226 17.8527 170.259 18.0532 170.125 18.3539C169.29 20.2581 168.455 22.1289 167.687 24.0665C166.918 26.0376 166.05 27.9752 165.248 29.9463C164.78 31.0821 164.246 32.218 163.878 33.3872C163.811 33.5877 163.711 33.7213 163.477 33.8215C162.208 30.1801 160.704 26.6723 158.9 23.2648C157.497 20.659 155.961 18.12 154.157 15.7481C154.023 15.5476 153.822 15.3806 153.789 15.1133C153.99 15.0465 154.257 15.0131 154.39 14.8461C155.025 14.2113 155.86 13.8772 156.629 13.4764C157.898 12.8082 159.067 11.973 160.337 11.3049C160.704 11.2046 160.771 10.9708 160.738 10.6367Z" fill="#7F828B"/>
  <path d="M158.609 50.4204C158.609 46.5785 158.609 42.7367 158.609 38.8948C158.609 38.6944 158.609 38.4939 158.609 38.3269C158.609 38.0596 158.676 37.8926 158.977 37.8926C160.38 37.8926 161.816 37.8926 163.22 37.8926C163.52 37.8926 163.621 38.0596 163.587 38.3269C163.587 38.5273 163.587 38.7278 163.587 38.8948C163.587 45.0418 163.587 51.1888 163.587 57.3358C163.587 57.5028 163.587 57.6698 163.587 57.8369C163.587 58.5718 163.587 58.5718 164.322 58.5718C166.928 58.5718 169.567 58.6052 172.173 58.5718C172.874 58.5718 173.309 58.7055 173.576 59.407C174.01 60.4427 174.578 61.4449 175.079 62.4471C175.413 63.1153 175.38 63.1487 174.612 63.1821C172.908 63.1821 171.204 63.1821 169.534 63.1821C166.226 63.1821 162.919 63.1821 159.612 63.1821C159.411 63.1821 159.211 63.1821 159.044 63.1821C158.776 63.1821 158.609 63.0819 158.643 62.7812C158.643 62.5807 158.643 62.3803 158.643 62.2133C158.609 58.2712 158.609 54.3625 158.609 50.4204Z" fill="#7F828B"/>
  <path d="M5.84223 50.6206C5.84223 54.4625 5.84223 58.3044 5.84223 62.1462C5.84223 62.3467 5.84223 62.5471 5.84223 62.7142C5.87564 63.1485 5.64178 63.3155 5.24089 63.2821C4.23867 63.2821 3.23644 63.2821 2.23421 63.2821C0.630653 63.2821 0.797691 63.4491 0.797691 61.879C0.797691 54.2287 0.797691 46.5783 0.797691 38.928C0.797691 37.9592 0.630653 37.9258 1.76651 37.9258C2.86896 37.9258 4.00481 37.9258 5.10726 37.9258C5.84223 37.9258 5.84223 37.9258 5.84223 38.6942C5.84223 42.6362 5.84223 46.6117 5.84223 50.6206Z" fill="#7F828B"/>
  <path d="M122.19 50.5541C122.19 54.396 122.19 58.2379 122.19 62.0797C122.19 62.2802 122.19 62.4806 122.19 62.6477C122.224 62.9817 122.09 63.1822 121.723 63.1822C120.319 63.1822 118.95 63.1822 117.547 63.1822C117.279 63.1822 117.146 63.0486 117.146 62.7813C117.146 62.5809 117.146 62.3804 117.146 62.2134C117.146 54.4294 117.146 46.6455 117.146 38.8281C117.146 37.8927 117.012 37.8927 118.115 37.8927C119.117 37.8927 120.119 37.8927 121.121 37.8927C122.424 37.8927 122.224 37.8593 122.224 38.9617C122.224 42.837 122.19 46.6789 122.19 50.5541Z" fill="#7F828B"/>
  <path d="M90.8938 85.8364C90.8938 85.5357 90.8938 85.2351 90.8938 84.9344C90.8938 81.2596 90.8938 77.5847 90.8938 73.9099C90.8938 73.7095 90.8938 73.509 90.8938 73.342C90.8938 73.0747 90.994 72.9411 91.2612 72.9077C92.7312 72.7406 92.798 72.8075 92.798 74.2774C92.798 79.0213 92.798 83.7985 92.798 88.5424C92.798 88.7428 92.798 88.9433 92.798 89.1103C92.8314 89.4778 92.6978 89.6449 92.2635 89.6783C90.7601 89.7451 90.7601 89.7451 90.0252 88.4088C88.9561 86.5045 87.8203 84.6337 86.7178 82.7295C85.5151 80.6582 84.2457 78.6538 83.1766 76.5491C83.0764 76.3486 82.8425 76.2484 82.7089 76.048C82.7089 76.3486 82.7089 76.6159 82.7089 76.9166C82.7089 80.8253 82.7089 84.7005 82.7089 88.6092C82.7089 88.8097 82.7089 89.0101 82.7089 89.1771C82.7423 89.5112 82.5753 89.6114 82.2746 89.6448C80.8381 89.8119 80.8047 89.7785 80.8047 88.3085C80.8047 83.4644 80.8047 78.6204 80.8047 73.7763C80.8047 72.7072 80.8381 72.8743 81.7067 72.8743C83.21 72.8743 83.21 72.8743 83.945 74.1438C86.1499 77.9856 88.3548 81.8275 90.5597 85.6359C90.5931 85.7028 90.6599 85.7696 90.7267 85.803C90.7935 85.8698 90.8269 85.8698 90.8938 85.8364Z" fill="#7F828B"/>
  <path d="M153.3 89.6754C152.465 89.6754 151.764 89.6754 151.062 89.6754C150.728 89.6754 150.561 89.5084 150.427 89.2411C149.525 87.671 148.59 86.0674 147.688 84.4972C147.254 83.7623 146.753 83.0273 146.018 82.5596C145.851 82.4594 145.684 82.3257 145.517 82.2589C145.249 82.1587 145.015 82.1921 145.015 82.5596C145.015 82.76 145.015 82.9605 145.015 83.1275C145.015 85.0652 145.015 87.0362 145.015 88.9738C145.015 89.6086 145.015 89.642 144.381 89.642C142.41 89.642 142.777 89.8758 142.777 88.1052C142.744 83.5952 142.777 79.0852 142.777 74.5752C142.777 73.5062 142.811 73.5396 143.813 73.2055C145.617 72.6042 147.421 72.5373 149.225 72.9382C151.162 73.3725 152.599 74.7422 152.766 77.0139C152.933 79.4527 151.496 81.0897 149.258 81.8246C148.39 82.1253 148.39 82.0919 148.958 82.8269C150.027 84.1298 150.828 85.5663 151.697 87.0028C152.231 87.838 152.833 88.6398 153.3 89.6754ZM145.049 77.7489C145.049 78.6509 145.049 79.5195 145.049 80.4215C145.049 80.9894 145.149 81.0897 145.75 81.1231C146.118 81.1565 146.485 81.1565 146.819 81.1231C148.289 80.9894 149.559 80.4883 150.26 79.0184C150.661 78.1832 150.661 77.3146 150.427 76.4126C150.227 75.6108 149.826 74.9427 149.024 74.5752C147.888 74.0073 146.686 74.1743 145.517 74.3413C145.182 74.3747 145.049 74.6754 145.049 75.0095C145.049 75.9115 145.049 76.8135 145.049 77.7489Z" fill="#7F828B"/>
  <path d="M170.027 81.3636C169.994 83.2344 169.76 85.0718 168.925 86.7756C167.923 88.8469 166.252 89.9159 163.947 89.9159C161.676 89.9159 160.039 88.8803 159.003 86.8758C158.502 85.8736 158.201 84.8379 158.034 83.7021C157.867 82.4994 157.733 81.3302 157.867 80.1275C158.034 78.6242 158.268 77.1542 158.936 75.7845C159.571 74.4816 160.54 73.446 161.909 73.0117C164.214 72.2767 166.753 72.6108 168.424 74.9493C169.159 76.0184 169.56 77.221 169.76 78.4905C169.927 79.4928 170.061 80.4282 170.027 81.3636ZM167.589 81.2968C167.589 80.7288 167.622 80.1275 167.589 79.5596C167.488 78.3235 167.221 77.0874 166.62 75.985C165.517 74.0139 163.012 73.9471 161.776 75.3168C161.241 75.9181 160.941 76.6197 160.707 77.3547C160.272 78.8246 160.206 80.3613 160.239 81.8981C160.272 83.5016 160.473 85.1052 161.241 86.5752C162.21 88.3792 164.148 88.6798 165.618 87.7444C166.386 87.2433 166.787 86.4415 167.088 85.5729C167.555 84.1698 167.655 82.7333 167.589 81.2968Z" fill="#7F828B"/>
  <path d="M15.2011 81.2855C15.2011 78.7466 15.2011 76.2076 15.2011 73.702C15.2011 72.9671 15.2011 72.9671 15.936 72.9671C16.2701 72.9671 16.6042 72.9671 16.9383 72.9671C17.3057 72.9337 17.4394 73.1007 17.4394 73.4682C17.4394 74.1697 17.4394 74.8713 17.4394 75.5394C17.4394 76.8757 17.4394 78.212 17.4394 79.5483C17.4394 80.1831 17.4728 80.2165 18.1075 80.2165C19.7445 80.2165 21.3815 80.2165 23.0184 80.2165C23.6198 80.2165 23.6532 80.1497 23.6866 79.5149C23.6866 77.6107 23.6866 75.6731 23.6866 73.7688C23.6866 73.0005 23.6866 73.0005 24.455 72.9671C24.789 72.9671 25.1231 72.9671 25.4572 72.9671C25.8247 72.9337 25.9583 73.1341 25.9249 73.4682C25.9249 73.6352 25.9249 73.8023 25.9249 73.9693C25.9249 78.8802 25.9249 83.8245 25.9249 88.7354C25.9249 88.8691 25.9249 89.0027 25.9249 89.1363C25.9583 89.5372 25.8247 89.7042 25.3904 89.7042C24.9895 89.7042 24.5552 89.7042 24.1543 89.7042C23.7868 89.7042 23.6532 89.5706 23.6532 89.2031C23.6532 88.5016 23.6532 87.8 23.6532 87.1318C23.6532 85.6619 23.6532 84.192 23.6532 82.7221C23.6532 81.9537 23.6198 81.9203 22.8514 81.9203C21.2812 81.9203 19.7445 81.9203 18.1743 81.9203C17.4728 81.9203 17.406 81.9871 17.406 82.6886C17.406 84.7599 17.406 86.8646 17.406 88.9359C17.406 89.7042 17.406 89.7042 16.6376 89.7042C14.9004 89.7042 15.2345 89.9047 15.2011 88.3345C15.2011 85.9626 15.2011 83.6241 15.2011 81.2855Z" fill="#7F828B"/>
  <path d="M159.347 8.06381C157.81 7.69633 156.274 7.19522 154.703 6.82774C152.666 6.36003 150.661 6.29321 148.59 6.2264C146.853 6.15958 145.115 6.29321 143.345 6.36002C141.908 6.39343 140.472 6.6607 139.069 6.92796C138.634 7.02818 138.401 6.92796 138.234 6.49366C137.432 4.52262 136.597 2.55157 135.795 0.580526C135.628 0.146228 135.761 -0.0542214 136.262 0.0125937C137.799 0.246446 139.336 0.313268 140.873 0.613935C142.543 0.914603 144.18 1.28208 145.817 1.71638C148.323 2.41794 150.761 3.31995 153.1 4.4558C155.038 5.35781 156.942 6.32662 158.679 7.52929C158.813 7.62951 158.98 7.69633 159.08 7.79656C159.213 7.93018 159.347 7.96359 159.347 8.06381Z" fill="#7F828B"/>
  <path d="M110.029 84.7678C110.029 85.9371 110.029 87.1064 110.029 88.2756C110.029 89.0774 109.995 89.1776 109.227 89.4115C108.024 89.779 106.788 89.9794 105.519 89.9794C102.211 89.9126 99.9064 87.7745 99.0712 84.8347C98.403 82.4293 98.403 80.0574 99.138 77.6854C100.04 74.8458 102.211 72.9416 105.285 72.7745C106.554 72.7077 107.791 72.8079 108.96 73.2756C109.762 73.6097 109.795 73.6097 109.428 74.3781C109.394 74.4783 109.327 74.5785 109.294 74.6788C109.16 75.0796 108.96 75.1465 108.592 74.946C107.624 74.4449 106.554 74.4783 105.485 74.4783C103.915 74.5117 102.846 75.3803 102.044 76.6498C101.41 77.652 101.142 78.7879 101.009 79.9572C100.808 81.7612 100.909 83.5652 101.61 85.2689C102.111 86.505 102.88 87.4404 104.149 87.975C105.218 88.4092 106.287 88.2756 107.323 88.0418C107.624 87.975 107.724 87.6743 107.724 87.3736C107.724 86.8057 107.724 86.2712 107.724 85.7032C107.724 84.7344 107.724 83.7656 107.724 82.7968C107.724 81.7612 107.724 81.7612 106.722 81.7612C106.22 81.7612 105.719 81.7278 105.218 81.7612C104.784 81.7946 104.583 81.6275 104.617 81.1932C104.617 81.0596 104.617 80.926 104.617 80.7923C104.617 80.3915 104.784 80.191 105.218 80.191C106.588 80.191 107.958 80.191 109.294 80.191C109.828 80.191 109.895 80.2578 109.895 80.8258C110.029 82.1286 110.029 83.4649 110.029 84.7678Z" fill="#7F828B"/>
  <path d="M136.537 84.7394C136.537 85.942 136.503 87.1447 136.537 88.314C136.57 88.8485 136.336 89.1826 135.902 89.3162C133.864 89.9175 131.826 90.2516 129.788 89.5166C128.118 88.9153 126.915 87.7794 126.114 86.2093C125.278 84.5389 125.078 82.7349 125.145 80.8641C125.178 79.7616 125.312 78.6592 125.679 77.5901C126.615 74.7839 128.92 72.8129 132.06 72.7461C133.263 72.7126 134.432 72.8129 135.568 73.314C136.236 73.5812 136.269 73.7149 136.002 74.383C135.935 74.5167 135.869 74.6169 135.835 74.7505C135.701 75.118 135.468 75.1514 135.2 74.9844C133.998 74.3496 132.728 74.4164 131.459 74.5835C130.256 74.7505 129.421 75.5189 128.753 76.5211C128.018 77.6236 127.684 78.893 127.583 80.1959C127.483 81.599 127.45 83.0356 127.884 84.4053C128.352 85.9086 129.087 87.2449 130.657 87.9465C131.759 88.4142 132.828 88.2806 133.931 88.0801C134.165 88.0467 134.265 87.8797 134.298 87.6792C134.332 87.579 134.332 87.4454 134.332 87.3452C134.332 85.7416 134.332 84.1046 134.332 82.5011C134.332 81.8329 134.298 81.7995 133.597 81.7995C132.995 81.7995 132.361 81.7995 131.759 81.7995C131.392 81.7995 131.258 81.6659 131.258 81.2984C131.258 81.0979 131.258 80.8975 131.258 80.7305C131.258 80.3964 131.425 80.2293 131.759 80.2293C133.196 80.2293 134.666 80.2293 136.102 80.2293C136.47 80.2293 136.57 80.4632 136.57 80.7639C136.57 81.4988 136.57 82.2004 136.57 82.9354C136.537 83.5033 136.537 84.138 136.537 84.7394Z" fill="#7F828B"/>
  <path d="M175.78 79.6248C175.78 77.6204 175.78 75.6159 175.78 73.6115C175.78 72.9433 175.78 72.9433 176.482 72.9099C176.816 72.9099 177.15 72.9099 177.484 72.9099C178.119 72.9099 178.152 72.9433 178.152 73.5447C178.152 73.7117 178.152 73.8787 178.152 74.0458C178.152 77.6204 178.152 81.2284 178.152 84.803C178.152 85.8386 178.42 86.7072 179.221 87.3754C180.892 88.7451 183.164 87.8765 183.798 86.2729C183.999 85.7718 184.099 85.2707 184.066 84.7362C184.066 81.0948 184.066 77.4534 184.066 73.8119C184.066 72.9099 184.066 72.8765 184.968 72.9099C186.371 72.9099 186.204 72.7095 186.204 74.146C186.204 77.7874 186.204 81.4289 186.204 85.0703C186.204 86.8743 185.435 88.2774 183.865 89.2128C181.827 90.4155 178.486 90.2484 176.783 88.1104C176.181 87.3754 175.78 86.5068 175.78 85.538C175.747 83.5669 175.78 81.5959 175.78 79.6248C175.814 79.6248 175.814 79.6248 175.78 79.6248Z" fill="#7F828B"/>
  <path d="M41.0625 81.5928C41.0625 79.2208 41.0625 76.8489 41.0625 74.5104C41.0625 73.6418 41.1627 73.575 41.9979 73.2743C43.8019 72.6396 45.6727 72.5393 47.5102 72.9736C49.1471 73.3411 50.3498 74.3099 50.8509 76.0137C51.4188 77.8511 51.2184 79.5883 49.9823 81.0917C49.1805 82.0605 48.1115 82.5616 46.9088 82.7286C45.9734 82.8623 45.0046 83.0961 44.0358 82.8623C43.5347 82.7286 43.5013 82.7954 43.5013 83.3634C43.5013 85.134 43.5013 86.938 43.5013 88.7086C43.5013 88.909 43.5013 89.1095 43.5013 89.2765C43.5013 89.5438 43.3676 89.6774 43.1004 89.6774C43.0669 89.6774 43.0335 89.6774 43.0335 89.6774C41.1627 89.811 41.1627 89.811 41.1627 87.9402C41.0625 85.8355 41.0625 83.7309 41.0625 81.5928ZM43.401 77.9179C43.401 78.8868 43.401 79.8556 43.401 80.8244C43.401 81.1919 43.5347 81.3923 43.9355 81.3923C44.5369 81.3923 45.1716 81.4591 45.773 81.3923C46.9088 81.2587 47.911 80.791 48.4122 79.722C49.0135 78.4191 48.9801 77.0494 48.4456 75.7465C48.2117 75.1785 47.7774 74.7776 47.1761 74.5104C46.1404 74.0427 45.0714 74.1429 43.969 74.3099C43.6015 74.3433 43.401 74.6106 43.4344 75.0115C43.4344 75.9803 43.401 76.9491 43.401 77.9179Z" fill="#7F828B"/>
  <path d="M192.586 81.663C192.586 79.2577 192.586 76.8857 192.586 74.4804C192.586 73.6118 192.653 73.545 193.421 73.2777C195.259 72.643 197.129 72.4759 199 72.977C201.038 73.5116 202.174 74.5138 202.575 76.8857C202.909 78.9904 202.274 80.7944 200.403 81.9971C200.036 82.2309 199.602 82.4314 199.201 82.5316C198.031 82.7989 196.896 83.0995 195.693 82.8657C194.991 82.732 194.958 82.7654 194.958 83.5338C194.958 85.3712 194.958 87.2086 194.958 89.0461C194.958 89.6808 194.958 89.7142 194.323 89.7142C192.218 89.6808 192.653 90.0149 192.619 88.1107C192.586 85.9392 192.586 83.8011 192.586 81.663ZM196.361 81.4292C196.628 81.4292 196.929 81.4626 197.196 81.4292C198.532 81.2287 199.602 80.7276 200.103 79.3245C200.437 78.3891 200.437 77.4537 200.236 76.5516C200.036 75.6162 199.501 74.8479 198.532 74.4804C197.697 74.1463 196.862 74.2131 195.994 74.2799C194.991 74.3468 194.958 74.4136 194.958 75.3824C194.958 76.9525 194.958 78.4893 194.958 80.0594C194.958 81.496 194.657 81.4292 196.361 81.4292Z" fill="#7F828B"/>
  <path d="M56.5703 81.5935C56.5703 79.1882 56.5703 76.8162 56.5703 74.4109C56.5703 73.5089 56.5703 73.5423 57.4389 73.2416C59.2429 72.6403 61.0803 72.5735 62.9511 72.941C64.7217 73.3085 66.2919 75.0122 66.4589 76.8162C66.5258 77.7183 66.5592 78.6202 66.2585 79.5222C65.5569 81.4599 64.087 82.3953 62.1494 82.7294C61.2474 82.863 60.312 83.03 59.3431 82.7962C58.842 82.6626 58.8086 82.7294 58.8086 83.3307C58.8086 85.2015 58.8086 87.0724 58.8086 88.9098C58.8086 89.6447 58.8086 89.6447 58.0737 89.6447C57.7062 89.6447 57.3387 89.6447 57.0046 89.6447C56.7374 89.6447 56.6037 89.5111 56.6037 89.2439C56.6037 89.0434 56.6037 88.843 56.6037 88.6759C56.5703 86.3374 56.5703 83.9655 56.5703 81.5935ZM58.7752 77.8853C58.7752 78.8541 58.7752 79.8229 58.7752 80.7917C58.7752 81.1926 58.8754 81.4265 59.3431 81.4265C59.9779 81.3931 60.6126 81.4933 61.2474 81.3931C62.3498 81.2594 63.2852 80.7917 63.7863 79.7561C64.4211 78.4198 64.4545 77.0835 63.8197 75.7472C63.5525 75.1793 63.1516 74.7784 62.5503 74.5111C61.4812 74.0434 60.3788 74.1771 59.2763 74.3107C58.8754 74.3775 58.7752 74.6448 58.7752 75.0456C58.7752 75.9811 58.7752 76.9499 58.7752 77.8853Z" fill="#7F828B"/>
  <path d="M3.96065 89.9072C2.89161 89.974 1.85597 89.7068 0.853748 89.4061C0.619895 89.3393 0.452858 89.2056 0.252412 89.1388C-0.0148478 89.0052 -0.0482553 88.8382 0.0519673 88.6043C0.0519673 88.5709 0.0853748 88.5709 0.0853748 88.5375C0.486265 87.4685 0.519673 87.435 1.58871 87.8025C2.55753 88.1366 3.52635 88.2368 4.52858 88.1032C6.16555 87.9028 7.06755 86.6667 7.00073 85.1967C6.96733 84.3281 6.53303 83.6266 5.83147 83.0921C4.86265 82.3571 3.7602 81.9228 2.72457 81.3215C1.5219 80.6199 0.55308 79.6845 0.219005 78.248C-0.282108 76.2101 0.519673 74.1054 2.49072 73.2369C4.39495 72.3683 6.33258 72.5687 8.23681 73.3371C8.6377 73.5041 8.73793 73.738 8.57089 74.1389C8.50407 74.3059 8.43726 74.4395 8.37044 74.6066C8.17 75.1077 8.17 75.0743 7.63548 74.8738C6.49962 74.4061 5.36377 74.1723 4.16109 74.5063C3.22568 74.7736 2.55753 75.5754 2.45731 76.5442C2.29027 78.0475 3.05865 78.9495 4.26132 79.6177C5.29695 80.1856 6.3994 80.6533 7.40162 81.3549C9.072 82.4907 9.57311 84.1277 9.30585 85.9985C9.03859 87.8359 7.90274 89.0052 6.13214 89.6065C5.46399 89.8738 4.72902 89.974 3.96065 89.9072Z" fill="#7F828B"/>
  <path d="M74.4735 81.3621C74.4735 83.8676 74.4735 86.3732 74.4735 88.8787C74.4735 89.6805 74.4735 89.6805 73.6383 89.7139C73.4045 89.7139 73.1372 89.7139 72.9033 89.7139C72.1016 89.7139 72.1016 89.7139 72.1016 88.9456C72.1016 83.8676 72.1016 78.7897 72.1016 73.6783C72.1016 72.9434 72.1016 72.9434 72.8365 72.9434C73.1706 72.9434 73.5047 72.9434 73.8388 72.9434C74.4735 72.9768 74.4735 72.9768 74.4735 73.6115C74.4735 76.1839 74.4735 78.7897 74.4735 81.3621Z" fill="#7F828B"/>
  <path d="M34.7036 81.3579C34.7036 83.7967 34.7036 86.2354 34.7036 88.7076C34.7036 88.908 34.7036 89.1085 34.7036 89.2755C34.7036 89.5762 34.5699 89.6764 34.3027 89.6764C33.8016 89.6764 33.3004 89.6764 32.7993 89.6764C32.5321 89.6764 32.3984 89.5428 32.3984 89.2755C32.3984 89.1085 32.3984 88.9415 32.3984 88.7744C32.3984 83.8301 32.3984 78.8858 32.3984 73.9415C32.3984 73.8747 32.3984 73.7744 32.3984 73.7076C32.4318 73.0061 32.4318 73.0061 33.1 72.9727C33.4341 72.9727 33.7681 72.9727 34.1022 72.9727C34.737 72.9727 34.737 73.0061 34.737 73.6408C34.7036 76.1798 34.6701 78.7522 34.7036 81.3579Z" fill="#7F828B"/>
  <path d="M151.903 12.9433C151.235 12.3086 150.6 11.6738 149.932 11.0391C149.197 10.3375 148.428 9.73619 147.56 9.23507C147.426 9.16826 147.359 9.06804 147.359 8.83419C148.028 8.73397 148.696 8.53352 149.364 8.50011C151.936 8.33307 154.475 8.39988 156.947 9.20166C157.482 9.3687 158.083 9.40211 158.584 9.73619C158.551 9.97004 158.517 10.1705 158.217 10.3041C157.615 10.6048 156.914 10.6048 156.313 10.8386C155.21 11.2729 154.175 11.9077 153.206 12.5758C152.805 12.8431 152.404 13.0101 151.903 12.9433Z" fill="#7F828B"/>
  <path d="M151.891 12.9431C152.392 12.9765 152.793 12.8429 153.194 12.5422C154.162 11.874 155.198 11.2727 156.3 10.805C156.902 10.5712 157.603 10.5712 158.205 10.2705C158.505 10.1369 158.539 9.96982 158.572 9.70256C158.739 9.66915 158.873 9.70256 159.006 9.76938C159.173 10.1703 159.541 10.1369 159.875 10.2371C159.975 10.2705 160.075 10.2705 160.176 10.3039C160.209 10.5043 160.343 10.6046 160.543 10.5712C160.61 10.5712 160.643 10.5712 160.677 10.6046C160.71 10.9386 160.643 11.1725 160.309 11.3395C159.04 12.0077 157.871 12.8429 156.601 13.511C155.833 13.9119 154.998 14.246 154.363 14.8807C154.229 15.0144 153.962 15.0478 153.761 15.148C153.494 15.0812 153.494 14.8139 153.327 14.6469C153.361 14.413 153.26 14.2794 153.026 14.246C152.626 13.8785 152.158 13.4776 151.891 12.9431Z" fill="#7F828B"/>
  <path d="M177.857 40.669C177.523 41.3706 177.422 42.1389 177.155 42.8739C177.122 43.0075 177.088 43.1412 177.022 43.2748C176.955 43.4418 176.821 43.5421 176.621 43.5421C176.42 43.5421 176.32 43.4084 176.287 43.2414C176.12 42.6735 175.953 42.1389 175.786 41.571C175.585 40.9029 175.451 40.1679 175.084 39.3661C174.95 40.5688 174.817 41.571 174.716 42.6066C174.65 43.375 174.549 43.6423 174.182 43.5086C173.647 43.3416 173.948 42.8405 173.982 42.5064C174.115 41.1033 174.316 39.7002 174.483 38.2971C174.516 38.0298 174.583 37.796 174.917 37.8294C175.184 37.8294 175.451 37.8294 175.552 38.2303C175.819 39.2659 176.086 40.2681 176.353 41.2703C176.353 41.6378 176.454 41.9385 176.788 42.2058C176.921 41.9051 176.955 41.6378 176.955 41.3706C177.255 40.3683 177.556 39.3327 177.857 38.3305C177.924 38.0966 177.957 37.8294 178.324 37.8294C178.759 37.8294 178.892 37.9296 178.959 38.3973C179.059 39.1323 179.16 39.9006 179.227 40.6356C179.293 41.4374 179.427 42.2392 179.561 43.0409C179.594 43.3082 179.594 43.5421 179.227 43.5755C178.926 43.5755 178.792 43.4752 178.759 43.1746C178.659 42.3394 178.558 41.5376 178.425 40.7024C178.492 40.4686 178.458 40.2681 178.425 40.0343C178.492 39.8004 178.525 39.5332 178.224 39.5332C177.924 39.5332 177.957 39.8004 177.99 40.0343C177.924 40.2013 177.89 40.4352 177.857 40.669Z" fill="#7F828B"/>
  <path d="M171.516 38.4666C171.315 38.4666 171.115 38.4666 170.881 38.4666C170.681 38.4666 170.547 38.3998 170.547 38.1993C170.547 37.9989 170.614 37.8652 170.814 37.8652C171.649 37.8652 172.485 37.8652 173.32 37.8652C173.487 37.8652 173.654 37.9655 173.654 38.1659C173.654 38.3663 173.487 38.4332 173.32 38.4666C173.052 38.5 172.685 38.3663 172.551 38.6336C172.418 38.8675 172.518 39.1681 172.485 39.4688C172.485 40.6715 172.485 41.8741 172.485 43.0434C172.485 43.3107 172.518 43.5445 172.117 43.5779C171.783 43.5779 171.616 43.5111 171.616 43.1102C171.649 41.8741 171.616 40.6047 171.616 39.3686C171.616 39.0679 171.683 38.7672 171.516 38.4666Z" fill="#7F828B"/>
  <path d="M159.931 10.2568C159.597 10.19 159.196 10.2234 159.062 9.78906C159.397 9.85588 159.697 9.9561 159.931 10.2568Z" fill="#7F828B"/>
  <path d="M153.055 14.2715C153.322 14.2715 153.422 14.4051 153.355 14.6724C153.188 14.6056 153.055 14.4719 153.055 14.2715Z" fill="#7F828B"/>
  <path d="M160.594 10.6044C160.394 10.6378 160.26 10.5376 160.227 10.3372C160.46 10.3038 160.561 10.4374 160.594 10.6044Z" fill="#7F828B"/>
  <path d="M178.473 41.242L178.206 39.5048L177.438 42.0438L177.939 39.0371H178.607L178.473 41.242Z" fill="#7F828B"/>
  <path d="M176.086 40.1055L176.42 41.1411L176.754 42.1099L176.988 41.3416L177.456 40.7068L177.055 42.5776L176.353 42.3772L176.086 40.7068V40.1055Z" fill="#7F828B"/>
</svg>