<svg width="64" height="20" viewBox="0 0 64 20" fill="none" xmlns="http://www.w3.org/2000/svg">
<path fill-rule="evenodd" clip-rule="evenodd" d="M7.75595 0.290056L7.75594 0.290057C7.72141 0.299953 7.68682 0.309863 7.65196 0.319103L7.66115 0.367717C10.1337 0.714559 12.4237 1.60794 14.556 2.85079C16.6882 4.09364 18.5932 5.61633 20.1186 7.61199C20.1255 7.59578 20.1338 7.58105 20.1412 7.56778L20.1412 7.56777C20.1548 7.54339 20.1657 7.52397 20.1606 7.50951C20.142 7.45475 20.1236 7.39979 20.1053 7.34482L20.1053 7.34468L20.1052 7.34455L20.1052 7.34441C20.0409 7.15156 19.9765 6.95844 19.8978 6.77247C19.8156 6.57534 19.727 6.38103 19.6385 6.18681L19.6384 6.18672L19.6384 6.18662L19.6384 6.18653L19.6383 6.18644L19.6383 6.18634L19.6382 6.18625C19.5557 6.00526 19.4732 5.82435 19.396 5.64129C19.204 5.20485 18.9633 4.79145 18.6786 4.40895C18.4418 4.0717 18.1879 3.74677 17.918 3.43543C17.3921 2.84609 16.7986 2.32088 16.1496 1.8707C15.7831 1.60398 15.3966 1.36591 14.9934 1.15862C14.5126 0.920823 14.0199 0.714557 13.5194 0.526685C13.184 0.412099 12.8417 0.318636 12.4946 0.246846C12.3172 0.202744 12.1354 0.173994 11.9542 0.145327C11.8925 0.135565 11.8308 0.125812 11.7694 0.115466C11.5339 0.0630118 11.2951 0.0265817 11.0547 0.006423C10.6632 -0.0032115 10.2717 0 9.88015 0.0032115C9.6844 0.00481725 9.48864 0.006423 9.29289 0.006423C9.2406 0.00870271 9.18867 0.0161822 9.13786 0.0287553C9.06748 0.0417053 8.9971 0.055379 8.92672 0.0690527C8.83288 0.0872849 8.73903 0.105517 8.64519 0.122034C8.54251 0.140261 8.43954 0.156803 8.33656 0.173348C8.21686 0.192579 8.09713 0.211814 7.97778 0.233707C7.9027 0.248008 7.82945 0.268997 7.75595 0.290056ZM4.26367 3.17791C4.1827 3.17791 4.10158 3.1763 4.02042 3.1747C3.85795 3.17149 3.69528 3.16827 3.5332 3.17791C3.38315 3.18683 3.23711 3.21177 3.09137 3.23666L3.09136 3.23667C3.00102 3.2521 2.9108 3.26751 2.81981 3.27907C2.77056 3.27728 2.72204 3.2666 2.6766 3.24754C2.68239 3.23348 2.68688 3.21733 2.69138 3.20116L2.69138 3.20116C2.70117 3.16594 2.711 3.13056 2.73441 3.11616C2.9561 2.95121 3.18729 2.79942 3.42678 2.66159C3.83402 2.44539 4.28104 2.31441 4.74057 2.27665C4.86207 2.26649 4.98366 2.25503 5.10528 2.24357C5.47157 2.20905 5.83822 2.17449 6.20414 2.17548C6.65666 2.18521 7.10795 2.22647 7.55472 2.29898C7.95674 2.35678 8.35614 2.44744 8.75159 2.54466C8.97422 2.60055 9.19288 2.67229 9.41133 2.74396L9.41134 2.74396C9.50099 2.77338 9.59061 2.80278 9.68044 2.83107C9.75338 2.85403 9.82433 2.8759 9.89391 2.89734L9.89407 2.89739L9.8944 2.89749L9.89441 2.8975L9.89442 2.8975C10.1192 2.96677 10.3297 3.03162 10.5462 3.11484C10.8668 3.23834 11.1782 3.3776 11.4922 3.52344C11.5955 3.57145 11.6956 3.61547 11.7935 3.6585C11.9929 3.74619 12.1829 3.82978 12.3724 3.93465C12.9492 4.25259 13.518 4.58498 14.0803 4.92263C14.362 5.08699 14.6344 5.26681 14.8962 5.46128C15.3166 5.77659 15.7265 6.10504 16.1312 6.44006C16.4189 6.67917 16.6987 6.93011 16.9668 7.19287C17.2085 7.43067 17.4358 7.68554 17.6552 7.94436L17.7595 8.06758C18.0183 8.3729 18.2771 8.67817 18.5052 9.0059C18.7914 9.40651 19.047 9.82811 19.2698 10.2671C19.4984 10.704 19.6593 11.1732 19.7467 11.6585C19.7558 11.7185 19.7653 11.7786 19.7749 11.8387C19.8071 12.0414 19.8394 12.244 19.8505 12.4467C19.8499 12.6308 19.831 12.8143 19.794 12.9946C19.794 13.0215 19.7702 13.0459 19.7467 13.07C19.7357 13.0812 19.7249 13.0924 19.7165 13.1036C19.7053 13.0932 19.6923 13.0835 19.6794 13.0737L19.6794 13.0737C19.6516 13.0528 19.6239 13.032 19.614 13.0051C19.3184 12.1919 18.8599 11.4653 18.3804 10.7546C18.132 10.3892 17.8581 10.0419 17.5606 9.71535C17.0824 9.18983 16.5989 8.66431 16.076 8.18084C15.6234 7.76662 15.129 7.39545 14.6365 7.02572L14.5441 6.95638C14.1342 6.64764 13.7151 6.34941 13.2776 6.0814C12.6079 5.64367 11.9051 5.25888 11.1755 4.93051C11.0197 4.86529 10.867 4.79285 10.7144 4.72047L10.7143 4.72045C10.5349 4.63537 10.3557 4.55037 10.1718 4.47725C9.67913 4.28018 9.18252 4.08311 8.67802 3.92546C8.17352 3.7678 7.69267 3.63642 7.19606 3.50767C7.09628 3.48173 6.99314 3.46892 6.89004 3.45612C6.7895 3.44363 6.689 3.43115 6.59171 3.40651C6.34369 3.33907 6.08989 3.29509 5.83365 3.27513C5.47329 3.2517 5.11294 3.21345 4.75258 3.17521C4.58742 3.15767 4.42226 3.14014 4.2571 3.12404L4.26367 3.17791ZM5.03359 5.4009C4.81483 5.38759 4.59546 5.38759 4.3767 5.4009C3.482 5.35885 2.73314 5.44031 2.01449 5.72803C1.45481 5.93692 0.934552 6.20625 0.562748 6.69761C0.416059 6.89103 0.325182 7.12095 0.299989 7.36239C0.286851 7.49246 0.351226 7.53975 0.460271 7.48457C0.788817 7.3355 1.137 7.2342 1.49423 7.18372C2.00864 7.07199 2.53266 7.01039 3.05896 6.99978C3.14436 7.00008 3.22983 6.9997 3.3153 6.99932C3.6059 6.99803 3.89657 6.99673 4.18488 7.02211C4.57218 7.05528 4.95626 7.11727 5.34004 7.17922L5.46583 7.19948C5.72334 7.24021 5.97953 7.2967 6.23309 7.36108C6.55365 7.43728 6.87159 7.5253 7.1869 7.62383L7.29281 7.65741C7.67148 7.77739 8.05031 7.89741 8.41924 8.04162C8.69773 8.14986 8.96108 8.28081 9.22544 8.41226L9.22545 8.41226L9.22547 8.41227L9.22548 8.41228L9.2255 8.41228L9.22551 8.41229L9.22552 8.41229L9.22554 8.4123L9.22555 8.4123L9.22557 8.41231L9.22558 8.41232L9.2256 8.41232L9.22561 8.41233L9.22568 8.41236L9.22576 8.4124L9.22583 8.41244L9.22591 8.41248L9.22598 8.41251L9.22606 8.41255L9.22613 8.41259L9.2262 8.41263L9.22628 8.41266L9.22635 8.4127L9.22643 8.41274L9.2265 8.41277C9.29229 8.44548 9.35813 8.47822 9.4243 8.51065C9.51338 8.55456 9.60298 8.59772 9.69263 8.64091C9.97847 8.7786 10.2647 8.9165 10.5358 9.07952C11.0862 9.41323 11.6275 9.75613 12.153 10.1306C12.6352 10.4774 13.1056 10.8715 13.5549 11.2657C14.1366 11.7756 14.6648 12.3435 15.1314 12.9605C15.4389 13.3743 15.7358 13.7974 16.013 14.2309C16.183 14.5112 16.334 14.8027 16.4649 15.1033C16.6221 15.4329 16.7607 15.7711 16.8801 16.1162C16.9533 16.3394 17.0063 16.5695 17.0594 16.8L17.0594 16.8002C17.0863 16.917 17.1132 17.034 17.1428 17.1502C17.1652 17.2369 17.2112 17.3341 17.3136 17.2513C17.4414 17.1517 17.5534 17.0335 17.646 16.9005C17.8582 16.5534 17.9658 16.1525 17.9561 15.7457C17.955 15.0796 17.8168 14.4209 17.5501 13.8105C17.3961 13.4474 17.2156 13.0961 17.0102 12.7595C16.8929 12.561 16.762 12.3706 16.6311 12.1802L16.6309 12.1799C16.5712 12.093 16.5115 12.0062 16.4531 11.9186C16.3819 11.7985 16.3042 11.6823 16.2206 11.5705C16.0793 11.4037 15.9273 11.2363 15.7799 11.074L15.7798 11.0738L15.7796 11.0736L15.7794 11.0734L15.7791 11.0731L15.7791 11.0731L15.7791 11.0731L15.779 11.073L15.779 11.073C15.7142 11.0016 15.6503 10.9313 15.5886 10.8623L15.5323 10.7994L15.5323 10.7994L15.5323 10.7993C15.3492 10.5945 15.1676 10.3913 14.9698 10.2054C14.6677 9.92167 14.3576 9.64314 14.037 9.38038C13.6784 9.08609 13.3118 8.79968 12.9348 8.52904C12.6562 8.32803 12.3619 8.14804 12.065 7.97199C11.9592 7.90942 11.8534 7.84643 11.7477 7.7834L11.7474 7.78326L11.7472 7.78312L11.747 7.78299C11.2977 7.5153 10.8476 7.24709 10.3821 7.00898C9.8918 6.76351 9.38927 6.54338 8.87644 6.34945C8.44946 6.17997 8.0054 6.03808 7.56265 5.89882C7.33136 5.82578 7.0933 5.77192 6.85684 5.71842L6.80065 5.7057C6.57993 5.65446 6.3579 5.61242 6.13455 5.57432C6.0565 5.56089 5.97851 5.54704 5.90053 5.5332C5.61229 5.48203 5.32416 5.43088 5.03359 5.4009ZM15.3627 18.4678C15.3548 18.3475 15.3548 18.2268 15.3627 18.1065C15.4016 17.5952 15.2547 17.1145 15.1105 16.6432L15.1052 16.6259C14.8661 15.9086 14.472 15.2674 14.0778 14.6316C13.9378 14.4278 13.7809 14.2362 13.6088 14.0587C13.5353 13.9765 13.4621 13.894 13.389 13.8116L13.389 13.8116L13.3889 13.8116L13.3889 13.8116L13.3889 13.8115L13.3889 13.8115L13.3889 13.8115L13.3888 13.8115L13.3888 13.8115L13.3888 13.8115L13.3888 13.8114L13.3888 13.8114L13.3888 13.8114C13.0905 13.4755 12.7927 13.14 12.4763 12.8172C12.2177 12.5533 11.9421 12.3067 11.6512 12.0789C11.2847 11.7885 10.9103 11.5165 10.5161 11.2538C10.1456 11.0005 9.76234 10.7663 9.36786 10.5522C8.89489 10.3013 8.40747 10.0779 7.91611 9.86379C7.53101 9.6916 7.13621 9.54202 6.7337 9.41579C6.27467 9.27201 5.80687 9.15791 5.33319 9.0742C4.70678 8.96377 4.07476 8.8879 3.44001 8.84691C3.17987 8.83176 2.91811 8.863 2.65577 8.89432L2.65574 8.89432H2.65573H2.65572H2.65572H2.65571H2.6557H2.65569H2.65569H2.65568H2.65567H2.65567H2.65566H2.65565C2.50864 8.91187 2.36144 8.92944 2.21424 8.93888C1.82629 8.96465 1.44512 9.0534 1.08569 9.20164C0.828186 9.30674 0.575938 9.42236 0.327631 9.55374C0.216362 9.59675 0.123589 9.67725 0.0653085 9.78133C0.00702857 9.88542 -0.0131053 10.0066 0.00837828 10.1239C0.0337395 10.3015 0.0444134 10.4806 0.0551011 10.66C0.0610232 10.7594 0.0669495 10.8589 0.0753811 10.9582C0.0745025 10.9822 0.0790885 11.0061 0.0887935 11.0281C0.0984985 11.0501 0.11307 11.0697 0.13141 11.0852C0.14975 11.1008 0.171381 11.112 0.194673 11.118C0.217966 11.1239 0.242313 11.1246 0.265882 11.1198C0.323689 11.1145 0.381496 11.108 0.439303 11.0974C0.562107 11.0733 0.683253 11.0465 0.80429 11.0197L0.80433 11.0197L0.804341 11.0196C1.07176 10.9604 1.33864 10.9013 1.62172 10.8715C1.95543 10.8363 2.29433 10.8383 2.63211 10.8403H2.63229H2.63247H2.63266H2.63284H2.63302H2.6332H2.63339H2.63357H2.63375H2.63394H2.63412H2.6343C2.71202 10.8408 2.78968 10.8413 2.8672 10.8413C3.57642 10.8356 4.28326 10.924 4.96927 11.104C5.53026 11.2498 6.09125 11.3983 6.6391 11.5836C7.03273 11.7232 7.41601 11.8904 7.78605 12.0841C8.19289 12.2823 8.58771 12.5043 8.96846 12.7489C9.45193 13.0629 9.91175 13.4071 10.3716 13.7513L10.3716 13.7513C11.0935 14.3027 11.7402 14.9462 12.295 15.6655C12.7184 16.1884 13.0807 16.7579 13.3749 17.3629C13.551 17.7374 13.7021 18.1223 13.8505 18.5073C13.8953 18.6224 13.9279 18.742 13.9605 18.8615L13.9605 18.8615L13.9606 18.8616L13.9606 18.8616L13.9606 18.8616L13.9606 18.8616L13.9606 18.8617L13.9606 18.8617L13.9606 18.8617L13.9606 18.8617L13.9606 18.8618L13.9606 18.8618L13.9606 18.8618C13.9815 18.9385 14.0024 19.0151 14.0266 19.0906C14.0568 19.1852 14.0975 19.2587 14.2289 19.197C14.4104 19.1101 14.5937 19.0277 14.777 18.9453L14.7772 18.9452C14.9069 18.8869 15.0366 18.8286 15.1656 18.7687C15.2904 18.7109 15.3864 18.6347 15.3627 18.4678ZM10.8274 19.9958C10.696 20.0208 10.5751 19.9341 10.4582 19.7422C10.2086 19.3211 9.93217 18.9165 9.63053 18.5309C9.17399 17.9634 8.65629 17.4479 8.08682 16.9938C7.43151 16.4656 6.72047 16.0105 5.96635 15.6366C5.42785 15.3578 4.86098 15.1376 4.2755 14.9797C3.79333 14.8589 3.30723 14.7433 2.81719 14.6605C2.41857 14.5869 2.01382 14.5517 1.60849 14.5554C1.47915 14.5709 1.3485 14.5398 1.2401 14.4675C1.1317 14.3952 1.05268 14.2866 1.01729 14.1612C0.967883 14.041 0.916286 13.9218 0.864736 13.8027C0.790163 13.6304 0.715691 13.4584 0.648109 13.2836C0.587412 13.1225 0.53781 12.9575 0.49965 12.7896C0.47863 12.7029 0.515416 12.6583 0.616578 12.628C1.13706 12.4584 1.68117 12.3724 2.22861 12.3732C2.33949 12.3732 2.45083 12.3714 2.56228 12.3695C2.91564 12.3638 3.27008 12.358 3.61466 12.41C4.07368 12.4782 4.52674 12.5927 4.97833 12.7067C5.12647 12.7442 5.27446 12.7815 5.42244 12.8172C5.72121 12.8924 6.01444 12.9881 6.30006 13.1036C6.52261 13.1956 6.73872 13.3024 6.95471 13.4091L6.95477 13.4091L6.95484 13.4091L6.9549 13.4092L6.95497 13.4092L6.95504 13.4092L6.9551 13.4093L6.95517 13.4093L6.95523 13.4093L6.9553 13.4094L6.95536 13.4094L6.95543 13.4094C7.04776 13.455 7.14007 13.5006 7.23285 13.5451C8.01541 13.922 8.74946 14.3922 9.41901 14.9456C10.0717 15.4698 10.6604 16.0691 11.1729 16.731C11.5261 17.1852 11.8341 17.6727 12.0926 18.1867C12.2637 18.5557 12.4017 18.939 12.5051 19.3323C12.6128 19.7068 12.5931 19.7173 12.224 19.8079C12.0159 19.8572 11.8054 19.8953 11.5933 19.9222C11.4472 19.9407 11.3033 19.9533 11.1364 19.9678L11.1361 19.9679L11.1358 19.9679L11.1356 19.9679L11.1355 19.9679C11.0415 19.9761 10.9403 19.9849 10.8274 19.9958ZM40.5872 8.5329L40.5704 8.56055L40.5218 8.54084C40.5207 8.52567 40.5194 8.50951 40.5179 8.49273C40.5141 8.44849 40.51 8.40001 40.51 8.35428V7.81563C40.5087 7.69607 40.4824 7.60016 40.3261 7.60016C40.1903 7.59826 40.0546 7.59204 39.9189 7.58582C39.6803 7.57488 39.4419 7.56395 39.2041 7.57652C38.9676 7.5936 38.9413 7.61987 38.9413 7.85636V15.6301V16.1372C38.9413 16.2633 38.9899 16.329 39.1305 16.329H40.2893C40.4837 16.3277 40.5074 16.3014 40.5074 16.1057V12.7739C40.5074 12.7281 40.5106 12.6822 40.5147 12.6226V12.6225L40.5148 12.622C40.5166 12.5963 40.5185 12.568 40.5205 12.5361C40.5414 12.5527 40.56 12.5655 40.5761 12.5766C40.6045 12.5961 40.6247 12.6101 40.6348 12.6294C40.746 12.845 40.9012 13.0349 41.0904 13.1868C41.2796 13.3386 41.4986 13.4491 41.7331 13.5109C42.0792 13.6234 42.4464 13.6549 42.8065 13.6029C43.0982 13.5655 43.3823 13.4831 43.6487 13.3585C44.12 13.1291 44.5025 12.7504 44.7365 12.2812C44.9739 11.8496 45.0999 11.3655 45.103 10.8728V10.2225C45.1162 9.7272 44.9493 9.27788 44.7391 8.84302C44.5461 8.44806 44.2426 8.11761 43.8654 7.89182C43.527 7.65782 43.1232 7.53688 42.7119 7.5463C42.6067 7.55156 42.5003 7.5498 42.3944 7.54805C42.3415 7.54717 42.2888 7.5463 42.2363 7.5463C41.9301 7.5512 41.6295 7.62922 41.3596 7.77389C41.0897 7.91856 40.8583 8.12566 40.6847 8.37793C40.6553 8.41837 40.6298 8.46139 40.604 8.50473L40.5872 8.5329ZM40.5822 11.2048C40.5143 11.0012 40.4897 10.7856 40.51 10.572C40.4885 10.3355 40.5209 10.0972 40.6049 9.87508C40.6889 9.65296 40.8222 9.4528 40.9948 9.2897C41.1727 9.11821 41.3916 8.99519 41.6305 8.9324C41.8695 8.86961 42.1206 8.86914 42.3598 8.93104C42.5366 8.97555 42.7073 9.04128 42.8683 9.12679C43.0065 9.20052 43.1279 9.3021 43.2249 9.42511C43.3219 9.54812 43.3924 9.68989 43.4319 9.8415C43.5167 10.0955 43.5584 10.362 43.5554 10.6298C43.5396 11.1697 43.382 11.6664 42.9077 11.9961C42.8 12.0673 42.6822 12.1217 42.5582 12.1577C41.9276 12.3561 41.3587 12.2471 40.9041 11.7544C40.7597 11.5956 40.6501 11.4084 40.5822 11.2048ZM54.7687 10.9083H56.608L56.6211 10.9044H58.5091C58.7495 10.903 58.8204 10.8295 58.827 10.5943C58.827 10.5629 58.8261 10.5314 58.8253 10.4998V10.4996V10.4995C58.8235 10.436 58.8218 10.3723 58.827 10.3092C58.8533 9.86655 58.7559 9.42532 58.5459 9.03482C58.3331 8.59129 57.9969 8.21858 57.5776 7.96145C57.2783 7.75733 56.9371 7.62267 56.5791 7.56731C56.0663 7.4913 55.5441 7.50686 55.0367 7.61329C54.617 7.71205 54.2272 7.91032 53.9003 8.19136C53.2618 8.75235 52.9832 9.49071 52.9294 10.3197C52.9196 10.5917 52.9354 10.864 52.9767 11.133C53.0302 11.6235 53.2114 12.0914 53.5022 12.4901C53.8096 12.9063 54.23 13.2255 54.7135 13.4098C55.0168 13.5127 55.3313 13.5793 55.6503 13.6081C55.9953 13.6422 56.3437 13.6169 56.6803 13.5332C57.109 13.4396 57.5091 13.2445 57.8469 12.9644C58.285 12.6231 58.5899 12.1392 58.7088 11.5967C58.7403 11.4575 58.693 11.4154 58.5616 11.4154C58.4206 11.4154 58.2796 11.4161 58.1386 11.4169C57.8566 11.4183 57.5745 11.4198 57.2925 11.4154C57.237 11.4103 57.1816 11.4262 57.1373 11.4601C57.093 11.4939 57.063 11.5431 57.0534 11.598C57.0136 11.7266 56.9476 11.8454 56.8593 11.947C56.7711 12.0485 56.6627 12.1306 56.541 12.1879C56.2494 12.3349 55.9182 12.3842 55.5964 12.3285C54.9592 12.2313 54.5966 11.7912 54.5059 11.2131C54.4521 10.9083 54.4639 10.9083 54.7687 10.9083ZM57.0534 10.1621H55.846C55.4492 10.1621 55.0525 10.1621 54.6583 10.1647C54.527 10.1673 54.4783 10.1226 54.4902 9.99126C54.5092 9.70546 54.6229 9.43413 54.8132 9.22005C55.0035 9.00596 55.2596 8.8613 55.5412 8.80885C55.7396 8.7582 55.9462 8.74897 56.1483 8.78175C56.3504 8.81453 56.5436 8.8886 56.7157 8.99935C56.8774 9.10316 57.0104 9.24605 57.1022 9.41483C57.1941 9.58361 57.2419 9.77283 57.2413 9.96498C57.2465 10.1095 57.2005 10.1621 57.0534 10.1621ZM37.6104 13.5346H36.3177C36.093 13.5346 36.0799 13.5228 36.0785 13.2902C36.0777 13.1353 36.078 12.9874 36.0783 12.839L36.0785 12.6149L36.0365 12.6031L35.9284 12.7254L35.9276 12.7263L35.9274 12.7265C35.8556 12.8076 35.7839 12.8886 35.7133 12.9697C35.4184 13.2979 35.0185 13.5134 34.5821 13.5793C34.2507 13.6438 33.9099 13.6438 33.5784 13.5793C33.2125 13.5106 32.8733 13.3403 32.5996 13.0879C32.2861 12.8085 32.0617 12.4429 31.9545 12.0369C31.8597 11.688 31.8132 11.3277 31.8166 10.9661C31.8324 9.93487 31.8245 8.90362 31.8166 7.87238V7.87213C31.8166 7.64484 31.8363 7.59886 32.0912 7.58572C32.3922 7.57026 32.6949 7.58715 32.9972 7.60403C33.0802 7.60866 33.1631 7.61329 33.246 7.61725C33.3774 7.62382 33.3905 7.73286 33.3905 7.83797V9.88486C33.3905 10.0067 33.3898 10.1284 33.3891 10.2502V10.2503V10.2505V10.2506V10.2508V10.2509V10.2511V10.2512C33.3876 10.4942 33.3861 10.737 33.3905 10.9792C33.4023 11.3642 33.4851 11.7281 33.7847 12.004C34.1433 12.3325 34.5795 12.3771 35.0249 12.2944C35.2155 12.267 35.3957 12.1904 35.5477 12.0723C35.6998 11.9541 35.8184 11.7983 35.892 11.6204C35.9877 11.4049 36.0433 11.1739 36.0562 10.9385C36.0695 10.1964 36.0684 9.45285 36.0672 8.70994V8.70979V8.70965V8.7095V8.70936V8.70922C36.0668 8.42656 36.0664 8.14399 36.0667 7.86161C36.0667 7.73901 36.0667 7.67759 36.0974 7.64585C36.1282 7.614 36.19 7.61206 36.3137 7.60818L36.3177 7.60805L37.3582 7.57784C37.3949 7.57185 37.4324 7.57434 37.468 7.58514C37.5036 7.59594 37.5362 7.61476 37.5633 7.64014C37.5905 7.66551 37.6114 7.69678 37.6246 7.73153C37.6378 7.76629 37.6428 7.8036 37.6393 7.8406V7.9838V13.1076C37.6469 13.1988 37.636 13.297 37.6239 13.4054L37.6238 13.4057L37.6238 13.4062L37.6238 13.4062C37.6192 13.4475 37.6144 13.4902 37.6104 13.5346ZM30.6846 9.75693V9.7571C30.6926 10.3887 30.7006 11.0206 30.6658 11.6506C30.6198 12.4678 30.2138 13.0958 29.4361 13.4413C28.9605 13.6476 28.452 13.6358 27.9475 13.5858C27.5456 13.5608 27.1587 13.4237 26.8306 13.1901C26.5025 12.9565 26.2464 12.6358 26.0911 12.2642C26.0064 12.0289 25.9443 11.786 25.9059 11.5389C25.8909 11.4734 25.8826 11.4064 25.8743 11.3396C25.871 11.3127 25.8676 11.2859 25.8639 11.2591C25.8455 11.1343 25.8639 11.0331 26.0189 11.0252L26.1103 11.0207C26.2694 11.0128 26.429 11.0049 26.5878 11.0016C26.7139 10.999 26.8412 10.9998 26.9685 11.0007C27.0321 11.0012 27.0958 11.0016 27.1593 11.0016C27.3498 11.0016 27.422 11.0673 27.4312 11.2538C27.4286 11.5178 27.5219 11.7736 27.694 11.9738C27.7469 12.0423 27.8151 12.0975 27.8931 12.1352C27.9711 12.1728 28.0567 12.1918 28.1433 12.1906C28.3415 12.1873 28.5388 12.163 28.7319 12.1183C28.8208 12.084 28.8987 12.0261 28.9572 11.9509C29.0158 11.8757 29.0528 11.786 29.0643 11.6913C29.1047 11.519 29.1268 11.3428 29.13 11.1658V6.2785C29.13 5.97764 29.1299 5.97764 29.4229 5.97895H30.4543C30.6671 5.97895 30.675 5.97896 30.675 6.20493V8.34641V8.94945L30.6776 8.93762C30.6776 9.21031 30.6811 9.48323 30.6846 9.75622V9.7564V9.75657V9.75675V9.75693ZM50.8732 11.4825V10.3552L50.8798 10.3539C50.8798 10.2163 50.8805 10.0788 50.8813 9.94128V9.94113V9.94099V9.94084V9.94069C50.8827 9.66601 50.8842 9.39152 50.8798 9.11762C50.8772 8.97705 50.935 8.935 51.0664 8.935H51.9072C52.1568 8.93106 52.2159 8.88509 52.2159 8.62233V7.83405C52.2186 7.6961 52.1673 7.59362 52.0268 7.59362C51.7168 7.57917 51.4054 7.57917 51.0941 7.57917H51.094C50.9324 7.58049 50.8824 7.55289 50.8824 7.39524V6.37968C50.8824 6.17998 50.8562 6.15238 50.6525 6.15238H49.5253C49.3295 6.15238 49.3046 6.17867 49.3046 6.37048C49.3046 6.48351 49.3038 6.59655 49.3031 6.70954V6.70968V6.70983V6.70998V6.71012C49.3017 6.93575 49.3002 7.16119 49.3046 7.38604C49.3072 7.51611 49.2744 7.58705 49.1272 7.56866C49.0429 7.56012 48.958 7.56012 48.8736 7.56866C48.8201 7.57361 48.7754 7.57694 48.7379 7.57973C48.6285 7.58788 48.5807 7.59144 48.5551 7.61714C48.5351 7.63712 48.5286 7.67049 48.517 7.72982C48.5106 7.76253 48.5026 7.80314 48.49 7.85375C48.4841 7.89998 48.4841 7.94678 48.49 7.99301C48.4913 8.04732 48.4924 8.10162 48.4934 8.15593L48.4934 8.15646C48.4954 8.26489 48.4975 8.37332 48.5018 8.48175C48.5002 8.60108 48.5099 8.72028 48.5307 8.83778C48.5399 8.87851 48.6201 8.93106 48.6713 8.93106C48.8323 8.94092 48.9938 8.94092 49.1548 8.93106C49.3046 8.9245 49.3322 9.01383 49.3322 9.12945C49.3299 9.20417 49.324 9.27888 49.3182 9.3536C49.3107 9.44968 49.3033 9.54575 49.3033 9.64182L49.3051 9.77919C49.3149 10.5034 49.3248 11.2287 49.3532 11.9528C49.3629 12.1569 49.4106 12.3574 49.4938 12.544C49.767 13.1562 50.2939 13.4308 50.9232 13.507C51.1985 13.5397 51.4791 13.5358 51.7593 13.5319L51.7594 13.5319C51.8508 13.5306 51.9422 13.5293 52.0333 13.5293C52.1621 13.532 52.2107 13.4781 52.2107 13.3467V12.3785C52.212 12.2392 52.1371 12.1801 52.0057 12.1801L51.9803 12.1812C51.8034 12.1887 51.6255 12.1964 51.45 12.1801C51.2056 12.1591 50.9757 12.0947 50.9245 11.8043C50.899 11.6985 50.8819 11.5909 50.8732 11.4825ZM61.4677 8.53032C61.5088 8.48679 61.5499 8.44263 61.5909 8.39846C61.6812 8.30131 61.7716 8.20416 61.8619 8.11384C62.1959 7.78355 62.6363 7.58245 63.1047 7.54629H63.1835C63.4463 7.50293 63.4621 7.5095 63.4634 7.77357V8.97438C63.4634 9.13072 63.4056 9.18984 63.244 9.19641C63.1362 9.2008 63.0261 9.19933 62.9163 9.19787H62.9163H62.9163H62.9162C62.8615 9.19714 62.8068 9.19641 62.7526 9.19641C62.5543 9.1919 62.3573 9.23097 62.1757 9.31088C61.9941 9.39079 61.8323 9.50957 61.7016 9.65886C61.5182 9.8803 61.4195 10.1597 61.4231 10.4471C61.4138 10.9784 61.4132 11.5098 61.4125 12.0424V12.0428V12.0431V12.0435C61.4122 12.3429 61.4118 12.6428 61.4099 12.9434C61.4099 13.0379 61.4014 13.1325 61.3929 13.2271C61.3872 13.2902 61.3815 13.3533 61.3784 13.4163C61.3718 13.5188 61.3166 13.5477 61.2221 13.5477C61.0828 13.5477 60.9435 13.5489 60.8043 13.55C60.5257 13.5524 60.2472 13.5547 59.9687 13.5477C59.9227 13.5477 59.8478 13.4413 59.8373 13.3769C59.8281 13.2295 59.8281 13.0816 59.8373 12.9342V7.82612C59.8373 7.64481 59.8964 7.57781 60.0843 7.58044C60.4784 7.58832 60.8634 7.60015 61.2523 7.61854C61.4103 7.62662 61.4093 7.74808 61.4085 7.85229C61.4084 7.86679 61.4083 7.88096 61.4086 7.89444C61.4086 7.98286 61.4015 8.0717 61.3943 8.16072C61.3888 8.2291 61.3833 8.2976 61.381 8.36609C61.3855 8.41991 61.3969 8.47292 61.4152 8.52375L61.4677 8.53032ZM9.11644 19.8763C9.1413 19.8632 9.16916 19.8487 9.20094 19.8355L9.13806 19.7552C9.08729 19.6902 9.05083 19.6435 9.01438 19.6003C8.92003 19.4903 8.82788 19.3781 8.73577 19.2659C8.52648 19.011 8.31736 18.7563 8.0829 18.5283C7.78689 18.2416 7.46276 17.984 7.13873 17.7263L7.13871 17.7263L7.13868 17.7263L7.13846 17.7261L7.13834 17.726C7.05407 17.659 6.9698 17.592 6.88603 17.5245C6.72088 17.389 6.54515 17.2668 6.36051 17.1593C6.01499 16.9622 5.66946 16.7678 5.30948 16.6036C4.88987 16.3937 4.45403 16.2179 4.00619 16.078C3.56815 15.9593 3.11979 15.8783 2.67156 15.7973L2.67155 15.7973L2.67153 15.7973L2.67145 15.7973C2.49998 15.7663 2.32853 15.7354 2.15768 15.7023C2.13551 15.701 2.11332 15.7046 2.09267 15.7127C2.07202 15.7209 2.05341 15.7335 2.03813 15.7496C2.03266 15.7687 2.03159 15.7888 2.035 15.8084C2.03841 15.8279 2.04622 15.8465 2.05783 15.8626C2.1209 15.9386 2.1832 16.016 2.24565 16.0936C2.39915 16.2843 2.55358 16.4762 2.72261 16.6509C3.03924 16.9806 3.369 17.3012 3.71322 17.6034C4.12269 17.9676 4.57227 18.2841 5.05329 18.5467C5.50523 18.7884 5.95849 19.0209 6.42489 19.2272C6.77444 19.3818 7.13607 19.5074 7.50614 19.603C7.91931 19.7112 8.34085 19.7898 8.76215 19.8682L8.7627 19.8684C8.84224 19.8832 8.92177 19.898 9.00124 19.913C9.03305 19.9199 9.06937 19.9009 9.11644 19.8763ZM47.7004 10.5824V13.327C47.7004 13.5109 47.6781 13.5358 47.4889 13.5358H46.3459C46.1554 13.5358 46.116 13.4951 46.116 13.3007V7.82741C46.1111 7.79326 46.1141 7.75844 46.1248 7.72565C46.1356 7.69286 46.1537 7.66299 46.1779 7.63834C46.202 7.61369 46.2315 7.59494 46.264 7.58352C46.2966 7.57211 46.3313 7.56835 46.3656 7.57253C46.5535 7.57253 46.741 7.57614 46.9286 7.57976C47.1161 7.58337 47.3036 7.58699 47.4915 7.58699C47.6505 7.58699 47.7017 7.65662 47.7017 7.80902C47.6989 8.46789 47.6994 9.12877 47.7 9.78974C47.7002 10.054 47.7004 10.3183 47.7004 10.5824ZM46.8031 5.08684C46.3367 5.14202 45.9465 5.4455 45.9767 5.93029C45.9655 6.07861 45.9997 6.22684 46.0748 6.35523C46.1499 6.48362 46.2623 6.58608 46.3971 6.64894C46.8057 6.86966 47.3785 6.81054 47.6833 6.45844C47.8199 6.31129 47.8936 6.11671 47.889 5.91604C47.8843 5.71536 47.8016 5.52441 47.6584 5.38376C47.5517 5.2671 47.4177 5.17885 47.2683 5.12701C47.119 5.07517 46.9591 5.06137 46.8031 5.08684Z" fill="#7F828B"/>
</svg>
