<svg width="25" height="25" viewBox="0 0 25 25" fill="none" xmlns="http://www.w3.org/2000/svg">
<path d="M24.0099 12.5C24.0099 18.8567 18.8567 24.0099 12.5 24.0099C6.14326 24.0099 0.990099 18.8567 0.990099 12.5C0.990099 6.14326 6.14326 0.990099 12.5 0.990099C18.8567 0.990099 24.0099 6.14326 24.0099 12.5Z" fill="#F7F7F7"/>
<path fill-rule="evenodd" clip-rule="evenodd" d="M25 12.5C25 19.4036 19.4036 25 12.5 25C5.59644 25 0 19.4036 0 12.5C0 5.59644 5.59644 0 12.5 0C19.4036 0 25 5.59644 25 12.5ZM12.5 24.0099C18.8567 24.0099 24.0099 18.8567 24.0099 12.5C24.0099 6.14326 18.8567 0.990099 12.5 0.990099C6.14326 0.990099 0.990099 6.14326 0.990099 12.5C0.990099 18.8567 6.14326 24.0099 12.5 24.0099Z" fill="#7F828B"/>
<path d="M18.5618 10.7015C18.3533 10.7015 18.1486 10.6455 17.9478 10.5335C17.747 10.4177 17.581 10.2516 17.4497 10.0354C17.3223 9.8153 17.2586 9.54886 17.2586 9.23609C17.2586 8.97352 17.303 8.73218 17.3918 8.51208C17.4806 8.29198 17.6022 8.10084 17.7567 7.93867C17.915 7.77263 18.0946 7.6452 18.2953 7.55639C18.5 7.46372 18.7162 7.41738 18.9441 7.41738C19.1912 7.41738 19.4055 7.46758 19.587 7.56797C19.7685 7.66837 19.8978 7.83827 19.9751 8.07768C20.0561 8.31322 20.0639 8.63951 19.9982 9.05654C19.9442 9.39634 19.8515 9.68981 19.7202 9.93693C19.5928 10.1841 19.4325 10.3733 19.2395 10.5046C19.0464 10.6358 18.8205 10.7015 18.5618 10.7015ZM19.0541 9.6705C19.17 9.6705 19.2703 9.64154 19.3553 9.58362C19.4403 9.52183 19.5059 9.43688 19.5522 9.32877C19.6024 9.22065 19.6275 9.09322 19.6275 8.94649C19.6275 8.79976 19.5851 8.68005 19.5001 8.58738C19.419 8.49471 19.3051 8.44837 19.1584 8.44837C19.0464 8.44837 18.946 8.47926 18.8572 8.54104C18.7722 8.59896 18.7047 8.68198 18.6545 8.7901C18.6081 8.89822 18.585 9.02565 18.585 9.17238C18.585 9.31911 18.6255 9.43882 18.7066 9.53149C18.7915 9.62416 18.9074 9.6705 19.0541 9.6705ZM19.3611 10.6436L19.448 10.215L19.6623 9.05654L19.8302 7.90971L19.9171 7.4753H21.2261L20.5948 10.6436H19.3611Z" fill="#7F828B"/>
<path d="M14.6177 11.8252C14.2972 11.8252 14.0037 11.7923 13.7373 11.7267C13.4747 11.661 13.245 11.5626 13.048 11.4313L13.6041 10.5393C13.7315 10.6358 13.8879 10.7111 14.0732 10.7652C14.2624 10.8231 14.4516 10.8521 14.6409 10.8521C14.8957 10.8521 15.0811 10.798 15.1969 10.6899C15.3127 10.5856 15.39 10.4389 15.4286 10.2497L15.5097 9.84426L15.7471 8.9407L15.9499 7.95604L16.0425 7.4753H17.2878L16.7839 10.0064C16.6565 10.6513 16.4055 11.1147 16.031 11.3965C15.6603 11.6823 15.1892 11.8252 14.6177 11.8252ZM14.6466 10.4698C14.415 10.4698 14.1949 10.4157 13.9864 10.3076C13.7778 10.1995 13.6079 10.0431 13.4766 9.83847C13.3454 9.63381 13.2797 9.38862 13.2797 9.10287C13.2797 8.86733 13.3222 8.64916 13.4071 8.44837C13.496 8.24372 13.6176 8.06416 13.772 7.90971C13.9304 7.75525 14.1118 7.63555 14.3165 7.5506C14.525 7.46179 14.747 7.41738 14.9826 7.41738C15.2181 7.41738 15.4228 7.46372 15.5965 7.55639C15.7742 7.64906 15.9016 7.80738 15.9788 8.03134C16.0561 8.25144 16.0618 8.55456 15.9962 8.9407C15.9383 9.28822 15.8475 9.57589 15.724 9.80372C15.6004 10.0277 15.4479 10.1956 15.2664 10.3076C15.0849 10.4157 14.8783 10.4698 14.6466 10.4698ZM15.0637 9.44461C15.1757 9.44461 15.2741 9.42144 15.3591 9.3751C15.444 9.3249 15.5097 9.2554 15.556 9.16659C15.6023 9.07778 15.6255 8.97352 15.6255 8.85382C15.6255 8.73411 15.585 8.63758 15.5039 8.56421C15.4266 8.48698 15.3147 8.44837 15.1679 8.44837C15.056 8.44837 14.9575 8.47347 14.8725 8.52367C14.7876 8.57 14.72 8.63758 14.6698 8.72639C14.6235 8.8152 14.6003 8.91946 14.6003 9.03916C14.6003 9.15886 14.6409 9.25733 14.7219 9.33456C14.8069 9.40792 14.9208 9.44461 15.0637 9.44461Z" fill="#7F828B"/>
<path d="M11.36 10.7015C11.0125 10.7015 10.7075 10.6416 10.4449 10.5219C10.1862 10.4022 9.98346 10.2323 9.83673 10.0122C9.68999 9.79213 9.61663 9.53342 9.61663 9.23609C9.61663 8.88857 9.69772 8.57773 9.85989 8.30357C10.0221 8.02941 10.2499 7.81317 10.5434 7.65485C10.8407 7.49654 11.1863 7.41738 11.5801 7.41738C11.9199 7.41738 12.2095 7.47723 12.449 7.59693C12.6884 7.71664 12.8718 7.88075 12.9992 8.08926C13.1266 8.29778 13.1903 8.53911 13.1903 8.81327C13.1903 8.90981 13.1826 9.00441 13.1672 9.09708C13.1556 9.18975 13.1401 9.27857 13.1208 9.36352H10.6592L10.7808 8.73218H12.5185L11.974 8.90015C12.0049 8.77659 12.003 8.67233 11.9682 8.58738C11.9373 8.49857 11.8833 8.43099 11.806 8.38466C11.7288 8.33446 11.6342 8.30936 11.5222 8.30936C11.3639 8.30936 11.2384 8.35184 11.1457 8.43679C11.0531 8.52174 10.9855 8.63179 10.943 8.76693C10.9044 8.90208 10.8851 9.04302 10.8851 9.18976C10.8851 9.38669 10.9372 9.52763 11.0415 9.61258C11.1496 9.69367 11.306 9.73421 11.5106 9.73421C11.6303 9.73421 11.75 9.71684 11.8697 9.68208C11.9894 9.64347 12.0995 9.58748 12.1999 9.51411L12.7443 10.3076C12.5281 10.4544 12.3022 10.5567 12.0667 10.6146C11.835 10.6725 11.5994 10.7015 11.36 10.7015Z" fill="#7F828B"/>
<path d="M8.28485 7.41738C8.52812 7.41738 8.7405 7.47337 8.92198 7.58535C9.10347 7.69347 9.23476 7.85758 9.31584 8.07768C9.39693 8.29391 9.40466 8.56614 9.33901 8.89436L8.99149 10.6436H7.68248L8.00104 9.06233C8.03966 8.87312 8.03193 8.73604 7.97787 8.65109C7.92381 8.56228 7.84466 8.51787 7.7404 8.51787C7.6207 8.51787 7.51644 8.56035 7.42763 8.6453C7.33882 8.72639 7.27317 8.86926 7.2307 9.07391L6.91792 10.6436H5.60891L5.92748 9.06233C5.96609 8.87312 5.95837 8.73604 5.90431 8.65109C5.85025 8.56228 5.77109 8.51787 5.66683 8.51787C5.54713 8.51787 5.44094 8.56228 5.34827 8.65109C5.25946 8.73604 5.19382 8.88471 5.15134 9.09708L4.84436 10.6436H3.53535L4.16669 7.4753H5.4004L5.26718 8.14139L5.07604 8.11822C5.21891 7.87882 5.39461 7.70312 5.60312 7.59114C5.81164 7.4753 6.02401 7.41738 6.24025 7.41738C6.41401 7.41738 6.57619 7.45213 6.72679 7.52164C6.88124 7.58728 7.0106 7.68961 7.11485 7.82862C7.21911 7.96377 7.28089 8.13753 7.3002 8.3499L6.95847 8.23985C7.09362 7.98114 7.2751 7.78035 7.50292 7.63748C7.73075 7.49075 7.99139 7.41738 8.28485 7.41738Z" fill="#7F828B"/>
<path d="M17.7325 15.901C17.376 15.901 17.0632 15.8396 16.7939 15.7168C16.5285 15.5941 16.3206 15.4198 16.1701 15.1941C16.0196 14.9683 15.9444 14.703 15.9444 14.398C15.9444 14.0416 16.0275 13.7228 16.1939 13.4416C16.3602 13.1604 16.5939 12.9386 16.8949 12.7762C17.1998 12.6139 17.5543 12.5327 17.9582 12.5327C18.3067 12.5327 18.6038 12.5941 18.8493 12.7168C19.0949 12.8396 19.283 13.0079 19.4137 13.2218C19.5444 13.4356 19.6097 13.6832 19.6097 13.9644C19.6097 14.0634 19.6018 14.1604 19.5859 14.2554C19.5741 14.3505 19.5582 14.4416 19.5384 14.5287H17.0137L17.1384 13.8812H18.9206L18.3622 14.0535C18.3939 13.9267 18.3919 13.8198 18.3562 13.7327C18.3246 13.6416 18.2691 13.5723 18.1899 13.5247C18.1107 13.4733 18.0137 13.4475 17.8988 13.4475C17.7364 13.4475 17.6077 13.4911 17.5127 13.5782C17.4176 13.6653 17.3483 13.7782 17.3048 13.9168C17.2652 14.0554 17.2454 14.2 17.2454 14.3505C17.2454 14.5525 17.2988 14.697 17.4058 14.7842C17.5166 14.8673 17.677 14.9089 17.8869 14.9089C18.0097 14.9089 18.1325 14.8911 18.2553 14.8554C18.378 14.8158 18.4909 14.7584 18.5939 14.6832L19.1523 15.497C18.9305 15.6475 18.6988 15.7525 18.4572 15.8119C18.2196 15.8713 17.978 15.901 17.7325 15.901Z" fill="#7F828B"/>
<path d="M13.1647 15.8416L12.5053 12.5921H13.8301L14.3172 15.2357H13.6221L15.1845 12.5921H16.5093L14.5548 15.8416H13.1647Z" fill="#7F828B"/>
<path d="M9.74184 15.901C9.52798 15.901 9.31808 15.8436 9.11214 15.7287C8.9062 15.6099 8.7359 15.4396 8.60124 15.2178C8.47055 14.9921 8.40521 14.7188 8.40521 14.398C8.40521 14.1287 8.45075 13.8812 8.54184 13.6554C8.63293 13.4297 8.75768 13.2337 8.9161 13.0673C9.07847 12.897 9.26263 12.7663 9.46857 12.6752C9.67847 12.5802 9.90026 12.5327 10.1339 12.5327C10.3874 12.5327 10.6072 12.5842 10.7933 12.6871C10.9795 12.7901 11.1121 12.9644 11.1913 13.2099C11.2745 13.4515 11.2824 13.7861 11.2151 14.2139C11.1597 14.5624 11.0646 14.8634 10.93 15.1168C10.7993 15.3703 10.6349 15.5644 10.4369 15.699C10.2389 15.8337 10.0072 15.901 9.74184 15.901ZM10.2468 14.8436C10.3656 14.8436 10.4686 14.8139 10.5557 14.7545C10.6428 14.6911 10.7102 14.604 10.7577 14.4931C10.8092 14.3822 10.8349 14.2515 10.8349 14.101C10.8349 13.9505 10.7913 13.8277 10.7042 13.7327C10.621 13.6376 10.5042 13.5901 10.3537 13.5901C10.2389 13.5901 10.1359 13.6218 10.0448 13.6851C9.95768 13.7445 9.88837 13.8297 9.83689 13.9406C9.78936 14.0515 9.7656 14.1822 9.7656 14.3327C9.7656 14.4832 9.80719 14.6059 9.89035 14.701C9.97748 14.796 10.0963 14.8436 10.2468 14.8436ZM10.5616 15.8416L10.6508 15.402L10.8706 14.2139L11.0428 13.0376L11.1319 12.5921H12.4745L11.827 15.8416H10.5616Z" fill="#7F828B"/>
<path d="M6.22373 15.9366C5.97819 15.9366 5.74254 15.9168 5.5168 15.8772C5.29106 15.8416 5.08512 15.7921 4.89898 15.7287C4.7168 15.6614 4.55838 15.5861 4.42373 15.503L4.96433 14.4812C5.11878 14.5683 5.27324 14.6416 5.42769 14.701C5.58611 14.7564 5.74254 14.798 5.897 14.8257C6.05541 14.8535 6.21185 14.8673 6.36631 14.8673C6.48908 14.8673 6.59007 14.8574 6.66928 14.8376C6.75244 14.8178 6.81383 14.7901 6.85343 14.7545C6.897 14.7149 6.91878 14.6713 6.91878 14.6238C6.91878 14.5604 6.88314 14.5089 6.81185 14.4693C6.74056 14.4297 6.64551 14.3941 6.5267 14.3624C6.41185 14.3307 6.28314 14.299 6.14056 14.2673C6.00195 14.2317 5.86136 14.1881 5.71878 14.1366C5.57621 14.0812 5.44551 14.0119 5.3267 13.9287C5.21185 13.8455 5.11878 13.7406 5.04749 13.6139C4.97621 13.4871 4.94056 13.3327 4.94056 13.1505C4.94056 12.8337 5.02373 12.5584 5.19007 12.3248C5.36037 12.0911 5.60195 11.9109 5.91482 11.7842C6.23165 11.6535 6.60789 11.5881 7.04353 11.5881C7.35244 11.5881 7.63957 11.6198 7.90492 11.6832C8.17423 11.7465 8.40591 11.8356 8.59997 11.9505L8.09502 12.9663C7.92868 12.8634 7.7465 12.7861 7.54848 12.7347C7.35442 12.6832 7.1564 12.6574 6.95442 12.6574C6.81977 12.6574 6.7069 12.6713 6.61581 12.699C6.52472 12.7228 6.45541 12.7564 6.40789 12.8C6.36433 12.8436 6.34254 12.8891 6.34254 12.9366C6.34254 13 6.37819 13.0535 6.44947 13.097C6.52076 13.1366 6.61581 13.1723 6.73462 13.204C6.85343 13.2317 6.98215 13.2634 7.12076 13.299C7.26334 13.3307 7.40393 13.3723 7.54254 13.4238C7.68512 13.4713 7.81581 13.5366 7.93462 13.6198C8.05343 13.699 8.14848 13.802 8.21977 13.9287C8.29106 14.0515 8.3267 14.204 8.3267 14.3861C8.3267 14.6951 8.24155 14.9663 8.07126 15.2C7.90096 15.4297 7.65739 15.6099 7.34056 15.7406C7.02769 15.8713 6.65541 15.9366 6.22373 15.9366ZM5.70096 16.5545L5.85541 15.7822H6.69304L6.53858 16.5545H5.70096ZM6.66334 11.7426L6.81779 10.9703H7.65541L7.50096 11.7426H6.66334Z" fill="#7F828B"/>
<path d="M18.9985 19.9109C18.9243 19.9109 18.8509 19.9002 18.7783 19.8787C18.704 19.8573 18.6446 19.8292 18.6 19.7945L18.8426 19.4059C18.8707 19.4274 18.902 19.4447 18.9367 19.4579C18.9713 19.4711 19.0076 19.4777 19.0456 19.4777C19.0901 19.4777 19.1264 19.467 19.1545 19.4455C19.1825 19.4257 19.2089 19.3952 19.2337 19.354L19.3203 19.2104L19.3624 19.1559L20.0084 18.052H20.5555L19.7238 19.4332C19.6495 19.5569 19.5769 19.6535 19.506 19.7228C19.435 19.7921 19.3583 19.8408 19.2758 19.8688C19.1949 19.8969 19.1025 19.9109 18.9985 19.9109ZM19.1941 19.4678L18.8872 18.052H19.4441L19.6446 19.1064L19.1941 19.4678Z" fill="#7F828B"/>
<path d="M17.7097 19.4059L17.9795 18.052H18.5068L18.43 18.4356L18.378 18.3267C18.4341 18.2195 18.5117 18.1427 18.6107 18.0965C18.7114 18.0503 18.8261 18.0272 18.9548 18.0272L18.8558 18.5223C18.8327 18.519 18.8112 18.5165 18.7914 18.5148C18.7733 18.5132 18.7543 18.5124 18.7345 18.5124C18.6421 18.5124 18.567 18.533 18.5092 18.5743C18.4531 18.6155 18.4152 18.684 18.3954 18.7797L18.2691 19.4059H17.7097Z" fill="#7F828B"/>
<path d="M16.6799 19.4059L16.9497 18.052H17.4769L17.4002 18.4356L17.3482 18.3267C17.4043 18.2195 17.4819 18.1427 17.5809 18.0965C17.6815 18.0503 17.7962 18.0272 17.9249 18.0272L17.8259 18.5223C17.8028 18.519 17.7814 18.5165 17.7616 18.5148C17.7434 18.5132 17.7244 18.5124 17.7046 18.5124C17.6122 18.5124 17.5371 18.533 17.4794 18.5743C17.4233 18.6155 17.3853 18.684 17.3655 18.7797L17.2393 19.4059H16.6799Z" fill="#7F828B"/>
<path d="M15.6645 19.4307C15.5754 19.4307 15.488 19.4068 15.4022 19.3589C15.3164 19.3094 15.2454 19.2384 15.1893 19.146C15.1348 19.052 15.1076 18.9381 15.1076 18.8045C15.1076 18.6922 15.1266 18.5891 15.1645 18.495C15.2025 18.401 15.2545 18.3193 15.3205 18.25C15.3881 18.179 15.4649 18.1246 15.5507 18.0866C15.6381 18.047 15.7306 18.0272 15.8279 18.0272C15.9335 18.0272 16.0251 18.0487 16.1027 18.0916C16.1802 18.1345 16.2355 18.2071 16.2685 18.3094C16.3032 18.4101 16.3065 18.5495 16.2784 18.7277C16.2553 18.8729 16.2157 18.9983 16.1596 19.104C16.1051 19.2096 16.0367 19.2904 15.9542 19.3465C15.8716 19.4026 15.7751 19.4307 15.6645 19.4307ZM15.8749 18.9901C15.9244 18.9901 15.9674 18.9777 16.0037 18.953C16.04 18.9266 16.068 18.8903 16.0878 18.8441C16.1093 18.7978 16.12 18.7434 16.12 18.6807C16.12 18.618 16.1018 18.5668 16.0655 18.5272C16.0309 18.4876 15.9822 18.4678 15.9195 18.4678C15.8716 18.4678 15.8287 18.481 15.7908 18.5074C15.7545 18.5322 15.7256 18.5677 15.7041 18.6139C15.6843 18.6601 15.6744 18.7145 15.6744 18.7772C15.6744 18.8399 15.6918 18.8911 15.7264 18.9307C15.7627 18.9703 15.8122 18.9901 15.8749 18.9901ZM16.0061 19.4059L16.0433 19.2228L16.1348 18.7277L16.2066 18.2376L16.2438 18.052H16.8032L16.5334 19.4059H16.0061Z" fill="#7F828B"/>
<path d="M14.4334 19.4307C14.2849 19.4307 14.1553 19.4051 14.0448 19.354C13.9342 19.3011 13.8484 19.2277 13.7873 19.1337C13.7263 19.0396 13.6958 18.9299 13.6958 18.8045C13.6958 18.6559 13.7321 18.5231 13.8047 18.4059C13.8773 18.2888 13.9779 18.1964 14.1066 18.1287C14.2354 18.0611 14.3831 18.0272 14.5497 18.0272C14.7114 18.0272 14.8517 18.0627 14.9705 18.1337C15.0893 18.2046 15.1727 18.3012 15.2205 18.4233L14.7453 18.6411C14.7222 18.5784 14.6908 18.5338 14.6512 18.5074C14.6132 18.481 14.5703 18.4678 14.5225 18.4678C14.473 18.4678 14.4284 18.481 14.3888 18.5074C14.3492 18.5322 14.3179 18.5668 14.2948 18.6114C14.2733 18.6559 14.2626 18.7087 14.2626 18.7698C14.2626 18.8342 14.2807 18.887 14.317 18.9282C14.3533 18.9695 14.4062 18.9901 14.4755 18.9901C14.5299 18.9901 14.5778 18.9769 14.619 18.9505C14.6603 18.9241 14.6966 18.8795 14.7279 18.8168L15.1364 19.0545C15.0703 19.1733 14.9763 19.2657 14.8542 19.3317C14.7337 19.3977 14.5934 19.4307 14.4334 19.4307Z" fill="#7F828B"/>
<path d="M11.8736 19.4455C11.7482 19.4455 11.6343 19.4274 11.532 19.3911C11.4314 19.3531 11.3513 19.2995 11.2919 19.2302C11.2325 19.1609 11.2028 19.0776 11.2028 18.9802C11.2028 18.8663 11.235 18.769 11.2993 18.6881C11.3654 18.6073 11.4528 18.5379 11.5617 18.4802C11.6706 18.4208 11.7894 18.3696 11.9182 18.3267C12.0254 18.2904 12.1055 18.2582 12.1583 18.2302C12.2111 18.2021 12.2457 18.1766 12.2622 18.1535C12.2804 18.1287 12.2894 18.1048 12.2894 18.0817C12.2894 18.0586 12.2804 18.0404 12.2622 18.0272C12.2457 18.0124 12.2234 18.0049 12.1954 18.0049C12.1591 18.0049 12.1277 18.0157 12.1013 18.0371C12.0766 18.0586 12.0642 18.0883 12.0642 18.1262C12.0642 18.151 12.0733 18.1774 12.0914 18.2054C12.1112 18.2318 12.1467 18.2714 12.1979 18.3243L12.9553 19.099L12.5865 19.4381L11.7177 18.5371C11.6632 18.481 11.622 18.4241 11.5939 18.3663C11.5675 18.3086 11.5543 18.2467 11.5543 18.1807C11.5543 18.0668 11.5848 17.9703 11.6459 17.8911C11.7086 17.8102 11.7903 17.7492 11.8909 17.7079C11.9916 17.665 12.1005 17.6436 12.2177 17.6436C12.3216 17.6436 12.414 17.6584 12.4949 17.6881C12.5774 17.7178 12.6418 17.7624 12.688 17.8218C12.7358 17.8795 12.7597 17.9513 12.7597 18.0371C12.7597 18.1378 12.7292 18.2244 12.6682 18.297C12.6088 18.368 12.5279 18.4299 12.4256 18.4827C12.3249 18.5338 12.2127 18.5809 12.089 18.6238C12.0312 18.6436 11.9767 18.6658 11.9256 18.6906C11.8761 18.7153 11.8365 18.7434 11.8068 18.7747C11.7771 18.8061 11.7622 18.8432 11.7622 18.8861C11.7622 18.9241 11.7787 18.9579 11.8117 18.9876C11.8464 19.0157 11.9 19.0297 11.9726 19.0297C12.0535 19.0297 12.136 19.0066 12.2201 18.9604C12.3043 18.9125 12.3835 18.8441 12.4578 18.7549C12.532 18.6658 12.5923 18.5594 12.6385 18.4356L13.0617 18.5693C12.9891 18.7393 12.8934 18.8903 12.7746 19.0223C12.6574 19.1543 12.5221 19.2582 12.3687 19.3342C12.2168 19.4084 12.0518 19.4455 11.8736 19.4455Z" fill="#7F828B"/>
<path d="M10.0619 18.0272C10.1691 18.0272 10.2632 18.0512 10.3441 18.099C10.4249 18.1452 10.4827 18.2153 10.5173 18.3094C10.5536 18.4018 10.5578 18.5181 10.5297 18.6584L10.3812 19.4059H9.82178L9.95792 18.7252C9.97277 18.651 9.96947 18.5949 9.94802 18.5569C9.92657 18.5173 9.88614 18.4975 9.82673 18.4975C9.76403 18.4975 9.71122 18.519 9.66832 18.5619C9.62541 18.6031 9.59488 18.6675 9.57673 18.7549L9.44555 19.4059H8.88614L9.25247 17.5693H9.81188L9.64109 18.4257L9.54208 18.3267C9.60644 18.2228 9.68564 18.1469 9.7797 18.099C9.87541 18.0512 9.96947 18.0272 10.0619 18.0272Z" fill="#7F828B"/>
<path d="M8.14995 19.4307C8.02948 19.4307 7.9148 19.4191 7.80589 19.396C7.69863 19.3713 7.61529 19.3416 7.55589 19.3069L7.74896 18.9257C7.81661 18.967 7.89252 18.9983 7.97668 19.0198C8.06249 19.0396 8.14334 19.0495 8.21925 19.0495C8.28196 19.0495 8.32486 19.0437 8.34797 19.0322C8.37272 19.019 8.38509 19.0033 8.38509 18.9851C8.38509 18.9653 8.36859 18.9513 8.33559 18.9431C8.30259 18.9332 8.25968 18.9249 8.20688 18.9183C8.15572 18.9117 8.10127 18.9018 8.04351 18.8886C7.98575 18.8754 7.93047 18.8564 7.87767 18.8317C7.82651 18.8053 7.78443 18.769 7.75143 18.7228C7.71843 18.6766 7.70193 18.6155 7.70193 18.5396C7.70193 18.4224 7.73575 18.3267 7.80341 18.2525C7.87272 18.1766 7.96513 18.1205 8.08064 18.0842C8.19615 18.0462 8.32404 18.0272 8.4643 18.0272C8.56331 18.0272 8.6582 18.0363 8.74896 18.0545C8.84136 18.071 8.92305 18.0957 8.994 18.1287L8.80094 18.5099C8.72998 18.4686 8.65902 18.4414 8.58807 18.4282C8.51876 18.415 8.45523 18.4084 8.39747 18.4084C8.33311 18.4084 8.28856 18.4158 8.26381 18.4307C8.23905 18.4439 8.22668 18.4587 8.22668 18.4752C8.22668 18.495 8.24318 18.5099 8.27618 18.5198C8.30919 18.5297 8.35127 18.5388 8.40242 18.547C8.45358 18.5536 8.50803 18.5635 8.56579 18.5767C8.62519 18.5883 8.68047 18.6073 8.73163 18.6337C8.78278 18.6584 8.82486 18.6939 8.85787 18.7401C8.89087 18.7863 8.90737 18.8474 8.90737 18.9233C8.90737 19.0355 8.87272 19.1295 8.80341 19.2054C8.73575 19.2813 8.64417 19.3383 8.52866 19.3762C8.4148 19.4125 8.28856 19.4307 8.14995 19.4307Z" fill="#7F828B"/>
<path d="M6.57024 19.4307C6.48113 19.4307 6.39367 19.4068 6.30786 19.3589C6.22205 19.3094 6.15109 19.2384 6.09499 19.146C6.04053 19.052 6.0133 18.9381 6.0133 18.8045C6.0133 18.6922 6.03228 18.5891 6.07024 18.495C6.10819 18.401 6.16017 18.3193 6.22618 18.25C6.29383 18.179 6.37056 18.1246 6.45637 18.0866C6.54383 18.047 6.63624 18.0272 6.7336 18.0272C6.83921 18.0272 6.9308 18.0487 7.00835 18.0916C7.08591 18.1345 7.14119 18.2071 7.1742 18.3094C7.20885 18.4101 7.21215 18.5495 7.1841 18.7277C7.16099 18.8729 7.12139 18.9983 7.06528 19.104C7.01083 19.2096 6.94235 19.2904 6.85984 19.3465C6.77733 19.4026 6.6808 19.4307 6.57024 19.4307ZM6.78063 18.9901C6.83014 18.9901 6.87304 18.9777 6.90934 18.953C6.94565 18.9266 6.9737 18.8903 6.9935 18.8441C7.01496 18.7978 7.02568 18.7434 7.02568 18.6807C7.02568 18.618 7.00753 18.5668 6.97123 18.5272C6.93657 18.4876 6.88789 18.4678 6.82519 18.4678C6.77733 18.4678 6.73443 18.481 6.69647 18.5074C6.66017 18.5322 6.63129 18.5677 6.60984 18.6139C6.59004 18.6601 6.58014 18.7145 6.58014 18.7772C6.58014 18.8399 6.59746 18.8911 6.63212 18.9307C6.66842 18.9703 6.71793 18.9901 6.78063 18.9901ZM6.91182 19.4059L6.94895 19.2228L7.04053 18.7277L7.11231 18.2376L7.14944 18.052H7.70885L7.43905 19.4059H6.91182Z" fill="#7F828B"/>
<path d="M5.33907 19.4307C5.19056 19.4307 5.06102 19.4051 4.95046 19.354C4.8399 19.3011 4.75409 19.2277 4.69303 19.1337C4.63197 19.0396 4.60145 18.9299 4.60145 18.8045C4.60145 18.6559 4.63775 18.5231 4.71036 18.4059C4.78296 18.2888 4.88363 18.1964 5.01234 18.1287C5.14105 18.0611 5.28874 18.0272 5.45541 18.0272C5.61712 18.0272 5.75739 18.0627 5.8762 18.1337C5.99501 18.2046 6.07834 18.3012 6.1262 18.4233L5.65095 18.6411C5.62785 18.5784 5.5965 18.5338 5.55689 18.5074C5.51894 18.481 5.47603 18.4678 5.42818 18.4678C5.37867 18.4678 5.33412 18.481 5.29452 18.5074C5.25491 18.5322 5.22356 18.5668 5.20046 18.6114C5.179 18.6559 5.16828 18.7087 5.16828 18.7698C5.16828 18.8342 5.18643 18.887 5.22273 18.9282C5.25904 18.9695 5.31184 18.9901 5.38115 18.9901C5.43561 18.9901 5.48346 18.9769 5.52471 18.9505C5.56597 18.9241 5.60227 18.8795 5.63362 18.8168L6.04204 19.0545C5.97603 19.1733 5.88197 19.2657 5.75986 19.3317C5.6394 19.3977 5.49914 19.4307 5.33907 19.4307Z" fill="#7F828B"/>
</svg>
