<svg width="128" height="16" viewBox="0 0 128 16" fill="none" xmlns="http://www.w3.org/2000/svg">
<g clip-path="url(#clip0_4508_778)">
<mask id="mask0_4508_778" style="mask-type:luminance" maskUnits="userSpaceOnUse" x="0" y="0" width="128" height="16">
<path d="M128 0H0V16H128V0Z" fill="white"/>
</mask>
<g mask="url(#mask0_4508_778)">
<path d="M24.8905 10.9552L19.4202 1.46646C18.221 -0.511244 15.2965 -0.532284 14.1393 1.55061L8.39563 11.4181C7.32257 13.2275 8.64805 15.4997 10.7941 15.4997H22.3026C24.4697 15.4997 26.0897 13.1643 24.8905 10.9552Z" fill="#151617"/>
<path d="M16.9999 11.6916L16.6633 11.1025C16.3477 10.5555 15.6534 9.37725 15.6534 9.37725L11.0248 1.34024C9.82552 -0.448104 6.98523 -0.595381 5.78598 1.65583L0.399905 10.9763C-0.71518 12.9329 0.610299 15.4787 3.02983 15.4998H14.4752H19.3563H22.2598C19.2933 15.5208 18.3465 13.9849 16.9999 11.6916Z" fill="#848B9D"/>
<path d="M17.0002 11.6916L16.6636 11.1025C16.348 10.5555 15.6537 9.37728 15.6537 9.37728L12.6661 4.11743L8.37409 11.4391C7.30115 13.2485 8.62659 15.5207 10.7726 15.5207H14.4545H19.3356H22.2601C19.2725 15.4997 18.3467 13.9849 17.0002 11.6916Z" fill="url(#paint0_linear_4508_778)"/>
<path d="M126.334 14.7632C125.556 14.7632 124.945 14.5949 124.483 14.3003C123.998 13.9848 123.746 13.5218 123.746 12.8907V3.71753H124.967C125.409 3.71753 125.787 4.0752 125.787 4.53806V12.6171C125.787 12.6383 125.787 13.0169 126.103 13.3325C126.292 13.5218 126.523 13.6271 126.839 13.6271H127.07C127.155 13.6271 127.239 13.7112 127.239 13.7954V14.7842L126.334 14.7632Z" fill="#151617"/>
<path d="M100.035 14.763C98.7728 14.763 97.7419 14.4263 96.9632 13.753C96.564 13.4164 96.2905 13.0377 96.1221 12.6169C95.9537 12.1962 95.8691 11.586 95.8691 10.7655C95.8691 9.966 95.9537 9.33476 96.1221 8.91396C96.2691 8.51426 96.5427 8.15655 96.9427 7.81994C97.7206 7.14669 98.7514 6.81006 100.014 6.81006C101.276 6.81006 102.307 7.14669 103.086 7.81994C103.486 8.15655 103.759 8.53529 103.906 8.91396C104.075 9.35579 104.159 9.966 104.159 10.7655C104.159 11.586 104.075 12.1962 103.906 12.6169C103.738 13.0377 103.465 13.4164 103.065 13.753C102.329 14.4263 101.298 14.763 100.035 14.763ZM100.035 7.96722C98.6463 7.96722 97.9522 8.91396 97.9522 10.7865C97.9522 12.6801 98.6463 13.6268 100.035 13.6268C101.423 13.6268 102.118 12.6801 102.118 10.8075C102.118 8.91396 101.403 7.96722 100.035 7.96722Z" fill="#151617"/>
<path d="M108.744 14.7632C107.65 14.7632 106.64 14.4687 105.778 13.9006C105.693 13.8164 105.525 13.7112 105.314 13.585C105.272 13.564 105.23 13.5008 105.23 13.4377V3.71753H106.472C106.914 3.71753 107.292 4.09623 107.292 4.53806V7.37837L107.671 7.16798C108.113 6.93655 108.702 6.83136 109.459 6.83136C110.785 6.83136 111.794 7.2311 112.468 8.00953C113.057 8.70385 113.352 9.62957 113.352 10.7657C113.352 11.9019 113.015 12.8276 112.341 13.5008C111.563 14.3424 110.343 14.7632 108.744 14.7632ZM108.954 7.96747C108.491 7.96747 107.965 8.13578 107.376 8.49349L107.292 8.53555V13.1011L107.376 13.1642C107.839 13.4587 108.386 13.606 108.954 13.606C109.711 13.606 110.301 13.2904 110.7 12.6593C111.037 12.1543 111.227 11.5021 111.227 10.7657C111.227 8.91421 110.448 7.96747 108.954 7.96747Z" fill="#151617"/>
<path d="M118.213 14.7419C115.899 14.7419 114.447 13.2271 114.447 10.7655C114.447 8.32493 115.877 6.81006 118.171 6.81006C119.055 6.81006 119.812 7.0415 120.422 7.48332L120.549 7.56748V6.95733H122.168C122.274 6.95733 122.337 7.0415 122.337 7.12565V14.5946H120.527V13.9214L120.401 14.0266C119.896 14.4894 119.096 14.7419 118.213 14.7419ZM118.634 8.15655C117.182 8.15655 116.319 9.27167 116.319 10.7655C116.319 12.2593 117.182 13.4164 118.634 13.4164C119.096 13.4164 119.896 13.3744 120.527 12.7431L120.549 12.7221V8.89293L120.527 8.8719C120.085 8.36699 119.433 8.15655 118.634 8.15655Z" fill="#151617"/>
<path d="M43.459 14.6578V3.69629H52.569V4.39059C52.569 4.93761 52.1272 5.37944 51.5802 5.37944H45.7312V8.32492H51.5802V10.0081H45.7312V12.9536H51.5802C52.1272 12.9536 52.569 13.3954 52.569 13.9424V14.6368L43.459 14.6578Z" fill="#151617"/>
<path d="M65.6555 3.69629H63.5095C63.1097 3.69629 62.752 3.8646 62.4995 4.18019L59.9117 7.44129L57.3239 4.20123C57.0714 3.88565 56.7137 3.71733 56.314 3.71733H54.168L58.5231 9.18755L54.168 14.6578H56.314C56.7137 14.6578 57.0714 14.4895 57.3239 14.1739L59.9117 10.9338L62.5206 14.1949C62.7731 14.4895 63.1308 14.6788 63.5305 14.6788H65.6765L61.3213 9.20858L65.6555 3.69629Z" fill="#151617"/>
<path d="M36.3276 13.5014L39.3152 8.28364V14.6375H41.5875V3.67603H40.1778C39.736 3.67603 39.3152 3.90745 39.1048 4.3072L35.5281 10.8294L31.9514 4.3072C31.741 3.90745 31.3202 3.67603 30.8784 3.67603H29.4688V14.6375H31.741V8.28364L34.7286 13.5014H36.3276Z" fill="#151617"/>
<path d="M71.5894 14.7842C68.4335 14.8263 65.8667 12.3436 65.8457 9.18775C65.8457 7.46252 66.3716 6.03184 67.3605 5.04299C68.3494 4.07518 69.78 3.54919 71.4843 3.54919C73.483 3.54919 75.0609 4.2435 76.197 5.59002L75.4817 6.20016C75.0399 6.57886 74.3876 6.59991 73.9038 6.24224C73.2726 5.75833 72.4731 5.52689 71.5684 5.52689C69.3382 5.52689 68.0127 6.87342 68.0127 9.14569C68.0127 11.4389 69.3803 12.8486 71.5684 12.8486C72.4941 12.8486 73.2726 12.5961 73.9038 12.1333C74.3666 11.7756 75.0188 11.7967 75.4817 12.1753L76.197 12.7855C75.0609 14.1109 73.5461 14.7842 71.5894 14.7842Z" fill="#151617"/>
<path d="M85.5801 14.7841C82.0456 14.7841 79.8574 12.6381 79.8574 9.18762C79.8574 5.7372 82.0456 3.59119 85.5382 3.59119C87.2212 3.59119 88.6308 4.07509 89.7248 5.06394L89.1991 5.65305C88.9675 5.90552 88.6308 6.05279 88.294 6.05279C88.105 6.05279 87.9153 6.01071 87.7469 5.92655C87.0948 5.58992 86.3374 5.42161 85.5382 5.42161C83.2654 5.42161 81.8559 6.87333 81.8559 9.20873C81.8559 11.5651 83.3287 13.0168 85.6852 13.0168C86.8212 13.0168 87.705 12.8064 88.3572 12.3436L88.3991 12.3226V10.0713H85.8955V9.3349C85.8955 8.78793 86.3374 8.3461 86.8845 8.3461H89.977C90.0616 8.3461 90.1454 8.43021 90.1454 8.5144V13.3745C89.0727 14.3002 87.5367 14.7841 85.5801 14.7841Z" fill="#151617"/>
<path d="M94.2073 14.7632C93.4287 14.7632 92.8184 14.5949 92.3559 14.3003C91.8721 13.9848 91.6191 13.5218 91.6191 12.8907V3.71753H92.8397C93.2816 3.71753 93.6603 4.0752 93.6603 4.53806V12.6171C93.6603 12.6383 93.6603 13.0169 93.9757 13.3325C94.1654 13.5218 94.3963 13.6271 94.7117 13.6271H94.9433C95.0279 13.6271 95.1117 13.7112 95.1117 13.7954V14.7842L94.2073 14.7632Z" fill="#151617"/>
</g>
</g>
<defs>
<linearGradient id="paint0_linear_4508_778" x1="6.8466" y1="8.11236" x2="20.1431" y2="13.026" gradientUnits="userSpaceOnUse">
<stop stop-color="white" stop-opacity="0"/>
<stop offset="1" stop-color="white" stop-opacity="0.2"/>
</linearGradient>
<clipPath id="clip0_4508_778">
<rect width="128" height="16" fill="white"/>
</clipPath>
</defs>
</svg>
