<svg xmlns="http://www.w3.org/2000/svg" width="93" height="22" viewBox="0 0 93 22" fill="none">
  <mask id="mask0_3092_13424" style="mask-type:luminance" maskUnits="userSpaceOnUse" x="0" y="0" width="93" height="22">
    <path d="M92.1905 0H0V22H92.1905V0Z" fill="white"/>
  </mask>
  <g mask="url(#mask0_3092_13424)">
    <path d="M22.5156 14.2843V0H25.6406L30.4056 5.77317L35.1503 0H38.2942V14.2843H35.2473V4.70115L30.4042 10.5728L25.5422 4.72027V14.2829H22.5156V14.2843Z" fill="white"/>
    <path d="M45.3589 14.2843L40.2422 0H43.4642L46.5299 8.51117L49.5955 0H52.3876L55.4738 8.51117L58.5392 0H61.7423L56.6257 14.2843H54.3026L50.9836 5.09819L47.6835 14.2843H45.3603H45.3589Z" fill="white"/>
    <path d="M63.6875 14.2843V0H76.6738V3.09538H66.7534V5.59523H74.7404V8.69058H66.7534V11.1904H76.6738V14.2858H63.6875V14.2843Z" fill="white"/>
    <path d="M78.6172 14.2843V0H81.6642V5.59523H84.4168L89.0258 0H92.1896V1.07199L87.1715 7.1422L92.1896 13.2124V14.2843H89.0258L84.4168 8.68911H81.6642V14.2843H78.6172Z" fill="white"/>
    <path d="M23.4898 21.9994C23.3146 21.9994 23.1525 21.9553 23.0034 21.8655C22.8543 21.7773 22.7371 21.6568 22.6488 21.5053C22.5605 21.3538 22.5171 21.1892 22.5171 21.0112V20.5642H23.5346V20.9583H26.2124V20.1186H23.4883C23.3132 20.1186 23.1511 20.0745 23.002 19.9848C22.8529 19.8951 22.7356 19.7775 22.6474 19.6275C22.559 19.479 22.5156 19.3128 22.5156 19.1305V18.1835C22.5156 18.0011 22.559 17.8349 22.6474 17.6864C22.7342 17.5379 22.8529 17.4188 23.002 17.3291C23.1511 17.2409 23.3132 17.1953 23.4883 17.1953H26.2718C26.4469 17.1953 26.6076 17.2394 26.7538 17.3291C26.9 17.4188 27.0186 17.5365 27.1084 17.6864C27.1981 17.8349 27.243 18.0011 27.243 18.1835V18.6305H26.2124V18.2364H23.5346V19.0761H26.2718C26.4469 19.0761 26.6076 19.1202 26.7538 19.2099C26.9 19.2996 27.0186 19.4172 27.1084 19.5672C27.1981 19.7157 27.243 19.8819 27.243 20.0642V21.0112C27.243 21.1892 27.1981 21.3538 27.1084 21.5053C27.0186 21.6568 26.9 21.7759 26.7538 21.8655C26.6076 21.9553 26.4469 21.9994 26.2718 21.9994H23.4883H23.4898Z" fill="white"/>
    <path d="M32.207 21.9994C32.0319 21.9994 31.8698 21.9553 31.7207 21.8655C31.5716 21.7773 31.4544 21.6568 31.3661 21.5053C31.2778 21.3538 31.2344 21.1892 31.2344 21.0112V18.1835C31.2344 18.0011 31.2778 17.8349 31.3661 17.6864C31.4529 17.5379 31.5716 17.4188 31.7207 17.3291C31.8698 17.2409 32.0319 17.1953 32.207 17.1953H34.9905C35.1656 17.1953 35.3263 17.2394 35.4725 17.3291C35.6187 17.4188 35.7374 17.5365 35.8271 17.6864C35.9169 17.8349 35.9617 18.0011 35.9617 18.1835V21.0112C35.9617 21.1892 35.9169 21.3538 35.8271 21.5053C35.7374 21.6568 35.6187 21.7759 35.4725 21.8655C35.3263 21.9553 35.1656 21.9994 34.9905 21.9994H32.207ZM34.9311 20.9598V18.2394H32.2533V20.9598H34.9311Z" fill="white"/>
    <path d="M39.9688 21.9999V17.1914H40.9863V20.9588H44.6947V21.9984H39.9688V21.9999Z" fill="white"/>
    <path d="M48.8223 21.868C48.6732 21.7798 48.5559 21.6592 48.4677 21.5078C48.3794 21.3563 48.3359 21.1916 48.3359 21.0137V17.1992H49.3535V20.9607H52.0313V17.1992H53.0616V21.0137C53.0616 21.1916 53.0171 21.3563 52.927 21.5078C52.8374 21.6592 52.7185 21.7783 52.5724 21.868C52.4263 21.9577 52.2658 22.0018 52.0906 22.0018H49.3072C49.132 22.0018 48.9699 21.9577 48.8208 21.868H48.8223Z" fill="white"/>
    <path d="M58.6871 22.0004V18.2388H56.8359V17.1992H61.5617V18.2388H59.7106V22.0004H58.6871Z" fill="white"/>
    <path d="M65.1719 22.0004V17.1992H66.1765V22.0004H65.1719Z" fill="white"/>
    <path d="M70.98 21.9994C70.8051 21.9994 70.6432 21.9553 70.4939 21.8655C70.3446 21.7773 70.2278 21.6568 70.1393 21.5053C70.0508 21.3538 70.0078 21.1892 70.0078 21.0112V18.1835C70.0078 18.0011 70.0508 17.8349 70.1393 17.6864C70.2262 17.5379 70.3446 17.4188 70.4939 17.3291C70.6432 17.2409 70.8051 17.1953 70.98 17.1953H73.7635C73.939 17.1953 74.0993 17.2394 74.2454 17.3291C74.3921 17.4188 74.5105 17.5365 74.6 17.6864C74.6901 17.8349 74.7347 18.0011 74.7347 18.1835V21.0112C74.7347 21.1892 74.6901 21.3538 74.6 21.5053C74.5105 21.6568 74.3921 21.7759 74.2454 21.8655C74.0993 21.9553 73.939 21.9994 73.7635 21.9994H70.98ZM73.7043 20.9598V18.2394H71.0266V20.9598H73.7043Z" fill="white"/>
    <path d="M78.7354 22.0004V17.1992H79.7862L82.4309 20.4005V17.1992H83.4612V22.0004H82.4105L79.7516 18.7859V22.0004H78.7344H78.7354Z" fill="white"/>
    <path d="M88.4347 21.9994C88.2598 21.9994 88.0974 21.9553 87.9486 21.8655C87.7993 21.7773 87.682 21.6568 87.594 21.5053C87.5055 21.3538 87.462 21.1892 87.462 21.0112V20.5642H88.4798V20.9583H91.1575V20.1186H88.4336C88.2582 20.1186 88.0963 20.0745 87.947 19.9848C87.7978 19.8951 87.6809 19.7775 87.5924 19.6275C87.5039 19.479 87.4609 19.3128 87.4609 19.1305V18.1835C87.4609 18.0011 87.5039 17.8349 87.5924 17.6864C87.6794 17.5379 87.7978 17.4188 87.947 17.3291C88.0963 17.2409 88.2582 17.1953 88.4336 17.1953H91.2167C91.3921 17.1953 91.5524 17.2394 91.6991 17.3291C91.8452 17.4188 91.9636 17.5365 92.0537 17.6864C92.1433 17.8349 92.1883 18.0011 92.1883 18.1835V18.6305H91.1575V18.2364H88.4798V19.0761H91.2167C91.3921 19.0761 91.5524 19.1202 91.6991 19.2099C91.8452 19.2996 91.9636 19.4172 92.0537 19.5672C92.1433 19.7157 92.1883 19.8819 92.1883 20.0642V21.0112C92.1883 21.1892 92.1433 21.3538 92.0537 21.5053C91.9636 21.6568 91.8452 21.7759 91.6991 21.8655C91.5524 21.9553 91.3921 21.9994 91.2167 21.9994H88.4336H88.4347Z" fill="white"/>
    <path d="M12.9618 17.6076L10.3362 11.1316L12.9459 4.39235L15.5542 10.8684H18.2957L13.9418 0H11.9645L9.1565 6.98924L6.33113 0H4.3539L0 10.8684H2.72553L5.33385 4.39235L7.9595 11.1316L5.35119 17.6076L2.74146 11.1316H0L4.3539 22H6.33113L9.13917 15.0108L11.9645 22H13.9418L18.2957 11.1316H15.5716L12.9618 17.6076Z" fill="white"/>
  </g>
</svg>