<svg width="85" height="20" viewBox="0 0 85 20" fill="none" xmlns="http://www.w3.org/2000/svg">
<g clip-path="url(#clip0_4385_9690)">
<path d="M43.4627 6.76829L47.1963 10.9334L47.2733 11.0169V0.231394H46.2853V8.65801L42.4363 4.31936L38.7027 0.0899867L38.6257 0V10.8048H39.6137V2.44893C40.1204 3.00813 40.6529 3.61232 41.1918 4.21652C41.9487 5.07782 42.7442 5.97126 43.4627 6.76829Z" fill="#7F828B"/>
<path d="M73.7215 8.24773L72.5767 5.89524C72.9554 5.80737 73.3129 5.64889 73.6294 5.42858C74.3736 4.89437 74.7993 4.03844 74.7677 3.14002C74.8019 2.44171 74.5404 1.76024 74.0439 1.25419C73.2895 0.624897 72.3274 0.280037 71.3331 0.282484H68.8921V10.7345H69.9119V5.99752H71.5239C71.899 6.77742 72.2806 7.55093 72.6556 8.32444L73.8202 10.7089H74.9454V10.645C74.5111 9.86506 74.1163 9.0532 73.7215 8.24773ZM73.1031 1.80396C73.3133 1.96422 73.4879 2.1643 73.6163 2.39208C73.7353 2.60394 73.7986 2.84111 73.8005 3.08248C73.7952 3.2997 73.7575 3.51502 73.6886 3.72175C73.6107 3.96063 73.478 4.17921 73.3004 4.36101C73.0877 4.56856 72.8289 4.72601 72.5438 4.82128C72.1564 4.95968 71.7458 5.02688 71.3331 5.01945H69.8988V1.26698H71.3463C71.6804 1.25466 72.0142 1.2979 72.3332 1.39483C72.6126 1.48617 72.8732 1.62467 73.1031 1.80396Z" fill="#7F828B"/>
<path d="M5.18973 0.283818C3.78113 0.250989 2.42697 0.819628 1.47615 1.84323C0.489516 2.87955 -0.0403248 4.25816 0.00239679 5.67784C-0.0381986 7.09717 0.491346 8.47502 1.47615 9.51246C2.43893 10.5127 3.79067 11.0594 5.18973 11.0143C6.59443 11.0436 7.94434 10.4781 8.89683 9.46133C10.8704 7.29357 10.8704 4.01099 8.89683 1.84323C7.94701 0.822026 6.59593 0.253688 5.18973 0.283818ZM5.18973 10.0493C4.04236 10.0763 2.94004 9.60959 2.17082 8.7711C0.596521 6.97824 0.596521 4.31993 2.17082 2.52707C2.94004 1.68858 4.04236 1.22186 5.18973 1.24886C6.33605 1.21767 7.43809 1.68527 8.20216 2.52707C9.76815 4.32297 9.76815 6.9752 8.20216 8.7711C7.43809 9.61289 6.33605 10.0805 5.18973 10.0493Z" fill="#7F828B"/>
<path d="M13.3736 0.327219V0.282471H12.3948V10.7344H17.295V9.74998H13.3673L13.3736 0.327219Z" fill="#7F828B"/>
<path d="M36.0249 9.74998H31.2639V5.50526H35.4354V4.5208H31.2639V1.26055L36.0249 1.26694L36.0314 0.282471H30.2664V10.7344H36.0314L36.0249 9.74998Z" fill="#7F828B"/>
<path d="M22.4143 0.282705H19.6011V10.7344H22.4143C24.539 10.7385 26.4566 9.46701 27.2711 7.51386C28.0856 5.56071 27.6363 3.31146 26.1331 1.8169C25.1548 0.823374 23.8119 0.269402 22.4143 0.282705ZM20.603 1.26715H22.395C23.5229 1.22136 24.6175 1.65341 25.4073 2.45615C26.2255 3.26184 26.686 4.35981 26.686 5.50537C26.686 6.65093 26.2255 7.7489 25.4073 8.55459C24.6138 9.36031 23.5149 9.79453 22.3822 9.74998H20.5838L20.603 1.26715Z" fill="#7F828B"/>
<path d="M55.9711 6.27867C55.7645 6.05729 55.5199 5.87336 55.2484 5.7353C55.0304 5.62002 54.7986 5.53197 54.5583 5.47321C55.077 5.32608 55.5235 4.99895 55.8148 4.55268C56.128 4.06308 56.2887 3.49427 56.277 2.9162C56.2863 2.50591 56.2064 2.0984 56.0427 1.72079C55.8971 1.39809 55.6736 1.11505 55.3916 0.896159C55.0773 0.677771 54.724 0.519461 54.35 0.429504C53.9232 0.331469 53.4863 0.282133 53.0479 0.282472H50.4438V10.7343H53.3474C53.7876 10.7382 54.2261 10.6801 54.6495 10.5617C55.0387 10.4529 55.4064 10.2799 55.7367 10.0503C56.0496 9.82628 56.3095 9.53841 56.4984 9.20644C56.6949 8.84265 56.7935 8.43556 56.7848 8.02383C56.7878 7.68881 56.7236 7.35649 56.596 7.04577C56.4402 6.75281 56.2279 6.4923 55.9711 6.27867ZM51.3553 5.96543H52.9503C53.2854 5.96559 53.6194 6.00203 53.9464 6.0741C54.2531 6.14259 54.5458 6.26146 54.8122 6.42569C55.059 6.59099 55.2639 6.80969 55.4112 7.06495C55.5627 7.33243 55.6391 7.63469 55.6325 7.94072C55.6391 8.22327 55.5718 8.50276 55.4372 8.75257C55.315 8.98737 55.1362 9.18927 54.9164 9.34069C54.6794 9.50115 54.4147 9.61811 54.1352 9.68588C53.8235 9.76994 53.5014 9.81082 53.1782 9.80734H51.3488L51.3553 5.96543ZM54.669 4.4504C54.2553 4.82306 53.7062 5.01658 53.1456 4.98738H51.3488V1.26693H53.1C53.6453 1.24113 54.185 1.38425 54.643 1.67605C55.0599 2.00648 55.28 2.52036 55.2289 3.04405C55.246 3.56829 55.0436 4.07652 54.669 4.4504Z" fill="#7F828B"/>
<path d="M65.2921 7.24194C65.2937 7.61948 65.2183 7.9936 65.0702 8.34281C64.9448 8.6463 64.7507 8.9187 64.5024 9.13998C64.2523 9.36038 63.9595 9.53029 63.6409 9.6398C62.9303 9.876 62.1587 9.876 61.448 9.6398C60.8106 9.4343 60.2949 8.97352 60.0318 8.37444C59.8837 8.02524 59.8083 7.65112 59.8099 7.27358V0.314105H58.8048V7.2799C58.7898 7.79466 58.8831 8.30697 59.0789 8.78568C59.2554 9.20104 59.5226 9.57443 59.8621 9.88022C60.2086 10.1685 60.6131 10.3839 61.0499 10.5129C61.5328 10.663 62.0373 10.7378 62.5445 10.7343C63.0473 10.7373 63.5474 10.6626 64.026 10.5129C64.4635 10.3811 64.8696 10.166 65.2203 9.88022C65.5638 9.57643 65.8335 9.20261 66.0101 8.78568C66.2082 8.3095 66.3059 7.79963 66.2972 7.28623V0.282471H65.2856L65.2921 7.24194Z" fill="#7F828B"/>
<path d="M81.7621 1.23963C82.8435 1.20941 83.8905 1.61065 84.6599 2.35016L84.7326 2.42719V1.14334C83.8382 0.574638 82.7911 0.275402 81.7225 0.283168C80.3075 0.26025 78.9449 0.803288 77.9534 1.78527C76.91 2.80564 76.3443 4.19849 76.3889 5.6368C76.3472 7.07338 76.9098 8.46437 77.9468 9.48834C78.9417 10.4879 80.3186 11.0412 81.7489 11.0161C82.8141 11.016 83.8559 10.7125 84.7458 10.1431V5.40571H83.7292V9.53969C83.1237 9.86775 82.4421 10.0401 81.7489 10.0404C80.5672 10.0604 79.4306 9.5997 78.6135 8.76939C77.7691 7.92844 77.3199 6.78536 77.3725 5.61113C77.3221 4.43669 77.7765 3.29482 78.6267 2.45929C79.4547 1.65046 80.5889 1.20926 81.7621 1.23963Z" fill="#7F828B"/>
<path d="M48.1346 14.1243C47.7529 15.0241 47.3648 15.9176 46.9832 16.8047L45.8318 19.4915H46.291C46.4463 19.1405 46.5951 18.7895 46.7503 18.4321L47.1966 17.3727H49.066C49.2213 17.7237 49.37 18.0811 49.5188 18.4321C49.6676 18.7831 49.8228 19.1405 49.9716 19.4915H50.4438L49.2924 16.8047L48.1346 14.1243ZM47.3907 16.9387C47.5201 16.6388 47.6559 16.3452 47.7853 16.0452C47.9207 15.7484 48.0374 15.4437 48.1346 15.1326L48.1669 15.2475L48.2057 15.3624C48.3157 15.6304 48.4321 15.8921 48.5421 16.1537L48.872 16.9387H47.3907Z" fill="#7F828B"/>
<path d="M53.9145 17.1253C54.2352 17.0693 54.5253 16.9044 54.7334 16.6596C54.9263 16.4007 55.024 16.0859 55.0107 15.766C55.021 15.5446 54.9626 15.3252 54.843 15.1367C54.7316 14.9715 54.5868 14.8301 54.4174 14.7214C54.2496 14.6125 54.0644 14.5317 53.8693 14.4823C53.6951 14.4343 53.5151 14.4089 53.3341 14.4067H52.1733V19.4411H52.6312V17.1631H53.4244C53.6114 17.5532 53.7984 17.9434 53.9918 18.3273L54.5529 19.4915H55.0558C54.8624 19.1013 54.6754 18.7049 54.4819 18.3084C54.2885 17.9119 54.1015 17.5029 53.9145 17.1253ZM53.3341 16.7289H52.6312V14.841H53.3663C53.5293 14.8386 53.6912 14.8663 53.8435 14.9228C53.9838 14.9668 54.1148 15.035 54.2304 15.1241L54.4819 15.4136C54.5397 15.5204 54.5707 15.639 54.5722 15.7597L54.5142 16.0933L54.3207 16.4016C54.2152 16.5053 54.0875 16.5848 53.9467 16.6345C53.7603 16.6983 53.5639 16.7302 53.3663 16.7289H53.3341Z" fill="#7F828B"/>
<path d="M59.4994 15.0994C59.2615 14.8717 58.977 14.6962 58.6647 14.5847C58.3424 14.4644 58.0001 14.4041 57.6553 14.4068H56.4971V19.4901H57.3965C57.8547 19.5032 58.3107 19.4232 58.7359 19.255C59.073 19.1057 59.3748 18.8893 59.6224 18.6196C59.845 18.3812 60.0147 18.0999 60.1206 17.7936C60.2016 17.5254 60.243 17.2472 60.2435 16.9675C60.2528 16.6033 60.1821 16.2414 60.0365 15.9064C59.914 15.6049 59.7314 15.3306 59.4994 15.0994ZM59.6547 17.7872C59.5517 18.0395 59.3976 18.2686 59.2018 18.4607C58.9952 18.6534 58.7538 18.8064 58.49 18.9119C58.1871 19.028 57.8639 19.0841 57.5388 19.0771H56.9565V14.8453H57.6035C57.895 14.8421 58.1845 14.8916 58.4577 14.9914C58.7163 15.0879 58.9535 15.2325 59.1565 15.4171C59.3553 15.596 59.5159 15.812 59.6288 16.0525C59.7435 16.331 59.8007 16.6291 59.7971 16.9294C59.807 17.2217 59.7587 17.5131 59.6547 17.7872Z" fill="#7F828B"/>
<path d="M33.2575 18.5192V18.635V18.7509L33.185 18.6543L33.1126 18.5643L31.0899 16.3443L29.1133 14.1243V19.5359H29.5877V15.4434V15.3276V15.2117L29.6601 15.3083L29.7326 15.4048L31.7487 17.5862L33.7253 19.774V14.3624H33.2575V18.5192Z" fill="#7F828B"/>
<path d="M64.5335 17.0224C64.3682 16.9069 64.1889 16.8112 63.9997 16.7373C63.8068 16.663 63.6331 16.601 63.4723 16.5514L63.1379 16.4275L62.8614 16.2726L62.6749 16.0495C62.6208 15.9503 62.5942 15.8393 62.5977 15.7273C62.5955 15.6107 62.6174 15.4948 62.662 15.3864L62.8357 15.1076C62.917 15.0231 63.0155 14.9556 63.1251 14.9093C63.2556 14.8579 63.3957 14.8326 63.5367 14.8349C63.6493 14.834 63.7616 14.8465 63.8711 14.8721L64.1476 14.9713L64.3663 15.0952L64.5335 15.2191L64.6621 15.058L64.7907 14.8907C64.6029 14.7255 64.3848 14.5952 64.1476 14.5065C63.9555 14.4411 63.7533 14.4076 63.5495 14.4074C63.3281 14.4009 63.1082 14.4433 62.9064 14.5313C62.7366 14.5987 62.5864 14.705 62.4691 14.8411C62.3578 14.9649 62.2765 15.1109 62.2311 15.2687C62.1845 15.4215 62.1628 15.5804 62.1668 15.7397C62.1675 15.9184 62.2115 16.0945 62.2954 16.254C62.3727 16.3833 62.4728 16.4986 62.5913 16.5948C62.6982 16.6809 62.8173 16.7518 62.945 16.8055L63.273 16.9356C63.4016 16.9852 63.5495 17.0347 63.7167 17.0843C63.8772 17.131 64.0307 17.1977 64.1734 17.2826C64.3167 17.363 64.4397 17.473 64.5335 17.6048C64.6387 17.7473 64.6909 17.9198 64.6814 18.0944C64.6837 18.2382 64.6507 18.3804 64.5849 18.5095C64.5232 18.6241 64.4379 18.7253 64.3341 18.807C64.2267 18.8894 64.1047 18.9524 63.974 18.9929C63.8372 19.0375 63.6939 19.0605 63.5495 19.061C63.4097 19.0631 63.2705 19.0422 63.1379 18.9991C63.0167 18.9623 62.9002 18.9124 62.7906 18.8504L62.5012 18.6521L62.2697 18.4414L61.9739 18.7202L62.2247 18.9743C62.3365 19.0703 62.4595 19.1535 62.5913 19.2222C62.7402 19.2943 62.8951 19.3544 63.0543 19.4019C63.4236 19.5214 63.8233 19.5214 64.1926 19.4019C64.3752 19.3414 64.5435 19.2466 64.6878 19.123C64.8306 19.001 64.9446 18.851 65.0223 18.6831C65.1047 18.5014 65.1463 18.305 65.1445 18.1068C65.1482 17.8894 65.0904 17.6752 64.9773 17.4871C64.8632 17.3051 64.7122 17.147 64.5335 17.0224Z" fill="#7F828B"/>
<path d="M36.4788 17.1481H38.8175V16.7186H36.4788V14.8489H39.0948V14.4067H36.0312V19.4915H39.202V19.062H36.4788V17.1481Z" fill="#7F828B"/>
<path d="M22.7642 16.4681L21.878 18.5359V18.6444L21.8456 18.7592V18.6444V18.5359L20.9595 16.4681C20.6619 15.7852 20.3708 15.096 20.0733 14.4067H19.6011C19.9892 15.3066 20.3708 16.2001 20.7589 17.0872L21.9103 19.774L23.0617 17.0872C23.4433 16.2001 23.8315 15.3066 24.2131 14.4067H23.7474L22.7642 16.4681Z" fill="#7F828B"/>
<path d="M43.6298 15.6779L42.8721 16.9428L42.8275 17.0503L42.7893 17.1578L42.7574 17.044L42.7192 16.9365C42.4709 16.5127 42.2162 16.089 41.9615 15.6716C41.7067 15.2542 41.4584 14.8368 41.2037 14.4067H40.6433L41.5858 15.9752L42.5282 17.5436V19.4915H43.0822V17.5626L44.031 15.9878L44.9671 14.4194H44.4067L43.6298 15.6779Z" fill="#7F828B"/>
<path d="M26.8072 14.4067H26.2307V19.4915H26.8072V14.4067Z" fill="#7F828B"/>
</g>
<defs>
<clipPath id="clip0_4385_9690">
<rect width="84.7458" height="20" fill="white"/>
</clipPath>
</defs>
</svg>
