<svg xmlns="http://www.w3.org/2000/svg" width="200" height="47" viewBox="0 0 200 47" fill="none">
  <path d="M135.921 13.3202C135.784 14.071 135.648 14.8218 135.511 15.5726C134.453 21.4425 133.395 27.3124 132.303 33.1823C131.962 35.0935 131.45 37.0046 130.733 38.8134C129.027 43.1817 125.887 45.8095 121.246 46.5261C117.697 47.1063 114.182 47.0039 110.735 45.7753C109.813 45.4682 109.404 45.0928 109.779 44.069C110.257 42.738 110.257 40.9634 111.144 40.0761C112.1 39.1205 113.567 40.6562 114.898 40.6221C115.615 40.6221 116.366 40.861 117.117 40.861C120.973 41.0316 123.328 39.3935 124.591 35.776C124.932 34.7181 125.307 33.6601 125.273 32.5339C124.829 32.3974 124.727 32.7728 124.522 32.9776C122.202 35.4347 119.403 36.3562 116.161 35.4348C112.953 34.5474 111.383 32.1244 110.598 29.0871C110.53 28.7799 110.428 28.4728 110.325 28.1997C110.291 27.7902 110.291 27.3466 110.257 26.937C110.257 26.5275 110.257 26.0838 110.257 25.6743C110.359 24.9235 110.462 24.1727 110.53 23.456C112.134 16.2893 116.366 11.648 123.737 10.2829C127.662 9.56619 131.518 10.1805 135.272 11.4432C136.433 11.8869 135.955 12.6377 135.921 13.3202ZM127.355 20.3504C127.56 19.3608 127.696 18.3711 127.969 17.4155C128.276 16.4599 127.935 16.0845 127.014 15.948C124.795 15.6067 122.816 16.0845 121.212 17.7226C119.54 19.429 118.448 21.4425 118.277 23.8314C117.833 25.1965 117.97 26.5616 118.413 27.8585C119.028 29.599 120.529 30.3839 122.304 29.872C123.294 29.5648 124.079 28.9505 124.693 28.1315C126.502 25.845 127.048 23.1489 127.355 20.3504Z" fill="#7F828B"/>
  <path d="M12.9909 0.828837C16.5061 0.79471 19.0997 0.862971 21.591 1.78441C27.0514 3.7638 29.338 8.95116 27.2903 14.6846C25.2427 20.4521 20.7037 22.7727 15.0045 23.5235C13.5711 23.6942 12.1378 23.7966 10.7044 23.5577C9.61233 23.387 9.23693 23.7624 9.06629 24.7863C8.48612 28.1649 7.80358 31.5435 7.22341 34.9221C7.05277 35.8777 6.7115 36.1166 5.79006 36.0824C4.25433 36.0142 2.7186 36.0142 1.18287 36.0824C0.0566619 36.1507 -0.113975 35.7753 0.0566618 34.7173C1.52414 27.1069 2.92336 19.4624 4.32258 11.8179C4.86862 8.84878 5.48292 5.91382 5.92657 2.94474C6.09721 1.81854 6.67737 1.44313 7.63294 1.34075C9.78296 1.13598 11.8647 0.931219 12.9909 0.828837ZM13.0933 17.5171C15.3116 17.5854 17.291 17.0393 18.895 15.4354C20.499 13.7972 21.1133 11.1353 20.2601 9.29243C19.3045 7.17654 17.3934 6.83526 15.3457 6.76701C14.6973 6.73288 14.083 6.86939 13.4346 6.86939C12.6497 6.86939 12.3766 7.24479 12.2401 8.02972C11.8647 10.3845 11.387 12.7052 10.9433 15.0258C10.4996 17.5171 10.4996 17.5171 13.0933 17.5171Z" fill="#7F828B"/>
  <path d="M42.1382 31.6119C40.9096 32.9088 39.9199 34.1715 38.5207 35.127C33.6746 38.4374 27.8047 36.185 26.5079 30.4857C24.3578 20.9642 31.7293 10.999 41.5239 10.2141C44.6636 9.97517 47.7692 10.2141 50.8065 10.9649C51.8304 11.2379 52.1375 11.5109 51.9327 12.6712C50.7383 19.1554 49.1002 25.5714 48.6565 32.1921C48.5541 33.4548 49.1684 35.1953 48.1787 35.912C47.3256 36.5263 45.7216 36.0826 44.4589 36.0826C41.8652 36.0826 41.8652 36.0826 42.0699 33.4889C42.0699 32.8405 42.1041 32.2262 42.1382 31.6119ZM42.0358 15.7768C36.0294 15.7427 32.3778 25.0595 34.3571 29.0524C35.1421 30.5881 36.9167 31.0318 38.4183 30.1103C39.5786 29.3936 40.3636 28.3698 41.012 27.1754C42.616 24.2404 42.8549 20.9301 43.6057 17.7221C44.0493 15.9133 43.8787 15.7768 42.0358 15.7768Z" fill="#7F828B"/>
  <path d="M99.7788 36.0153C97.4923 36.6637 95.1375 36.6296 92.7827 36.5954L92.7486 36.5613C91.9295 36.3224 91.1104 36.1176 90.2573 35.8788C90.1208 35.6399 89.8819 35.5716 89.6088 35.5716C89.5065 35.5034 89.37 35.401 89.2676 35.3327C87.5953 34.2065 86.0596 32.9438 85.4453 30.862C88.2438 31.2374 91.0763 31.3739 93.8065 30.4866C97.2193 31.1351 98.7209 30.4866 100.393 27.4152C101.417 25.5382 101.929 23.4905 101.997 21.3746C102.134 17.45 101.246 16.3579 97.4581 15.8119C97.3899 15.0269 97.9701 14.5833 98.4137 14.1055C99.8129 12.5698 101.588 11.5801 103.567 10.9316C105.683 11.5118 107.116 13.0134 108.174 14.788C110.392 18.5079 109.983 22.4667 108.823 26.4596C108.345 28.1318 107.184 29.4969 106.673 31.1351H106.707C104.727 33.0462 102.646 34.8549 100.086 35.9811C100.018 35.947 99.8812 35.9811 99.7788 36.0153Z" fill="#7F828B"/>
  <path d="M77.4536 15.8092C78.8187 13.7615 79.9449 12.1234 81.7196 11.1678C82.2656 10.8607 82.8458 10.5877 83.4601 10.3829C86.3609 9.46145 86.9411 9.93924 86.3268 12.8401C86.2585 13.2155 86.1561 13.5567 86.122 13.9321C85.849 15.9115 85.7125 17.6179 82.7775 17.652C80.2862 17.6862 78.8529 19.9044 77.8632 22.1227C76.5322 25.0577 76.2933 28.2315 75.679 31.3371C75.4401 32.5657 75.1671 33.8284 74.9965 35.0911C74.8941 35.876 74.5187 36.1149 73.7338 36.0808C72.0956 36.0126 70.4234 35.9784 68.8194 36.0808C67.3519 36.1832 67.625 35.3983 67.7615 34.511C68.6488 29.8355 69.5702 25.16 70.3893 20.4846C70.8671 17.5838 71.1742 14.6147 71.4814 11.6797C71.5496 10.9972 71.6861 10.6218 72.471 10.6559C73.9385 10.7242 75.4401 10.7242 76.9076 10.6559C77.6925 10.6218 77.9314 10.9289 77.8632 11.6797C77.6584 12.9083 77.5902 14.1369 77.4536 15.8092Z" fill="#7F828B"/>
  <path d="M61.4237 15.3326C62.4134 14.1722 63.0959 13.2508 63.915 12.4659C65.4849 10.9301 67.3619 10.0428 69.6143 10.1111C70.3651 10.1111 70.7063 10.2817 70.5357 11.1008C70.1262 12.9437 69.7508 14.8207 69.4095 16.6977C69.3071 17.312 68.9658 17.4485 68.4198 17.4485C64.8706 17.312 62.9253 19.4279 61.5943 22.3969C60.2634 25.4343 60.0927 28.7446 59.4102 31.9526C59.3419 32.328 59.2737 32.6693 59.1713 33.0447C58.4546 36.1503 58.4546 36.1503 55.2125 36.1503C54.9054 36.1503 54.5641 36.1503 54.2569 36.1503C51.2196 36.1503 51.2537 36.1503 51.7998 33.2495C53.1307 26.151 54.7347 19.0525 55.2125 11.8175C55.2808 10.9984 55.5538 10.7254 56.3728 10.7254C57.8062 10.7595 59.2395 10.7936 60.6729 10.7254C61.5602 10.6913 61.765 10.9984 61.6626 11.8516C61.5261 12.8413 61.5261 13.9334 61.4237 15.3326ZM61.4578 15.3326C61.4237 15.3667 61.3554 15.4008 61.3554 15.435C61.3554 15.4691 61.3896 15.5032 61.4237 15.5373C61.4578 15.5032 61.492 15.4691 61.5261 15.435C61.5261 15.4008 61.4919 15.3667 61.4578 15.3326Z" fill="#7F828B"/>
  <path d="M93.844 30.4863C91.0797 31.3736 88.2813 31.2371 85.4828 30.8617C83.3669 25.0259 84.5272 19.6679 88.3836 15.0266C92.0353 10.6583 96.8814 9.19078 102.512 10.4535C102.649 10.4876 102.82 10.4876 102.99 10.4876C103.195 10.6241 103.434 10.7265 103.639 10.863C101.659 11.5114 99.9187 12.5011 98.4853 14.0369C98.0417 14.5147 97.4274 14.9583 97.5298 15.7432C92.3765 17.9274 90.3289 26.0156 93.844 30.4863Z" fill="#666160"/>
  <path d="M140.928 14.9925C143.556 12.5354 146.661 11.0679 150.142 10.3171C153.692 9.94168 157.207 10.0782 160.688 10.9655C161.746 11.2385 161.985 11.6481 161.78 12.706C160.79 18.064 159.459 23.3196 158.879 28.7459C158.64 30.7935 158.504 32.8412 158.401 34.8888C158.367 35.742 158.197 36.1174 157.241 36.0833C155.773 36.015 154.272 36.015 152.804 36.0833C151.951 36.1174 151.644 35.8102 151.746 34.9912C151.883 33.8991 151.917 32.7729 152.019 31.5102C151.2 31.9197 150.962 32.6364 150.518 33.1483C147.412 36.9706 142.157 37.7896 138.846 34.8888C136.867 33.1824 136.184 30.8618 136.082 28.3705C135.911 23.2855 137.618 18.8489 140.928 14.9925ZM143.692 26.0157C143.727 26.5958 143.692 27.0395 143.761 27.449C143.931 28.7117 144.341 29.8379 145.638 30.3498C146.969 30.8959 148.129 30.384 149.153 29.4967C149.972 28.78 150.518 27.8927 151.03 26.9712C152.463 24.3434 152.702 21.4426 153.316 18.61C153.896 15.8457 153.112 15.1632 150.313 16.0163C149.221 16.3235 148.265 16.9037 147.481 17.6886C145.092 20.0434 143.863 22.876 143.692 26.0157Z" fill="#7F828B"/>
  <path d="M187.894 36.6632C181.853 36.5949 178.167 33.9671 177.212 28.9504C176.666 26.0496 176.871 23.1487 177.826 20.3503C180.147 13.5931 185.88 9.66842 192.569 10.2145C196.494 10.5216 199.258 12.9447 199.872 16.5622C200.487 20.1797 198.78 23.1829 195.129 24.7869C192.057 26.152 188.747 26.2202 185.471 26.3226C183.798 26.3567 183.628 26.5956 184.31 28.1655C185.129 30.0766 186.802 30.6909 188.679 30.8274C190.931 30.998 193.115 30.6909 195.197 29.7353C196.084 29.3258 196.596 29.3258 196.528 30.5203C196.494 30.9298 196.596 31.3734 196.63 31.783C196.972 34.9568 196.972 34.9909 193.832 35.8783C192.979 36.1171 192.091 36.2878 191.204 36.4243C190.112 36.4925 189.02 36.5267 187.894 36.6632ZM186.87 20.7257C188.44 20.6574 189.907 20.5892 191.307 20.009C192.467 19.5312 193.32 18.7463 193.047 17.3471C192.808 15.9479 191.682 15.5725 190.453 15.5725C188.372 15.5725 186.836 16.5622 185.71 18.2685C185.232 18.9511 184.481 19.7701 184.891 20.5209C185.198 21.1011 186.256 20.5892 186.87 20.7257Z" fill="#7F828B"/>
  <path d="M175.196 3.83203C174.787 5.87967 174.479 7.72255 174.07 9.56543C173.899 10.3162 174.07 10.6575 174.889 10.6234C175.947 10.5892 177.005 10.6575 178.063 10.5892C178.916 10.5551 179.257 10.8281 179.018 11.6813C178.95 11.8861 178.95 12.0909 178.882 12.2956C178.575 13.5925 178.814 15.2306 177.926 16.0496C177.005 16.9028 175.401 16.2885 174.104 16.3227C173.183 16.3568 172.705 16.4592 172.534 17.5512C172.056 20.5203 171.408 23.4553 170.828 26.4243C170.759 26.8339 170.725 27.2775 170.725 27.6871C170.657 29.6323 171.271 30.349 173.251 30.2125C174.718 30.1101 174.957 30.5196 174.582 31.8165C174.377 32.4649 174.343 33.1816 174.275 33.8641C173.967 36.2872 173.967 36.2872 171.544 36.5261C171.442 36.5261 171.34 36.5602 171.237 36.5602C166.05 37.0038 162.194 35.2633 163.422 28.3696C164.036 24.8204 164.685 21.3052 165.401 17.7901C165.606 16.8004 165.504 16.2203 164.344 16.425C162.705 16.698 162.467 15.9131 162.842 14.5822C162.978 14.0702 163.081 13.5583 163.115 13.0123C163.183 11.3059 163.729 10.1797 165.743 10.6234C166.596 10.794 166.937 10.2821 166.937 9.56543C166.869 6.56222 168.439 5.163 171.34 4.82172C172.568 4.65109 173.763 4.1733 175.196 3.83203Z" fill="#7F828B"/>
  <path d="M61.4539 15.334C61.4881 15.3681 61.5222 15.4022 61.5222 15.4364C61.5222 15.4705 61.4539 15.5046 61.4198 15.5388C61.3857 15.5046 61.3516 15.4705 61.3516 15.4364C61.3857 15.4022 61.4198 15.3681 61.4539 15.334Z" fill="#FDFDFD"/>
</svg>
