<svg width="42" height="23" viewBox="0 0 42 23" fill="none" xmlns="http://www.w3.org/2000/svg">
<g clip-path="url(#clip0_4409_228)">
<path d="M8.99585 4.96539H5.29121V3.82783C5.29121 3.29788 5.24339 2.96032 5.14775 2.81518C5.09506 2.74056 5.02363 2.68116 4.94067 2.64294C4.8577 2.60472 4.76613 2.58903 4.67518 2.59746C4.56604 2.59248 4.45762 2.61734 4.36156 2.66939C4.26551 2.72143 4.18546 2.79868 4.13003 2.89282C3.98843 3.16751 3.92425 3.47557 3.94438 3.78396C3.92198 4.18027 3.9931 4.57631 4.15197 4.94008C4.28474 5.19999 4.66055 5.51279 5.2794 5.87847C7.05605 6.93389 8.17504 7.79914 8.63636 8.47425C9.09768 9.14935 9.32834 10.2391 9.32834 11.7434C9.32834 12.8371 9.20007 13.6427 8.94353 14.1603C8.68699 14.6779 8.19304 15.1122 7.46168 15.4633C6.65867 15.8291 5.78352 16.0091 4.90134 15.9899C3.95367 16.0171 3.01412 15.8083 2.16716 15.3823C1.41217 14.9783 0.918218 14.4636 0.685306 13.838C0.452395 13.2124 0.335374 12.3246 0.334249 11.1747V10.162H4.04733V12.0422C4.04733 12.6177 4.09796 12.9873 4.2026 13.151C4.26528 13.2374 4.34963 13.3056 4.44713 13.3489C4.54463 13.3921 4.65183 13.4089 4.75788 13.3975C4.87564 13.4039 4.99294 13.3783 5.09727 13.3233C5.2016 13.2683 5.28905 13.186 5.35028 13.0852C5.49683 12.7987 5.56386 12.4782 5.54438 12.1569C5.54438 11.2568 5.42117 10.6655 5.17476 10.3831C4.92834 10.1007 4.30612 9.63655 3.30809 8.9907C2.61952 8.55854 1.96092 8.08038 1.33678 7.55948C0.981288 7.21349 0.707414 6.79259 0.535093 6.32742C0.303871 5.68387 0.196219 5.00246 0.217792 4.31897C0.217792 3.14317 0.368006 2.28353 0.668428 1.74007C1.00084 1.16754 1.51193 0.719888 2.12328 0.465812C2.88953 0.140919 3.71661 -0.0156349 4.54859 0.0067397C5.45795 -0.0165566 6.36168 0.15613 7.19839 0.513069C7.9275 0.850622 8.41076 1.27256 8.64817 1.77889C8.88559 2.28522 9.00373 3.14935 9.0026 4.37129L8.99585 4.96539Z" fill="#7F828B"/>
<path d="M19.1275 7.5055V10.5857C19.1275 11.7165 19.0712 12.5457 18.9587 13.0734C18.8371 13.6174 18.5871 14.1243 18.2296 14.5519C17.851 15.0129 17.3547 15.3628 16.7933 15.5646C16.1469 15.7922 15.465 15.9025 14.7798 15.8903C14.0526 15.9066 13.327 15.8127 12.6279 15.6118C12.1013 15.464 11.6265 15.1717 11.2574 14.768C10.9229 14.3729 10.6849 13.9054 10.5621 13.4025C10.4214 12.8692 10.3517 12.0687 10.3528 11.0009V7.78061C10.3528 6.61155 10.4794 5.69847 10.7325 5.04136C10.9942 4.37412 11.4751 3.81581 12.0963 3.45824C12.7545 3.05993 13.595 2.86133 14.6178 2.86246C15.3734 2.8432 16.1253 2.9734 16.8304 3.24558C17.3348 3.4337 17.7885 3.73681 18.1553 4.13086C18.5221 4.52491 18.792 4.99905 18.9435 5.51562C19.0662 5.95107 19.1275 6.61436 19.1275 7.5055ZM15.2979 6.55698C15.2979 5.91394 15.2642 5.50719 15.195 5.3401C15.1573 5.25756 15.0947 5.18889 15.016 5.14378C14.9373 5.09867 14.8464 5.07938 14.7562 5.08862C14.6635 5.07826 14.57 5.09688 14.4883 5.14192C14.4067 5.18696 14.3411 5.2562 14.3005 5.3401C14.2245 5.50888 14.1874 5.91394 14.1874 6.55698V12.2346C14.1874 12.8287 14.2251 13.2158 14.3005 13.3958C14.3359 13.4827 14.3984 13.5558 14.4786 13.6045C14.5589 13.6531 14.6526 13.6746 14.746 13.6658C14.8375 13.6768 14.93 13.6589 15.0108 13.6148C15.0916 13.5706 15.1566 13.5023 15.1967 13.4194C15.2698 13.2563 15.3058 12.9024 15.3047 12.3578L15.2979 6.55698Z" fill="#7F828B"/>
<path d="M24.3308 0.322266V15.6657H20.3882V0.322266H24.3308Z" fill="#7F828B"/>
<path d="M29.1257 7.95958H25.5342V7.1157C25.5342 6.14129 25.6467 5.3908 25.8717 4.86422C26.0968 4.33764 26.5468 3.87181 27.2219 3.46675C27.897 3.06169 28.7752 2.85972 29.8565 2.86084C31.1527 2.86084 32.1288 3.08982 32.7848 3.54777C33.4408 4.00571 33.8346 4.5683 33.9663 5.23553C34.099 5.90276 34.1654 7.27547 34.1654 9.35367V15.6659H30.4523V14.5452C30.2571 14.9661 29.9409 15.3193 29.5441 15.5597C29.1473 15.8002 28.6879 15.9171 28.2245 15.8954C27.5671 15.8996 26.9241 15.7029 26.3814 15.3317C25.8189 14.957 25.5376 14.1345 25.5376 12.8642V11.8313C25.5376 10.8895 25.6861 10.2482 25.9831 9.90725C26.2802 9.56632 27.016 9.16802 28.1907 8.71232C29.4475 8.2195 30.1226 7.88813 30.216 7.71823C30.3055 7.54945 30.3494 7.20009 30.3494 6.67519C30.3494 6.01921 30.3004 5.59108 30.2025 5.3908C30.1608 5.29764 30.0919 5.21927 30.0049 5.16596C29.9178 5.11265 29.8167 5.0869 29.7148 5.09207C29.4549 5.09207 29.2945 5.17646 29.2304 5.34354C29.1663 5.51063 29.1359 5.94439 29.1359 6.6465L29.1257 7.95958ZM30.3392 9.67941C29.726 10.1295 29.3705 10.5053 29.2726 10.8068C29.1594 11.2332 29.11 11.674 29.1257 12.1149C29.1257 12.7652 29.1685 13.1849 29.254 13.3739C29.2989 13.4677 29.3716 13.5454 29.4622 13.5964C29.5528 13.6474 29.6569 13.6694 29.7603 13.6592C30 13.6592 30.157 13.5849 30.2295 13.4364C30.3021 13.2878 30.3392 12.898 30.3392 12.2651V9.67941Z" fill="#7F828B"/>
<path d="M39.3132 3.09701L39.163 4.75102C39.7177 3.56621 40.5228 2.93949 41.5782 2.87085V7.29617C40.8772 7.29617 40.3624 7.39068 40.0339 7.57971C39.8819 7.66025 39.749 7.77268 39.6444 7.90929C39.5399 8.0459 39.466 8.20349 39.428 8.37127C39.3526 8.70882 39.3143 9.48745 39.3132 10.7071V15.6742H35.4854V3.09701H39.3132Z" fill="#7F828B"/>
<path d="M0 17.156H2.0827V18.118H1.25401V19.0294H2.03544V19.9425H1.25401V20.999H2.17215V21.9611H0V17.156Z" fill="#7F828B"/>
<path d="M5.31478 17.156V21.9594H4.21942L3.56963 19.7754V21.9594H2.5249V17.156H3.56963L4.27005 19.318V17.156H5.31478Z" fill="#7F828B"/>
<path d="M5.81104 17.156H7.89373V18.118H7.05998V19.0294H7.83973V19.9425H7.05998V20.999H7.97643V21.9611H5.81104V17.156Z" fill="#7F828B"/>
<path d="M8.34253 17.1561H9.22523C9.62588 17.1432 10.0269 17.1658 10.4235 17.2236C10.631 17.2705 10.8124 17.3957 10.9299 17.573C11.0615 17.7587 11.1273 18.0568 11.1273 18.4675C11.1273 18.8405 11.0801 19.092 10.9873 19.2203C10.9172 19.2951 10.8321 19.3544 10.7376 19.3943C10.6431 19.4341 10.5413 19.4536 10.4387 19.4515C10.6258 19.4815 10.7993 19.5674 10.9366 19.6979C11.0105 19.779 11.0648 19.876 11.0953 19.9814C11.1257 20.217 11.1364 20.4547 11.1273 20.692V21.9595H9.96785V20.3629C9.98321 20.2011 9.96246 20.038 9.90708 19.8852C9.86489 19.8228 9.76025 19.7924 9.5881 19.7924V21.9595H8.34253V17.1561ZM9.59147 17.9781V19.0447C9.69281 19.0536 9.79459 19.0337 9.88515 18.9874C9.94253 18.948 9.97122 18.8231 9.97122 18.6127V18.3477C9.978 18.2949 9.97419 18.2413 9.95999 18.19C9.94579 18.1387 9.92149 18.0907 9.88852 18.049C9.79992 17.992 9.69453 17.967 9.58979 17.9781H9.59147Z" fill="#7F828B"/>
<path d="M14.4777 18.9232H13.2371V18.4878C13.246 18.3148 13.2341 18.1414 13.2017 17.9713C13.1867 17.9417 13.1642 17.9166 13.1363 17.8986C13.1085 17.8806 13.0764 17.8703 13.0433 17.8687C13.0101 17.8672 12.9772 17.8745 12.9478 17.8898C12.9184 17.9052 12.8936 17.9281 12.876 17.9561C12.838 18.1054 12.8238 18.2598 12.8338 18.4135V20.719C12.8257 20.8621 12.8399 21.0056 12.876 21.1443C12.8897 21.177 12.9134 21.2046 12.9437 21.2231C12.974 21.2416 13.0094 21.25 13.0447 21.2473C13.0841 21.2506 13.1235 21.2411 13.157 21.2201C13.1905 21.199 13.2163 21.1677 13.2304 21.1308C13.2724 20.9845 13.289 20.8321 13.2793 20.6802V20.1097H13.0279V19.3806H14.4895V21.9595H13.6928L13.5781 21.6219C13.5032 21.7616 13.3918 21.8783 13.2557 21.9595C13.1152 22.0366 12.9568 22.075 12.7966 22.0709C12.5905 22.0716 12.3877 22.0193 12.2076 21.919C12.0392 21.8298 11.8959 21.6998 11.7907 21.5409C11.6982 21.3973 11.6373 21.2356 11.6118 21.0667C11.5839 20.8202 11.572 20.5721 11.5764 20.3241V18.8962C11.5663 18.5615 11.5912 18.2266 11.6507 17.8971C11.7204 17.6625 11.8711 17.4604 12.076 17.3266C12.3429 17.1434 12.6623 17.0522 12.9857 17.0667C13.3045 17.0543 13.6204 17.1321 13.8971 17.2911C14.1111 17.4105 14.2774 17.6001 14.368 17.8279C14.4532 18.1198 14.4902 18.4236 14.4777 18.7274V18.9232Z" fill="#7F828B"/>
<path d="M17.6253 17.156L16.7139 20.2193V21.9594H15.5578V20.2193L14.6785 17.156H15.8261C16.005 18.0933 16.1063 18.7239 16.1299 19.048C16.1997 18.5372 16.3156 17.9065 16.4776 17.156H17.6253Z" fill="#7F828B"/>
<path d="M18.9079 17.156H20.1653C20.4293 17.1469 20.6933 17.1736 20.9501 17.2354C21.106 17.2733 21.2484 17.3533 21.3619 17.4666C21.4559 17.5698 21.5206 17.6962 21.5493 17.8328C21.5885 18.0556 21.6049 18.2818 21.5982 18.5079V18.9265C21.611 19.1555 21.5789 19.3849 21.5037 19.6016C21.4321 19.7497 21.3074 19.8653 21.1543 19.9257C20.9437 20.0074 20.7186 20.0453 20.4927 20.037H20.1552V21.9729H18.9062L18.9079 17.156ZM20.1569 17.978V19.1999H20.248C20.2919 19.2049 20.3363 19.1997 20.3779 19.1847C20.4194 19.1698 20.457 19.1456 20.4877 19.1138C20.5434 19.0058 20.5663 18.8837 20.5535 18.7628V18.3712C20.5675 18.2587 20.5405 18.1449 20.4776 18.0505C20.3822 17.9902 20.2689 17.9646 20.1569 17.978Z" fill="#7F828B"/>
<path d="M21.9577 17.1561H22.8421C23.2422 17.1432 23.6427 17.1658 24.0388 17.2236C24.2464 17.2701 24.4279 17.3954 24.5451 17.573C24.6767 17.7586 24.7426 18.0568 24.7426 18.4675C24.7426 18.8405 24.697 19.092 24.6042 19.2202C24.5337 19.2952 24.4484 19.3545 24.3536 19.3943C24.2588 19.4341 24.1567 19.4536 24.054 19.4515C24.2438 19.4806 24.4203 19.5665 24.5603 19.6979C24.6309 19.7779 24.6833 19.8724 24.7139 19.9747C24.7424 20.2104 24.7525 20.4479 24.7442 20.6852V21.9527H23.5848V20.3629C23.6001 20.2011 23.5794 20.038 23.524 19.8852C23.4835 19.8228 23.3772 19.7924 23.205 19.7924V21.9595H21.9561L21.9577 17.1561ZM23.2067 17.978V19.0447C23.3086 19.0533 23.4108 19.0334 23.5021 18.9873C23.5577 18.9485 23.5864 18.8186 23.5864 18.6126V18.3477C23.5935 18.295 23.5899 18.2414 23.576 18.1901C23.5621 18.1389 23.5381 18.0909 23.5054 18.0489C23.4166 17.9925 23.3114 17.9675 23.2067 17.978Z" fill="#7F828B"/>
<path d="M28.0895 19.9748C28.0895 20.4575 28.0782 20.799 28.0557 20.9993C28.0327 21.2029 27.9559 21.3967 27.833 21.5608C27.7102 21.7248 27.5459 21.8532 27.357 21.9326C27.1313 22.0259 26.8888 22.0713 26.6447 22.0659C26.4076 22.0694 26.1721 22.027 25.9511 21.9411C25.7603 21.8635 25.5935 21.7368 25.4678 21.5737C25.342 21.4106 25.2619 21.217 25.2355 21.0128C25.206 20.6676 25.1941 20.3212 25.2 19.9748V19.1529C25.1941 18.811 25.2054 18.4691 25.2338 18.1284C25.2559 17.9245 25.3324 17.7303 25.4554 17.5661C25.5783 17.4019 25.7431 17.2737 25.9325 17.1951C26.1581 17.1017 26.4006 17.0562 26.6447 17.0617C26.8815 17.058 27.1166 17.101 27.3367 17.1883C27.5281 17.2647 27.6955 17.3909 27.8217 17.5538C27.9478 17.7168 28.028 17.9105 28.054 18.1149C28.0835 18.46 28.0953 18.8065 28.0895 19.1529V19.9748ZM26.8405 18.3967C26.8485 18.2528 26.836 18.1085 26.8034 17.9681C26.7914 17.9379 26.7699 17.9126 26.7422 17.8958C26.7145 17.8791 26.682 17.8718 26.6498 17.8752C26.6205 17.8735 26.5912 17.8794 26.5648 17.8924C26.5385 17.9054 26.516 17.9251 26.4996 17.9495C26.4521 18.0935 26.4348 18.2458 26.449 18.3967V20.633C26.4396 20.8059 26.4509 20.9793 26.4827 21.1495C26.4943 21.1813 26.5162 21.2083 26.545 21.226C26.5738 21.2438 26.6078 21.2513 26.6414 21.2474C26.6784 21.2519 26.7158 21.243 26.7468 21.2223C26.7778 21.2015 26.8003 21.1703 26.8101 21.1343C26.8421 20.9573 26.854 20.7773 26.8456 20.5976L26.8405 18.3967Z" fill="#7F828B"/>
<path d="M30.0777 17.1561V20.3629C30.0777 20.8422 30.0726 21.151 30.0625 21.2894C30.0538 21.4241 30.007 21.5534 29.9275 21.6624C29.8466 21.7729 29.7315 21.8536 29.6001 21.892C29.397 21.942 29.188 21.9636 28.979 21.9561H28.3545V21.1122C28.4288 21.1122 28.4844 21.1207 28.5233 21.1207C28.599 21.1249 28.6737 21.1022 28.7342 21.0565C28.7596 21.0358 28.7806 21.0101 28.796 20.9812C28.8113 20.9522 28.8208 20.9204 28.8237 20.8877C28.8341 20.7654 28.8381 20.6426 28.8355 20.5198V17.1443L30.0777 17.1561Z" fill="#7F828B"/>
<path d="M30.562 17.156H32.6464V18.118H31.8126V19.0294H32.5924V19.9425H31.8126V20.999H32.7291V21.9611H30.562V17.156Z" fill="#7F828B"/>
<path d="M36.0018 19.2472H34.7529V18.4033C34.7622 18.2509 34.7491 18.0979 34.714 17.9493C34.6982 17.9191 34.6737 17.8944 34.6435 17.8784C34.6134 17.8624 34.5791 17.856 34.5453 17.8598C34.5051 17.8537 34.464 17.8611 34.4285 17.881C34.393 17.9009 34.3652 17.932 34.3495 17.9695C34.3131 18.1248 34.2989 18.2845 34.3073 18.4438V20.6835C34.2989 20.8366 34.3132 20.9902 34.3495 21.1392C34.3681 21.1718 34.3949 21.1989 34.4274 21.2178C34.4599 21.2367 34.4967 21.2466 34.5343 21.2466C34.5718 21.2466 34.6087 21.2367 34.6412 21.2178C34.6736 21.1989 34.7005 21.1718 34.7191 21.1392C34.7577 20.9733 34.7719 20.8028 34.7613 20.6328V20.0303H36.0102V20.2177C36.0268 20.573 35.9915 20.929 35.9056 21.2742C35.8174 21.5095 35.6496 21.7065 35.4313 21.8312C35.165 21.9951 34.8561 22.0767 34.5436 22.0658C34.2296 22.0777 33.9178 22.0097 33.6372 21.8683C33.4152 21.7517 33.2465 21.554 33.1664 21.3164C33.0751 20.972 33.0358 20.6159 33.0499 20.2598V18.8556C33.0455 18.5958 33.0574 18.3359 33.0853 18.0776C33.1122 17.8935 33.1854 17.7193 33.298 17.5712C33.4247 17.404 33.5936 17.2735 33.7875 17.1932C34.0492 17.0904 34.3297 17.044 34.6106 17.0568C34.8915 17.0696 35.1665 17.1413 35.4178 17.2674C35.6332 17.3834 35.8005 17.5717 35.8904 17.7991C35.9786 18.1221 36.0161 18.4569 36.0018 18.7915V19.2472Z" fill="#7F828B"/>
<path d="M38.9654 17.156V18.118H38.2245V21.9611H36.9756V18.118H36.2363V17.156H38.9654Z" fill="#7F828B"/>
<path d="M41.8971 18.6092H40.7376V18.2531C40.7471 18.1454 40.7321 18.0369 40.6937 17.9358C40.6767 17.9129 40.6541 17.8947 40.6282 17.8829C40.6022 17.8711 40.5736 17.8661 40.5452 17.8683C40.5115 17.8669 40.478 17.8746 40.4483 17.8906C40.4185 17.9067 40.3937 17.9304 40.3764 17.9594C40.3317 18.0451 40.3113 18.1414 40.3173 18.2379C40.3102 18.3624 40.3328 18.4868 40.3832 18.6008C40.4745 18.7265 40.5957 18.8274 40.7359 18.8945C41.2912 19.232 41.6422 19.4953 41.7857 19.7063C41.9292 19.9172 42.0034 20.2599 42.0034 20.7307C42.018 20.9885 41.9772 21.2463 41.8836 21.4869C41.7783 21.6712 41.6143 21.815 41.4178 21.8953C41.1672 22.011 40.8937 22.0687 40.6178 22.0641C40.3213 22.0729 40.0272 22.008 39.7621 21.8751C39.5525 21.777 39.387 21.6043 39.2979 21.3907C39.2135 21.1212 39.1764 20.8391 39.1882 20.5569V20.243H40.3477V20.8185C40.3375 20.9366 40.3542 21.0555 40.3967 21.1662C40.4157 21.1926 40.4413 21.2136 40.4709 21.2272C40.5004 21.2408 40.533 21.2465 40.5654 21.2438C40.6008 21.2461 40.6362 21.2393 40.6681 21.2239C40.7 21.2085 40.7275 21.1851 40.7477 21.1561C40.7939 21.066 40.8149 20.9651 40.8085 20.8641C40.8085 20.5822 40.7697 20.3966 40.692 20.3105C40.5124 20.1457 40.3168 19.9992 40.1081 19.8734C39.8927 19.7378 39.6864 19.5884 39.4903 19.4261C39.379 19.3178 39.2936 19.1856 39.2405 19.0396C39.1673 18.8387 39.1335 18.6255 39.141 18.4118C39.1235 18.1356 39.1715 17.8591 39.2811 17.605C39.3855 17.4257 39.5454 17.2853 39.7368 17.205C39.9766 17.103 40.2357 17.0541 40.4962 17.0615C40.7805 17.0537 41.0632 17.1072 41.3249 17.2185C41.5192 17.2915 41.6805 17.4324 41.7789 17.6151C41.8692 17.8752 41.907 18.1505 41.8903 18.4253L41.8971 18.6092Z" fill="#7F828B"/>
</g>
<defs>
<clipPath id="clip0_4409_228">
<rect width="42" height="22.0608" fill="white"/>
</clipPath>
</defs>
</svg>
