<svg width="111" height="18" viewBox="0 0 111 18" fill="none" xmlns="http://www.w3.org/2000/svg">
<path d="M35.4706 1.60061H29.3277V3.13634H33.8375C34.746 3.13634 35.4706 3.87174 35.4706 4.76939V6.11044C35.4706 7.0189 34.746 7.74349 33.8375 7.74349H27.792V6.20776H33.9349V4.67203H29.425C28.5166 4.67203 27.792 3.93663 27.792 3.03899V1.69794C27.792 0.78949 28.5166 0.0648892 29.425 0.0648892H35.4706V1.60061ZM42.9171 0.0648892C43.8255 0.0648892 44.5612 0.78949 44.5612 1.69794V6.11044C44.5612 7.0189 43.8255 7.74349 42.9171 7.74349H38.1911C37.2826 7.74349 36.5579 7.0189 36.5579 6.11044V1.69794C36.5579 0.78949 37.2826 0.0648892 38.1911 0.0648892H42.9171ZM43.0145 1.60061H38.0937V6.20776H43.0145V1.60061ZM47.2957 6.15368H53.2871V7.80838H46.7008C46.1166 7.80838 45.6409 7.33251 45.6409 6.74852V0H47.2957V6.15368ZM61.0375 0.0648892C61.7728 0.0648892 62.3677 0.648895 62.3677 1.38431V7.74349H60.821V5.2236H55.9002V7.74349H54.3644V1.38431C54.3644 0.648895 54.9486 0.0648892 55.684 0.0648892H61.0375ZM60.821 1.60061H55.9002V3.68787H60.821V1.60061ZM69.9039 0.0648892H71.4506V6.74852C71.4506 7.30008 70.9962 7.74349 70.4447 7.74349H69.255C68.8766 7.7543 68.5413 7.54881 68.3681 7.21354L65.3834 1.60061H64.9831V7.74349H63.4473V1.07068C63.4473 0.508301 63.8907 0.0648892 64.4426 0.0648892H65.6971C66.0647 0.0648892 66.4107 0.259559 66.5839 0.594819L69.5686 6.20776H69.9039V0.0648892ZM79.203 0.0648892C79.9386 0.0648892 80.5332 0.648895 80.5332 1.38431V7.74349H78.9868V5.2236H74.066V7.74349H72.5303V1.38431C72.5303 0.648895 73.1145 0.0648892 73.8498 0.0648892H79.203ZM78.9868 1.60061H74.066V3.68787H78.9868V1.60061ZM35.3192 11.6097H29.3277V13.1454H35.3192V14.6811H29.3277V17.7526H27.792V10.074H35.3192V11.6097ZM42.7589 10.074C43.6671 10.074 44.4027 10.7986 44.4027 11.707V16.1195C44.4027 17.028 43.6671 17.7526 42.7589 17.7526H38.0326C37.1241 17.7526 36.3995 17.028 36.3995 16.1195V11.707C36.3995 10.7986 37.1241 10.074 38.0326 10.074H42.7589ZM42.856 11.6097H37.9352V16.2168H42.856V11.6097ZM51.9389 10.074H53.4853V15.1786C53.4746 16.6062 52.3283 17.7526 50.9006 17.7526H48.0564C46.6288 17.7526 45.4824 16.6062 45.4824 15.1786V10.074H47.0181V14.865C47.0181 15.6112 47.6237 16.2168 48.37 16.2168H50.587C51.3334 16.2168 51.9389 15.6112 51.9389 14.865V10.074ZM61.0218 10.074H62.5682V16.7576C62.5682 17.3092 62.1141 17.7526 61.5626 17.7526H60.3729C59.9942 17.7634 59.6592 17.5579 59.4861 17.2226L56.501 11.6097H56.101V17.7526H54.5653V11.0797C54.5653 10.5174 55.0087 10.074 55.5602 10.074H56.8147C57.1823 10.074 57.5286 10.2686 57.7015 10.6039L60.6865 16.2168H61.0218V10.074ZM69.0664 10.074C70.4941 10.074 71.6404 11.2312 71.6511 12.6479V15.1786C71.6404 16.6062 70.4941 17.7526 69.0664 17.7526H63.6482V10.074H69.0664ZM70.1047 12.9724C70.1047 12.2153 69.4988 11.6097 68.7528 11.6097H65.1839V16.2168H68.7528C69.4988 16.2168 70.1047 15.6112 70.1047 14.865V12.9724ZM79.4038 10.074C80.1392 10.074 80.734 10.658 80.734 11.3934V17.7526H79.1876V15.2327H74.2668V17.7526H72.7311V11.3934C72.7311 10.658 73.315 10.074 74.0503 10.074H79.4038ZM79.1876 11.6097H74.2668V13.697H79.1876V11.6097ZM81.8137 10.074H89.4923V11.6097H86.4209V17.7526H84.8851V11.6097H81.8137V10.074ZM92.1157 17.7526H90.58V10.074H92.1157V17.7526ZM99.5581 10.074C100.467 10.074 101.202 10.7986 101.202 11.707V16.1195C101.202 17.028 100.467 17.7526 99.5581 17.7526H94.8322C93.9237 17.7526 93.199 17.028 93.199 16.1195V11.707C93.199 10.7986 93.9237 10.074 94.8322 10.074H99.5581ZM99.6555 11.6097H94.7347V16.2168H99.6555V11.6097ZM108.738 10.074H110.285V16.7576C110.285 17.3092 109.831 17.7526 109.279 17.7526H108.09C107.711 17.7634 107.376 17.5579 107.203 17.2226L104.218 11.6097H103.818V17.7526H102.282V11.0797C102.282 10.5174 102.725 10.074 103.277 10.074H104.531C104.899 10.074 105.245 10.2686 105.418 10.6039L108.403 16.2168H108.738V10.074Z" fill="#7F828B"/>
<mask id="mask0_4137_12166" style="mask-type:luminance" maskUnits="userSpaceOnUse" x="0" y="0" width="20" height="18">
<path d="M19.8292 0.233154H0V17.9995H19.8292V0.233154Z" fill="white"/>
</mask>
<g mask="url(#mask0_4137_12166)">
<path d="M19.727 14.2407L16.4536 17.7576C16.3825 17.834 16.2964 17.8949 16.2007 17.9365C16.105 17.9782 16.0019 17.9996 15.8975 17.9995H0.380018C0.305976 17.9995 0.233547 17.9779 0.17163 17.9372C0.109714 17.8965 0.061007 17.8386 0.0314942 17.7706C0.0019814 17.7025 -0.00705174 17.6274 0.00550469 17.5543C0.0180611 17.4812 0.0516602 17.4133 0.102173 17.3591L3.37803 13.8422C3.449 13.766 3.53484 13.7052 3.63019 13.6636C3.72555 13.622 3.82844 13.6004 3.93247 13.6003H19.4492C19.5232 13.6003 19.5956 13.6219 19.6575 13.6626C19.7194 13.7033 19.7681 13.7612 19.7977 13.8292C19.8272 13.8972 19.8362 13.9724 19.8237 14.0455C19.8111 14.1186 19.7775 14.1865 19.727 14.2407ZM16.4536 7.15867C16.3825 7.08227 16.2964 7.02135 16.2007 6.97971C16.105 6.93811 16.0019 6.91665 15.8975 6.91669H0.380018C0.305976 6.91669 0.233547 6.93837 0.17163 6.97904C0.109714 7.01971 0.061007 7.07763 0.0314942 7.14566C0.0019814 7.21369 -0.00705174 7.28886 0.00550469 7.36196C0.0180611 7.43506 0.0516602 7.50292 0.102173 7.55713L3.37803 11.074C3.449 11.1502 3.53484 11.211 3.63019 11.2526C3.72555 11.2943 3.82844 11.3158 3.93247 11.316H19.4492C19.5232 11.316 19.5956 11.2943 19.6575 11.2537C19.7194 11.213 19.7681 11.1551 19.7977 11.087C19.8272 11.019 19.8362 10.9438 19.8237 10.8707C19.8111 10.7976 19.7775 10.7298 19.727 10.6756L16.4536 7.15867ZM0.380018 4.63245H15.8975C16.0019 4.63251 16.105 4.61106 16.2007 4.56942C16.2964 4.52779 16.3825 4.4669 16.4536 4.39049L19.727 0.873589C19.7775 0.819356 19.8111 0.751525 19.8237 0.678425C19.8362 0.605325 19.8272 0.53014 19.7977 0.462115C19.7681 0.394087 19.7194 0.336178 19.6575 0.295501C19.5956 0.254827 19.5232 0.233158 19.4492 0.233154H3.93247C3.82844 0.233331 3.72555 0.254897 3.63019 0.296515C3.53484 0.338136 3.449 0.398925 3.37803 0.475114L0.103018 3.992C0.0525534 4.04618 0.0189692 4.11394 0.00638429 4.18698C-0.00620063 4.26001 0.00276084 4.33511 0.0321697 4.40311C0.0615785 4.4711 0.110156 4.52902 0.171945 4.56976C0.233734 4.61049 0.306048 4.63228 0.380018 4.63245Z" fill="#7F828B"/>
</g>
</svg>
