<svg width="135" height="20" viewBox="0 0 135 20" fill="none" xmlns="http://www.w3.org/2000/svg">
<mask id="mask0_31_2733" style="mask-type:luminance" maskUnits="userSpaceOnUse" x="0" y="0" width="135" height="20">
<path d="M134.583 0H0V20H134.583V0Z" fill="white"/>
</mask>
<g mask="url(#mask0_31_2733)">
<path d="M22.6103 15.7688L18.9187 19.7272C18.8388 19.8131 18.7421 19.8818 18.6346 19.9287C18.5271 19.9757 18.411 20 18.2937 20.0001H0.793671C0.710206 20 0.628564 19.9757 0.558744 19.9299C0.488925 19.8842 0.433958 19.8191 0.400573 19.7426C0.367187 19.6661 0.356833 19.5815 0.370779 19.4992C0.384725 19.4169 0.422362 19.3405 0.479087 19.2792L4.16659 15.3209C4.24644 15.235 4.34313 15.1663 4.45067 15.1194C4.55819 15.0724 4.67425 15.0481 4.79159 15.048H22.2916C22.3758 15.0463 22.4587 15.0695 22.5297 15.1147C22.6008 15.16 22.657 15.2252 22.691 15.3023C22.7251 15.3793 22.7355 15.4647 22.7212 15.5478C22.7068 15.6308 22.6683 15.7077 22.6103 15.7688ZM18.9187 7.79591C18.8385 7.71033 18.7418 7.642 18.6343 7.59506C18.5268 7.54814 18.4109 7.52362 18.2937 7.52302H0.793671C0.710206 7.52306 0.628564 7.54743 0.558744 7.59318C0.488925 7.63891 0.433958 7.70402 0.400573 7.78052C0.367187 7.85702 0.356833 7.94158 0.370779 8.02387C0.384725 8.10616 0.422362 8.18262 0.479087 8.24385L4.16659 12.2043C4.24673 12.2899 4.3435 12.3582 4.45096 12.4051C4.55842 12.452 4.67434 12.4766 4.79159 12.4772H22.2916C22.3749 12.4767 22.4562 12.452 22.5258 12.4062C22.5953 12.3603 22.6499 12.2951 22.683 12.2187C22.7162 12.1423 22.7264 12.0579 22.7122 11.9758C22.6983 11.8937 22.6608 11.8174 22.6041 11.7564L18.9187 7.79591ZM0.793671 4.95216H18.2937C18.411 4.95206 18.5271 4.92775 18.6346 4.88079C18.7421 4.83385 18.8388 4.76523 18.9187 4.67925L22.6103 0.720925C22.6683 0.659783 22.7068 0.582864 22.7212 0.499845C22.7355 0.416827 22.7251 0.331416 22.691 0.254362C22.657 0.177308 22.6008 0.112053 22.5297 0.066809C22.4587 0.0215644 22.3758 -0.00164852 22.2916 9.10838e-05H4.79159C4.67425 0.000214592 4.55819 0.0245115 4.45067 0.0714669C4.34313 0.118422 4.24644 0.187029 4.16659 0.273008L0.479087 4.23133C0.422362 4.29256 0.384725 4.36902 0.370779 4.45131C0.356833 4.5336 0.367187 4.61816 0.400573 4.69466C0.433958 4.77116 0.488925 4.83627 0.558744 4.882C0.628564 4.92775 0.710206 4.95212 0.793671 4.95216Z" fill="url(#paint0_linear_31_2733)"/>
<path d="M43.946 8.45822H34.5835V5.37488H46.3793V2.29155H34.5522C34.1481 2.28936 33.7477 2.36678 33.3735 2.51938C32.9993 2.67201 32.6587 2.89682 32.3716 3.18101C32.0843 3.46519 31.8558 3.80319 31.6991 4.17567C31.5425 4.54817 31.4606 4.94788 31.4585 5.35197V8.47697C31.4602 8.8814 31.5414 9.28157 31.6979 9.65453C31.8543 10.0275 32.0827 10.366 32.37 10.6506C32.6575 10.9353 32.9981 11.1604 33.3725 11.3133C33.7468 11.4662 34.1479 11.5438 34.5522 11.5415H43.9272V14.6249H31.6814V17.7082H43.946C44.3502 17.7104 44.7506 17.633 45.1247 17.4804C45.4989 17.3278 45.8395 17.1029 46.1266 16.8188C46.4139 16.5346 46.6425 16.1966 46.7991 15.8241C46.9558 15.4516 47.0377 15.0519 47.0397 14.6478V11.5228C47.0381 11.1184 46.9568 10.7182 46.8004 10.3452C46.6439 9.97226 46.4156 9.63378 46.1283 9.34915C45.8408 9.06453 45.5002 8.83934 45.1258 8.68647C44.7514 8.53359 44.3504 8.45603 43.946 8.45822Z" fill="black"/>
<path d="M62.0835 2.29161H52.6856C52.2808 2.28831 51.8793 2.36492 51.5041 2.51704C51.1291 2.66917 50.7877 2.89379 50.4995 3.17811C50.2112 3.4624 49.982 3.80075 49.825 4.17379C49.6677 4.54683 49.5856 4.94723 49.5835 5.35202V14.6479C49.5856 15.0526 49.6677 15.453 49.825 15.8261C49.982 16.1991 50.2112 16.5375 50.4995 16.8218C50.7877 17.1061 51.1291 17.3307 51.5041 17.4828C51.8793 17.635 52.2808 17.7116 52.6856 17.7083H62.0835C62.4877 17.7105 62.8881 17.633 63.2622 17.4804C63.6364 17.3278 63.977 17.103 64.2641 16.8188C64.5514 16.5346 64.78 16.1966 64.9366 15.8241C65.0933 15.4516 65.1752 15.0519 65.1772 14.6479V5.35202C65.1752 4.94794 65.0933 4.54823 64.9366 4.17573C64.78 3.80325 64.5514 3.46525 64.2641 3.18106C63.977 2.89688 63.6364 2.67206 63.2622 2.51944C62.8881 2.36683 62.4877 2.28942 62.0835 2.29161ZM62.0606 14.6249H52.7085V5.37494H62.0564L62.0606 14.6249Z" fill="black"/>
<path d="M94.9992 2.29173H85.8325C85.4284 2.28954 85.0279 2.36696 84.6538 2.51957C84.2796 2.67219 83.939 2.897 83.6519 3.18119C83.3646 3.46538 83.1361 3.80338 82.9794 4.17586C82.8227 4.54836 82.7409 4.94806 82.7388 5.35215V17.7084H85.8638V12.6438H94.9888V17.7084H98.1138V5.35215C98.1117 4.94629 98.0292 4.54488 97.8713 4.171C97.7131 3.79715 97.4829 3.45823 97.1934 3.17375C96.904 2.88929 96.5611 2.66492 96.1844 2.51354C95.8077 2.36217 95.405 2.28679 94.9992 2.29173ZM94.9763 9.56048H85.8513V5.37506H94.9763V9.56048Z" fill="black"/>
<path d="M131.489 2.29155H122.322C121.918 2.28936 121.518 2.36678 121.144 2.51938C120.769 2.67201 120.429 2.89682 120.142 3.18101C119.854 3.46519 119.626 3.80319 119.469 4.17567C119.312 4.54817 119.231 4.94788 119.229 5.35197V17.7082H122.354V12.6436H131.458V17.7082H134.583V5.35197C134.581 4.94788 134.499 4.54817 134.342 4.17567C134.185 3.80319 133.957 3.46519 133.67 3.18101C133.382 2.89682 133.042 2.67201 132.668 2.51938C132.294 2.36678 131.893 2.28936 131.489 2.29155ZM131.458 9.5603H122.333V5.37488H131.458V9.5603Z" fill="black"/>
<path d="M113.333 14.6249H112.083L107.614 3.5832C107.461 3.20226 107.198 2.87578 106.858 2.64566C106.518 2.41551 106.117 2.2922 105.706 2.29153H102.933C102.664 2.29016 102.396 2.34188 102.147 2.44374C101.897 2.54561 101.671 2.69561 101.479 2.8852C101.287 3.0748 101.135 3.30024 101.031 3.5487C100.926 3.79713 100.872 4.06372 100.871 4.3332V17.7082H103.996V5.37486H105.246L109.712 16.4165C109.868 16.7967 110.134 17.1219 110.475 17.3505C110.816 17.5791 111.218 17.7007 111.629 17.6999H114.402C114.671 17.7012 114.939 17.6495 115.188 17.5477C115.437 17.4458 115.664 17.2958 115.856 17.1062C116.047 16.9166 116.2 16.6912 116.304 16.4427C116.409 16.1943 116.463 15.9277 116.464 15.6582V2.29153H113.333V14.6249Z" fill="black"/>
<path d="M71.0615 2.2915H67.9365V14.6478C67.9386 15.0527 68.0209 15.4533 68.1782 15.8265C68.3355 16.1996 68.5649 16.5381 68.8532 16.8224C69.1415 17.1068 69.4834 17.3313 69.8586 17.4833C70.234 17.6353 70.6357 17.7117 71.0407 17.7082H80.4157V14.6248H71.0615V2.2915Z" fill="black"/>
</g>
<defs>
<linearGradient id="paint0_linear_31_2733" x1="2.252" y1="20.4772" x2="20.602" y2="-0.210326" gradientUnits="userSpaceOnUse">
<stop offset="0.08" stop-color="#9945FF"/>
<stop offset="0.3" stop-color="#8752F3"/>
<stop offset="0.5" stop-color="#5497D5"/>
<stop offset="0.6" stop-color="#43B4CA"/>
<stop offset="0.72" stop-color="#28E0B9"/>
<stop offset="0.97" stop-color="#19FB9B"/>
</linearGradient>
</defs>
</svg>
