<svg width="74" height="18" viewBox="0 0 74 18" fill="none" xmlns="http://www.w3.org/2000/svg">
<g clip-path="url(#clip0_4528_8615)">
<path d="M12.1156 0.00521571C11.6542 0.749754 11.2417 1.41215 10.8345 2.07279C9.66347 3.9621 8.50647 5.86015 7.31626 7.73723C6.81291 8.52721 7.28305 9.20533 7.92272 9.31019C8.44705 9.39933 8.79659 9.12494 9.06749 8.68975C10.1499 6.93385 11.2364 5.18086 12.327 3.43079C12.9702 2.39263 13.6186 1.35971 14.2495 0.314564C14.2998 0.21211 14.3796 0.127058 14.4787 0.0703667C14.5778 0.0136749 14.6915 -0.0120615 14.8053 -0.0035262C16.5234 0.00870799 18.2396 0.0139512 19.9577 -0.0035262C21.1811 -0.0140127 22.0724 1.17445 21.3174 2.39263C18.2711 7.30728 15.2475 12.2359 12.2047 17.1523C11.5056 18.2866 10.0917 18.2639 9.37859 17.1523C9.29482 17.046 9.24927 16.9145 9.24927 16.7792C9.24927 16.6438 9.29482 16.5124 9.37859 16.406C11.1193 13.6201 12.8514 10.8302 14.5746 8.03609C14.6358 7.93822 14.7005 7.84034 14.7494 7.73898C15.0325 7.23038 14.9364 6.73926 14.496 6.43341C14.2849 6.28575 14.0254 6.22416 13.7705 6.26118C13.5156 6.2982 13.2844 6.43105 13.124 6.63265C13.0181 6.77099 12.9217 6.91638 12.8356 7.06784C11.2964 9.54963 9.75785 12.0314 8.21984 14.5132C8.16041 14.6111 8.09225 14.702 7.99962 14.8401C7.92265 14.7506 7.85032 14.6573 7.7829 14.5604C5.30344 10.5301 2.82223 6.49982 0.339267 2.46953C0.00370052 1.92773 -0.134369 1.37195 0.19945 0.78995C0.533269 0.207952 1.06458 0.00521571 1.706 0.00521571H12.1225H12.1156Z" fill="#151617"/>
<path d="M71.0122 10.4445L73.141 13.0084L73.2791 13.1832C73.8244 13.8386 73.8471 14.3664 73.349 14.7789C72.8509 15.1913 72.0801 15.0673 71.6012 14.4975C70.7011 13.4139 69.7993 12.3303 68.9237 11.2257C68.8257 11.0774 68.6896 10.9583 68.5297 10.8808C68.3698 10.8033 68.1919 10.7703 68.0149 10.7853C67.3053 10.8202 66.5905 10.7853 65.8267 10.7853C65.8145 10.9601 65.7952 11.1069 65.7952 11.2572C65.7952 12.1136 65.7952 12.9717 65.7952 13.8281C65.7952 14.5639 65.367 15.0148 64.6976 15.0061C64.0283 14.9973 63.6141 14.5517 63.6123 13.8508C63.6123 10.642 63.6123 7.43195 63.6123 4.22077C63.6123 3.56012 63.9444 3.09697 64.5701 3.09697C66.587 3.09697 68.6248 2.99385 70.6155 3.24552C73.0728 3.55662 74.326 5.73955 73.6094 8.03259C73.2826 9.08124 72.545 9.73664 71.5663 10.1631C71.3915 10.2382 71.2167 10.3029 71.0419 10.3746C71.0385 10.3816 71.035 10.399 71.0122 10.4445ZM65.8407 5.02647V8.95191C66.344 8.95191 66.8089 8.96239 67.2738 8.95191C68.1162 8.93268 68.9639 8.9519 69.7976 8.85752C70.7571 8.74392 71.395 8.12347 71.5453 7.32825C71.7585 6.12929 71.0891 5.15231 69.7976 5.05618C68.506 4.96005 67.1864 5.02647 65.8407 5.02647Z" fill="#151617"/>
<path d="M44.1598 2.89949C44.441 2.88505 44.7196 2.95882 44.9568 3.11048C45.194 3.26214 45.3779 3.48412 45.4828 3.7454C47.0278 7.02533 48.5705 10.3076 50.1109 13.5922C50.2233 13.791 50.2582 14.0243 50.2089 14.2473C50.1595 14.4703 50.0293 14.6671 49.8435 14.7999C49.6482 14.941 49.4123 15.0148 49.1714 15.0101C48.9305 15.0054 48.6977 14.9224 48.5082 14.7737C48.349 14.6247 48.2196 14.4468 48.1272 14.2493C47.8283 13.6359 47.5382 13.0259 47.276 12.388C47.2428 12.2794 47.1715 12.1864 47.0751 12.1264C46.9787 12.0663 46.8638 12.0431 46.7517 12.0612C44.976 12.0728 43.2014 12.0728 41.4281 12.0612C41.3157 12.0455 41.2015 12.0701 41.1056 12.1305C41.0096 12.191 40.9381 12.2834 40.9037 12.3915C40.6189 13.0591 40.3148 13.7163 40.0037 14.3717C39.8923 14.6207 39.6914 14.8188 39.4408 14.9266C39.1903 15.0344 38.9083 15.0441 38.6509 14.9537C38.0812 14.7789 37.8522 14.1742 38.1371 13.5695C39.004 11.7169 39.8738 9.86542 40.7465 8.01514C41.4071 6.61345 42.0666 5.2135 42.7249 3.81531C42.8352 3.52966 43.034 3.28675 43.2921 3.122C43.5502 2.95725 43.8542 2.87929 44.1598 2.89949ZM46.2763 10.1998C45.537 8.58315 44.8309 7.0364 44.0916 5.41275L41.9104 10.1998H46.2763Z" fill="#151617"/>
<path d="M31.5815 12.2814C32.2561 10.6874 32.8993 9.16339 33.5442 7.6411C34.0907 6.34661 34.6394 5.05094 35.1906 3.75412C35.4352 3.18086 35.839 2.93792 36.414 3.00259C37.1131 3.07949 37.5203 3.6912 37.2669 4.35185C37.0921 4.79752 36.8824 5.22572 36.6866 5.66615C35.4318 8.49051 34.1699 11.3131 32.9237 14.141C32.6563 14.7509 32.2404 15.1005 31.5623 15.104C30.8841 15.1075 30.4629 14.7736 30.1903 14.1602C28.7921 10.988 27.3677 7.82286 25.9537 4.65595C25.6199 3.90617 25.779 3.33466 26.3819 3.08299C27.0391 2.79985 27.7085 3.09522 28.0108 3.81529C29.1294 6.47652 30.2456 9.1395 31.3595 11.8042C31.4224 11.9283 31.4836 12.0594 31.5815 12.2814Z" fill="#151617"/>
<path d="M54.7798 13.0452H60.0859C60.2745 13.0369 60.4635 13.0463 60.6504 13.0732C60.8676 13.1107 61.0642 13.2247 61.2046 13.3947C61.345 13.5646 61.42 13.7791 61.4159 13.9995C61.4175 14.2197 61.3377 14.4328 61.192 14.5979C61.0462 14.763 60.8447 14.8685 60.626 14.8943C60.4527 14.9234 60.2773 14.9374 60.1016 14.9363C58.0789 14.9363 56.0574 14.9363 54.037 14.9363C52.9464 14.9363 52.5898 14.5867 52.5898 13.5136C52.5898 10.3898 52.5898 7.26718 52.5898 4.14571C52.5898 3.42738 53.0373 2.97297 53.7119 2.98345C54.3516 2.99394 54.7693 3.42913 54.771 4.10551C54.771 6.8949 54.771 9.68372 54.771 12.472L54.7798 13.0452Z" fill="#151617"/>
</g>
<defs>
<clipPath id="clip0_4528_8615">
<rect width="73.8142" height="18" fill="white"/>
</clipPath>
</defs>
</svg>
